0
SECTION
2
HEADER
9
$ACADVER
1
AC1009
9
$EXTMIN
10
0.000000
20
0.000000
30
-47.000000
9
$EXTMAX
10
375.000000
20
375.000000
30
62.000000
0
ENDSEC
0
SECTION
2
ENTITIES
0
POLYLINE
100
AcDbEntity
8
1
62
4
100
AcDb3dPolyline
66
1
10
0.000000
20
0.000000
30
0.000000
70
8
0
VERTEX
100
AcDbEntity
8
1
100
AcDbVertex
100
AcDb3dPolylineVertex
10
328.000000
20
0.004177
30
1.941824
70
32
0
VERTEX
100
AcDbEntity
8
1
100
AcDbVertex
100
AcDb3dPolylineVertex
10
328.000000
20
0.002479
30
1.939558
70
32
0
VERTEX
100
AcDbEntity
8
1
100
AcDbVertex
100
AcDb3dPolylineVertex
10
328.000000
20
0.001036
30
1.937250
70
32
0
VERTEX
100
AcDbEntity
8
1
100
AcDbVertex
100
AcDb3dPolylineVertex
10
328.000000
20
-0.000118
30
1.934955
70
32
0
VERTEX
100
AcDbEntity
8
1
100
AcDbVertex
100
AcDb3dPolylineVertex
10
328.000000
20
-0.000957
30
1.932728
70
32
0
VERTEX
100
AcDbEntity
8
1
100
AcDbVertex
100
AcDb3dPolylineVertex
10
328.000000
20
-0.001460
30
1.930620
70
32
0
VERTEX
100
AcDbEntity
8
1
100
AcDbVertex
100
AcDb3dPolylineVertex
10
328.000000
20
-0.001616
30
1.928682
70
32
0
VERTEX
100
AcDbEntity
8
1
100
AcDbVertex
100
AcDb3dPolylineVertex
10
328.000000
20
-0.001420
30
1.926960
70
32
0
VERTEX
100
AcDbEntity
8
1
100
AcDbVertex
100
AcDb3dPolylineVertex
10
328.000000
20
-0.000877
30
1.925494
70
32
0
VERTEX
100
AcDbEntity
8
1
100
AcDbVertex
100
AcDb3dPolylineVertex
10
328.000000
20
-0.000000
30
1.924320
70
32
0
VERTEX
100
AcDbEntity
8
1
100
AcDbVertex
100
AcDb3dPolylineVertex
10
328.000000
20
0.001190
30
1.923465
70
32
0
VERTEX
100
AcDbEntity
8
1
100
AcDbVertex
100
AcDb3dPolylineVertex
10
328.000000
20
0.002665
30
1.922949
70
32
0
VERTEX
100
AcDbEntity
8
1
100
AcDbVertex
100
AcDb3dPolylineVertex
10
328.000000
20
0.004391
30
1.922784
70
32
0
VERTEX
100
AcDbEntity
8
1
100
AcDbVertex
100
AcDb3dPolylineVertex
10
328.000000
20
0.006326
30
1.922975
70
32
0
VERTEX
100
AcDbEntity
8
1
100
AcDbVertex
100
AcDb3dPolylineVertex
10
328.000000
20
0.008424
30
1.923518
70
32
0
VERTEX
100
AcDbEntity
8
1
100
AcDbVertex
100
AcDb3dPolylineVertex
10
328.000000
20
0.010636
30
1.924398
70
32
0
VERTEX
100
AcDbEntity
8
1
100
AcDbVertex
100
AcDb3dPolylineVertex
10
328.000000
20
0.012910
30
1.925595
70
32
0
VERTEX
100
AcDbEntity
8
1
100
AcDbVertex
100
AcDb3dPolylineVertex
10
328.000000
20
0.015191
30
1.927082
70
32
0
VERTEX
100
AcDbEntity
8
1
100
AcDbVertex
100
AcDb3dPolylineVertex
10
328.000000
20
0.017426
30
1.928822
70
32
0
SEQEND
100
AcDbEntity
8
1
0
POLYLINE
100
AcDbEntity
8
1
62
3
100
AcDb3dPolyline
66
1
10
0.000000
20
0.000000
30
0.000000
70
8
0
VERTEX
100
AcDbEntity
8
1
100
AcDbVertex
100
AcDb3dPolylineVertex
10
328.000000
20
0.017426
30
1.928822
70
32
0
VERTEX
100
AcDbEntity
8
1
100
AcDbVertex
100
AcDb3dPolylineVertex
10
327.999995
20
0.056774
30
1.962120
70
32
0
VERTEX
100
AcDbEntity
8
1
100
AcDbVertex
100
AcDb3dPolylineVertex
10
327.999977
20
0.123689
30
2.018983
70
32
0
VERTEX
100
AcDbEntity
8
1
100
AcDbVertex
100
AcDb3dPolylineVertex
10
327.999928
20
0.217646
30
2.099331
70
32
0
VERTEX
100
AcDbEntity
8
1
100
AcDbVertex
100
AcDb3dPolylineVertex
10
327.999826
20
0.337862
30
2.203104
70
32
0
VERTEX
100
AcDbEntity
8
1
100
AcDbVertex
100
AcDb3dPolylineVertex
10
327.999644
20
0.483037
30
2.330497
70
32
0
VERTEX
100
AcDbEntity
8
1
100
AcDbVertex
100
AcDb3dPolylineVertex
10
327.999353
20
0.651324
30
2.481976
70
32
0
VERTEX
100
AcDbEntity
8
1
100
AcDbVertex
100
AcDb3dPolylineVertex
10
327.998921
20
0.841171
30
2.657465
70
32
0
VERTEX
100
AcDbEntity
8
1
100
AcDbVertex
100
AcDb3dPolylineVertex
10
327.998314
20
1.051674
30
2.856036
70
32
0
VERTEX
100
AcDbEntity
8
1
100
AcDbVertex
100
AcDb3dPolylineVertex
10
327.997500
20
1.280697
30
3.077694
70
32
0
VERTEX
100
AcDbEntity
8
1
100
AcDbVertex
100
AcDb3dPolylineVertex
10
327.996449
20
1.526211
30
3.322094
70
32
0
VERTEX
100
AcDbEntity
8
1
100
AcDbVertex
100
AcDb3dPolylineVertex
10
327.995132
20
1.787036
30
3.587899
70
32
0
VERTEX
100
AcDbEntity
8
1
100
AcDbVertex
100
AcDb3dPolylineVertex
10
327.993530
20
2.060196
30
3.875185
70
32
0
VERTEX
100
AcDbEntity
8
1
100
AcDbVertex
100
AcDb3dPolylineVertex
10
327.991624
20
2.344049
30
4.182619
70
32
0
VERTEX
100
AcDbEntity
8
1
100
AcDbVertex
100
AcDb3dPolylineVertex
10
327.989397
20
2.637313
30
4.508398
70
32
0
VERTEX
100
AcDbEntity
8
1
100
AcDbVertex
100
AcDb3dPolylineVertex
10
327.986854
20
2.936624
30
4.852342
70
32
0
VERTEX
100
AcDbEntity
8
1
100
AcDbVertex
100
AcDb3dPolylineVertex
10
327.983980
20
3.241715
30
5.211497
70
32
0
VERTEX
100
AcDbEntity
8
1
100
AcDbVertex
100
AcDb3dPolylineVertex
10
327.980795
20
3.549345
30
5.585292
70
32
0
VERTEX
100
AcDbEntity
8
1
100
AcDbVertex
100
AcDb3dPolylineVertex
10
327.977300
20
3.858808
30
5.970966
70
32
0
VERTEX
100
AcDbEntity
8
1
100
AcDbVertex
100
AcDb3dPolylineVertex
10
327.973516
20
4.168100
30
6.366756
70
32
0
VERTEX
100
AcDbEntity
8
1
100
AcDbVertex
100
AcDb3dPolylineVertex
10
327.969469
20
4.475202
30
6.770843
70
32
0
VERTEX
100
AcDbEntity
8
1
100
AcDbVertex
100
AcDb3dPolylineVertex
10
327.965182
20
4.779048
30
7.180642
70
32
0
VERTEX
100
AcDbEntity
8
1
100
AcDbVertex
100
AcDb3dPolylineVertex
10
327.960706
20
5.076971
30
7.594753
70
32
0
VERTEX
100
AcDbEntity
8
1
100
AcDbVertex
100
AcDb3dPolylineVertex
10
327.956061
20
5.368595
30
8.010084
70
32
0
VERTEX
100
AcDbEntity
8
1
100
AcDbVertex
100
AcDb3dPolylineVertex
10
327.951315
20
5.651111
30
8.425324
70
32
0
VERTEX
100
AcDbEntity
8
1
100
AcDbVertex
100
AcDb3dPolylineVertex
10
327.946486
20
5.924731
30
8.837062
70
32
0
VERTEX
100
AcDbEntity
8
1
100
AcDbVertex
100
AcDb3dPolylineVertex
10
327.941651
20
6.186556
30
9.244107
70
32
0
VERTEX
100
AcDbEntity
8
1
100
AcDbVertex
100
AcDb3dPolylineVertex
10
327.936826
20
6.437223
30
9.642943
70
32
0
VERTEX
100
AcDbEntity
8
1
100
AcDbVertex
100
AcDb3dPolylineVertex
10
327.932084
20
6.674466
30
10.032092
70
32
0
VERTEX
100
AcDbEntity
8
1
100
AcDbVertex
100
AcDb3dPolylineVertex
10
327.927446
20
6.898563
30
10.408525
70
32
0
VERTEX
100
AcDbEntity
8
1
100
AcDbVertex
100
AcDb3dPolylineVertex
10
327.922967
20
7.108263
30
10.770331
70
32
0
VERTEX
100
AcDbEntity
8
1
100
AcDbVertex
100
AcDb3dPolylineVertex
10
327.918686
20
7.303115
30
11.115227
70
32
0
VERTEX
100
AcDbEntity
8
1
100
AcDbVertex
100
AcDb3dPolylineVertex
10
327.914624
20
7.483267
30
11.440734
70
32
0
VERTEX
100
AcDbEntity
8
1
100
AcDbVertex
100
AcDb3dPolylineVertex
10
327.910836
20
7.647475
30
11.745364
70
32
0
VERTEX
100
AcDbEntity
8
1
100
AcDbVertex
100
AcDb3dPolylineVertex
10
327.907333
20
7.796209
30
12.026786
70
32
0
VERTEX
100
AcDbEntity
8
1
100
AcDbVertex
100
AcDb3dPolylineVertex
10
327.904137
20
7.929493
30
12.283126
70
32
0
VERTEX
100
AcDbEntity
8
1
100
AcDbVertex
100
AcDb3dPolylineVertex
10
327.901284
20
8.046591
30
12.513122
70
32
0
VERTEX
100
AcDbEntity
8
1
100
AcDbVertex
100
AcDb3dPolylineVertex
10
327.898788
20
8.147700
30
12.715169
70
32
0
VERTEX
100
AcDbEntity
8
1
100
AcDbVertex
100
AcDb3dPolylineVertex
10
327.896655
20
8.233074
30
12.887838
70
32
0
VERTEX
100
AcDbEntity
8
1
100
AcDbVertex
100
AcDb3dPolylineVertex
10
327.894900
20
8.302680
30
13.030054
70
32
0
VERTEX
100
AcDbEntity
8
1
100
AcDbVertex
100
AcDb3dPolylineVertex
10
327.893533
20
8.356501
30
13.140932
70
32
0
VERTEX
100
AcDbEntity
8
1
100
AcDbVertex
100
AcDb3dPolylineVertex
10
327.892561
20
8.394537
30
13.219778
70
32
0
VERTEX
100
AcDbEntity
8
1
100
AcDbVertex
100
AcDb3dPolylineVertex
10
327.891991
20
8.416794
30
13.266105
70
32
0
SEQEND
100
AcDbEntity
8
1
0
POLYLINE
100
AcDbEntity
8
1
62
2
100
AcDb3dPolyline
66
1
10
0.000000
20
0.000000
30
0.000000
70
8
0
VERTEX
100
AcDbEntity
8
1
100
AcDbVertex
100
AcDb3dPolylineVertex
10
327.891991
20
8.416794
30
13.266105
70
32
0
VERTEX
100
AcDbEntity
8
1
100
AcDbVertex
100
AcDb3dPolylineVertex
10
327.891939
20
8.418799
30
13.271398
70
32
0
VERTEX
100
AcDbEntity
8
1
100
AcDbVertex
100
AcDb3dPolylineVertex
10
327.891912
20
8.419878
30
13.276953
70
32
0
VERTEX
100
AcDbEntity
8
1
100
AcDbVertex
100
AcDb3dPolylineVertex
10
327.891908
20
8.420000
30
13.282610
70
32
0
VERTEX
100
AcDbEntity
8
1
100
AcDbVertex
100
AcDb3dPolylineVertex
10
327.891930
20
8.419161
30
13.288205
70
32
0
VERTEX
100
AcDbEntity
8
1
100
AcDbVertex
100
AcDb3dPolylineVertex
10
327.891976
20
8.417386
30
13.293575
70
32
0
VERTEX
100
AcDbEntity
8
1
100
AcDbVertex
100
AcDb3dPolylineVertex
10
327.892044
20
8.414726
30
13.298566
70
32
0
VERTEX
100
AcDbEntity
8
1
100
AcDbVertex
100
AcDb3dPolylineVertex
10
327.892133
20
8.411258
30
13.303034
70
32
0
VERTEX
100
AcDbEntity
8
1
100
AcDbVertex
100
AcDb3dPolylineVertex
10
327.892240
20
8.407084
30
13.306848
70
32
0
VERTEX
100
AcDbEntity
8
1
100
AcDbVertex
100
AcDb3dPolylineVertex
10
327.892362
20
8.402324
30
13.309900
70
32
0
VERTEX
100
AcDbEntity
8
1
100
AcDbVertex
100
AcDb3dPolylineVertex
10
327.892495
20
8.397116
30
13.312101
70
32
0
VERTEX
100
AcDbEntity
8
1
100
AcDbVertex
100
AcDb3dPolylineVertex
10
327.892636
20
8.391610
30
13.313388
70
32
0
VERTEX
100
AcDbEntity
8
1
100
AcDbVertex
100
AcDb3dPolylineVertex
10
327.892781
20
8.385967
30
13.313724
70
32
0
VERTEX
100
AcDbEntity
8
1
100
AcDbVertex
100
AcDb3dPolylineVertex
10
327.892924
20
8.380349
30
13.313099
70
32
0
VERTEX
100
AcDbEntity
8
1
100
AcDbVertex
100
AcDb3dPolylineVertex
10
327.893063
20
8.374919
30
13.311532
70
32
0
VERTEX
100
AcDbEntity
8
1
100
AcDbVertex
100
AcDb3dPolylineVertex
10
327.893193
20
8.369833
30
13.309068
70
32
0
VERTEX
100
AcDbEntity
8
1
100
AcDbVertex
100
AcDb3dPolylineVertex
10
327.893310
20
8.365238
30
13.305778
70
32
0
VERTEX
100
AcDbEntity
8
1
100
AcDbVertex
100
AcDb3dPolylineVertex
10
327.893411
20
8.361268
30
13.301757
70
32
0
VERTEX
100
AcDbEntity
8
1
100
AcDbVertex
100
AcDb3dPolylineVertex
10
327.893494
20
8.358037
30
13.297121
70
32
0
SEQEND
100
AcDbEntity
8
1
0
POLYLINE
100
AcDbEntity
8
1
62
1
100
AcDb3dPolyline
66
1
10
0.000000
20
0.000000
30
0.000000
70
8
0
VERTEX
100
AcDbEntity
8
1
100
AcDbVertex
100
AcDb3dPolylineVertex
10
327.893494
20
8.358037
30
13.297121
70
32
0
VERTEX
100
AcDbEntity
8
1
100
AcDbVertex
100
AcDb3dPolylineVertex
10
327.894147
20
8.332352
30
13.252697
70
32
0
VERTEX
100
AcDbEntity
8
1
100
AcDbVertex
100
AcDb3dPolylineVertex
10
327.895259
20
8.288491
30
13.177107
70
32
0
VERTEX
100
AcDbEntity
8
1
100
AcDbVertex
100
AcDb3dPolylineVertex
10
327.896820
20
8.226500
30
13.070847
70
32
0
VERTEX
100
AcDbEntity
8
1
100
AcDbVertex
100
AcDb3dPolylineVertex
10
327.898819
20
8.146458
30
12.934618
70
32
0
VERTEX
100
AcDbEntity
8
1
100
AcDbVertex
100
AcDb3dPolylineVertex
10
327.901238
20
8.048470
30
12.769316
70
32
0
VERTEX
100
AcDbEntity
8
1
100
AcDbVertex
100
AcDb3dPolylineVertex
10
327.904060
20
7.932687
30
12.576025
70
32
0
VERTEX
100
AcDbEntity
8
1
100
AcDbVertex
100
AcDb3dPolylineVertex
10
327.907252
20
7.799618
30
12.355829
70
32
0
VERTEX
100
AcDbEntity
8
1
100
AcDbVertex
100
AcDb3dPolylineVertex
10
327.910781
20
7.649815
30
12.109975
70
32
0
VERTEX
100
AcDbEntity
8
1
100
AcDbVertex
100
AcDb3dPolylineVertex
10
327.914630
20
7.483012
30
11.840361
70
32
0
VERTEX
100
AcDbEntity
8
1
100
AcDbVertex
100
AcDb3dPolylineVertex
10
327.918759
20
7.299844
30
11.548559
70
32
0
VERTEX
100
AcDbEntity
8
1
100
AcDbVertex
100
AcDb3dPolylineVertex
10
327.923113
20
7.101550
30
11.235941
70
32
0
VERTEX
100
AcDbEntity
8
1
100
AcDbVertex
100
AcDb3dPolylineVertex
10
327.927672
20
6.887831
30
10.904947
70
32
0
VERTEX
100
AcDbEntity
8
1
100
AcDbVertex
100
AcDb3dPolylineVertex
10
327.932378
20
6.659980
30
10.557215
70
32
0
VERTEX
100
AcDbEntity
8
1
100
AcDbVertex
100
AcDb3dPolylineVertex
10
327.937186
20
6.418898
30
10.194741
70
32
0
VERTEX
100
AcDbEntity
8
1
100
AcDbVertex
100
AcDb3dPolylineVertex
10
327.942059
20
6.164912
30
9.820010
70
32
0
VERTEX
100
AcDbEntity
8
1
100
AcDbVertex
100
AcDb3dPolylineVertex
10
327.946930
20
5.900113
30
9.434480
70
32
0
VERTEX
100
AcDbEntity
8
1
100
AcDbVertex
100
AcDb3dPolylineVertex
10
327.951776
20
5.624281
30
9.041209
70
32
0
VERTEX
100
AcDbEntity
8
1
100
AcDbVertex
100
AcDb3dPolylineVertex
10
327.956523
20
5.340341
30
8.641234
70
32
0
VERTEX
100
AcDbEntity
8
1
100
AcDbVertex
100
AcDb3dPolylineVertex
10
327.961154
20
5.047912
30
8.237897
70
32
0
VERTEX
100
AcDbEntity
8
1
100
AcDbVertex
100
AcDb3dPolylineVertex
10
327.965605
20
4.749952
30
7.832273
70
32
0
VERTEX
100
AcDbEntity
8
1
100
AcDbVertex
100
AcDb3dPolylineVertex
10
327.969858
20
4.446613
30
7.427456
70
32
0
VERTEX
100
AcDbEntity
8
1
100
AcDbVertex
100
AcDb3dPolylineVertex
10
327.973863
20
4.140670
30
7.024651
70
32
0
VERTEX
100
AcDbEntity
8
1
100
AcDbVertex
100
AcDb3dPolylineVertex
10
327.977606
20
3.832789
30
6.626620
70
32
0
VERTEX
100
AcDbEntity
8
1
100
AcDbVertex
100
AcDb3dPolylineVertex
10
327.981054
20
3.525380
30
6.234791
70
32
0
VERTEX
100
AcDbEntity
8
1
100
AcDbVertex
100
AcDb3dPolylineVertex
10
327.984194
20
3.220028
30
5.851176
70
32
0
VERTEX
100
AcDbEntity
8
1
100
AcDbVertex
100
AcDb3dPolylineVertex
10
327.987016
20
2.918423
30
5.477662
70
32
0
VERTEX
100
AcDbEntity
8
1
100
AcDbVertex
100
AcDb3dPolylineVertex
10
327.989507
20
2.623613
30
5.114930
70
32
0
VERTEX
100
AcDbEntity
8
1
100
AcDbVertex
100
AcDb3dPolylineVertex
10
327.991680
20
2.336138
30
4.765643
70
32
0
VERTEX
100
AcDbEntity
8
1
100
AcDbVertex
100
AcDb3dPolylineVertex
10
327.993534
20
2.059499
30
4.429861
70
32
0
VERTEX
100
AcDbEntity
8
1
100
AcDbVertex
100
AcDb3dPolylineVertex
10
327.995093
20
1.794063
30
4.110199
70
32
0
VERTEX
100
AcDbEntity
8
1
100
AcDbVertex
100
AcDb3dPolylineVertex
10
327.996374
20
1.542193
30
3.807424
70
32
0
VERTEX
100
AcDbEntity
8
1
100
AcDbVertex
100
AcDb3dPolylineVertex
10
327.997401
20
1.305779
30
3.522553
70
32
0
VERTEX
100
AcDbEntity
8
1
100
AcDbVertex
100
AcDb3dPolylineVertex
10
327.998205
20
1.085231
30
3.257790
70
32
0
VERTEX
100
AcDbEntity
8
1
100
AcDbVertex
100
AcDb3dPolylineVertex
10
327.998813
20
0.882572
30
3.013715
70
32
0
VERTEX
100
AcDbEntity
8
1
100
AcDbVertex
100
AcDb3dPolylineVertex
10
327.999256
20
0.698768
30
2.791687
70
32
0
VERTEX
100
AcDbEntity
8
1
100
AcDbVertex
100
AcDb3dPolylineVertex
10
327.999565
20
0.534438
30
2.593209
70
32
0
VERTEX
100
AcDbEntity
8
1
100
AcDbVertex
100
AcDb3dPolylineVertex
10
327.999767
20
0.391165
30
2.418661
70
32
0
VERTEX
100
AcDbEntity
8
1
100
AcDbVertex
100
AcDb3dPolylineVertex
10
327.999889
20
0.269599
30
2.269080
70
32
0
VERTEX
100
AcDbEntity
8
1
100
AcDbVertex
100
AcDb3dPolylineVertex
10
327.999956
20
0.169787
30
2.145855
70
32
0
VERTEX
100
AcDbEntity
8
1
100
AcDbVertex
100
AcDb3dPolylineVertex
10
327.999987
20
0.092000
30
2.049926
70
32
0
VERTEX
100
AcDbEntity
8
1
100
AcDbVertex
100
AcDb3dPolylineVertex
10
327.999998
20
0.036679
30
1.981805
70
32
0
VERTEX
100
AcDbEntity
8
1
100
AcDbVertex
100
AcDb3dPolylineVertex
10
328.000000
20
0.004177
30
1.941824
70
32
0
SEQEND
100
AcDbEntity
8
1
0
POLYLINE
100
AcDbEntity
8
1
62
4
100
AcDb3dPolyline
66
1
10
0.000000
20
0.000000
30
0.000000
70
8
0
VERTEX
100
AcDbEntity
8
1
100
AcDbVertex
100
AcDb3dPolylineVertex
10
339.750000
20
0.004628
30
1.466839
70
32
0
VERTEX
100
AcDbEntity
8
1
100
AcDbVertex
100
AcDb3dPolylineVertex
10
339.750000
20
0.002490
30
1.463714
70
32
0
VERTEX
100
AcDbEntity
8
1
100
AcDbVertex
100
AcDb3dPolylineVertex
10
339.750000
20
0.000696
30
1.460561
70
32
0
VERTEX
100
AcDbEntity
8
1
100
AcDbVertex
100
AcDb3dPolylineVertex
10
339.750000
20
-0.000713
30
1.457448
70
32
0
VERTEX
100
AcDbEntity
8
1
100
AcDbVertex
100
AcDb3dPolylineVertex
10
339.750000
20
-0.001705
30
1.454445
70
32
0
VERTEX
100
AcDbEntity
8
1
100
AcDbVertex
100
AcDb3dPolylineVertex
10
339.750000
20
-0.002260
30
1.451619
70
32
0
VERTEX
100
AcDbEntity
8
1
100
AcDbVertex
100
AcDb3dPolylineVertex
10
339.750000
20
-0.002364
30
1.449031
70
32
0
VERTEX
100
AcDbEntity
8
1
100
AcDbVertex
100
AcDb3dPolylineVertex
10
339.750000
20
-0.002015
30
1.446740
70
32
0
VERTEX
100
AcDbEntity
8
1
100
AcDbVertex
100
AcDb3dPolylineVertex
10
339.750000
20
-0.001222
30
1.444795
70
32
0
VERTEX
100
AcDbEntity
8
1
100
AcDbVertex
100
AcDb3dPolylineVertex
10
339.750000
20
-0.000000
30
1.443240
70
32
0
VERTEX
100
AcDbEntity
8
1
100
AcDbVertex
100
AcDb3dPolylineVertex
10
339.750000
20
0.001622
30
1.442110
70
32
0
VERTEX
100
AcDbEntity
8
1
100
AcDbVertex
100
AcDb3dPolylineVertex
10
339.750000
20
0.003609
30
1.441429
70
32
0
VERTEX
100
AcDbEntity
8
1
100
AcDbVertex
100
AcDb3dPolylineVertex
10
339.750000
20
0.005917
30
1.441212
70
32
0
VERTEX
100
AcDbEntity
8
1
100
AcDbVertex
100
AcDb3dPolylineVertex
10
339.750000
20
0.008495
30
1.441465
70
32
0
VERTEX
100
AcDbEntity
8
1
100
AcDbVertex
100
AcDb3dPolylineVertex
10
339.750000
20
0.011286
30
1.442182
70
32
0
VERTEX
100
AcDbEntity
8
1
100
AcDbVertex
100
AcDb3dPolylineVertex
10
339.750000
20
0.014227
30
1.443347
70
32
0
VERTEX
100
AcDbEntity
8
1
100
AcDbVertex
100
AcDb3dPolylineVertex
10
339.750000
20
0.017254
30
1.444934
70
32
0
VERTEX
100
AcDbEntity
8
1
100
AcDbVertex
100
AcDb3dPolylineVertex
10
339.749999
20
0.020299
30
1.446908
70
32
0
VERTEX
100
AcDbEntity
8
1
100
AcDbVertex
100
AcDb3dPolylineVertex
10
339.749999
20
0.023296
30
1.449225
70
32
0
SEQEND
100
AcDbEntity
8
1
0
POLYLINE
100
AcDbEntity
8
1
62
3
100
AcDb3dPolyline
66
1
10
0.000000
20
0.000000
30
0.000000
70
8
0
VERTEX
100
AcDbEntity
8
1
100
AcDbVertex
100
AcDb3dPolylineVertex
10
339.749999
20
0.023296
30
1.449225
70
32
0
VERTEX
100
AcDbEntity
8
1
100
AcDbVertex
100
AcDb3dPolylineVertex
10
339.749994
20
0.065439
30
1.484599
70
32
0
VERTEX
100
AcDbEntity
8
1
100
AcDbVertex
100
AcDb3dPolylineVertex
10
339.749972
20
0.137087
30
1.545015
70
32
0
VERTEX
100
AcDbEntity
8
1
100
AcDbVertex
100
AcDb3dPolylineVertex
10
339.749917
20
0.237664
30
1.630415
70
32
0
VERTEX
100
AcDbEntity
8
1
100
AcDbVertex
100
AcDb3dPolylineVertex
10
339.749803
20
0.366281
30
1.740787
70
32
0
VERTEX
100
AcDbEntity
8
1
100
AcDbVertex
100
AcDb3dPolylineVertex
10
339.749600
20
0.521393
30
1.876474
70
32
0
VERTEX
100
AcDbEntity
8
1
100
AcDbVertex
100
AcDb3dPolylineVertex
10
339.749277
20
0.700766
30
2.038187
70
32
0
VERTEX
100
AcDbEntity
8
1
100
AcDbVertex
100
AcDb3dPolylineVertex
10
339.748801
20
0.902693
30
2.225877
70
32
0
VERTEX
100
AcDbEntity
8
1
100
AcDbVertex
100
AcDb3dPolylineVertex
10
339.748133
20
1.126272
30
2.438517
70
32
0
VERTEX
100
AcDbEntity
8
1
100
AcDbVertex
100
AcDb3dPolylineVertex
10
339.747242
20
1.369044
30
2.676240
70
32
0
VERTEX
100
AcDbEntity
8
1
100
AcDbVertex
100
AcDb3dPolylineVertex
10
339.746096
20
1.628708
30
2.938775
70
32
0
VERTEX
100
AcDbEntity
8
1
100
AcDbVertex
100
AcDb3dPolylineVertex
10
339.744664
20
1.904091
30
3.224625
70
32
0
VERTEX
100
AcDbEntity
8
1
100
AcDbVertex
100
AcDb3dPolylineVertex
10
339.742930
20
2.191883
30
3.533929
70
32
0
VERTEX
100
AcDbEntity
8
1
100
AcDbVertex
100
AcDb3dPolylineVertex
10
339.740874
20
2.490133
30
3.865421
70
32
0
VERTEX
100
AcDbEntity
8
1
100
AcDbVertex
100
AcDb3dPolylineVertex
10
339.738479
20
2.797887
30
4.216826
70
32
0
VERTEX
100
AcDbEntity
8
1
100
AcDbVertex
100
AcDb3dPolylineVertex
10
339.735756
20
3.111092
30
4.588264
70
32
0
VERTEX
100
AcDbEntity
8
1
100
AcDbVertex
100
AcDb3dPolylineVertex
10
339.732686
20
3.429927
30
4.976239
70
32
0
VERTEX
100
AcDbEntity
8
1
100
AcDbVertex
100
AcDb3dPolylineVertex
10
339.729296
20
3.750750
30
5.380223
70
32
0
VERTEX
100
AcDbEntity
8
1
100
AcDbVertex
100
AcDb3dPolylineVertex
10
339.725586
20
4.072960
30
5.797168
70
32
0
VERTEX
100
AcDbEntity
8
1
100
AcDbVertex
100
AcDb3dPolylineVertex
10
339.721576
20
4.394685
30
6.224972
70
32
0
VERTEX
100
AcDbEntity
8
1
100
AcDbVertex
100
AcDb3dPolylineVertex
10
339.717302
20
4.713533
30
6.661852
70
32
0
VERTEX
100
AcDbEntity
8
1
100
AcDbVertex
100
AcDb3dPolylineVertex
10
339.712782
20
5.028765
30
7.104768
70
32
0
VERTEX
100
AcDbEntity
8
1
100
AcDbVertex
100
AcDb3dPolylineVertex
10
339.708076
20
5.337196
30
7.552436
70
32
0
VERTEX
100
AcDbEntity
8
1
100
AcDbVertex
100
AcDb3dPolylineVertex
10
339.703202
20
5.638889
30
8.001256
70
32
0
VERTEX
100
AcDbEntity
8
1
100
AcDbVertex
100
AcDb3dPolylineVertex
10
339.698237
20
5.930470
30
8.450052
70
32
0
VERTEX
100
AcDbEntity
8
1
100
AcDbVertex
100
AcDb3dPolylineVertex
10
339.693192
20
6.212698
30
8.894869
70
32
0
VERTEX
100
AcDbEntity
8
1
100
AcDbVertex
100
AcDb3dPolylineVertex
10
339.688159
20
6.482047
30
9.334681
70
32
0
VERTEX
100
AcDbEntity
8
1
100
AcDbVertex
100
AcDb3dPolylineVertex
10
339.683144
20
6.739758
30
9.765429
70
32
0
VERTEX
100
AcDbEntity
8
1
100
AcDbVertex
100
AcDb3dPolylineVertex
10
339.678229
20
6.983072
30
10.185730
70
32
0
VERTEX
100
AcDbEntity
8
1
100
AcDbVertex
100
AcDb3dPolylineVertex
10
339.673430
20
7.212714
30
10.592132
70
32
0
VERTEX
100
AcDbEntity
8
1
100
AcDbVertex
100
AcDb3dPolylineVertex
10
339.668809
20
7.427161
30
10.982715
70
32
0
VERTEX
100
AcDbEntity
8
1
100
AcDbVertex
100
AcDb3dPolylineVertex
10
339.664400
20
7.626123
30
11.354953
70
32
0
VERTEX
100
AcDbEntity
8
1
100
AcDbVertex
100
AcDb3dPolylineVertex
10
339.660224
20
7.809926
30
11.706142
70
32
0
VERTEX
100
AcDbEntity
8
1
100
AcDbVertex
100
AcDb3dPolylineVertex
10
339.656340
20
7.977059
30
12.034802
70
32
0
VERTEX
100
AcDbEntity
8
1
100
AcDbVertex
100
AcDb3dPolylineVertex
10
339.652754
20
8.128291
30
12.338340
70
32
0
VERTEX
100
AcDbEntity
8
1
100
AcDbVertex
100
AcDb3dPolylineVertex
10
339.649485
20
8.263746
30
12.614734
70
32
0
VERTEX
100
AcDbEntity
8
1
100
AcDbVertex
100
AcDb3dPolylineVertex
10
339.646575
20
8.382522
30
12.862710
70
32
0
VERTEX
100
AcDbEntity
8
1
100
AcDbVertex
100
AcDb3dPolylineVertex
10
339.644032
20
8.484930
30
13.080534
70
32
0
VERTEX
100
AcDbEntity
8
1
100
AcDbVertex
100
AcDb3dPolylineVertex
10
339.641862
20
8.571356
30
13.266645
70
32
0
VERTEX
100
AcDbEntity
8
1
100
AcDbVertex
100
AcDb3dPolylineVertex
10
339.640077
20
8.641792
30
13.419905
70
32
0
VERTEX
100
AcDbEntity
8
1
100
AcDbVertex
100
AcDb3dPolylineVertex
10
339.638687
20
8.696236
30
13.539375
70
32
0
VERTEX
100
AcDbEntity
8
1
100
AcDbVertex
100
AcDb3dPolylineVertex
10
339.637700
20
8.734703
30
13.624323
70
32
0
VERTEX
100
AcDbEntity
8
1
100
AcDbVertex
100
AcDb3dPolylineVertex
10
339.637121
20
8.757206
30
13.674227
70
32
0
SEQEND
100
AcDbEntity
8
1
0
POLYLINE
100
AcDbEntity
8
1
62
2
100
AcDb3dPolyline
66
1
10
0.000000
20
0.000000
30
0.000000
70
8
0
VERTEX
100
AcDbEntity
8
1
100
AcDbVertex
100
AcDb3dPolylineVertex
10
339.637121
20
8.757206
30
13.674227
70
32
0
VERTEX
100
AcDbEntity
8
1
100
AcDbVertex
100
AcDb3dPolylineVertex
10
339.637056
20
8.759717
30
13.681361
70
32
0
VERTEX
100
AcDbEntity
8
1
100
AcDbVertex
100
AcDb3dPolylineVertex
10
339.637023
20
8.760991
30
13.688816
70
32
0
VERTEX
100
AcDbEntity
8
1
100
AcDbVertex
100
AcDb3dPolylineVertex
10
339.637023
20
8.760990
30
13.696377
70
32
0
VERTEX
100
AcDbEntity
8
1
100
AcDbVertex
100
AcDb3dPolylineVertex
10
339.637056
20
8.759714
30
13.703828
70
32
0
VERTEX
100
AcDbEntity
8
1
100
AcDbVertex
100
AcDb3dPolylineVertex
10
339.637121
20
8.757202
30
13.710956
70
32
0
VERTEX
100
AcDbEntity
8
1
100
AcDbVertex
100
AcDb3dPolylineVertex
10
339.637216
20
8.753524
30
13.717558
70
32
0
VERTEX
100
AcDbEntity
8
1
100
AcDbVertex
100
AcDb3dPolylineVertex
10
339.637338
20
8.748786
30
13.723444
70
32
0
VERTEX
100
AcDbEntity
8
1
100
AcDbVertex
100
AcDb3dPolylineVertex
10
339.637484
20
8.743124
30
13.728447
70
32
0
VERTEX
100
AcDbEntity
8
1
100
AcDbVertex
100
AcDb3dPolylineVertex
10
339.637649
20
8.736701
30
13.732425
70
32
0
VERTEX
100
AcDbEntity
8
1
100
AcDbVertex
100
AcDb3dPolylineVertex
10
339.637829
20
8.729699
30
13.735264
70
32
0
VERTEX
100
AcDbEntity
8
1
100
AcDbVertex
100
AcDb3dPolylineVertex
10
339.638019
20
8.722320
30
13.736884
70
32
0
VERTEX
100
AcDbEntity
8
1
100
AcDbVertex
100
AcDb3dPolylineVertex
10
339.638212
20
8.714775
30
13.737238
70
32
0
VERTEX
100
AcDbEntity
8
1
100
AcDbVertex
100
AcDb3dPolylineVertex
10
339.638404
20
8.707279
30
13.736318
70
32
0
VERTEX
100
AcDbEntity
8
1
100
AcDbVertex
100
AcDb3dPolylineVertex
10
339.638590
20
8.700045
30
13.734149
70
32
0
VERTEX
100
AcDbEntity
8
1
100
AcDbVertex
100
AcDb3dPolylineVertex
10
339.638763
20
8.693282
30
13.730794
70
32
0
VERTEX
100
AcDbEntity
8
1
100
AcDbVertex
100
AcDb3dPolylineVertex
10
339.638919
20
8.687180
30
13.726348
70
32
0
VERTEX
100
AcDbEntity
8
1
100
AcDbVertex
100
AcDb3dPolylineVertex
10
339.639054
20
8.681915
30
13.720939
70
32
0
VERTEX
100
AcDbEntity
8
1
100
AcDbVertex
100
AcDb3dPolylineVertex
10
339.639163
20
8.677636
30
13.714719
70
32
0
SEQEND
100
AcDbEntity
8
1
0
POLYLINE
100
AcDbEntity
8
1
62
1
100
AcDb3dPolyline
66
1
10
0.000000
20
0.000000
30
0.000000
70
8
0
VERTEX
100
AcDbEntity
8
1
100
AcDbVertex
100
AcDb3dPolylineVertex
10
339.639163
20
8.677636
30
13.714719
70
32
0
VERTEX
100
AcDbEntity
8
1
100
AcDbVertex
100
AcDb3dPolylineVertex
10
339.639854
20
8.650557
30
13.667265
70
32
0
VERTEX
100
AcDbEntity
8
1
100
AcDbVertex
100
AcDb3dPolylineVertex
10
339.641029
20
8.604314
30
13.586510
70
32
0
VERTEX
100
AcDbEntity
8
1
100
AcDbVertex
100
AcDb3dPolylineVertex
10
339.642678
20
8.538962
30
13.472987
70
32
0
VERTEX
100
AcDbEntity
8
1
100
AcDbVertex
100
AcDb3dPolylineVertex
10
339.644789
20
8.454586
30
13.327440
70
32
0
VERTEX
100
AcDbEntity
8
1
100
AcDbVertex
100
AcDb3dPolylineVertex
10
339.647344
20
8.351305
30
13.150823
70
32
0
VERTEX
100
AcDbEntity
8
1
100
AcDbVertex
100
AcDb3dPolylineVertex
10
339.650322
20
8.229284
30
12.944287
70
32
0
VERTEX
100
AcDbEntity
8
1
100
AcDbVertex
100
AcDb3dPolylineVertex
10
339.653688
20
8.089161
30
12.708942
70
32
0
VERTEX
100
AcDbEntity
8
1
100
AcDbVertex
100
AcDb3dPolylineVertex
10
339.657404
20
7.931599
30
12.446080
70
32
0
VERTEX
100
AcDbEntity
8
1
100
AcDbVertex
100
AcDb3dPolylineVertex
10
339.661456
20
7.756167
30
12.157788
70
32
0
VERTEX
100
AcDbEntity
8
1
100
AcDbVertex
100
AcDb3dPolylineVertex
10
339.665798
20
7.563600
30
11.845710
70
32
0
VERTEX
100
AcDbEntity
8
1
100
AcDbVertex
100
AcDb3dPolylineVertex
10
339.670370
20
7.355444
30
11.511193
70
32
0
VERTEX
100
AcDbEntity
8
1
100
AcDbVertex
100
AcDb3dPolylineVertex
10
339.675153
20
7.131148
30
11.156939
70
32
0
VERTEX
100
AcDbEntity
8
1
100
AcDbVertex
100
AcDb3dPolylineVertex
10
339.680085
20
6.892201
30
10.784636
70
32
0
VERTEX
100
AcDbEntity
8
1
100
AcDbVertex
100
AcDb3dPolylineVertex
10
339.685114
20
6.639696
30
10.396322
70
32
0
VERTEX
100
AcDbEntity
8
1
100
AcDbVertex
100
AcDb3dPolylineVertex
10
339.690209
20
6.373727
30
9.994773
70
32
0
VERTEX
100
AcDbEntity
8
1
100
AcDbVertex
100
AcDb3dPolylineVertex
10
339.695291
20
6.096874
30
9.581335
70
32
0
VERTEX
100
AcDbEntity
8
1
100
AcDbVertex
100
AcDb3dPolylineVertex
10
339.700344
20
5.808487
30
9.159480
70
32
0
VERTEX
100
AcDbEntity
8
1
100
AcDbVertex
100
AcDb3dPolylineVertex
10
339.705282
20
5.512160
30
8.730030
70
32
0
VERTEX
100
AcDbEntity
8
1
100
AcDbVertex
100
AcDb3dPolylineVertex
10
339.710097
20
5.206970
30
8.296825
70
32
0
VERTEX
100
AcDbEntity
8
1
100
AcDbVertex
100
AcDb3dPolylineVertex
10
339.714714
20
4.896512
30
7.860732
70
32
0
VERTEX
100
AcDbEntity
8
1
100
AcDbVertex
100
AcDb3dPolylineVertex
10
339.719122
20
4.580474
30
7.425316
70
32
0
VERTEX
100
AcDbEntity
8
1
100
AcDbVertex
100
AcDb3dPolylineVertex
10
339.723264
20
4.262191
30
6.991612
70
32
0
VERTEX
100
AcDbEntity
8
1
100
AcDbVertex
100
AcDb3dPolylineVertex
10
339.727131
20
3.941932
30
6.562833
70
32
0
VERTEX
100
AcDbEntity
8
1
100
AcDbVertex
100
AcDb3dPolylineVertex
10
339.730687
20
3.622573
30
6.140276
70
32
0
VERTEX
100
AcDbEntity
8
1
100
AcDbVertex
100
AcDb3dPolylineVertex
10
339.733920
20
3.305471
30
5.726317
70
32
0
VERTEX
100
AcDbEntity
8
1
100
AcDbVertex
100
AcDb3dPolylineVertex
10
339.736820
20
2.992601
30
5.322814
70
32
0
VERTEX
100
AcDbEntity
8
1
100
AcDbVertex
100
AcDb3dPolylineVertex
10
339.739372
20
2.687275
30
4.930466
70
32
0
VERTEX
100
AcDbEntity
8
1
100
AcDbVertex
100
AcDb3dPolylineVertex
10
339.741595
20
2.389799
30
4.552270
70
32
0
VERTEX
100
AcDbEntity
8
1
100
AcDbVertex
100
AcDb3dPolylineVertex
10
339.743483
20
2.104289
30
4.188023
70
32
0
VERTEX
100
AcDbEntity
8
1
100
AcDbVertex
100
AcDb3dPolylineVertex
10
339.745068
20
1.830589
30
3.840904
70
32
0
VERTEX
100
AcDbEntity
8
1
100
AcDbVertex
100
AcDb3dPolylineVertex
10
339.746365
20
1.571562
30
3.511459
70
32
0
VERTEX
100
AcDbEntity
8
1
100
AcDbVertex
100
AcDb3dPolylineVertex
10
339.747401
20
1.328954
30
3.201002
70
32
0
VERTEX
100
AcDbEntity
8
1
100
AcDbVertex
100
AcDb3dPolylineVertex
10
339.748210
20
1.103005
30
2.912017
70
32
0
VERTEX
100
AcDbEntity
8
1
100
AcDbVertex
100
AcDb3dPolylineVertex
10
339.748819
20
0.895899
30
2.645122
70
32
0
VERTEX
100
AcDbEntity
8
1
100
AcDbVertex
100
AcDb3dPolylineVertex
10
339.749261
20
0.708479
30
2.401929
70
32
0
VERTEX
100
AcDbEntity
8
1
100
AcDbVertex
100
AcDb3dPolylineVertex
10
339.749569
20
0.541178
30
2.184234
70
32
0
VERTEX
100
AcDbEntity
8
1
100
AcDbVertex
100
AcDb3dPolylineVertex
10
339.749770
20
0.395707
30
1.992455
70
32
0
VERTEX
100
AcDbEntity
8
1
100
AcDbVertex
100
AcDb3dPolylineVertex
10
339.749891
20
0.272670
30
1.827781
70
32
0
VERTEX
100
AcDbEntity
8
1
100
AcDbVertex
100
AcDb3dPolylineVertex
10
339.749957
20
0.171827
30
1.691953
70
32
0
VERTEX
100
AcDbEntity
8
1
100
AcDbVertex
100
AcDb3dPolylineVertex
10
339.749987
20
0.093283
30
1.586141
70
32
0
VERTEX
100
AcDbEntity
8
1
100
AcDbVertex
100
AcDb3dPolylineVertex
10
339.749998
20
0.037437
30
1.510973
70
32
0
VERTEX
100
AcDbEntity
8
1
100
AcDbVertex
100
AcDb3dPolylineVertex
10
339.750000
20
0.004628
30
1.466839
70
32
0
SEQEND
100
AcDbEntity
8
1
0
POLYLINE
100
AcDbEntity
8
1
62
4
100
AcDb3dPolyline
66
1
10
0.000000
20
0.000000
30
0.000000
70
8
0
VERTEX
100
AcDbEntity
8
1
100
AcDbVertex
100
AcDb3dPolylineVertex
10
351.500000
20
0.004735
30
0.992502
70
32
0
VERTEX
100
AcDbEntity
8
1
100
AcDbVertex
100
AcDb3dPolylineVertex
10
351.500000
20
0.002169
30
0.988405
70
32
0
VERTEX
100
AcDbEntity
8
1
100
AcDbVertex
100
AcDb3dPolylineVertex
10
351.500000
20
0.000048
30
0.984303
70
32
0
VERTEX
100
AcDbEntity
8
1
100
AcDbVertex
100
AcDb3dPolylineVertex
10
351.500000
20
-0.001584
30
0.980281
70
32
0
VERTEX
100
AcDbEntity
8
1
100
AcDbVertex
100
AcDb3dPolylineVertex
10
351.500000
20
-0.002694
30
0.976422
70
32
0
VERTEX
100
AcDbEntity
8
1
100
AcDbVertex
100
AcDb3dPolylineVertex
10
351.500000
20
-0.003259
30
0.972806
70
32
0
VERTEX
100
AcDbEntity
8
1
100
AcDbVertex
100
AcDb3dPolylineVertex
10
351.500000
20
-0.003266
30
0.969508
70
32
0
VERTEX
100
AcDbEntity
8
1
100
AcDbVertex
100
AcDb3dPolylineVertex
10
351.500000
20
-0.002716
30
0.966596
70
32
0
VERTEX
100
AcDbEntity
8
1
100
AcDbVertex
100
AcDb3dPolylineVertex
10
351.500000
20
-0.001620
30
0.964129
70
32
0
VERTEX
100
AcDbEntity
8
1
100
AcDbVertex
100
AcDb3dPolylineVertex
10
351.500000
20
0.000000
30
0.962160
70
32
0
VERTEX
100
AcDbEntity
8
1
100
AcDbVertex
100
AcDb3dPolylineVertex
10
351.500000
20
0.002110
30
0.960729
70
32
0
VERTEX
100
AcDbEntity
8
1
100
AcDbVertex
100
AcDb3dPolylineVertex
10
351.500000
20
0.004667
30
0.959865
70
32
0
VERTEX
100
AcDbEntity
8
1
100
AcDbVertex
100
AcDb3dPolylineVertex
10
351.500000
20
0.007618
30
0.959586
70
32
0
VERTEX
100
AcDbEntity
8
1
100
AcDbVertex
100
AcDb3dPolylineVertex
10
351.500000
20
0.010902
30
0.959899
70
32
0
VERTEX
100
AcDbEntity
8
1
100
AcDbVertex
100
AcDb3dPolylineVertex
10
351.500000
20
0.014451
30
0.960796
70
32
0
VERTEX
100
AcDbEntity
8
1
100
AcDbVertex
100
AcDb3dPolylineVertex
10
351.500000
20
0.018191
30
0.962260
70
32
0
VERTEX
100
AcDbEntity
8
1
100
AcDbVertex
100
AcDb3dPolylineVertex
10
351.499999
20
0.022046
30
0.964260
70
32
0
VERTEX
100
AcDbEntity
8
1
100
AcDbVertex
100
AcDb3dPolylineVertex
10
351.499999
20
0.025935
30
0.966754
70
32
0
VERTEX
100
AcDbEntity
8
1
100
AcDbVertex
100
AcDb3dPolylineVertex
10
351.499999
20
0.029777
30
0.969691
70
32
0
SEQEND
100
AcDbEntity
8
1
0
POLYLINE
100
AcDbEntity
8
1
62
3
100
AcDb3dPolyline
66
1
10
0.000000
20
0.000000
30
0.000000
70
8
0
VERTEX
100
AcDbEntity
8
1
100
AcDbVertex
100
AcDb3dPolylineVertex
10
351.499999
20
0.029777
30
0.969691
70
32
0
VERTEX
100
AcDbEntity
8
1
100
AcDbVertex
100
AcDb3dPolylineVertex
10
351.499992
20
0.074868
30
1.007069
70
32
0
VERTEX
100
AcDbEntity
8
1
100
AcDbVertex
100
AcDb3dPolylineVertex
10
351.499967
20
0.151490
30
1.070906
70
32
0
VERTEX
100
AcDbEntity
8
1
100
AcDbVertex
100
AcDb3dPolylineVertex
10
351.499905
20
0.259021
30
1.161179
70
32
0
VERTEX
100
AcDbEntity
8
1
100
AcDbVertex
100
AcDb3dPolylineVertex
10
351.499776
20
0.396450
30
1.277932
70
32
0
VERTEX
100
AcDbEntity
8
1
100
AcDbVertex
100
AcDb3dPolylineVertex
10
351.499551
20
0.561959
30
1.421673
70
32
0
VERTEX
100
AcDbEntity
8
1
100
AcDbVertex
100
AcDb3dPolylineVertex
10
351.499194
20
0.752889
30
1.593379
70
32
0
VERTEX
100
AcDbEntity
8
1
100
AcDbVertex
100
AcDb3dPolylineVertex
10
351.498669
20
0.967382
30
1.793021
70
32
0
VERTEX
100
AcDbEntity
8
1
100
AcDbVertex
100
AcDb3dPolylineVertex
10
351.497936
20
1.204529
30
2.019479
70
32
0
VERTEX
100
AcDbEntity
8
1
100
AcDbVertex
100
AcDb3dPolylineVertex
10
351.496961
20
1.461536
30
2.273019
70
32
0
VERTEX
100
AcDbEntity
8
1
100
AcDbVertex
100
AcDb3dPolylineVertex
10
351.495714
20
1.735766
30
2.553489
70
32
0
VERTEX
100
AcDbEntity
8
1
100
AcDbVertex
100
AcDb3dPolylineVertex
10
351.494161
20
2.026086
30
2.859207
70
32
0
VERTEX
100
AcDbEntity
8
1
100
AcDbVertex
100
AcDb3dPolylineVertex
10
351.492285
20
2.328880
30
3.190344
70
32
0
VERTEX
100
AcDbEntity
8
1
100
AcDbVertex
100
AcDb3dPolylineVertex
10
351.490072
20
2.641769
30
3.545783
70
32
0
VERTEX
100
AcDbEntity
8
1
100
AcDbVertex
100
AcDb3dPolylineVertex
10
351.487501
20
2.964233
30
3.922713
70
32
0
VERTEX
100
AcDbEntity
8
1
100
AcDbVertex
100
AcDb3dPolylineVertex
10
351.484589
20
3.291473
30
4.321576
70
32
0
VERTEX
100
AcDbEntity
8
1
100
AcDbVertex
100
AcDb3dPolylineVertex
10
351.481317
20
3.624093
30
4.738364
70
32
0
VERTEX
100
AcDbEntity
8
1
100
AcDbVertex
100
AcDb3dPolylineVertex
10
351.477713
20
3.958181
30
5.172485
70
32
0
VERTEX
100
AcDbEntity
8
1
100
AcDbVertex
100
AcDb3dPolylineVertex
10
351.473782
20
4.293091
30
5.620720
70
32
0
VERTEX
100
AcDbEntity
8
1
100
AcDbVertex
100
AcDb3dPolylineVertex
10
351.469542
20
4.627196
30
6.080554
70
32
0
VERTEX
100
AcDbEntity
8
1
100
AcDbVertex
100
AcDb3dPolylineVertex
10
351.465036
20
4.957692
30
6.550255
70
32
0
VERTEX
100
AcDbEntity
8
1
100
AcDbVertex
100
AcDb3dPolylineVertex
10
351.460278
20
5.284223
30
7.026307
70
32
0
VERTEX
100
AcDbEntity
8
1
100
AcDbVertex
100
AcDb3dPolylineVertex
10
351.455341
20
5.602998
30
7.507582
70
32
0
VERTEX
100
AcDbEntity
8
1
100
AcDbVertex
100
AcDb3dPolylineVertex
10
351.450235
20
5.914582
30
7.989949
70
32
0
VERTEX
100
AcDbEntity
8
1
100
AcDbVertex
100
AcDb3dPolylineVertex
10
351.445051
20
6.215009
30
8.472365
70
32
0
VERTEX
100
AcDbEntity
8
1
100
AcDbVertex
100
AcDb3dPolylineVertex
10
351.439791
20
6.505618
30
8.950328
70
32
0
VERTEX
100
AcDbEntity
8
1
100
AcDbVertex
100
AcDb3dPolylineVertex
10
351.434562
20
6.782221
30
9.422985
70
32
0
VERTEX
100
AcDbEntity
8
1
100
AcDbVertex
100
AcDb3dPolylineVertex
10
351.429359
20
7.046691
30
9.885730
70
32
0
VERTEX
100
AcDbEntity
8
1
100
AcDbVertex
100
AcDb3dPolylineVertex
10
351.424276
20
7.295791
30
10.337256
70
32
0
VERTEX
100
AcDbEntity
8
1
100
AcDbVertex
100
AcDb3dPolylineVertex
10
351.419320
20
7.530691
30
10.773700
70
32
0
VERTEX
100
AcDbEntity
8
1
100
AcDbVertex
100
AcDb3dPolylineVertex
10
351.414562
20
7.749569
30
11.193143
70
32
0
VERTEX
100
AcDbEntity
8
1
100
AcDbVertex
100
AcDb3dPolylineVertex
10
351.410032
20
7.952336
30
11.592797
70
32
0
VERTEX
100
AcDbEntity
8
1
100
AcDbVertex
100
AcDb3dPolylineVertex
10
351.405747
20
8.139488
30
11.969744
70
32
0
VERTEX
100
AcDbEntity
8
1
100
AcDbVertex
100
AcDb3dPolylineVertex
10
351.401774
20
8.309244
30
12.322508
70
32
0
VERTEX
100
AcDbEntity
8
1
100
AcDbVertex
100
AcDb3dPolylineVertex
10
351.398111
20
8.462700
30
12.648223
70
32
0
VERTEX
100
AcDbEntity
8
1
100
AcDbVertex
100
AcDb3dPolylineVertex
10
351.394776
20
8.600081
30
12.944723
70
32
0
VERTEX
100
AcDbEntity
8
1
100
AcDbVertex
100
AcDb3dPolylineVertex
10
351.391813
20
8.720289
30
13.210737
70
32
0
VERTEX
100
AcDbEntity
8
1
100
AcDbVertex
100
AcDb3dPolylineVertex
10
351.389230
20
8.823774
30
13.444385
70
32
0
VERTEX
100
AcDbEntity
8
1
100
AcDbVertex
100
AcDb3dPolylineVertex
10
351.387027
20
8.911071
30
13.643976
70
32
0
VERTEX
100
AcDbEntity
8
1
100
AcDbVertex
100
AcDb3dPolylineVertex
10
351.385217
20
8.982184
30
13.808311
70
32
0
VERTEX
100
AcDbEntity
8
1
100
AcDbVertex
100
AcDb3dPolylineVertex
10
351.383808
20
9.037130
30
13.936399
70
32
0
VERTEX
100
AcDbEntity
8
1
100
AcDbVertex
100
AcDb3dPolylineVertex
10
351.382807
20
9.075942
30
14.027466
70
32
0
VERTEX
100
AcDbEntity
8
1
100
AcDbVertex
100
AcDb3dPolylineVertex
10
351.382220
20
9.098637
30
14.080946
70
32
0
SEQEND
100
AcDbEntity
8
1
0
POLYLINE
100
AcDbEntity
8
1
62
2
100
AcDb3dPolyline
66
1
10
0.000000
20
0.000000
30
0.000000
70
8
0
VERTEX
100
AcDbEntity
8
1
100
AcDbVertex
100
AcDb3dPolylineVertex
10
351.382220
20
9.098637
30
14.080946
70
32
0
VERTEX
100
AcDbEntity
8
1
100
AcDbVertex
100
AcDb3dPolylineVertex
10
351.382142
20
9.101648
30
14.090135
70
32
0
VERTEX
100
AcDbEntity
8
1
100
AcDbVertex
100
AcDb3dPolylineVertex
10
351.382105
20
9.103077
30
14.099697
70
32
0
VERTEX
100
AcDbEntity
8
1
100
AcDbVertex
100
AcDb3dPolylineVertex
10
351.382110
20
9.102885
30
14.109360
70
32
0
VERTEX
100
AcDbEntity
8
1
100
AcDbVertex
100
AcDb3dPolylineVertex
10
351.382157
20
9.101077
30
14.118853
70
32
0
VERTEX
100
AcDbEntity
8
1
100
AcDbVertex
100
AcDb3dPolylineVertex
10
351.382245
20
9.097703
30
14.127906
70
32
0
VERTEX
100
AcDbEntity
8
1
100
AcDbVertex
100
AcDb3dPolylineVertex
10
351.382370
20
9.092861
30
14.136264
70
32
0
VERTEX
100
AcDbEntity
8
1
100
AcDbVertex
100
AcDb3dPolylineVertex
10
351.382530
20
9.086687
30
14.143691
70
32
0
VERTEX
100
AcDbEntity
8
1
100
AcDbVertex
100
AcDb3dPolylineVertex
10
351.382719
20
9.079357
30
14.149979
70
32
0
VERTEX
100
AcDbEntity
8
1
100
AcDbVertex
100
AcDb3dPolylineVertex
10
351.382933
20
9.071077
30
14.154950
70
32
0
VERTEX
100
AcDbEntity
8
1
100
AcDbVertex
100
AcDb3dPolylineVertex
10
351.383165
20
9.062083
30
14.158465
70
32
0
VERTEX
100
AcDbEntity
8
1
100
AcDbVertex
100
AcDb3dPolylineVertex
10
351.383409
20
9.052627
30
14.160425
70
32
0
VERTEX
100
AcDbEntity
8
1
100
AcDbVertex
100
AcDb3dPolylineVertex
10
351.383657
20
9.042979
30
14.160776
70
32
0
VERTEX
100
AcDbEntity
8
1
100
AcDbVertex
100
AcDb3dPolylineVertex
10
351.383903
20
9.033409
30
14.159508
70
32
0
VERTEX
100
AcDbEntity
8
1
100
AcDbVertex
100
AcDb3dPolylineVertex
10
351.384140
20
9.024188
30
14.156657
70
32
0
VERTEX
100
AcDbEntity
8
1
100
AcDbVertex
100
AcDb3dPolylineVertex
10
351.384361
20
9.015575
30
14.152305
70
32
0
VERTEX
100
AcDbEntity
8
1
100
AcDbVertex
100
AcDb3dPolylineVertex
10
351.384560
20
9.007814
30
14.146573
70
32
0
VERTEX
100
AcDbEntity
8
1
100
AcDbVertex
100
AcDb3dPolylineVertex
10
351.384732
20
9.001122
30
14.139623
70
32
0
VERTEX
100
AcDbEntity
8
1
100
AcDbVertex
100
AcDb3dPolylineVertex
10
351.384871
20
8.995689
30
14.131651
70
32
0
SEQEND
100
AcDbEntity
8
1
0
POLYLINE
100
AcDbEntity
8
1
62
1
100
AcDb3dPolyline
66
1
10
0.000000
20
0.000000
30
0.000000
70
8
0
VERTEX
100
AcDbEntity
8
1
100
AcDbVertex
100
AcDb3dPolylineVertex
10
351.384871
20
8.995689
30
14.131651
70
32
0
VERTEX
100
AcDbEntity
8
1
100
AcDbVertex
100
AcDb3dPolylineVertex
10
351.385600
20
8.967155
30
14.081197
70
32
0
VERTEX
100
AcDbEntity
8
1
100
AcDbVertex
100
AcDb3dPolylineVertex
10
351.386841
20
8.918418
30
13.995314
70
32
0
VERTEX
100
AcDbEntity
8
1
100
AcDbVertex
100
AcDb3dPolylineVertex
10
351.388582
20
8.849544
30
13.874578
70
32
0
VERTEX
100
AcDbEntity
8
1
100
AcDbVertex
100
AcDb3dPolylineVertex
10
351.390810
20
8.760635
30
13.719778
70
32
0
VERTEX
100
AcDbEntity
8
1
100
AcDbVertex
100
AcDb3dPolylineVertex
10
351.393506
20
8.651821
30
13.531924
70
32
0
VERTEX
100
AcDbEntity
8
1
100
AcDbVertex
100
AcDb3dPolylineVertex
10
351.396647
20
8.523277
30
13.312238
70
32
0
VERTEX
100
AcDbEntity
8
1
100
AcDbVertex
100
AcDb3dPolylineVertex
10
351.400194
20
8.375784
30
13.061856
70
32
0
VERTEX
100
AcDbEntity
8
1
100
AcDbVertex
100
AcDb3dPolylineVertex
10
351.404103
20
8.210141
30
12.782103
70
32
0
VERTEX
100
AcDbEntity
8
1
100
AcDbVertex
100
AcDb3dPolylineVertex
10
351.408363
20
8.025723
30
12.475268
70
32
0
VERTEX
100
AcDbEntity
8
1
100
AcDbVertex
100
AcDb3dPolylineVertex
10
351.412926
20
7.823371
30
12.143069
70
32
0
VERTEX
100
AcDbEntity
8
1
100
AcDbVertex
100
AcDb3dPolylineVertex
10
351.417721
20
7.604967
30
11.786818
70
32
0
VERTEX
100
AcDbEntity
8
1
100
AcDbVertex
100
AcDb3dPolylineVertex
10
351.422733
20
7.369705
30
11.409477
70
32
0
VERTEX
100
AcDbEntity
8
1
100
AcDbVertex
100
AcDb3dPolylineVertex
10
351.427896
20
7.119267
30
11.012792
70
32
0
VERTEX
100
AcDbEntity
8
1
100
AcDbVertex
100
AcDb3dPolylineVertex
10
351.433151
20
6.854978
30
10.598822
70
32
0
VERTEX
100
AcDbEntity
8
1
100
AcDbVertex
100
AcDb3dPolylineVertex
10
351.438469
20
6.576671
30
10.170646
70
32
0
VERTEX
100
AcDbEntity
8
1
100
AcDbVertex
100
AcDb3dPolylineVertex
10
351.443763
20
6.287423
30
9.729506
70
32
0
VERTEX
100
AcDbEntity
8
1
100
AcDbVertex
100
AcDb3dPolylineVertex
10
351.449023
20
5.986162
30
9.279271
70
32
0
VERTEX
100
AcDbEntity
8
1
100
AcDbVertex
100
AcDb3dPolylineVertex
10
351.454150
20
5.677188
30
8.820541
70
32
0
VERTEX
100
AcDbEntity
8
1
100
AcDbVertex
100
AcDb3dPolylineVertex
10
351.459146
20
5.358994
30
8.357661
70
32
0
VERTEX
100
AcDbEntity
8
1
100
AcDbVertex
100
AcDb3dPolylineVertex
10
351.463924
20
5.035852
30
7.891286
70
32
0
VERTEX
100
AcDbEntity
8
1
100
AcDbVertex
100
AcDb3dPolylineVertex
10
351.468483
20
4.706962
30
7.425448
70
32
0
VERTEX
100
AcDbEntity
8
1
100
AcDbVertex
100
AcDb3dPolylineVertex
10
351.472756
20
4.376276
30
6.960987
70
32
0
VERTEX
100
AcDbEntity
8
1
100
AcDbVertex
100
AcDb3dPolylineVertex
10
351.476741
20
4.043582
30
6.501606
70
32
0
VERTEX
100
AcDbEntity
8
1
100
AcDbVertex
100
AcDb3dPolylineVertex
10
351.480396
20
3.712277
30
6.048452
70
32
0
VERTEX
100
AcDbEntity
8
1
100
AcDbVertex
100
AcDb3dPolylineVertex
10
351.483716
20
3.383450
30
5.604273
70
32
0
VERTEX
100
AcDbEntity
8
1
100
AcDbVertex
100
AcDb3dPolylineVertex
10
351.486685
20
3.059473
30
5.170825
70
32
0
VERTEX
100
AcDbEntity
8
1
100
AcDbVertex
100
AcDb3dPolylineVertex
10
351.489291
20
2.743774
30
4.748941
70
32
0
VERTEX
100
AcDbEntity
8
1
100
AcDbVertex
100
AcDb3dPolylineVertex
10
351.491555
20
2.436547
30
4.341845
70
32
0
VERTEX
100
AcDbEntity
8
1
100
AcDbVertex
100
AcDb3dPolylineVertex
10
351.493470
20
2.142505
30
3.949102
70
32
0
VERTEX
100
AcDbEntity
8
1
100
AcDbVertex
100
AcDb3dPolylineVertex
10
351.495074
20
1.860910
30
3.574474
70
32
0
VERTEX
100
AcDbEntity
8
1
100
AcDbVertex
100
AcDb3dPolylineVertex
10
351.496380
20
1.595226
30
3.218222
70
32
0
VERTEX
100
AcDbEntity
8
1
100
AcDbVertex
100
AcDb3dPolylineVertex
10
351.497419
20
1.346938
30
2.882042
70
32
0
VERTEX
100
AcDbEntity
8
1
100
AcDbVertex
100
AcDb3dPolylineVertex
10
351.498228
20
1.116136
30
2.568667
70
32
0
VERTEX
100
AcDbEntity
8
1
100
AcDbVertex
100
AcDb3dPolylineVertex
10
351.498834
20
0.905200
30
2.278730
70
32
0
VERTEX
100
AcDbEntity
8
1
100
AcDbVertex
100
AcDb3dPolylineVertex
10
351.499273
20
0.714781
30
2.014139
70
32
0
VERTEX
100
AcDbEntity
8
1
100
AcDbVertex
100
AcDb3dPolylineVertex
10
351.499577
20
0.545110
30
1.776987
70
32
0
VERTEX
100
AcDbEntity
8
1
100
AcDbVertex
100
AcDb3dPolylineVertex
10
351.499775
20
0.398016
30
1.567744
70
32
0
VERTEX
100
AcDbEntity
8
1
100
AcDbVertex
100
AcDb3dPolylineVertex
10
351.499893
20
0.274062
30
1.387744
70
32
0
VERTEX
100
AcDbEntity
8
1
100
AcDbVertex
100
AcDb3dPolylineVertex
10
351.499958
20
0.172676
30
1.239096
70
32
0
VERTEX
100
AcDbEntity
8
1
100
AcDbVertex
100
AcDb3dPolylineVertex
10
351.499987
20
0.093771
30
1.123223
70
32
0
VERTEX
100
AcDbEntity
8
1
100
AcDbVertex
100
AcDb3dPolylineVertex
10
351.499998
20
0.037686
30
1.040876
70
32
0
VERTEX
100
AcDbEntity
8
1
100
AcDbVertex
100
AcDb3dPolylineVertex
10
351.500000
20
0.004735
30
0.992502
70
32
0
SEQEND
100
AcDbEntity
8
1
0
POLYLINE
100
AcDbEntity
8
1
62
4
100
AcDb3dPolyline
66
1
10
0.000000
20
0.000000
30
0.000000
70
8
0
VERTEX
100
AcDbEntity
8
1
100
AcDbVertex
100
AcDb3dPolylineVertex
10
363.250000
20
0.004451
30
0.518777
70
32
0
VERTEX
100
AcDbEntity
8
1
100
AcDbVertex
100
AcDb3dPolylineVertex
10
363.250000
20
0.001483
30
0.513598
70
32
0
VERTEX
100
AcDbEntity
8
1
100
AcDbVertex
100
AcDb3dPolylineVertex
10
363.250000
20
-0.000934
30
0.508451
70
32
0
VERTEX
100
AcDbEntity
8
1
100
AcDbVertex
100
AcDb3dPolylineVertex
10
363.250000
20
-0.002752
30
0.503433
70
32
0
VERTEX
100
AcDbEntity
8
1
100
AcDbVertex
100
AcDb3dPolylineVertex
10
363.250000
20
-0.003937
30
0.498643
70
32
0
VERTEX
100
AcDbEntity
8
1
100
AcDbVertex
100
AcDb3dPolylineVertex
10
363.250000
20
-0.004466
30
0.494172
70
32
0
VERTEX
100
AcDbEntity
8
1
100
AcDbVertex
100
AcDb3dPolylineVertex
10
363.250000
20
-0.004328
30
0.490107
70
32
0
VERTEX
100
AcDbEntity
8
1
100
AcDbVertex
100
AcDb3dPolylineVertex
10
363.250000
20
-0.003525
30
0.486525
70
32
0
VERTEX
100
AcDbEntity
8
1
100
AcDbVertex
100
AcDb3dPolylineVertex
10
363.250000
20
-0.002073
30
0.483497
70
32
0
VERTEX
100
AcDbEntity
8
1
100
AcDbVertex
100
AcDb3dPolylineVertex
10
363.250000
20
0.000000
30
0.481080
70
32
0
VERTEX
100
AcDbEntity
8
1
100
AcDbVertex
100
AcDb3dPolylineVertex
10
363.250000
20
0.002654
30
0.479321
70
32
0
VERTEX
100
AcDbEntity
8
1
100
AcDbVertex
100
AcDb3dPolylineVertex
10
363.250000
20
0.005839
30
0.478255
70
32
0
VERTEX
100
AcDbEntity
8
1
100
AcDbVertex
100
AcDb3dPolylineVertex
10
363.250000
20
0.009493
30
0.477902
70
32
0
VERTEX
100
AcDbEntity
8
1
100
AcDbVertex
100
AcDb3dPolylineVertex
10
363.250000
20
0.013545
30
0.478268
70
32
0
VERTEX
100
AcDbEntity
8
1
100
AcDbVertex
100
AcDb3dPolylineVertex
10
363.250000
20
0.017917
30
0.479347
70
32
0
VERTEX
100
AcDbEntity
8
1
100
AcDbVertex
100
AcDb3dPolylineVertex
10
363.249999
20
0.022525
30
0.481118
70
32
0
VERTEX
100
AcDbEntity
8
1
100
AcDbVertex
100
AcDb3dPolylineVertex
10
363.249999
20
0.027279
30
0.483546
70
32
0
VERTEX
100
AcDbEntity
8
1
100
AcDbVertex
100
AcDb3dPolylineVertex
10
363.249999
20
0.032089
30
0.486586
70
32
0
VERTEX
100
AcDbEntity
8
1
100
AcDbVertex
100
AcDb3dPolylineVertex
10
363.249998
20
0.036861
30
0.490178
70
32
0
SEQEND
100
AcDbEntity
8
1
0
POLYLINE
100
AcDbEntity
8
1
62
3
100
AcDb3dPolyline
66
1
10
0.000000
20
0.000000
30
0.000000
70
8
0
VERTEX
100
AcDbEntity
8
1
100
AcDbVertex
100
AcDb3dPolylineVertex
10
363.249998
20
0.036861
30
0.490178
70
32
0
VERTEX
100
AcDbEntity
8
1
100
AcDbVertex
100
AcDb3dPolylineVertex
10
363.249990
20
0.085020
30
0.529466
70
32
0
VERTEX
100
AcDbEntity
8
1
100
AcDbVertex
100
AcDb3dPolylineVertex
10
363.249962
20
0.166859
30
0.596596
70
32
0
VERTEX
100
AcDbEntity
8
1
100
AcDbVertex
100
AcDb3dPolylineVertex
10
363.249891
20
0.281682
30
0.691560
70
32
0
VERTEX
100
AcDbEntity
8
1
100
AcDbVertex
100
AcDb3dPolylineVertex
10
363.249747
20
0.428348
30
0.814468
70
32
0
VERTEX
100
AcDbEntity
8
1
100
AcDbVertex
100
AcDb3dPolylineVertex
10
363.249497
20
0.604727
30
0.966018
70
32
0
VERTEX
100
AcDbEntity
8
1
100
AcDbVertex
100
AcDb3dPolylineVertex
10
363.249102
20
0.807687
30
1.147476
70
32
0
VERTEX
100
AcDbEntity
8
1
100
AcDbVertex
100
AcDb3dPolylineVertex
10
363.248525
20
1.035244
30
1.358812
70
32
0
VERTEX
100
AcDbEntity
8
1
100
AcDbVertex
100
AcDb3dPolylineVertex
10
363.247722
20
1.286446
30
1.598846
70
32
0
VERTEX
100
AcDbEntity
8
1
100
AcDbVertex
100
AcDb3dPolylineVertex
10
363.246658
20
1.558141
30
1.867989
70
32
0
VERTEX
100
AcDbEntity
8
1
100
AcDbVertex
100
AcDb3dPolylineVertex
10
363.245302
20
1.847422
30
2.166139
70
32
0
VERTEX
100
AcDbEntity
8
1
100
AcDbVertex
100
AcDb3dPolylineVertex
10
363.243619
20
2.153033
30
2.491568
70
32
0
VERTEX
100
AcDbEntity
8
1
100
AcDbVertex
100
AcDb3dPolylineVertex
10
363.241594
20
2.471177
30
2.844374
70
32
0
VERTEX
100
AcDbEntity
8
1
100
AcDbVertex
100
AcDb3dPolylineVertex
10
363.239216
20
2.798957
30
3.223642
70
32
0
VERTEX
100
AcDbEntity
8
1
100
AcDbVertex
100
AcDb3dPolylineVertex
10
363.236460
20
3.136354
30
3.625999
70
32
0
VERTEX
100
AcDbEntity
8
1
100
AcDbVertex
100
AcDb3dPolylineVertex
10
363.233351
20
3.477768
30
4.052216
70
32
0
VERTEX
100
AcDbEntity
8
1
100
AcDbVertex
100
AcDb3dPolylineVertex
10
363.229868
20
3.824298
30
4.497747
70
32
0
VERTEX
100
AcDbEntity
8
1
100
AcDbVertex
100
AcDb3dPolylineVertex
10
363.226045
20
4.171659
30
4.962003
70
32
0
VERTEX
100
AcDbEntity
8
1
100
AcDbVertex
100
AcDb3dPolylineVertex
10
363.221887
20
4.519236
30
5.441538
70
32
0
VERTEX
100
AcDbEntity
8
1
100
AcDbVertex
100
AcDb3dPolylineVertex
10
363.217410
20
4.865735
30
5.933373
70
32
0
VERTEX
100
AcDbEntity
8
1
100
AcDbVertex
100
AcDb3dPolylineVertex
10
363.212667
20
5.207764
30
6.435940
70
32
0
VERTEX
100
AcDbEntity
8
1
100
AcDbVertex
100
AcDb3dPolylineVertex
10
363.207668
20
5.545458
30
6.945182
70
32
0
VERTEX
100
AcDbEntity
8
1
100
AcDbVertex
100
AcDb3dPolylineVertex
10
363.202497
20
5.874408
30
7.460120
70
32
0
VERTEX
100
AcDbEntity
8
1
100
AcDbVertex
100
AcDb3dPolylineVertex
10
363.197158
20
6.195730
30
7.976077
70
32
0
VERTEX
100
AcDbEntity
8
1
100
AcDbVertex
100
AcDb3dPolylineVertex
10
363.191754
20
6.504768
30
8.492189
70
32
0
VERTEX
100
AcDbEntity
8
1
100
AcDbVertex
100
AcDb3dPolylineVertex
10
363.186281
20
6.803534
30
9.003369
70
32
0
VERTEX
100
AcDbEntity
8
1
100
AcDbVertex
100
AcDb3dPolylineVertex
10
363.180858
20
7.087117
30
9.508950
70
32
0
VERTEX
100
AcDbEntity
8
1
100
AcDbVertex
100
AcDb3dPolylineVertex
10
363.175468
20
7.358121
30
10.003745
70
32
0
VERTEX
100
AcDbEntity
8
1
100
AcDbVertex
100
AcDb3dPolylineVertex
10
363.170222
20
7.612665
30
10.486603
70
32
0
VERTEX
100
AcDbEntity
8
1
100
AcDbVertex
100
AcDb3dPolylineVertex
10
363.165114
20
7.852531
30
10.953170
70
32
0
VERTEX
100
AcDbEntity
8
1
100
AcDbVertex
100
AcDb3dPolylineVertex
10
363.160224
20
8.075525
30
11.401557
70
32
0
VERTEX
100
AcDbEntity
8
1
100
AcDbVertex
100
AcDb3dPolylineVertex
10
363.155579
20
8.281782
30
11.828711
70
32
0
VERTEX
100
AcDbEntity
8
1
100
AcDbVertex
100
AcDb3dPolylineVertex
10
363.151191
20
8.472011
30
12.231477
70
32
0
VERTEX
100
AcDbEntity
8
1
100
AcDbVertex
100
AcDb3dPolylineVertex
10
363.147136
20
8.644097
30
12.608414
70
32
0
VERTEX
100
AcDbEntity
8
1
100
AcDbVertex
100
AcDb3dPolylineVertex
10
363.143404
20
8.799478
30
12.956383
70
32
0
VERTEX
100
AcDbEntity
8
1
100
AcDbVertex
100
AcDb3dPolylineVertex
10
363.140008
20
8.938514
30
13.273057
70
32
0
VERTEX
100
AcDbEntity
8
1
100
AcDbVertex
100
AcDb3dPolylineVertex
10
363.136999
20
9.059936
30
13.557150
70
32
0
VERTEX
100
AcDbEntity
8
1
100
AcDbVertex
100
AcDb3dPolylineVertex
10
363.134381
20
9.164275
30
13.806674
70
32
0
VERTEX
100
AcDbEntity
8
1
100
AcDbVertex
100
AcDb3dPolylineVertex
10
363.132150
20
9.252236
30
14.019795
70
32
0
VERTEX
100
AcDbEntity
8
1
100
AcDbVertex
100
AcDb3dPolylineVertex
10
363.130318
20
9.323865
30
14.195241
70
32
0
VERTEX
100
AcDbEntity
8
1
100
AcDbVertex
100
AcDb3dPolylineVertex
10
363.128893
20
9.379192
30
14.331974
70
32
0
VERTEX
100
AcDbEntity
8
1
100
AcDbVertex
100
AcDb3dPolylineVertex
10
363.127882
20
9.418262
30
14.429178
70
32
0
VERTEX
100
AcDbEntity
8
1
100
AcDbVertex
100
AcDb3dPolylineVertex
10
363.127289
20
9.441108
30
14.486269
70
32
0
SEQEND
100
AcDbEntity
8
1
0
POLYLINE
100
AcDbEntity
8
1
62
2
100
AcDb3dPolyline
66
1
10
0.000000
20
0.000000
30
0.000000
70
8
0
VERTEX
100
AcDbEntity
8
1
100
AcDbVertex
100
AcDb3dPolylineVertex
10
363.127289
20
9.441108
30
14.486269
70
32
0
VERTEX
100
AcDbEntity
8
1
100
AcDbVertex
100
AcDb3dPolylineVertex
10
363.127198
20
9.444608
30
14.497725
70
32
0
VERTEX
100
AcDbEntity
8
1
100
AcDbVertex
100
AcDb3dPolylineVertex
10
363.127158
20
9.446151
30
14.509601
70
32
0
VERTEX
100
AcDbEntity
8
1
100
AcDbVertex
100
AcDb3dPolylineVertex
10
363.127170
20
9.445696
30
14.521565
70
32
0
VERTEX
100
AcDbEntity
8
1
100
AcDbVertex
100
AcDb3dPolylineVertex
10
363.127233
20
9.443254
30
14.533283
70
32
0
VERTEX
100
AcDbEntity
8
1
100
AcDbVertex
100
AcDb3dPolylineVertex
10
363.127346
20
9.438895
30
14.544427
70
32
0
VERTEX
100
AcDbEntity
8
1
100
AcDbVertex
100
AcDb3dPolylineVertex
10
363.127506
20
9.432741
30
14.554687
70
32
0
VERTEX
100
AcDbEntity
8
1
100
AcDbVertex
100
AcDb3dPolylineVertex
10
363.127708
20
9.424964
30
14.563777
70
32
0
VERTEX
100
AcDbEntity
8
1
100
AcDbVertex
100
AcDb3dPolylineVertex
10
363.127947
20
9.415783
30
14.571444
70
32
0
VERTEX
100
AcDbEntity
8
1
100
AcDbVertex
100
AcDb3dPolylineVertex
10
363.128214
20
9.405454
30
14.577475
70
32
0
VERTEX
100
AcDbEntity
8
1
100
AcDbVertex
100
AcDb3dPolylineVertex
10
363.128504
20
9.394265
30
14.581704
70
32
0
VERTEX
100
AcDbEntity
8
1
100
AcDbVertex
100
AcDb3dPolylineVertex
10
363.128807
20
9.382531
30
14.584012
70
32
0
VERTEX
100
AcDbEntity
8
1
100
AcDbVertex
100
AcDb3dPolylineVertex
10
363.129116
20
9.370577
30
14.584338
70
32
0
VERTEX
100
AcDbEntity
8
1
100
AcDbVertex
100
AcDb3dPolylineVertex
10
363.129421
20
9.358737
30
14.582673
70
32
0
VERTEX
100
AcDbEntity
8
1
100
AcDbVertex
100
AcDb3dPolylineVertex
10
363.129715
20
9.347342
30
14.579063
70
32
0
VERTEX
100
AcDbEntity
8
1
100
AcDbVertex
100
AcDb3dPolylineVertex
10
363.129988
20
9.336708
30
14.573609
70
32
0
VERTEX
100
AcDbEntity
8
1
100
AcDbVertex
100
AcDb3dPolylineVertex
10
363.130234
20
9.327131
30
14.566464
70
32
0
VERTEX
100
AcDbEntity
8
1
100
AcDbVertex
100
AcDb3dPolylineVertex
10
363.130446
20
9.318877
30
14.557825
70
32
0
VERTEX
100
AcDbEntity
8
1
100
AcDbVertex
100
AcDb3dPolylineVertex
10
363.130618
20
9.312177
30
14.547933
70
32
0
SEQEND
100
AcDbEntity
8
1
0
POLYLINE
100
AcDbEntity
8
1
62
1
100
AcDb3dPolyline
66
1
10
0.000000
20
0.000000
30
0.000000
70
8
0
VERTEX
100
AcDbEntity
8
1
100
AcDbVertex
100
AcDb3dPolylineVertex
10
363.130618
20
9.312177
30
14.547933
70
32
0
VERTEX
100
AcDbEntity
8
1
100
AcDbVertex
100
AcDb3dPolylineVertex
10
363.131388
20
9.282112
30
14.494478
70
32
0
VERTEX
100
AcDbEntity
8
1
100
AcDbVertex
100
AcDb3dPolylineVertex
10
363.132697
20
9.230771
30
14.403500
70
32
0
VERTEX
100
AcDbEntity
8
1
100
AcDbVertex
100
AcDb3dPolylineVertex
10
363.134534
20
9.158225
30
14.275601
70
32
0
VERTEX
100
AcDbEntity
8
1
100
AcDbVertex
100
AcDb3dPolylineVertex
10
363.136883
20
9.064582
30
14.111612
70
32
0
VERTEX
100
AcDbEntity
8
1
100
AcDbVertex
100
AcDb3dPolylineVertex
10
363.139726
20
8.949982
30
13.912607
70
32
0
VERTEX
100
AcDbEntity
8
1
100
AcDbVertex
100
AcDb3dPolylineVertex
10
363.143036
20
8.814637
30
13.679867
70
32
0
VERTEX
100
AcDbEntity
8
1
100
AcDbVertex
100
AcDb3dPolylineVertex
10
363.146769
20
8.659496
30
13.414541
70
32
0
VERTEX
100
AcDbEntity
8
1
100
AcDbVertex
100
AcDb3dPolylineVertex
10
363.150878
20
8.485437
30
13.118025
70
32
0
VERTEX
100
AcDbEntity
8
1
100
AcDbVertex
100
AcDb3dPolylineVertex
10
363.155353
20
8.291667
30
12.792789
70
32
0
VERTEX
100
AcDbEntity
8
1
100
AcDbVertex
100
AcDb3dPolylineVertex
10
363.160143
20
8.079167
30
12.440611
70
32
0
VERTEX
100
AcDbEntity
8
1
100
AcDbVertex
100
AcDb3dPolylineVertex
10
363.165165
20
7.850173
30
12.062769
70
32
0
VERTEX
100
AcDbEntity
8
1
100
AcDbVertex
100
AcDb3dPolylineVertex
10
363.170412
20
7.603561
30
11.662512
70
32
0
VERTEX
100
AcDbEntity
8
1
100
AcDbVertex
100
AcDb3dPolylineVertex
10
363.175809
20
7.341251
30
11.241622
70
32
0
VERTEX
100
AcDbEntity
8
1
100
AcDbVertex
100
AcDb3dPolylineVertex
10
363.181292
20
7.064823
30
10.802179
70
32
0
VERTEX
100
AcDbEntity
8
1
100
AcDbVertex
100
AcDb3dPolylineVertex
10
363.186837
20
6.773781
30
10.347588
70
32
0
VERTEX
100
AcDbEntity
8
1
100
AcDbVertex
100
AcDb3dPolylineVertex
10
363.192342
20
6.471862
30
9.878911
70
32
0
VERTEX
100
AcDbEntity
8
1
100
AcDbVertex
100
AcDb3dPolylineVertex
10
363.197809
20
6.157413
30
9.400491
70
32
0
VERTEX
100
AcDbEntity
8
1
100
AcDbVertex
100
AcDb3dPolylineVertex
10
363.203124
20
5.835538
30
8.912669
70
32
0
VERTEX
100
AcDbEntity
8
1
100
AcDbVertex
100
AcDb3dPolylineVertex
10
363.208298
20
5.504088
30
8.420310
70
32
0
VERTEX
100
AcDbEntity
8
1
100
AcDbVertex
100
AcDb3dPolylineVertex
10
363.213234
20
5.168104
30
7.923814
70
32
0
VERTEX
100
AcDbEntity
8
1
100
AcDbVertex
100
AcDb3dPolylineVertex
10
363.217938
20
4.826199
30
7.427730
70
32
0
VERTEX
100
AcDbEntity
8
1
100
AcDbVertex
100
AcDb3dPolylineVertex
10
363.222336
20
4.482994
30
6.932683
70
32
0
VERTEX
100
AcDbEntity
8
1
100
AcDbVertex
100
AcDb3dPolylineVertex
10
363.226432
20
4.137786
30
6.442857
70
32
0
VERTEX
100
AcDbEntity
8
1
100
AcDbVertex
100
AcDb3dPolylineVertex
10
363.230180
20
3.794597
30
5.959184
70
32
0
VERTEX
100
AcDbEntity
8
1
100
AcDbVertex
100
AcDb3dPolylineVertex
10
363.233578
20
3.454074
30
5.484896
70
32
0
VERTEX
100
AcDbEntity
8
1
100
AcDbVertex
100
AcDb3dPolylineVertex
10
363.236609
20
3.119072
30
5.021599
70
32
0
VERTEX
100
AcDbEntity
8
1
100
AcDbVertex
100
AcDb3dPolylineVertex
10
363.239261
20
2.793208
30
4.570198
70
32
0
VERTEX
100
AcDbEntity
8
1
100
AcDbVertex
100
AcDb3dPolylineVertex
10
363.241558
20
2.476467
30
4.134213
70
32
0
VERTEX
100
AcDbEntity
8
1
100
AcDbVertex
100
AcDb3dPolylineVertex
10
363.243493
20
2.174216
30
3.712945
70
32
0
VERTEX
100
AcDbEntity
8
1
100
AcDbVertex
100
AcDb3dPolylineVertex
10
363.245109
20
1.885088
30
3.310755
70
32
0
VERTEX
100
AcDbEntity
8
1
100
AcDbVertex
100
AcDb3dPolylineVertex
10
363.246418
20
1.613209
30
2.927587
70
32
0
VERTEX
100
AcDbEntity
8
1
100
AcDbVertex
100
AcDb3dPolylineVertex
10
363.247455
20
1.359709
30
2.565575
70
32
0
VERTEX
100
AcDbEntity
8
1
100
AcDbVertex
100
AcDb3dPolylineVertex
10
363.248259
20
1.124653
30
2.227596
70
32
0
VERTEX
100
AcDbEntity
8
1
100
AcDbVertex
100
AcDb3dPolylineVertex
10
363.248859
20
0.910453
30
1.914431
70
32
0
VERTEX
100
AcDbEntity
8
1
100
AcDbVertex
100
AcDb3dPolylineVertex
10
363.249291
20
0.717627
30
1.628229
70
32
0
VERTEX
100
AcDbEntity
8
1
100
AcDbVertex
100
AcDb3dPolylineVertex
10
363.249589
20
0.546186
30
1.371383
70
32
0
VERTEX
100
AcDbEntity
8
1
100
AcDbVertex
100
AcDb3dPolylineVertex
10
363.249782
20
0.398034
30
1.144451
70
32
0
VERTEX
100
AcDbEntity
8
1
100
AcDbVertex
100
AcDb3dPolylineVertex
10
363.249897
20
0.273716
30
0.948890
70
32
0
VERTEX
100
AcDbEntity
8
1
100
AcDbVertex
100
AcDb3dPolylineVertex
10
363.249959
20
0.172280
30
0.787205
70
32
0
VERTEX
100
AcDbEntity
8
1
100
AcDbVertex
100
AcDb3dPolylineVertex
10
363.249988
20
0.093406
30
0.661095
70
32
0
VERTEX
100
AcDbEntity
8
1
100
AcDbVertex
100
AcDb3dPolylineVertex
10
363.249998
20
0.037363
30
0.571443
70
32
0
VERTEX
100
AcDbEntity
8
1
100
AcDbVertex
100
AcDb3dPolylineVertex
10
363.250000
20
0.004451
30
0.518777
70
32
0
SEQEND
100
AcDbEntity
8
1
0
POLYLINE
100
AcDbEntity
8
1
62
4
100
AcDb3dPolyline
66
1
10
0.000000
20
0.000000
30
0.000000
70
8
0
VERTEX
100
AcDbEntity
8
1
100
AcDbVertex
100
AcDb3dPolylineVertex
10
375.000000
20
0.003734
30
0.045635
70
32
0
VERTEX
100
AcDbEntity
8
1
100
AcDbVertex
100
AcDb3dPolylineVertex
10
375.000000
20
0.000396
30
0.039271
70
32
0
VERTEX
100
AcDbEntity
8
1
100
AcDbVertex
100
AcDb3dPolylineVertex
10
375.000000
20
-0.002277
30
0.032985
70
32
0
VERTEX
100
AcDbEntity
8
1
100
AcDbVertex
100
AcDb3dPolylineVertex
10
375.000000
20
-0.004237
30
0.026891
70
32
0
VERTEX
100
AcDbEntity
8
1
100
AcDbVertex
100
AcDb3dPolylineVertex
10
375.000000
20
-0.005449
30
0.021098
70
32
0
VERTEX
100
AcDbEntity
8
1
100
AcDbVertex
100
AcDb3dPolylineVertex
10
375.000000
20
-0.005890
30
0.015710
70
32
0
VERTEX
100
AcDbEntity
8
1
100
AcDbVertex
100
AcDb3dPolylineVertex
10
375.000000
20
-0.005554
30
0.010823
70
32
0
VERTEX
100
AcDbEntity
8
1
100
AcDbVertex
100
AcDb3dPolylineVertex
10
375.000000
20
-0.004444
30
0.006527
70
32
0
VERTEX
100
AcDbEntity
8
1
100
AcDbVertex
100
AcDb3dPolylineVertex
10
375.000000
20
-0.002582
30
0.002897
70
32
0
VERTEX
100
AcDbEntity
8
1
100
AcDbVertex
100
AcDb3dPolylineVertex
10
375.000000
20
0.000000
30
0.000000
70
32
0
VERTEX
100
AcDbEntity
8
1
100
AcDbVertex
100
AcDb3dPolylineVertex
10
375.000000
20
0.003255
30
-0.002113
70
32
0
VERTEX
100
AcDbEntity
8
1
100
AcDbVertex
100
AcDb3dPolylineVertex
10
375.000000
20
0.007125
30
-0.003403
70
32
0
VERTEX
100
AcDbEntity
8
1
100
AcDbVertex
100
AcDb3dPolylineVertex
10
375.000000
20
0.011541
30
-0.003847
70
32
0
VERTEX
100
AcDbEntity
8
1
100
AcDbVertex
100
AcDb3dPolylineVertex
10
375.000000
20
0.016423
30
-0.003436
70
32
0
VERTEX
100
AcDbEntity
8
1
100
AcDbVertex
100
AcDb3dPolylineVertex
10
374.999999
20
0.021683
30
-0.002180
70
32
0
VERTEX
100
AcDbEntity
8
1
100
AcDbVertex
100
AcDb3dPolylineVertex
10
374.999999
20
0.027226
30
-0.000099
70
32
0
VERTEX
100
AcDbEntity
8
1
100
AcDbVertex
100
AcDb3dPolylineVertex
10
374.999999
20
0.032953
30
0.002769
70
32
0
VERTEX
100
AcDbEntity
8
1
100
AcDbVertex
100
AcDb3dPolylineVertex
10
374.999998
20
0.038760
30
0.006372
70
32
0
VERTEX
100
AcDbEntity
8
1
100
AcDbVertex
100
AcDb3dPolylineVertex
10
374.999997
20
0.044544
30
0.010645
70
32
0
SEQEND
100
AcDbEntity
8
1
0
POLYLINE
100
AcDbEntity
8
1
62
3
100
AcDb3dPolyline
66
1
10
0.000000
20
0.000000
30
0.000000
70
8
0
VERTEX
100
AcDbEntity
8
1
100
AcDbVertex
100
AcDb3dPolylineVertex
10
374.999997
20
0.044544
30
0.010645
70
32
0
VERTEX
100
AcDbEntity
8
1
100
AcDbVertex
100
AcDb3dPolylineVertex
10
374.999988
20
0.095905
30
0.051756
70
32
0
VERTEX
100
AcDbEntity
8
1
100
AcDbVertex
100
AcDb3dPolylineVertex
10
374.999955
20
0.183207
30
0.122048
70
32
0
VERTEX
100
AcDbEntity
8
1
100
AcDbVertex
100
AcDb3dPolylineVertex
10
374.999875
20
0.305662
30
0.221525
70
32
0
VERTEX
100
AcDbEntity
8
1
100
AcDbVertex
100
AcDb3dPolylineVertex
10
374.999715
20
0.461982
30
0.350373
70
32
0
VERTEX
100
AcDbEntity
8
1
100
AcDbVertex
100
AcDb3dPolylineVertex
10
374.999437
20
0.649698
30
0.509494
70
32
0
VERTEX
100
AcDbEntity
8
1
100
AcDbVertex
100
AcDb3dPolylineVertex
10
374.999002
20
0.865165
30
0.700463
70
32
0
VERTEX
100
AcDbEntity
8
1
100
AcDbVertex
100
AcDb3dPolylineVertex
10
374.998368
20
1.106284
30
0.923239
70
32
0
VERTEX
100
AcDbEntity
8
1
100
AcDbVertex
100
AcDb3dPolylineVertex
10
374.997490
20
1.372043
30
1.176599
70
32
0
VERTEX
100
AcDbEntity
8
1
100
AcDbVertex
100
AcDb3dPolylineVertex
10
374.996331
20
1.658923
30
1.461093
70
32
0
VERTEX
100
AcDbEntity
8
1
100
AcDbVertex
100
AcDb3dPolylineVertex
10
374.994859
20
1.963687
30
1.776716
70
32
0
VERTEX
100
AcDbEntity
8
1
100
AcDbVertex
100
AcDb3dPolylineVertex
10
374.993038
20
2.284977
30
2.121675
70
32
0
VERTEX
100
AcDbEntity
8
1
100
AcDbVertex
100
AcDb3dPolylineVertex
10
374.990855
20
2.618851
30
2.495963
70
32
0
VERTEX
100
AcDbEntity
8
1
100
AcDbVertex
100
AcDb3dPolylineVertex
10
374.988304
20
2.961783
30
2.898939
70
32
0
VERTEX
100
AcDbEntity
8
1
100
AcDbVertex
100
AcDb3dPolylineVertex
10
374.985353
20
3.314339
30
3.326618
70
32
0
VERTEX
100
AcDbEntity
8
1
100
AcDbVertex
100
AcDb3dPolylineVertex
10
374.982040
20
3.670084
30
3.780114
70
32
0
VERTEX
100
AcDbEntity
8
1
100
AcDbVertex
100
AcDb3dPolylineVertex
10
374.978339
20
4.030576
30
4.254374
70
32
0
VERTEX
100
AcDbEntity
8
1
100
AcDbVertex
100
AcDb3dPolylineVertex
10
374.974288
20
4.391294
30
4.748712
70
32
0
VERTEX
100
AcDbEntity
8
1
100
AcDbVertex
100
AcDb3dPolylineVertex
10
374.969896
20
4.751503
30
5.259559
70
32
0
VERTEX
100
AcDbEntity
8
1
100
AcDbVertex
100
AcDb3dPolylineVertex
10
374.965178
20
5.110346
30
5.783416
70
32
0
VERTEX
100
AcDbEntity
8
1
100
AcDbVertex
100
AcDb3dPolylineVertex
10
374.960193
20
5.463820
30
6.318876
70
32
0
VERTEX
100
AcDbEntity
8
1
100
AcDbVertex
100
AcDb3dPolylineVertex
10
374.954949
20
5.812593
30
6.861331
70
32
0
VERTEX
100
AcDbEntity
8
1
100
AcDbVertex
100
AcDb3dPolylineVertex
10
374.949541
20
6.151559
30
7.409984
70
32
0
VERTEX
100
AcDbEntity
8
1
100
AcDbVertex
100
AcDb3dPolylineVertex
10
374.943966
20
6.482441
30
7.959594
70
32
0
VERTEX
100
AcDbEntity
8
1
100
AcDbVertex
100
AcDb3dPolylineVertex
10
374.938344
20
6.799872
30
8.509471
70
32
0
VERTEX
100
AcDbEntity
8
1
100
AcDbVertex
100
AcDb3dPolylineVertex
10
374.932656
20
7.106568
30
9.053941
70
32
0
VERTEX
100
AcDbEntity
8
1
100
AcDbVertex
100
AcDb3dPolylineVertex
10
374.927042
20
7.396858
30
9.592531
70
32
0
VERTEX
100
AcDbEntity
8
1
100
AcDbVertex
100
AcDb3dPolylineVertex
10
374.921469
20
7.674106
30
10.119470
70
32
0
VERTEX
100
AcDbEntity
8
1
100
AcDbVertex
100
AcDb3dPolylineVertex
10
374.916064
20
7.933805
30
10.633741
70
32
0
VERTEX
100
AcDbEntity
8
1
100
AcDbVertex
100
AcDb3dPolylineVertex
10
374.910809
20
8.178339
30
11.130515
70
32
0
VERTEX
100
AcDbEntity
8
1
100
AcDbVertex
100
AcDb3dPolylineVertex
10
374.905793
20
8.405131
30
11.607935
70
32
0
VERTEX
100
AcDbEntity
8
1
100
AcDbVertex
100
AcDb3dPolylineVertex
10
374.901039
20
8.614562
30
12.062673
70
32
0
VERTEX
100
AcDbEntity
8
1
100
AcDbVertex
100
AcDb3dPolylineVertex
10
374.896555
20
8.807559
30
12.491344
70
32
0
VERTEX
100
AcDbEntity
8
1
100
AcDbVertex
100
AcDb3dPolylineVertex
10
374.892424
20
8.981663
30
12.892535
70
32
0
VERTEX
100
AcDbEntity
8
1
100
AcDbVertex
100
AcDb3dPolylineVertex
10
374.888629
20
9.138685
30
13.262828
70
32
0
VERTEX
100
AcDbEntity
8
1
100
AcDbVertex
100
AcDb3dPolylineVertex
10
374.885180
20
9.279120
30
13.599737
70
32
0
VERTEX
100
AcDbEntity
8
1
100
AcDbVertex
100
AcDb3dPolylineVertex
10
374.882130
20
9.401505
30
13.901970
70
32
0
VERTEX
100
AcDbEntity
8
1
100
AcDbVertex
100
AcDb3dPolylineVertex
10
374.879483
20
9.506468
30
14.167424
70
32
0
VERTEX
100
AcDbEntity
8
1
100
AcDbVertex
100
AcDb3dPolylineVertex
10
374.877230
20
9.594904
30
14.394118
70
32
0
VERTEX
100
AcDbEntity
8
1
100
AcDbVertex
100
AcDb3dPolylineVertex
10
374.875381
20
9.666889
30
14.580712
70
32
0
VERTEX
100
AcDbEntity
8
1
100
AcDbVertex
100
AcDb3dPolylineVertex
10
374.873944
20
9.722470
30
14.726117
70
32
0
VERTEX
100
AcDbEntity
8
1
100
AcDbVertex
100
AcDb3dPolylineVertex
10
374.872924
20
9.761709
30
14.829478
70
32
0
VERTEX
100
AcDbEntity
8
1
100
AcDbVertex
100
AcDb3dPolylineVertex
10
374.872326
20
9.784650
30
14.890183
70
32
0
SEQEND
100
AcDbEntity
8
1
0
POLYLINE
100
AcDbEntity
8
1
62
2
100
AcDb3dPolyline
66
1
10
0.000000
20
0.000000
30
0.000000
70
8
0
VERTEX
100
AcDbEntity
8
1
100
AcDbVertex
100
AcDb3dPolylineVertex
10
374.872326
20
9.784650
30
14.890183
70
32
0
VERTEX
100
AcDbEntity
8
1
100
AcDbVertex
100
AcDb3dPolylineVertex
10
374.872222
20
9.788623
30
14.904121
70
32
0
VERTEX
100
AcDbEntity
8
1
100
AcDbVertex
100
AcDb3dPolylineVertex
10
374.872180
20
9.790234
30
14.918521
70
32
0
VERTEX
100
AcDbEntity
8
1
100
AcDbVertex
100
AcDb3dPolylineVertex
10
374.872201
20
9.789439
30
14.932985
70
32
0
VERTEX
100
AcDbEntity
8
1
100
AcDbVertex
100
AcDb3dPolylineVertex
10
374.872284
20
9.786261
30
14.947113
70
32
0
VERTEX
100
AcDbEntity
8
1
100
AcDbVertex
100
AcDb3dPolylineVertex
10
374.872427
20
9.780788
30
14.960515
70
32
0
VERTEX
100
AcDbEntity
8
1
100
AcDbVertex
100
AcDb3dPolylineVertex
10
374.872625
20
9.773171
30
14.972823
70
32
0
VERTEX
100
AcDbEntity
8
1
100
AcDbVertex
100
AcDb3dPolylineVertex
10
374.872874
20
9.763622
30
14.983697
70
32
0
VERTEX
100
AcDbEntity
8
1
100
AcDbVertex
100
AcDb3dPolylineVertex
10
374.873166
20
9.752405
30
14.992840
70
32
0
VERTEX
100
AcDbEntity
8
1
100
AcDbVertex
100
AcDb3dPolylineVertex
10
374.873493
20
9.739830
30
15.000000
70
32
0
VERTEX
100
AcDbEntity
8
1
100
AcDbVertex
100
AcDb3dPolylineVertex
10
374.873846
20
9.726245
30
15.004982
70
32
0
VERTEX
100
AcDbEntity
8
1
100
AcDbVertex
100
AcDb3dPolylineVertex
10
374.874214
20
9.712024
30
15.007649
70
32
0
VERTEX
100
AcDbEntity
8
1
100
AcDbVertex
100
AcDb3dPolylineVertex
10
374.874589
20
9.697561
30
15.007931
70
32
0
VERTEX
100
AcDbEntity
8
1
100
AcDbVertex
100
AcDb3dPolylineVertex
10
374.874959
20
9.683252
30
15.005819
70
32
0
VERTEX
100
AcDbEntity
8
1
100
AcDbVertex
100
AcDb3dPolylineVertex
10
374.875314
20
9.669492
30
15.001373
70
32
0
VERTEX
100
AcDbEntity
8
1
100
AcDbVertex
100
AcDb3dPolylineVertex
10
374.875645
20
9.656660
30
14.994716
70
32
0
VERTEX
100
AcDbEntity
8
1
100
AcDbVertex
100
AcDb3dPolylineVertex
10
374.875942
20
9.645107
30
14.986031
70
32
0
VERTEX
100
AcDbEntity
8
1
100
AcDbVertex
100
AcDb3dPolylineVertex
10
374.876198
20
9.635151
30
14.975555
70
32
0
VERTEX
100
AcDbEntity
8
1
100
AcDbVertex
100
AcDb3dPolylineVertex
10
374.876406
20
9.627065
30
14.963578
70
32
0
SEQEND
100
AcDbEntity
8
1
0
POLYLINE
100
AcDbEntity
8
1
62
1
100
AcDb3dPolyline
66
1
10
0.000000
20
0.000000
30
0.000000
70
8
0
VERTEX
100
AcDbEntity
8
1
100
AcDbVertex
100
AcDb3dPolylineVertex
10
374.876406
20
9.627065
30
14.963578
70
32
0
VERTEX
100
AcDbEntity
8
1
100
AcDbVertex
100
AcDb3dPolylineVertex
10
374.877217
20
9.595411
30
14.907149
70
32
0
VERTEX
100
AcDbEntity
8
1
100
AcDbVertex
100
AcDb3dPolylineVertex
10
374.878597
20
9.541358
30
14.811112
70
32
0
VERTEX
100
AcDbEntity
8
1
100
AcDbVertex
100
AcDb3dPolylineVertex
10
374.880533
20
9.464987
30
14.676098
70
32
0
VERTEX
100
AcDbEntity
8
1
100
AcDbVertex
100
AcDb3dPolylineVertex
10
374.883009
20
9.366417
30
14.502985
70
32
0
VERTEX
100
AcDbEntity
8
1
100
AcDbVertex
100
AcDb3dPolylineVertex
10
374.886003
20
9.245804
30
14.292903
70
32
0
VERTEX
100
AcDbEntity
8
1
100
AcDbVertex
100
AcDb3dPolylineVertex
10
374.889488
20
9.103384
30
14.047203
70
32
0
VERTEX
100
AcDbEntity
8
1
100
AcDbVertex
100
AcDb3dPolylineVertex
10
374.893413
20
8.940295
30
13.767041
70
32
0
VERTEX
100
AcDbEntity
8
1
100
AcDbVertex
100
AcDb3dPolylineVertex
10
374.897727
20
8.757511
30
13.453874
70
32
0
VERTEX
100
AcDbEntity
8
1
100
AcDbVertex
100
AcDb3dPolylineVertex
10
374.902425
20
8.554048
30
13.110367
70
32
0
VERTEX
100
AcDbEntity
8
1
100
AcDbVertex
100
AcDb3dPolylineVertex
10
374.907447
20
8.331031
30
12.738359
70
32
0
VERTEX
100
AcDbEntity
8
1
100
AcDbVertex
100
AcDb3dPolylineVertex
10
374.912702
20
8.091079
30
12.339083
70
32
0
VERTEX
100
AcDbEntity
8
1
100
AcDbVertex
100
AcDb3dPolylineVertex
10
374.918189
20
7.832743
30
11.916076
70
32
0
VERTEX
100
AcDbEntity
8
1
100
AcDbVertex
100
AcDb3dPolylineVertex
10
374.923824
20
7.558187
30
11.471157
70
32
0
VERTEX
100
AcDbEntity
8
1
100
AcDbVertex
100
AcDb3dPolylineVertex
10
374.929537
20
7.269272
30
11.006415
70
32
0
VERTEX
100
AcDbEntity
8
1
100
AcDbVertex
100
AcDb3dPolylineVertex
10
374.935310
20
6.965156
30
10.525589
70
32
0
VERTEX
100
AcDbEntity
8
1
100
AcDbVertex
100
AcDb3dPolylineVertex
10
374.941028
20
6.650237
30
10.029570
70
32
0
VERTEX
100
AcDbEntity
8
1
100
AcDbVertex
100
AcDb3dPolylineVertex
10
374.946701
20
6.322295
30
9.523153
70
32
0
VERTEX
100
AcDbEntity
8
1
100
AcDbVertex
100
AcDb3dPolylineVertex
10
374.952200
20
5.987265
30
9.006421
70
32
0
VERTEX
100
AcDbEntity
8
1
100
AcDbVertex
100
AcDb3dPolylineVertex
10
374.957550
20
5.642328
30
8.484761
70
32
0
VERTEX
100
AcDbEntity
8
1
100
AcDbVertex
100
AcDb3dPolylineVertex
10
374.962639
20
5.293318
30
7.958319
70
32
0
VERTEX
100
AcDbEntity
8
1
100
AcDbVertex
100
AcDb3dPolylineVertex
10
374.967484
20
4.938247
30
7.432151
70
32
0
VERTEX
100
AcDbEntity
8
1
100
AcDbVertex
100
AcDb3dPolylineVertex
10
374.972000
20
4.582458
30
6.906649
70
32
0
VERTEX
100
AcDbEntity
8
1
100
AcDbVertex
100
AcDb3dPolylineVertex
10
374.976202
20
4.224677
30
6.386512
70
32
0
VERTEX
100
AcDbEntity
8
1
100
AcDbVertex
100
AcDb3dPolylineVertex
10
374.980034
20
3.869598
30
5.872443
70
32
0
VERTEX
100
AcDbEntity
8
1
100
AcDbVertex
100
AcDb3dPolylineVertex
10
374.983504
20
3.517396
30
5.368158
70
32
0
VERTEX
100
AcDbEntity
8
1
100
AcDbVertex
100
AcDb3dPolylineVertex
10
374.986588
20
3.171517
30
4.875050
70
32
0
VERTEX
100
AcDbEntity
8
1
100
AcDbVertex
100
AcDb3dPolylineVertex
10
374.989279
20
2.835614
30
4.394205
70
32
0
VERTEX
100
AcDbEntity
8
1
100
AcDbVertex
100
AcDb3dPolylineVertex
10
374.991602
20
2.509595
30
3.929334
70
32
0
VERTEX
100
AcDbEntity
8
1
100
AcDbVertex
100
AcDb3dPolylineVertex
10
374.993550
20
2.199453
30
3.479511
70
32
0
VERTEX
100
AcDbEntity
8
1
100
AcDbVertex
100
AcDb3dPolylineVertex
10
374.995171
20
1.903146
30
3.049703
70
32
0
VERTEX
100
AcDbEntity
8
1
100
AcDbVertex
100
AcDb3dPolylineVertex
10
374.996477
20
1.625551
30
2.639490
70
32
0
VERTEX
100
AcDbEntity
8
1
100
AcDbVertex
100
AcDb3dPolylineVertex
10
374.997507
20
1.367326
30
2.251516
70
32
0
VERTEX
100
AcDbEntity
8
1
100
AcDbVertex
100
AcDb3dPolylineVertex
10
374.998302
20
1.128550
30
1.888768
70
32
0
VERTEX
100
AcDbEntity
8
1
100
AcDbVertex
100
AcDb3dPolylineVertex
10
374.998892
20
0.911678
30
1.552165
70
32
0
VERTEX
100
AcDbEntity
8
1
100
AcDbVertex
100
AcDb3dPolylineVertex
10
374.999314
20
0.717044
30
1.244129
70
32
0
VERTEX
100
AcDbEntity
8
1
100
AcDbVertex
100
AcDb3dPolylineVertex
10
374.999605
20
0.544417
30
0.967363
70
32
0
VERTEX
100
AcDbEntity
8
1
100
AcDbVertex
100
AcDb3dPolylineVertex
10
374.999791
20
0.395763
30
0.722521
70
32
0
VERTEX
100
AcDbEntity
8
1
100
AcDbVertex
100
AcDb3dPolylineVertex
10
374.999902
20
0.271619
30
0.511176
70
32
0
VERTEX
100
AcDbEntity
8
1
100
AcDbVertex
100
AcDb3dPolylineVertex
10
374.999961
20
0.170610
30
0.336251
70
32
0
VERTEX
100
AcDbEntity
8
1
100
AcDbVertex
100
AcDb3dPolylineVertex
10
374.999989
20
0.092154
30
0.199735
70
32
0
VERTEX
100
AcDbEntity
8
1
100
AcDbVertex
100
AcDb3dPolylineVertex
10
374.999998
20
0.036434
30
0.102654
70
32
0
VERTEX
100
AcDbEntity
8
1
100
AcDbVertex
100
AcDb3dPolylineVertex
10
375.000000
20
0.003734
30
0.045635
70
32
0
SEQEND
100
AcDbEntity
8
1
0
POLYLINE
100
AcDbEntity
8
1
62
7
100
AcDb3dPolyline
66
1
10
0.000000
20
0.000000
30
0.000000
70
8
0
VERTEX
100
AcDbEntity
8
1
100
AcDbVertex
100
AcDb3dPolylineVertex
10
328.000000
20
0.004177
30
1.941824
70
32
0
VERTEX
100
AcDbEntity
8
1
100
AcDbVertex
100
AcDb3dPolylineVertex
10
339.750000
20
0.004628
30
1.466839
70
32
0
VERTEX
100
AcDbEntity
8
1
100
AcDbVertex
100
AcDb3dPolylineVertex
10
351.500000
20
0.004735
30
0.992502
70
32
0
VERTEX
100
AcDbEntity
8
1
100
AcDbVertex
100
AcDb3dPolylineVertex
10
363.250000
20
0.004451
30
0.518777
70
32
0
VERTEX
100
AcDbEntity
8
1
100
AcDbVertex
100
AcDb3dPolylineVertex
10
375.000000
20
0.003734
30
0.045635
70
32
0
SEQEND
100
AcDbEntity
8
1
0
POLYLINE
100
AcDbEntity
8
1
62
7
100
AcDb3dPolyline
66
1
10
0.000000
20
0.000000
30
0.000000
70
8
0
VERTEX
100
AcDbEntity
8
1
100
AcDbVertex
100
AcDb3dPolylineVertex
10
328.000000
20
0.017426
30
1.928822
70
32
0
VERTEX
100
AcDbEntity
8
1
100
AcDbVertex
100
AcDb3dPolylineVertex
10
339.749999
20
0.023296
30
1.449225
70
32
0
VERTEX
100
AcDbEntity
8
1
100
AcDbVertex
100
AcDb3dPolylineVertex
10
351.499999
20
0.029777
30
0.969691
70
32
0
VERTEX
100
AcDbEntity
8
1
100
AcDbVertex
100
AcDb3dPolylineVertex
10
363.249998
20
0.036861
30
0.490178
70
32
0
VERTEX
100
AcDbEntity
8
1
100
AcDbVertex
100
AcDb3dPolylineVertex
10
374.999997
20
0.044544
30
0.010645
70
32
0
SEQEND
100
AcDbEntity
8
1
0
POLYLINE
100
AcDbEntity
8
1
62
7
100
AcDb3dPolyline
66
1
10
0.000000
20
0.000000
30
0.000000
70
8
0
VERTEX
100
AcDbEntity
8
1
100
AcDbVertex
100
AcDb3dPolylineVertex
10
327.893494
20
8.358037
30
13.297121
70
32
0
VERTEX
100
AcDbEntity
8
1
100
AcDbVertex
100
AcDb3dPolylineVertex
10
339.639163
20
8.677636
30
13.714719
70
32
0
VERTEX
100
AcDbEntity
8
1
100
AcDbVertex
100
AcDb3dPolylineVertex
10
351.384871
20
8.995689
30
14.131651
70
32
0
VERTEX
100
AcDbEntity
8
1
100
AcDbVertex
100
AcDb3dPolylineVertex
10
363.130618
20
9.312177
30
14.547933
70
32
0
VERTEX
100
AcDbEntity
8
1
100
AcDbVertex
100
AcDb3dPolylineVertex
10
374.876406
20
9.627065
30
14.963578
70
32
0
SEQEND
100
AcDbEntity
8
1
0
POLYLINE
100
AcDbEntity
8
1
62
7
100
AcDb3dPolyline
66
1
10
0.000000
20
0.000000
30
0.000000
70
8
0
VERTEX
100
AcDbEntity
8
1
100
AcDbVertex
100
AcDb3dPolylineVertex
10
327.891991
20
8.416794
30
13.266105
70
32
0
VERTEX
100
AcDbEntity
8
1
100
AcDbVertex
100
AcDb3dPolylineVertex
10
339.637121
20
8.757206
30
13.674227
70
32
0
VERTEX
100
AcDbEntity
8
1
100
AcDbVertex
100
AcDb3dPolylineVertex
10
351.382220
20
9.098637
30
14.080946
70
32
0
VERTEX
100
AcDbEntity
8
1
100
AcDbVertex
100
AcDb3dPolylineVertex
10
363.127289
20
9.441108
30
14.486269
70
32
0
VERTEX
100
AcDbEntity
8
1
100
AcDbVertex
100
AcDb3dPolylineVertex
10
374.872326
20
9.784650
30
14.890183
70
32
0
SEQEND
100
AcDbEntity
8
1
0
POLYLINE
100
AcDbEntity
8
1
62
7
100
AcDb3dPolyline
66
1
10
0.000000
20
0.000000
30
0.000000
70
8
0
VERTEX
100
AcDbEntity
8
1
100
AcDbVertex
100
AcDb3dPolylineVertex
10
328.000000
20
0.000000
30
-47.000000
70
32
0
VERTEX
100
AcDbEntity
8
1
100
AcDbVertex
100
AcDb3dPolylineVertex
10
328.000000
20
0.000000
30
0.000000
70
32
0
VERTEX
100
AcDbEntity
8
1
100
AcDbVertex
100
AcDb3dPolylineVertex
10
328.000000
20
0.000000
30
1.924320
70
32
0
VERTEX
100
AcDbEntity
8
1
100
AcDbVertex
100
AcDb3dPolylineVertex
10
328.000000
20
0.000000
30
2.114080
70
32
0
VERTEX
100
AcDbEntity
8
1
100
AcDbVertex
100
AcDb3dPolylineVertex
10
328.000000
20
0.000000
30
2.303839
70
32
0
VERTEX
100
AcDbEntity
8
1
100
AcDbVertex
100
AcDb3dPolylineVertex
10
328.000000
20
0.000000
30
2.493599
70
32
0
VERTEX
100
AcDbEntity
8
1
100
AcDbVertex
100
AcDb3dPolylineVertex
10
328.000000
20
0.000000
30
2.683359
70
32
0
VERTEX
100
AcDbEntity
8
1
100
AcDbVertex
100
AcDb3dPolylineVertex
10
328.000000
20
0.000000
30
2.873118
70
32
0
VERTEX
100
AcDbEntity
8
1
100
AcDbVertex
100
AcDb3dPolylineVertex
10
328.000000
20
0.000000
30
3.062878
70
32
0
VERTEX
100
AcDbEntity
8
1
100
AcDbVertex
100
AcDb3dPolylineVertex
10
328.000000
20
0.000000
30
3.252638
70
32
0
VERTEX
100
AcDbEntity
8
1
100
AcDbVertex
100
AcDb3dPolylineVertex
10
328.000000
20
0.000000
30
3.442397
70
32
0
VERTEX
100
AcDbEntity
8
1
100
AcDbVertex
100
AcDb3dPolylineVertex
10
328.000000
20
0.000000
30
3.632157
70
32
0
VERTEX
100
AcDbEntity
8
1
100
AcDbVertex
100
AcDb3dPolylineVertex
10
328.000000
20
0.000000
30
3.821917
70
32
0
VERTEX
100
AcDbEntity
8
1
100
AcDbVertex
100
AcDb3dPolylineVertex
10
328.000000
20
0.000000
30
4.011676
70
32
0
VERTEX
100
AcDbEntity
8
1
100
AcDbVertex
100
AcDb3dPolylineVertex
10
328.000000
20
0.000000
30
4.201436
70
32
0
VERTEX
100
AcDbEntity
8
1
100
AcDbVertex
100
AcDb3dPolylineVertex
10
328.000000
20
0.000000
30
4.391196
70
32
0
VERTEX
100
AcDbEntity
8
1
100
AcDbVertex
100
AcDb3dPolylineVertex
10
328.000000
20
0.000000
30
4.580955
70
32
0
VERTEX
100
AcDbEntity
8
1
100
AcDbVertex
100
AcDb3dPolylineVertex
10
328.000000
20
0.000000
30
4.770715
70
32
0
VERTEX
100
AcDbEntity
8
1
100
AcDbVertex
100
AcDb3dPolylineVertex
10
328.000000
20
0.000000
30
4.960475
70
32
0
VERTEX
100
AcDbEntity
8
1
100
AcDbVertex
100
AcDb3dPolylineVertex
10
328.000000
20
0.000000
30
5.150234
70
32
0
VERTEX
100
AcDbEntity
8
1
100
AcDbVertex
100
AcDb3dPolylineVertex
10
328.000000
20
0.000000
30
5.339994
70
32
0
VERTEX
100
AcDbEntity
8
1
100
AcDbVertex
100
AcDb3dPolylineVertex
10
328.000000
20
0.000000
30
5.529754
70
32
0
VERTEX
100
AcDbEntity
8
1
100
AcDbVertex
100
AcDb3dPolylineVertex
10
328.000000
20
0.000000
30
5.719513
70
32
0
VERTEX
100
AcDbEntity
8
1
100
AcDbVertex
100
AcDb3dPolylineVertex
10
328.000000
20
0.000000
30
5.909273
70
32
0
VERTEX
100
AcDbEntity
8
1
100
AcDbVertex
100
AcDb3dPolylineVertex
10
328.000000
20
0.000000
30
6.099033
70
32
0
VERTEX
100
AcDbEntity
8
1
100
AcDbVertex
100
AcDb3dPolylineVertex
10
328.000000
20
0.000000
30
6.288792
70
32
0
VERTEX
100
AcDbEntity
8
1
100
AcDbVertex
100
AcDb3dPolylineVertex
10
328.000000
20
0.000000
30
6.478552
70
32
0
VERTEX
100
AcDbEntity
8
1
100
AcDbVertex
100
AcDb3dPolylineVertex
10
328.000000
20
0.000000
30
6.668312
70
32
0
VERTEX
100
AcDbEntity
8
1
100
AcDbVertex
100
AcDb3dPolylineVertex
10
328.000000
20
0.000000
30
6.858071
70
32
0
VERTEX
100
AcDbEntity
8
1
100
AcDbVertex
100
AcDb3dPolylineVertex
10
328.000000
20
0.000000
30
7.047831
70
32
0
VERTEX
100
AcDbEntity
8
1
100
AcDbVertex
100
AcDb3dPolylineVertex
10
328.000000
20
0.000000
30
7.237591
70
32
0
VERTEX
100
AcDbEntity
8
1
100
AcDbVertex
100
AcDb3dPolylineVertex
10
328.000000
20
0.000000
30
7.427350
70
32
0
VERTEX
100
AcDbEntity
8
1
100
AcDbVertex
100
AcDb3dPolylineVertex
10
328.000000
20
0.000000
30
7.617110
70
32
0
VERTEX
100
AcDbEntity
8
1
100
AcDbVertex
100
AcDb3dPolylineVertex
10
328.000000
20
0.000000
30
7.806870
70
32
0
VERTEX
100
AcDbEntity
8
1
100
AcDbVertex
100
AcDb3dPolylineVertex
10
328.000000
20
0.000000
30
7.996629
70
32
0
VERTEX
100
AcDbEntity
8
1
100
AcDbVertex
100
AcDb3dPolylineVertex
10
328.000000
20
0.000000
30
8.186389
70
32
0
VERTEX
100
AcDbEntity
8
1
100
AcDbVertex
100
AcDb3dPolylineVertex
10
328.000000
20
0.000000
30
8.376149
70
32
0
VERTEX
100
AcDbEntity
8
1
100
AcDbVertex
100
AcDb3dPolylineVertex
10
328.000000
20
0.000000
30
8.565908
70
32
0
VERTEX
100
AcDbEntity
8
1
100
AcDbVertex
100
AcDb3dPolylineVertex
10
328.000000
20
0.000000
30
8.755668
70
32
0
VERTEX
100
AcDbEntity
8
1
100
AcDbVertex
100
AcDb3dPolylineVertex
10
328.000000
20
0.000000
30
8.945428
70
32
0
VERTEX
100
AcDbEntity
8
1
100
AcDbVertex
100
AcDb3dPolylineVertex
10
328.000000
20
0.000000
30
9.135187
70
32
0
VERTEX
100
AcDbEntity
8
1
100
AcDbVertex
100
AcDb3dPolylineVertex
10
328.000000
20
0.000000
30
9.324947
70
32
0
VERTEX
100
AcDbEntity
8
1
100
AcDbVertex
100
AcDb3dPolylineVertex
10
328.000000
20
0.000000
30
9.514707
70
32
0
VERTEX
100
AcDbEntity
8
1
100
AcDbVertex
100
AcDb3dPolylineVertex
10
328.000000
20
0.000000
30
9.704466
70
32
0
VERTEX
100
AcDbEntity
8
1
100
AcDbVertex
100
AcDb3dPolylineVertex
10
328.000000
20
0.000000
30
9.894226
70
32
0
VERTEX
100
AcDbEntity
8
1
100
AcDbVertex
100
AcDb3dPolylineVertex
10
328.000000
20
0.000000
30
10.083986
70
32
0
VERTEX
100
AcDbEntity
8
1
100
AcDbVertex
100
AcDb3dPolylineVertex
10
328.000000
20
0.000000
30
10.273745
70
32
0
VERTEX
100
AcDbEntity
8
1
100
AcDbVertex
100
AcDb3dPolylineVertex
10
328.000000
20
0.000000
30
10.463505
70
32
0
VERTEX
100
AcDbEntity
8
1
100
AcDbVertex
100
AcDb3dPolylineVertex
10
328.000000
20
0.000000
30
10.653265
70
32
0
VERTEX
100
AcDbEntity
8
1
100
AcDbVertex
100
AcDb3dPolylineVertex
10
328.000000
20
0.000000
30
10.843024
70
32
0
VERTEX
100
AcDbEntity
8
1
100
AcDbVertex
100
AcDb3dPolylineVertex
10
328.000000
20
0.000000
30
11.032784
70
32
0
VERTEX
100
AcDbEntity
8
1
100
AcDbVertex
100
AcDb3dPolylineVertex
10
328.000000
20
0.000000
30
11.222544
70
32
0
VERTEX
100
AcDbEntity
8
1
100
AcDbVertex
100
AcDb3dPolylineVertex
10
328.000000
20
0.000000
30
11.412303
70
32
0
VERTEX
100
AcDbEntity
8
1
100
AcDbVertex
100
AcDb3dPolylineVertex
10
328.000000
20
0.000000
30
11.602063
70
32
0
VERTEX
100
AcDbEntity
8
1
100
AcDbVertex
100
AcDb3dPolylineVertex
10
328.000000
20
0.000000
30
11.791823
70
32
0
VERTEX
100
AcDbEntity
8
1
100
AcDbVertex
100
AcDb3dPolylineVertex
10
328.000000
20
0.000000
30
11.981582
70
32
0
VERTEX
100
AcDbEntity
8
1
100
AcDbVertex
100
AcDb3dPolylineVertex
10
328.000000
20
0.000000
30
12.171342
70
32
0
VERTEX
100
AcDbEntity
8
1
100
AcDbVertex
100
AcDb3dPolylineVertex
10
328.000000
20
0.000000
30
12.361102
70
32
0
VERTEX
100
AcDbEntity
8
1
100
AcDbVertex
100
AcDb3dPolylineVertex
10
328.000000
20
0.000000
30
12.550861
70
32
0
VERTEX
100
AcDbEntity
8
1
100
AcDbVertex
100
AcDb3dPolylineVertex
10
328.000000
20
0.000000
30
12.740621
70
32
0
VERTEX
100
AcDbEntity
8
1
100
AcDbVertex
100
AcDb3dPolylineVertex
10
328.000000
20
0.000000
30
12.930381
70
32
0
VERTEX
100
AcDbEntity
8
1
100
AcDbVertex
100
AcDb3dPolylineVertex
10
328.000000
20
0.000000
30
13.120140
70
32
0
VERTEX
100
AcDbEntity
8
1
100
AcDbVertex
100
AcDb3dPolylineVertex
10
328.000000
20
0.000000
30
13.309900
70
32
0
VERTEX
100
AcDbEntity
8
1
100
AcDbVertex
100
AcDb3dPolylineVertex
10
328.000000
20
0.000000
30
15.000000
70
32
0
VERTEX
100
AcDbEntity
8
1
100
AcDbVertex
100
AcDb3dPolylineVertex
10
328.000000
20
0.000000
30
62.000000
70
32
0
SEQEND
100
AcDbEntity
8
1
0
POLYLINE
100
AcDbEntity
8
1
62
7
100
AcDb3dPolyline
66
1
10
0.000000
20
0.000000
30
0.000000
70
8
0
VERTEX
100
AcDbEntity
8
1
100
AcDbVertex
100
AcDb3dPolylineVertex
10
375.000000
20
0.000000
30
-47.000000
70
32
0
VERTEX
100
AcDbEntity
8
1
100
AcDbVertex
100
AcDb3dPolylineVertex
10
375.000000
20
0.000000
30
0.000000
70
32
0
VERTEX
100
AcDbEntity
8
1
100
AcDbVertex
100
AcDb3dPolylineVertex
10
375.000000
20
0.000000
30
0.250000
70
32
0
VERTEX
100
AcDbEntity
8
1
100
AcDbVertex
100
AcDb3dPolylineVertex
10
375.000000
20
0.000000
30
0.500000
70
32
0
VERTEX
100
AcDbEntity
8
1
100
AcDbVertex
100
AcDb3dPolylineVertex
10
375.000000
20
0.000000
30
0.750000
70
32
0
VERTEX
100
AcDbEntity
8
1
100
AcDbVertex
100
AcDb3dPolylineVertex
10
375.000000
20
0.000000
30
1.000000
70
32
0
VERTEX
100
AcDbEntity
8
1
100
AcDbVertex
100
AcDb3dPolylineVertex
10
375.000000
20
0.000000
30
1.250000
70
32
0
VERTEX
100
AcDbEntity
8
1
100
AcDbVertex
100
AcDb3dPolylineVertex
10
375.000000
20
0.000000
30
1.500000
70
32
0
VERTEX
100
AcDbEntity
8
1
100
AcDbVertex
100
AcDb3dPolylineVertex
10
375.000000
20
0.000000
30
1.750000
70
32
0
VERTEX
100
AcDbEntity
8
1
100
AcDbVertex
100
AcDb3dPolylineVertex
10
375.000000
20
0.000000
30
2.000000
70
32
0
VERTEX
100
AcDbEntity
8
1
100
AcDbVertex
100
AcDb3dPolylineVertex
10
375.000000
20
0.000000
30
2.250000
70
32
0
VERTEX
100
AcDbEntity
8
1
100
AcDbVertex
100
AcDb3dPolylineVertex
10
375.000000
20
0.000000
30
2.500000
70
32
0
VERTEX
100
AcDbEntity
8
1
100
AcDbVertex
100
AcDb3dPolylineVertex
10
375.000000
20
0.000000
30
2.750000
70
32
0
VERTEX
100
AcDbEntity
8
1
100
AcDbVertex
100
AcDb3dPolylineVertex
10
375.000000
20
0.000000
30
3.000000
70
32
0
VERTEX
100
AcDbEntity
8
1
100
AcDbVertex
100
AcDb3dPolylineVertex
10
375.000000
20
0.000000
30
3.250000
70
32
0
VERTEX
100
AcDbEntity
8
1
100
AcDbVertex
100
AcDb3dPolylineVertex
10
375.000000
20
0.000000
30
3.500000
70
32
0
VERTEX
100
AcDbEntity
8
1
100
AcDbVertex
100
AcDb3dPolylineVertex
10
375.000000
20
0.000000
30
3.750000
70
32
0
VERTEX
100
AcDbEntity
8
1
100
AcDbVertex
100
AcDb3dPolylineVertex
10
375.000000
20
0.000000
30
4.000000
70
32
0
VERTEX
100
AcDbEntity
8
1
100
AcDbVertex
100
AcDb3dPolylineVertex
10
375.000000
20
0.000000
30
4.250000
70
32
0
VERTEX
100
AcDbEntity
8
1
100
AcDbVertex
100
AcDb3dPolylineVertex
10
375.000000
20
0.000000
30
4.500000
70
32
0
VERTEX
100
AcDbEntity
8
1
100
AcDbVertex
100
AcDb3dPolylineVertex
10
375.000000
20
0.000000
30
4.750000
70
32
0
VERTEX
100
AcDbEntity
8
1
100
AcDbVertex
100
AcDb3dPolylineVertex
10
375.000000
20
0.000000
30
5.000000
70
32
0
VERTEX
100
AcDbEntity
8
1
100
AcDbVertex
100
AcDb3dPolylineVertex
10
375.000000
20
0.000000
30
5.250000
70
32
0
VERTEX
100
AcDbEntity
8
1
100
AcDbVertex
100
AcDb3dPolylineVertex
10
375.000000
20
0.000000
30
5.500000
70
32
0
VERTEX
100
AcDbEntity
8
1
100
AcDbVertex
100
AcDb3dPolylineVertex
10
375.000000
20
0.000000
30
5.750000
70
32
0
VERTEX
100
AcDbEntity
8
1
100
AcDbVertex
100
AcDb3dPolylineVertex
10
375.000000
20
0.000000
30
6.000000
70
32
0
VERTEX
100
AcDbEntity
8
1
100
AcDbVertex
100
AcDb3dPolylineVertex
10
375.000000
20
0.000000
30
6.250000
70
32
0
VERTEX
100
AcDbEntity
8
1
100
AcDbVertex
100
AcDb3dPolylineVertex
10
375.000000
20
0.000000
30
6.500000
70
32
0
VERTEX
100
AcDbEntity
8
1
100
AcDbVertex
100
AcDb3dPolylineVertex
10
375.000000
20
0.000000
30
6.750000
70
32
0
VERTEX
100
AcDbEntity
8
1
100
AcDbVertex
100
AcDb3dPolylineVertex
10
375.000000
20
0.000000
30
7.000000
70
32
0
VERTEX
100
AcDbEntity
8
1
100
AcDbVertex
100
AcDb3dPolylineVertex
10
375.000000
20
0.000000
30
7.250000
70
32
0
VERTEX
100
AcDbEntity
8
1
100
AcDbVertex
100
AcDb3dPolylineVertex
10
375.000000
20
0.000000
30
7.500000
70
32
0
VERTEX
100
AcDbEntity
8
1
100
AcDbVertex
100
AcDb3dPolylineVertex
10
375.000000
20
0.000000
30
7.750000
70
32
0
VERTEX
100
AcDbEntity
8
1
100
AcDbVertex
100
AcDb3dPolylineVertex
10
375.000000
20
0.000000
30
8.000000
70
32
0
VERTEX
100
AcDbEntity
8
1
100
AcDbVertex
100
AcDb3dPolylineVertex
10
375.000000
20
0.000000
30
8.250000
70
32
0
VERTEX
100
AcDbEntity
8
1
100
AcDbVertex
100
AcDb3dPolylineVertex
10
375.000000
20
0.000000
30
8.500000
70
32
0
VERTEX
100
AcDbEntity
8
1
100
AcDbVertex
100
AcDb3dPolylineVertex
10
375.000000
20
0.000000
30
8.750000
70
32
0
VERTEX
100
AcDbEntity
8
1
100
AcDbVertex
100
AcDb3dPolylineVertex
10
375.000000
20
0.000000
30
9.000000
70
32
0
VERTEX
100
AcDbEntity
8
1
100
AcDbVertex
100
AcDb3dPolylineVertex
10
375.000000
20
0.000000
30
9.250000
70
32
0
VERTEX
100
AcDbEntity
8
1
100
AcDbVertex
100
AcDb3dPolylineVertex
10
375.000000
20
0.000000
30
9.500000
70
32
0
VERTEX
100
AcDbEntity
8
1
100
AcDbVertex
100
AcDb3dPolylineVertex
10
375.000000
20
0.000000
30
9.750000
70
32
0
VERTEX
100
AcDbEntity
8
1
100
AcDbVertex
100
AcDb3dPolylineVertex
10
375.000000
20
0.000000
30
10.000000
70
32
0
VERTEX
100
AcDbEntity
8
1
100
AcDbVertex
100
AcDb3dPolylineVertex
10
375.000000
20
0.000000
30
10.250000
70
32
0
VERTEX
100
AcDbEntity
8
1
100
AcDbVertex
100
AcDb3dPolylineVertex
10
375.000000
20
0.000000
30
10.500000
70
32
0
VERTEX
100
AcDbEntity
8
1
100
AcDbVertex
100
AcDb3dPolylineVertex
10
375.000000
20
0.000000
30
10.750000
70
32
0
VERTEX
100
AcDbEntity
8
1
100
AcDbVertex
100
AcDb3dPolylineVertex
10
375.000000
20
0.000000
30
11.000000
70
32
0
VERTEX
100
AcDbEntity
8
1
100
AcDbVertex
100
AcDb3dPolylineVertex
10
375.000000
20
0.000000
30
11.250000
70
32
0
VERTEX
100
AcDbEntity
8
1
100
AcDbVertex
100
AcDb3dPolylineVertex
10
375.000000
20
0.000000
30
11.500000
70
32
0
VERTEX
100
AcDbEntity
8
1
100
AcDbVertex
100
AcDb3dPolylineVertex
10
375.000000
20
0.000000
30
11.750000
70
32
0
VERTEX
100
AcDbEntity
8
1
100
AcDbVertex
100
AcDb3dPolylineVertex
10
375.000000
20
0.000000
30
12.000000
70
32
0
VERTEX
100
AcDbEntity
8
1
100
AcDbVertex
100
AcDb3dPolylineVertex
10
375.000000
20
0.000000
30
12.250000
70
32
0
VERTEX
100
AcDbEntity
8
1
100
AcDbVertex
100
AcDb3dPolylineVertex
10
375.000000
20
0.000000
30
12.500000
70
32
0
VERTEX
100
AcDbEntity
8
1
100
AcDbVertex
100
AcDb3dPolylineVertex
10
375.000000
20
0.000000
30
12.750000
70
32
0
VERTEX
100
AcDbEntity
8
1
100
AcDbVertex
100
AcDb3dPolylineVertex
10
375.000000
20
0.000000
30
13.000000
70
32
0
VERTEX
100
AcDbEntity
8
1
100
AcDbVertex
100
AcDb3dPolylineVertex
10
375.000000
20
0.000000
30
13.250000
70
32
0
VERTEX
100
AcDbEntity
8
1
100
AcDbVertex
100
AcDb3dPolylineVertex
10
375.000000
20
0.000000
30
13.500000
70
32
0
VERTEX
100
AcDbEntity
8
1
100
AcDbVertex
100
AcDb3dPolylineVertex
10
375.000000
20
0.000000
30
13.750000
70
32
0
VERTEX
100
AcDbEntity
8
1
100
AcDbVertex
100
AcDb3dPolylineVertex
10
375.000000
20
0.000000
30
14.000000
70
32
0
VERTEX
100
AcDbEntity
8
1
100
AcDbVertex
100
AcDb3dPolylineVertex
10
375.000000
20
0.000000
30
14.250000
70
32
0
VERTEX
100
AcDbEntity
8
1
100
AcDbVertex
100
AcDb3dPolylineVertex
10
375.000000
20
0.000000
30
14.500000
70
32
0
VERTEX
100
AcDbEntity
8
1
100
AcDbVertex
100
AcDb3dPolylineVertex
10
375.000000
20
0.000000
30
14.750000
70
32
0
VERTEX
100
AcDbEntity
8
1
100
AcDbVertex
100
AcDb3dPolylineVertex
10
375.000000
20
0.000000
30
15.000000
70
32
0
VERTEX
100
AcDbEntity
8
1
100
AcDbVertex
100
AcDb3dPolylineVertex
10
375.000000
20
0.000000
30
62.000000
70
32
0
SEQEND
100
AcDbEntity
8
1
0
ENDSEC
0
EOF

