0
SECTION
2
HEADER
9
$ACADVER
1
AC1009
9
$EXTMIN
10
0.000000
20
0.000000
30
-42.000000
9
$EXTMAX
10
372.000000
20
372.000000
30
56.000000
0
ENDSEC
0
SECTION
2
ENTITIES
0
POLYLINE
100
AcDbEntity
8
1
62
4
100
AcDb3dPolyline
66
1
10
0.000000
20
0.000000
30
0.000000
70
8
0
VERTEX
100
AcDbEntity
8
1
100
AcDbVertex
100
AcDb3dPolylineVertex
10
330.000000
20
0.003984
30
0.021150
70
32
0
VERTEX
100
AcDbEntity
8
1
100
AcDbVertex
100
AcDb3dPolylineVertex
10
330.000000
20
0.002087
30
0.018345
70
32
0
VERTEX
100
AcDbEntity
8
1
100
AcDbVertex
100
AcDb3dPolylineVertex
10
330.000000
20
0.000496
30
0.015505
70
32
0
VERTEX
100
AcDbEntity
8
1
100
AcDbVertex
100
AcDb3dPolylineVertex
10
330.000000
20
-0.000751
30
0.012698
70
32
0
VERTEX
100
AcDbEntity
8
1
100
AcDbVertex
100
AcDb3dPolylineVertex
10
330.000000
20
-0.001625
30
0.009990
70
32
0
VERTEX
100
AcDbEntity
8
1
100
AcDbVertex
100
AcDb3dPolylineVertex
10
330.000000
20
-0.002105
30
0.007444
70
32
0
VERTEX
100
AcDbEntity
8
1
100
AcDbVertex
100
AcDb3dPolylineVertex
10
330.000000
20
-0.002179
30
0.005121
70
32
0
VERTEX
100
AcDbEntity
8
1
100
AcDbVertex
100
AcDb3dPolylineVertex
10
330.000000
20
-0.001846
30
0.003075
70
32
0
VERTEX
100
AcDbEntity
8
1
100
AcDbVertex
100
AcDb3dPolylineVertex
10
330.000000
20
-0.001114
30
0.001354
70
32
0
VERTEX
100
AcDbEntity
8
1
100
AcDbVertex
100
AcDb3dPolylineVertex
10
330.000000
20
0.000000
30
0.000000
70
32
0
VERTEX
100
AcDbEntity
8
1
100
AcDbVertex
100
AcDb3dPolylineVertex
10
330.000000
20
0.001470
30
-0.000956
70
32
0
VERTEX
100
AcDbEntity
8
1
100
AcDbVertex
100
AcDb3dPolylineVertex
10
330.000000
20
0.003262
30
-0.001492
70
32
0
VERTEX
100
AcDbEntity
8
1
100
AcDbVertex
100
AcDb3dPolylineVertex
10
330.000000
20
0.005332
30
-0.001594
70
32
0
VERTEX
100
AcDbEntity
8
1
100
AcDbVertex
100
AcDb3dPolylineVertex
10
330.000000
20
0.007633
30
-0.001261
70
32
0
VERTEX
100
AcDbEntity
8
1
100
AcDbVertex
100
AcDb3dPolylineVertex
10
330.000000
20
0.010110
30
-0.000499
70
32
0
VERTEX
100
AcDbEntity
8
1
100
AcDbVertex
100
AcDb3dPolylineVertex
10
330.000000
20
0.012704
30
0.000672
70
32
0
VERTEX
100
AcDbEntity
8
1
100
AcDbVertex
100
AcDb3dPolylineVertex
10
330.000000
20
0.015354
30
0.002226
70
32
0
VERTEX
100
AcDbEntity
8
1
100
AcDbVertex
100
AcDb3dPolylineVertex
10
330.000000
20
0.017998
30
0.004125
70
32
0
VERTEX
100
AcDbEntity
8
1
100
AcDbVertex
100
AcDb3dPolylineVertex
10
329.999999
20
0.020574
30
0.006326
70
32
0
SEQEND
100
AcDbEntity
8
1
0
POLYLINE
100
AcDbEntity
8
1
62
3
100
AcDb3dPolyline
66
1
10
0.000000
20
0.000000
30
0.000000
70
8
0
VERTEX
100
AcDbEntity
8
1
100
AcDbVertex
100
AcDb3dPolylineVertex
10
329.999999
20
0.020574
30
0.006326
70
32
0
VERTEX
100
AcDbEntity
8
1
100
AcDbVertex
100
AcDb3dPolylineVertex
10
329.999993
20
0.065777
30
0.048233
70
32
0
VERTEX
100
AcDbEntity
8
1
100
AcDbVertex
100
AcDb3dPolylineVertex
10
329.999969
20
0.142635
30
0.119780
70
32
0
VERTEX
100
AcDbEntity
8
1
100
AcDbVertex
100
AcDb3dPolylineVertex
10
329.999905
20
0.250529
30
0.220842
70
32
0
VERTEX
100
AcDbEntity
8
1
100
AcDbVertex
100
AcDb3dPolylineVertex
10
329.999771
20
0.388517
30
0.351308
70
32
0
VERTEX
100
AcDbEntity
8
1
100
AcDbVertex
100
AcDb3dPolylineVertex
10
329.999533
20
0.555013
30
0.511355
70
32
0
VERTEX
100
AcDbEntity
8
1
100
AcDbVertex
100
AcDb3dPolylineVertex
10
329.999153
20
0.747758
30
0.701458
70
32
0
VERTEX
100
AcDbEntity
8
1
100
AcDbVertex
100
AcDb3dPolylineVertex
10
329.998589
20
0.965007
30
0.921347
70
32
0
VERTEX
100
AcDbEntity
8
1
100
AcDbVertex
100
AcDb3dPolylineVertex
10
329.997798
20
1.205660
30
1.169927
70
32
0
VERTEX
100
AcDbEntity
8
1
100
AcDbVertex
100
AcDb3dPolylineVertex
10
329.996738
20
1.467218
30
1.447036
70
32
0
VERTEX
100
AcDbEntity
8
1
100
AcDbVertex
100
AcDb3dPolylineVertex
10
329.995374
20
1.747288
30
1.752142
70
32
0
VERTEX
100
AcDbEntity
8
1
100
AcDbVertex
100
AcDb3dPolylineVertex
10
329.993667
20
2.044397
30
2.083695
70
32
0
VERTEX
100
AcDbEntity
8
1
100
AcDbVertex
100
AcDb3dPolylineVertex
10
329.991593
20
2.355471
30
2.441232
70
32
0
VERTEX
100
AcDbEntity
8
1
100
AcDbVertex
100
AcDb3dPolylineVertex
10
329.989133
20
2.678066
30
2.823528
70
32
0
VERTEX
100
AcDbEntity
8
1
100
AcDbVertex
100
AcDb3dPolylineVertex
10
329.986261
20
3.011225
30
3.227976
70
32
0
VERTEX
100
AcDbEntity
8
1
100
AcDbVertex
100
AcDb3dPolylineVertex
10
329.982987
20
3.350861
30
3.654262
70
32
0
VERTEX
100
AcDbEntity
8
1
100
AcDbVertex
100
AcDb3dPolylineVertex
10
329.979294
20
3.696665
30
4.098960
70
32
0
VERTEX
100
AcDbEntity
8
1
100
AcDbVertex
100
AcDb3dPolylineVertex
10
329.975205
20
4.045280
30
4.560866
70
32
0
VERTEX
100
AcDbEntity
8
1
100
AcDbVertex
100
AcDb3dPolylineVertex
10
329.970727
20
4.395409
30
5.037098
70
32
0
VERTEX
100
AcDbEntity
8
1
100
AcDbVertex
100
AcDb3dPolylineVertex
10
329.965878
20
4.745434
30
5.524959
70
32
0
VERTEX
100
AcDbEntity
8
1
100
AcDbVertex
100
AcDb3dPolylineVertex
10
329.960704
20
5.092512
30
6.022567
70
32
0
VERTEX
100
AcDbEntity
8
1
100
AcDbVertex
100
AcDb3dPolylineVertex
10
329.955226
20
5.435883
30
6.526518
70
32
0
VERTEX
100
AcDbEntity
8
1
100
AcDbVertex
100
AcDb3dPolylineVertex
10
329.949514
20
5.772203
30
7.035186
70
32
0
VERTEX
100
AcDbEntity
8
1
100
AcDbVertex
100
AcDb3dPolylineVertex
10
329.943592
20
6.101335
30
7.544757
70
32
0
VERTEX
100
AcDbEntity
8
1
100
AcDbVertex
100
AcDb3dPolylineVertex
10
329.937547
20
6.419899
30
8.053607
70
32
0
VERTEX
100
AcDbEntity
8
1
100
AcDbVertex
100
AcDb3dPolylineVertex
10
329.931401
20
6.728349
30
8.557655
70
32
0
VERTEX
100
AcDbEntity
8
1
100
AcDbVertex
100
AcDb3dPolylineVertex
10
329.925254
20
7.023298
30
9.055349
70
32
0
VERTEX
100
AcDbEntity
8
1
100
AcDbVertex
100
AcDb3dPolylineVertex
10
329.919123
20
7.305632
30
9.542547
70
32
0
VERTEX
100
AcDbEntity
8
1
100
AcDbVertex
100
AcDb3dPolylineVertex
10
329.913103
20
7.572626
30
10.017446
70
32
0
VERTEX
100
AcDbEntity
8
1
100
AcDbVertex
100
AcDb3dPolylineVertex
10
329.907216
20
7.824901
30
10.476356
70
32
0
VERTEX
100
AcDbEntity
8
1
100
AcDbVertex
100
AcDb3dPolylineVertex
10
329.901539
20
8.060660
30
10.917170
70
32
0
VERTEX
100
AcDbEntity
8
1
100
AcDbVertex
100
AcDb3dPolylineVertex
10
329.896111
20
8.279833
30
11.336934
70
32
0
VERTEX
100
AcDbEntity
8
1
100
AcDbVertex
100
AcDb3dPolylineVertex
10
329.890965
20
8.482402
30
11.732863
70
32
0
VERTEX
100
AcDbEntity
8
1
100
AcDbVertex
100
AcDb3dPolylineVertex
10
329.886169
20
8.666926
30
12.103138
70
32
0
VERTEX
100
AcDbEntity
8
1
100
AcDbVertex
100
AcDb3dPolylineVertex
10
329.881734
20
8.834103
30
12.444972
70
32
0
VERTEX
100
AcDbEntity
8
1
100
AcDbVertex
100
AcDb3dPolylineVertex
10
329.877689
20
8.983908
30
12.756194
70
32
0
VERTEX
100
AcDbEntity
8
1
100
AcDbVertex
100
AcDb3dPolylineVertex
10
329.874080
20
9.115443
30
13.035298
70
32
0
VERTEX
100
AcDbEntity
8
1
100
AcDbVertex
100
AcDb3dPolylineVertex
10
329.870922
20
9.229028
30
13.280361
70
32
0
VERTEX
100
AcDbEntity
8
1
100
AcDbVertex
100
AcDb3dPolylineVertex
10
329.868224
20
9.324938
30
13.489723
70
32
0
VERTEX
100
AcDbEntity
8
1
100
AcDbVertex
100
AcDb3dPolylineVertex
10
329.866005
20
9.403136
30
13.662113
70
32
0
VERTEX
100
AcDbEntity
8
1
100
AcDbVertex
100
AcDb3dPolylineVertex
10
329.864276
20
9.463601
30
13.796488
70
32
0
VERTEX
100
AcDbEntity
8
1
100
AcDbVertex
100
AcDb3dPolylineVertex
10
329.863047
20
9.506333
30
13.892028
70
32
0
VERTEX
100
AcDbEntity
8
1
100
AcDbVertex
100
AcDb3dPolylineVertex
10
329.862325
20
9.531342
30
13.948166
70
32
0
SEQEND
100
AcDbEntity
8
1
0
POLYLINE
100
AcDbEntity
8
1
62
2
100
AcDb3dPolyline
66
1
10
0.000000
20
0.000000
30
0.000000
70
8
0
VERTEX
100
AcDbEntity
8
1
100
AcDbVertex
100
AcDb3dPolylineVertex
10
329.862325
20
9.531342
30
13.948166
70
32
0
VERTEX
100
AcDbEntity
8
1
100
AcDbVertex
100
AcDb3dPolylineVertex
10
329.862261
20
9.533556
30
13.954559
70
32
0
VERTEX
100
AcDbEntity
8
1
100
AcDbVertex
100
AcDb3dPolylineVertex
10
329.862229
20
9.534654
30
13.961235
70
32
0
VERTEX
100
AcDbEntity
8
1
100
AcDbVertex
100
AcDb3dPolylineVertex
10
329.862231
20
9.534605
30
13.967999
70
32
0
VERTEX
100
AcDbEntity
8
1
100
AcDbVertex
100
AcDb3dPolylineVertex
10
329.862265
20
9.533410
30
13.974657
70
32
0
VERTEX
100
AcDbEntity
8
1
100
AcDbVertex
100
AcDb3dPolylineVertex
10
329.862332
20
9.531103
30
13.981013
70
32
0
VERTEX
100
AcDbEntity
8
1
100
AcDbVertex
100
AcDb3dPolylineVertex
10
329.862429
20
9.527752
30
13.986886
70
32
0
VERTEX
100
AcDbEntity
8
1
100
AcDbVertex
100
AcDb3dPolylineVertex
10
329.862553
20
9.523453
30
13.992105
70
32
0
VERTEX
100
AcDbEntity
8
1
100
AcDbVertex
100
AcDb3dPolylineVertex
10
329.862701
20
9.518333
30
13.996519
70
32
0
VERTEX
100
AcDbEntity
8
1
100
AcDbVertex
100
AcDb3dPolylineVertex
10
329.862868
20
9.512538
30
14.000000
70
32
0
VERTEX
100
AcDbEntity
8
1
100
AcDbVertex
100
AcDb3dPolylineVertex
10
329.863050
20
9.506238
30
14.002449
70
32
0
VERTEX
100
AcDbEntity
8
1
100
AcDbVertex
100
AcDb3dPolylineVertex
10
329.863240
20
9.499614
30
14.003794
70
32
0
VERTEX
100
AcDbEntity
8
1
100
AcDbVertex
100
AcDb3dPolylineVertex
10
329.863435
20
9.492859
30
14.003998
70
32
0
VERTEX
100
AcDbEntity
8
1
100
AcDbVertex
100
AcDb3dPolylineVertex
10
329.863627
20
9.486167
30
14.003054
70
32
0
VERTEX
100
AcDbEntity
8
1
100
AcDbVertex
100
AcDb3dPolylineVertex
10
329.863812
20
9.479733
30
14.000990
70
32
0
VERTEX
100
AcDbEntity
8
1
100
AcDbVertex
100
AcDb3dPolylineVertex
10
329.863984
20
9.473742
30
13.997865
70
32
0
VERTEX
100
AcDbEntity
8
1
100
AcDbVertex
100
AcDb3dPolylineVertex
10
329.864139
20
9.468368
30
13.993771
70
32
0
VERTEX
100
AcDbEntity
8
1
100
AcDbVertex
100
AcDb3dPolylineVertex
10
329.864271
20
9.463766
30
13.988825
70
32
0
VERTEX
100
AcDbEntity
8
1
100
AcDbVertex
100
AcDb3dPolylineVertex
10
329.864377
20
9.460069
30
13.983170
70
32
0
SEQEND
100
AcDbEntity
8
1
0
POLYLINE
100
AcDbEntity
8
1
62
1
100
AcDb3dPolyline
66
1
10
0.000000
20
0.000000
30
0.000000
70
8
0
VERTEX
100
AcDbEntity
8
1
100
AcDbVertex
100
AcDb3dPolylineVertex
10
329.864377
20
9.460069
30
13.983170
70
32
0
VERTEX
100
AcDbEntity
8
1
100
AcDbVertex
100
AcDb3dPolylineVertex
10
329.865211
20
9.430947
30
13.929154
70
32
0
VERTEX
100
AcDbEntity
8
1
100
AcDbVertex
100
AcDb3dPolylineVertex
10
329.866628
20
9.381227
30
13.837244
70
32
0
VERTEX
100
AcDbEntity
8
1
100
AcDbVertex
100
AcDb3dPolylineVertex
10
329.868620
20
9.310954
30
13.708018
70
32
0
VERTEX
100
AcDbEntity
8
1
100
AcDbVertex
100
AcDb3dPolylineVertex
10
329.871168
20
9.220218
30
13.542304
70
32
0
VERTEX
100
AcDbEntity
8
1
100
AcDbVertex
100
AcDb3dPolylineVertex
10
329.874254
20
9.109140
30
13.341161
70
32
0
VERTEX
100
AcDbEntity
8
1
100
AcDbVertex
100
AcDb3dPolylineVertex
10
329.877852
20
8.977887
30
13.105871
70
32
0
VERTEX
100
AcDbEntity
8
1
100
AcDbVertex
100
AcDb3dPolylineVertex
10
329.881924
20
8.827022
30
12.837748
70
32
0
VERTEX
100
AcDbEntity
8
1
100
AcDbVertex
100
AcDb3dPolylineVertex
10
329.886423
20
8.657261
30
12.538245
70
32
0
VERTEX
100
AcDbEntity
8
1
100
AcDbVertex
100
AcDb3dPolylineVertex
10
329.891329
20
8.468237
30
12.209604
70
32
0
VERTEX
100
AcDbEntity
8
1
100
AcDbVertex
100
AcDb3dPolylineVertex
10
329.896594
20
8.260603
30
11.853746
70
32
0
VERTEX
100
AcDbEntity
8
1
100
AcDbVertex
100
AcDb3dPolylineVertex
10
329.902143
20
8.035914
30
11.472286
70
32
0
VERTEX
100
AcDbEntity
8
1
100
AcDbVertex
100
AcDb3dPolylineVertex
10
329.907952
20
7.793786
30
11.068083
70
32
0
VERTEX
100
AcDbEntity
8
1
100
AcDbVertex
100
AcDb3dPolylineVertex
10
329.913953
20
7.535475
30
10.643269
70
32
0
VERTEX
100
AcDbEntity
8
1
100
AcDbVertex
100
AcDb3dPolylineVertex
10
329.920077
20
7.262419
30
10.200006
70
32
0
VERTEX
100
AcDbEntity
8
1
100
AcDbVertex
100
AcDb3dPolylineVertex
10
329.926287
20
6.974587
30
9.741459
70
32
0
VERTEX
100
AcDbEntity
8
1
100
AcDbVertex
100
AcDb3dPolylineVertex
10
329.932492
20
6.674618
30
9.269332
70
32
0
VERTEX
100
AcDbEntity
8
1
100
AcDbVertex
100
AcDb3dPolylineVertex
10
329.938667
20
6.362078
30
8.787290
70
32
0
VERTEX
100
AcDbEntity
8
1
100
AcDbVertex
100
AcDb3dPolylineVertex
10
329.944713
20
6.040411
30
8.296698
70
32
0
VERTEX
100
AcDbEntity
8
1
100
AcDbVertex
100
AcDb3dPolylineVertex
10
329.950613
20
5.709054
30
7.801506
70
32
0
VERTEX
100
AcDbEntity
8
1
100
AcDbVertex
100
AcDb3dPolylineVertex
10
329.956280
20
5.371539
30
7.303096
70
32
0
VERTEX
100
AcDbEntity
8
1
100
AcDbVertex
100
AcDb3dPolylineVertex
10
329.961696
20
5.027811
30
6.805229
70
32
0
VERTEX
100
AcDbEntity
8
1
100
AcDbVertex
100
AcDb3dPolylineVertex
10
329.966795
20
4.681283
30
6.309366
70
32
0
VERTEX
100
AcDbEntity
8
1
100
AcDbVertex
100
AcDb3dPolylineVertex
10
329.971560
20
4.332359
30
5.819015
70
32
0
VERTEX
100
AcDbEntity
8
1
100
AcDbVertex
100
AcDb3dPolylineVertex
10
329.975948
20
3.984209
30
5.335740
70
32
0
VERTEX
100
AcDbEntity
8
1
100
AcDbVertex
100
AcDb3dPolylineVertex
10
329.979946
20
3.638058
30
4.862430
70
32
0
VERTEX
100
AcDbEntity
8
1
100
AcDbVertex
100
AcDb3dPolylineVertex
10
329.983535
20
3.296471
30
4.400951
70
32
0
VERTEX
100
AcDbEntity
8
1
100
AcDbVertex
100
AcDb3dPolylineVertex
10
329.986703
20
2.962410
30
3.952748
70
32
0
VERTEX
100
AcDbEntity
8
1
100
AcDbVertex
100
AcDb3dPolylineVertex
10
329.989465
20
2.636809
30
3.520705
70
32
0
VERTEX
100
AcDbEntity
8
1
100
AcDbVertex
100
AcDb3dPolylineVertex
10
329.991819
20
2.323651
30
3.105227
70
32
0
VERTEX
100
AcDbEntity
8
1
100
AcDbVertex
100
AcDb3dPolylineVertex
10
329.993799
20
2.023091
30
2.709568
70
32
0
VERTEX
100
AcDbEntity
8
1
100
AcDbVertex
100
AcDb3dPolylineVertex
10
329.995421
20
1.738335
30
2.334425
70
32
0
VERTEX
100
AcDbEntity
8
1
100
AcDbVertex
100
AcDb3dPolylineVertex
10
329.996722
20
1.470975
30
1.981608
70
32
0
VERTEX
100
AcDbEntity
8
1
100
AcDbVertex
100
AcDb3dPolylineVertex
10
329.997738
20
1.221808
30
1.653419
70
32
0
VERTEX
100
AcDbEntity
8
1
100
AcDbVertex
100
AcDb3dPolylineVertex
10
329.998506
20
0.993031
30
1.350810
70
32
0
VERTEX
100
AcDbEntity
8
1
100
AcDbVertex
100
AcDb3dPolylineVertex
10
329.999065
20
0.785685
30
1.075486
70
32
0
VERTEX
100
AcDbEntity
8
1
100
AcDbVertex
100
AcDb3dPolylineVertex
10
329.999454
20
0.600433
30
0.829265
70
32
0
VERTEX
100
AcDbEntity
8
1
100
AcDbVertex
100
AcDb3dPolylineVertex
10
329.999708
20
0.439036
30
0.612780
70
32
0
VERTEX
100
AcDbEntity
8
1
100
AcDbVertex
100
AcDb3dPolylineVertex
10
329.999862
20
0.302277
30
0.427244
70
32
0
VERTEX
100
AcDbEntity
8
1
100
AcDbVertex
100
AcDb3dPolylineVertex
10
329.999945
20
0.190080
30
0.274366
70
32
0
VERTEX
100
AcDbEntity
8
1
100
AcDbVertex
100
AcDb3dPolylineVertex
10
329.999984
20
0.102665
30
0.155324
70
32
0
VERTEX
100
AcDbEntity
8
1
100
AcDbVertex
100
AcDb3dPolylineVertex
10
329.999998
20
0.040502
30
0.070777
70
32
0
VERTEX
100
AcDbEntity
8
1
100
AcDbVertex
100
AcDb3dPolylineVertex
10
330.000000
20
0.003984
30
0.021150
70
32
0
SEQEND
100
AcDbEntity
8
1
0
POLYLINE
100
AcDbEntity
8
1
62
4
100
AcDb3dPolyline
66
1
10
0.000000
20
0.000000
30
0.000000
70
8
0
VERTEX
100
AcDbEntity
8
1
100
AcDbVertex
100
AcDb3dPolylineVertex
10
340.500000
20
0.003642
30
0.021024
70
32
0
VERTEX
100
AcDbEntity
8
1
100
AcDbVertex
100
AcDb3dPolylineVertex
10
340.500000
20
0.001802
30
0.018216
70
32
0
VERTEX
100
AcDbEntity
8
1
100
AcDbVertex
100
AcDb3dPolylineVertex
10
340.500000
20
0.000266
30
0.015378
70
32
0
VERTEX
100
AcDbEntity
8
1
100
AcDbVertex
100
AcDb3dPolylineVertex
10
340.500000
20
-0.000929
30
0.012577
70
32
0
VERTEX
100
AcDbEntity
8
1
100
AcDbVertex
100
AcDb3dPolylineVertex
10
340.500000
20
-0.001756
30
0.009880
70
32
0
VERTEX
100
AcDbEntity
8
1
100
AcDbVertex
100
AcDb3dPolylineVertex
10
340.500000
20
-0.002194
30
0.007350
70
32
0
VERTEX
100
AcDbEntity
8
1
100
AcDbVertex
100
AcDb3dPolylineVertex
10
340.500000
20
-0.002234
30
0.005046
70
32
0
VERTEX
100
AcDbEntity
8
1
100
AcDbVertex
100
AcDb3dPolylineVertex
10
340.500000
20
-0.001875
30
0.003022
70
32
0
VERTEX
100
AcDbEntity
8
1
100
AcDbVertex
100
AcDb3dPolylineVertex
10
340.500000
20
-0.001124
30
0.001327
70
32
0
VERTEX
100
AcDbEntity
8
1
100
AcDbVertex
100
AcDb3dPolylineVertex
10
340.500000
20
0.000000
30
0.000000
70
32
0
VERTEX
100
AcDbEntity
8
1
100
AcDbVertex
100
AcDb3dPolylineVertex
10
340.500000
20
0.001471
30
-0.000927
70
32
0
VERTEX
100
AcDbEntity
8
1
100
AcDbVertex
100
AcDb3dPolylineVertex
10
340.500000
20
0.003255
30
-0.001433
70
32
0
VERTEX
100
AcDbEntity
8
1
100
AcDbVertex
100
AcDb3dPolylineVertex
10
340.500000
20
0.005309
30
-0.001506
70
32
0
VERTEX
100
AcDbEntity
8
1
100
AcDbVertex
100
AcDb3dPolylineVertex
10
340.500000
20
0.007585
30
-0.001143
70
32
0
VERTEX
100
AcDbEntity
8
1
100
AcDbVertex
100
AcDb3dPolylineVertex
10
340.500000
20
0.010029
30
-0.000354
70
32
0
VERTEX
100
AcDbEntity
8
1
100
AcDbVertex
100
AcDb3dPolylineVertex
10
340.500000
20
0.012584
30
0.000843
70
32
0
VERTEX
100
AcDbEntity
8
1
100
AcDbVertex
100
AcDb3dPolylineVertex
10
340.500000
20
0.015190
30
0.002420
70
32
0
VERTEX
100
AcDbEntity
8
1
100
AcDbVertex
100
AcDb3dPolylineVertex
10
340.500000
20
0.017785
30
0.004339
70
32
0
VERTEX
100
AcDbEntity
8
1
100
AcDbVertex
100
AcDb3dPolylineVertex
10
340.499999
20
0.020308
30
0.006556
70
32
0
SEQEND
100
AcDbEntity
8
1
0
POLYLINE
100
AcDbEntity
8
1
62
3
100
AcDb3dPolyline
66
1
10
0.000000
20
0.000000
30
0.000000
70
8
0
VERTEX
100
AcDbEntity
8
1
100
AcDbVertex
100
AcDb3dPolylineVertex
10
340.499999
20
0.020308
30
0.006556
70
32
0
VERTEX
100
AcDbEntity
8
1
100
AcDbVertex
100
AcDb3dPolylineVertex
10
340.499994
20
0.064526
30
0.048713
70
32
0
VERTEX
100
AcDbEntity
8
1
100
AcDbVertex
100
AcDb3dPolylineVertex
10
340.499971
20
0.139726
30
0.120701
70
32
0
VERTEX
100
AcDbEntity
8
1
100
AcDbVertex
100
AcDb3dPolylineVertex
10
340.499912
20
0.245283
30
0.222376
70
32
0
VERTEX
100
AcDbEntity
8
1
100
AcDbVertex
100
AcDb3dPolylineVertex
10
340.499788
20
0.380263
30
0.353615
70
32
0
VERTEX
100
AcDbEntity
8
1
100
AcDbVertex
100
AcDb3dPolylineVertex
10
340.499567
20
0.543083
30
0.514580
70
32
0
VERTEX
100
AcDbEntity
8
1
100
AcDbVertex
100
AcDb3dPolylineVertex
10
340.499214
20
0.731492
30
0.705713
70
32
0
VERTEX
100
AcDbEntity
8
1
100
AcDbVertex
100
AcDb3dPolylineVertex
10
340.498692
20
0.943786
30
0.926701
70
32
0
VERTEX
100
AcDbEntity
8
1
100
AcDbVertex
100
AcDb3dPolylineVertex
10
340.497959
20
1.178872
30
1.176461
70
32
0
VERTEX
100
AcDbEntity
8
1
100
AcDbVertex
100
AcDb3dPolylineVertex
10
340.496979
20
1.434287
30
1.454784
70
32
0
VERTEX
100
AcDbEntity
8
1
100
AcDbVertex
100
AcDb3dPolylineVertex
10
340.495718
20
1.707673
30
1.761107
70
32
0
VERTEX
100
AcDbEntity
8
1
100
AcDbVertex
100
AcDb3dPolylineVertex
10
340.494141
20
1.997539
30
2.093911
70
32
0
VERTEX
100
AcDbEntity
8
1
100
AcDbVertex
100
AcDb3dPolylineVertex
10
340.492225
20
2.300981
30
2.452589
70
32
0
VERTEX
100
AcDbEntity
8
1
100
AcDbVertex
100
AcDb3dPolylineVertex
10
340.489955
20
2.615453
30
2.836001
70
32
0
VERTEX
100
AcDbEntity
8
1
100
AcDbVertex
100
AcDb3dPolylineVertex
10
340.487306
20
2.940143
30
3.241474
70
32
0
VERTEX
100
AcDbEntity
8
1
100
AcDbVertex
100
AcDb3dPolylineVertex
10
340.484288
20
3.271007
30
3.668641
70
32
0
VERTEX
100
AcDbEntity
8
1
100
AcDbVertex
100
AcDb3dPolylineVertex
10
340.480887
20
3.607722
30
4.114148
70
32
0
VERTEX
100
AcDbEntity
8
1
100
AcDbVertex
100
AcDb3dPolylineVertex
10
340.477121
20
3.947123
30
4.576651
70
32
0
VERTEX
100
AcDbEntity
8
1
100
AcDbVertex
100
AcDb3dPolylineVertex
10
340.473002
20
4.287793
30
5.053404
70
32
0
VERTEX
100
AcDbEntity
8
1
100
AcDbVertex
100
AcDb3dPolylineVertex
10
340.468543
20
4.628338
30
5.541588
70
32
0
VERTEX
100
AcDbEntity
8
1
100
AcDbVertex
100
AcDb3dPolylineVertex
10
340.463787
20
4.965843
30
6.039387
70
32
0
VERTEX
100
AcDbEntity
8
1
100
AcDbVertex
100
AcDb3dPolylineVertex
10
340.458754
20
5.299682
30
6.543363
70
32
0
VERTEX
100
AcDbEntity
8
1
100
AcDbVertex
100
AcDb3dPolylineVertex
10
340.453510
20
5.626520
30
7.051892
70
32
0
VERTEX
100
AcDbEntity
8
1
100
AcDbVertex
100
AcDb3dPolylineVertex
10
340.448075
20
5.946293
30
7.561179
70
32
0
VERTEX
100
AcDbEntity
8
1
100
AcDbVertex
100
AcDb3dPolylineVertex
10
340.442530
20
6.255673
30
8.069570
70
32
0
VERTEX
100
AcDbEntity
8
1
100
AcDbVertex
100
AcDb3dPolylineVertex
10
340.436896
20
6.555146
30
8.573044
70
32
0
VERTEX
100
AcDbEntity
8
1
100
AcDbVertex
100
AcDb3dPolylineVertex
10
340.431263
20
6.841415
30
9.069992
70
32
0
VERTEX
100
AcDbEntity
8
1
100
AcDbVertex
100
AcDb3dPolylineVertex
10
340.425648
20
7.115366
30
9.556350
70
32
0
VERTEX
100
AcDbEntity
8
1
100
AcDbVertex
100
AcDb3dPolylineVertex
10
340.420136
20
7.374329
30
10.030296
70
32
0
VERTEX
100
AcDbEntity
8
1
100
AcDbVertex
100
AcDb3dPolylineVertex
10
340.414749
20
7.618984
30
10.488166
70
32
0
VERTEX
100
AcDbEntity
8
1
100
AcDbVertex
100
AcDb3dPolylineVertex
10
340.409558
20
7.847493
30
10.927903
70
32
0
VERTEX
100
AcDbEntity
8
1
100
AcDbVertex
100
AcDb3dPolylineVertex
10
340.404594
20
8.059915
30
11.346523
70
32
0
VERTEX
100
AcDbEntity
8
1
100
AcDbVertex
100
AcDb3dPolylineVertex
10
340.399890
20
8.256186
30
11.741311
70
32
0
VERTEX
100
AcDbEntity
8
1
100
AcDbVertex
100
AcDb3dPolylineVertex
10
340.395509
20
8.434910
30
12.110443
70
32
0
VERTEX
100
AcDbEntity
8
1
100
AcDbVertex
100
AcDb3dPolylineVertex
10
340.391458
20
8.596810
30
12.451160
70
32
0
VERTEX
100
AcDbEntity
8
1
100
AcDbVertex
100
AcDb3dPolylineVertex
10
340.387764
20
8.741867
30
12.761325
70
32
0
VERTEX
100
AcDbEntity
8
1
100
AcDbVertex
100
AcDb3dPolylineVertex
10
340.384470
20
8.869185
30
13.039443
70
32
0
VERTEX
100
AcDbEntity
8
1
100
AcDbVertex
100
AcDb3dPolylineVertex
10
340.381588
20
8.979118
30
13.283605
70
32
0
VERTEX
100
AcDbEntity
8
1
100
AcDbVertex
100
AcDb3dPolylineVertex
10
340.379127
20
9.071935
30
13.492178
70
32
0
VERTEX
100
AcDbEntity
8
1
100
AcDbVertex
100
AcDb3dPolylineVertex
10
340.377102
20
9.147600
30
13.663908
70
32
0
VERTEX
100
AcDbEntity
8
1
100
AcDbVertex
100
AcDb3dPolylineVertex
10
340.375524
20
9.206103
30
13.797759
70
32
0
VERTEX
100
AcDbEntity
8
1
100
AcDbVertex
100
AcDb3dPolylineVertex
10
340.374404
20
9.247447
30
13.892922
70
32
0
VERTEX
100
AcDbEntity
8
1
100
AcDbVertex
100
AcDb3dPolylineVertex
10
340.373746
20
9.271636
30
13.948820
70
32
0
SEQEND
100
AcDbEntity
8
1
0
POLYLINE
100
AcDbEntity
8
1
62
2
100
AcDb3dPolyline
66
1
10
0.000000
20
0.000000
30
0.000000
70
8
0
VERTEX
100
AcDbEntity
8
1
100
AcDbVertex
100
AcDb3dPolylineVertex
10
340.373746
20
9.271636
30
13.948820
70
32
0
VERTEX
100
AcDbEntity
8
1
100
AcDbVertex
100
AcDb3dPolylineVertex
10
340.373688
20
9.273763
30
13.955181
70
32
0
VERTEX
100
AcDbEntity
8
1
100
AcDbVertex
100
AcDb3dPolylineVertex
10
340.373660
20
9.274780
30
13.961810
70
32
0
VERTEX
100
AcDbEntity
8
1
100
AcDbVertex
100
AcDb3dPolylineVertex
10
340.373663
20
9.274660
30
13.968515
70
32
0
VERTEX
100
AcDbEntity
8
1
100
AcDbVertex
100
AcDb3dPolylineVertex
10
340.373698
20
9.273404
30
13.975101
70
32
0
VERTEX
100
AcDbEntity
8
1
100
AcDbVertex
100
AcDb3dPolylineVertex
10
340.373762
20
9.271049
30
13.981378
70
32
0
VERTEX
100
AcDbEntity
8
1
100
AcDbVertex
100
AcDb3dPolylineVertex
10
340.373854
20
9.267665
30
13.987164
70
32
0
VERTEX
100
AcDbEntity
8
1
100
AcDbVertex
100
AcDb3dPolylineVertex
10
340.373971
20
9.263348
30
13.992291
70
32
0
VERTEX
100
AcDbEntity
8
1
100
AcDbVertex
100
AcDb3dPolylineVertex
10
340.374111
20
9.258225
30
13.996611
70
32
0
VERTEX
100
AcDbEntity
8
1
100
AcDbVertex
100
AcDb3dPolylineVertex
10
340.374268
20
9.252443
30
14.000000
70
32
0
VERTEX
100
AcDbEntity
8
1
100
AcDbVertex
100
AcDb3dPolylineVertex
10
340.374438
20
9.246171
30
14.002360
70
32
0
VERTEX
100
AcDbEntity
8
1
100
AcDbVertex
100
AcDb3dPolylineVertex
10
340.374617
20
9.239591
30
14.003622
70
32
0
VERTEX
100
AcDbEntity
8
1
100
AcDbVertex
100
AcDb3dPolylineVertex
10
340.374799
20
9.232892
30
14.003751
70
32
0
VERTEX
100
AcDbEntity
8
1
100
AcDbVertex
100
AcDb3dPolylineVertex
10
340.374978
20
9.226269
30
14.002743
70
32
0
VERTEX
100
AcDbEntity
8
1
100
AcDbVertex
100
AcDb3dPolylineVertex
10
340.375151
20
9.219913
30
14.000628
70
32
0
VERTEX
100
AcDbEntity
8
1
100
AcDbVertex
100
AcDb3dPolylineVertex
10
340.375311
20
9.214008
30
13.997466
70
32
0
VERTEX
100
AcDbEntity
8
1
100
AcDbVertex
100
AcDb3dPolylineVertex
10
340.375454
20
9.208725
30
13.993349
70
32
0
VERTEX
100
AcDbEntity
8
1
100
AcDbVertex
100
AcDb3dPolylineVertex
10
340.375576
20
9.204216
30
13.988396
70
32
0
VERTEX
100
AcDbEntity
8
1
100
AcDbVertex
100
AcDb3dPolylineVertex
10
340.375673
20
9.200612
30
13.982750
70
32
0
SEQEND
100
AcDbEntity
8
1
0
POLYLINE
100
AcDbEntity
8
1
62
1
100
AcDb3dPolyline
66
1
10
0.000000
20
0.000000
30
0.000000
70
8
0
VERTEX
100
AcDbEntity
8
1
100
AcDbVertex
100
AcDb3dPolylineVertex
10
340.375673
20
9.200612
30
13.982750
70
32
0
VERTEX
100
AcDbEntity
8
1
100
AcDbVertex
100
AcDb3dPolylineVertex
10
340.376436
20
9.172338
30
13.928901
70
32
0
VERTEX
100
AcDbEntity
8
1
100
AcDbVertex
100
AcDb3dPolylineVertex
10
340.377734
20
9.124049
30
13.837247
70
32
0
VERTEX
100
AcDbEntity
8
1
100
AcDbVertex
100
AcDb3dPolylineVertex
10
340.379557
20
9.055799
30
13.708374
70
32
0
VERTEX
100
AcDbEntity
8
1
100
AcDbVertex
100
AcDb3dPolylineVertex
10
340.381890
20
8.967669
30
13.543100
70
32
0
VERTEX
100
AcDbEntity
8
1
100
AcDbVertex
100
AcDb3dPolylineVertex
10
340.384715
20
8.859773
30
13.342478
70
32
0
VERTEX
100
AcDbEntity
8
1
100
AcDbVertex
100
AcDb3dPolylineVertex
10
340.388010
20
8.732266
30
13.107771
70
32
0
VERTEX
100
AcDbEntity
8
1
100
AcDbVertex
100
AcDb3dPolylineVertex
10
340.391739
20
8.585695
30
12.840291
70
32
0
VERTEX
100
AcDbEntity
8
1
100
AcDbVertex
100
AcDb3dPolylineVertex
10
340.395859
20
8.420771
30
12.541475
70
32
0
VERTEX
100
AcDbEntity
8
1
100
AcDbVertex
100
AcDb3dPolylineVertex
10
340.400352
20
8.237114
30
12.213534
70
32
0
VERTEX
100
AcDbEntity
8
1
100
AcDbVertex
100
AcDb3dPolylineVertex
10
340.405175
20
8.035334
30
11.858391
70
32
0
VERTEX
100
AcDbEntity
8
1
100
AcDbVertex
100
AcDb3dPolylineVertex
10
340.410259
20
7.816985
30
11.477643
70
32
0
VERTEX
100
AcDbEntity
8
1
100
AcDbVertex
100
AcDb3dPolylineVertex
10
340.415582
20
7.581667
30
11.074115
70
32
0
VERTEX
100
AcDbEntity
8
1
100
AcDbVertex
100
AcDb3dPolylineVertex
10
340.421082
20
7.330550
30
10.649961
70
32
0
VERTEX
100
AcDbEntity
8
1
100
AcDbVertex
100
AcDb3dPolylineVertex
10
340.426694
20
7.065134
30
10.207280
70
32
0
VERTEX
100
AcDbEntity
8
1
100
AcDbVertex
100
AcDb3dPolylineVertex
10
340.432387
20
6.785278
30
9.749256
70
32
0
VERTEX
100
AcDbEntity
8
1
100
AcDbVertex
100
AcDb3dPolylineVertex
10
340.438075
20
6.493619
30
9.277583
70
32
0
VERTEX
100
AcDbEntity
8
1
100
AcDbVertex
100
AcDb3dPolylineVertex
10
340.443737
20
6.189682
30
8.795886
70
32
0
VERTEX
100
AcDbEntity
8
1
100
AcDbVertex
100
AcDb3dPolylineVertex
10
340.449281
20
5.876842
30
8.305577
70
32
0
VERTEX
100
AcDbEntity
8
1
100
AcDbVertex
100
AcDb3dPolylineVertex
10
340.454692
20
5.554528
30
7.810536
70
32
0
VERTEX
100
AcDbEntity
8
1
100
AcDbVertex
100
AcDb3dPolylineVertex
10
340.459890
20
5.226205
30
7.312196
70
32
0
VERTEX
100
AcDbEntity
8
1
100
AcDbVertex
100
AcDb3dPolylineVertex
10
340.464859
20
4.891780
30
6.814272
70
32
0
VERTEX
100
AcDbEntity
8
1
100
AcDbVertex
100
AcDb3dPolylineVertex
10
340.469537
20
4.554624
30
6.318253
70
32
0
VERTEX
100
AcDbEntity
8
1
100
AcDbVertex
100
AcDb3dPolylineVertex
10
340.473910
20
4.215058
30
5.827646
70
32
0
VERTEX
100
AcDbEntity
8
1
100
AcDbVertex
100
AcDb3dPolylineVertex
10
340.477935
20
3.876267
30
5.343994
70
32
0
VERTEX
100
AcDbEntity
8
1
100
AcDbVertex
100
AcDb3dPolylineVertex
10
340.481605
20
3.539307
30
4.870266
70
32
0
VERTEX
100
AcDbEntity
8
1
100
AcDbVertex
100
AcDb3dPolylineVertex
10
340.484898
20
3.206853
30
4.408227
70
32
0
VERTEX
100
AcDbEntity
8
1
100
AcDbVertex
100
AcDb3dPolylineVertex
10
340.487806
20
2.881640
30
3.959485
70
32
0
VERTEX
100
AcDbEntity
8
1
100
AcDbVertex
100
AcDb3dPolylineVertex
10
340.490341
20
2.564696
30
3.526806
70
32
0
VERTEX
100
AcDbEntity
8
1
100
AcDbVertex
100
AcDb3dPolylineVertex
10
340.492501
20
2.259882
30
3.110705
70
32
0
VERTEX
100
AcDbEntity
8
1
100
AcDbVertex
100
AcDb3dPolylineVertex
10
340.494317
20
1.967302
30
2.714414
70
32
0
VERTEX
100
AcDbEntity
8
1
100
AcDbVertex
100
AcDb3dPolylineVertex
10
340.495805
20
1.690212
30
2.338600
70
32
0
VERTEX
100
AcDbEntity
8
1
100
AcDbVertex
100
AcDb3dPolylineVertex
10
340.496997
20
1.430016
30
1.985194
70
32
0
VERTEX
100
AcDbEntity
8
1
100
AcDbVertex
100
AcDb3dPolylineVertex
10
340.497929
20
1.187595
30
1.656394
70
32
0
VERTEX
100
AcDbEntity
8
1
100
AcDbVertex
100
AcDb3dPolylineVertex
10
340.498632
20
0.965053
30
1.353217
70
32
0
VERTEX
100
AcDbEntity
8
1
100
AcDbVertex
100
AcDb3dPolylineVertex
10
340.499144
20
0.763394
30
1.077373
70
32
0
VERTEX
100
AcDbEntity
8
1
100
AcDbVertex
100
AcDb3dPolylineVertex
10
340.499500
20
0.583255
30
0.830667
70
32
0
VERTEX
100
AcDbEntity
8
1
100
AcDbVertex
100
AcDb3dPolylineVertex
10
340.499733
20
0.426345
30
0.613774
70
32
0
VERTEX
100
AcDbEntity
8
1
100
AcDbVertex
100
AcDb3dPolylineVertex
10
340.499874
20
0.293441
30
0.427893
70
32
0
VERTEX
100
AcDbEntity
8
1
100
AcDbVertex
100
AcDb3dPolylineVertex
10
340.499950
20
0.184430
30
0.274726
70
32
0
VERTEX
100
AcDbEntity
8
1
100
AcDbVertex
100
AcDb3dPolylineVertex
10
340.499985
20
0.099503
30
0.155453
70
32
0
VERTEX
100
AcDbEntity
8
1
100
AcDbVertex
100
AcDb3dPolylineVertex
10
340.499998
20
0.039111
30
0.070738
70
32
0
VERTEX
100
AcDbEntity
8
1
100
AcDbVertex
100
AcDb3dPolylineVertex
10
340.500000
20
0.003642
30
0.021024
70
32
0
SEQEND
100
AcDbEntity
8
1
0
POLYLINE
100
AcDbEntity
8
1
62
4
100
AcDb3dPolyline
66
1
10
0.000000
20
0.000000
30
0.000000
70
8
0
VERTEX
100
AcDbEntity
8
1
100
AcDbVertex
100
AcDb3dPolylineVertex
10
351.000000
20
0.003298
30
0.020897
70
32
0
VERTEX
100
AcDbEntity
8
1
100
AcDbVertex
100
AcDb3dPolylineVertex
10
351.000000
20
0.001515
30
0.018086
70
32
0
VERTEX
100
AcDbEntity
8
1
100
AcDbVertex
100
AcDb3dPolylineVertex
10
351.000000
20
0.000035
30
0.015250
70
32
0
VERTEX
100
AcDbEntity
8
1
100
AcDbVertex
100
AcDb3dPolylineVertex
10
351.000000
20
-0.001108
30
0.012456
70
32
0
VERTEX
100
AcDbEntity
8
1
100
AcDbVertex
100
AcDb3dPolylineVertex
10
351.000000
20
-0.001887
30
0.009769
70
32
0
VERTEX
100
AcDbEntity
8
1
100
AcDbVertex
100
AcDb3dPolylineVertex
10
351.000000
20
-0.002284
30
0.007254
70
32
0
VERTEX
100
AcDbEntity
8
1
100
AcDbVertex
100
AcDb3dPolylineVertex
10
351.000000
20
-0.002290
30
0.004970
70
32
0
VERTEX
100
AcDbEntity
8
1
100
AcDbVertex
100
AcDb3dPolylineVertex
10
351.000000
20
-0.001903
30
0.002969
70
32
0
VERTEX
100
AcDbEntity
8
1
100
AcDbVertex
100
AcDb3dPolylineVertex
10
351.000000
20
-0.001134
30
0.001299
70
32
0
VERTEX
100
AcDbEntity
8
1
100
AcDbVertex
100
AcDb3dPolylineVertex
10
351.000000
20
0.000000
30
0.000000
70
32
0
VERTEX
100
AcDbEntity
8
1
100
AcDbVertex
100
AcDb3dPolylineVertex
10
351.000000
20
0.001472
30
-0.000898
70
32
0
VERTEX
100
AcDbEntity
8
1
100
AcDbVertex
100
AcDb3dPolylineVertex
10
351.000000
20
0.003248
30
-0.001374
70
32
0
VERTEX
100
AcDbEntity
8
1
100
AcDbVertex
100
AcDb3dPolylineVertex
10
351.000000
20
0.005285
30
-0.001417
70
32
0
VERTEX
100
AcDbEntity
8
1
100
AcDbVertex
100
AcDb3dPolylineVertex
10
351.000000
20
0.007536
30
-0.001025
70
32
0
VERTEX
100
AcDbEntity
8
1
100
AcDbVertex
100
AcDb3dPolylineVertex
10
351.000000
20
0.009948
30
-0.000208
70
32
0
VERTEX
100
AcDbEntity
8
1
100
AcDbVertex
100
AcDb3dPolylineVertex
10
351.000000
20
0.012464
30
0.001015
70
32
0
VERTEX
100
AcDbEntity
8
1
100
AcDbVertex
100
AcDb3dPolylineVertex
10
351.000000
20
0.015025
30
0.002615
70
32
0
VERTEX
100
AcDbEntity
8
1
100
AcDbVertex
100
AcDb3dPolylineVertex
10
351.000000
20
0.017570
30
0.004555
70
32
0
VERTEX
100
AcDbEntity
8
1
100
AcDbVertex
100
AcDb3dPolylineVertex
10
350.999999
20
0.020040
30
0.006789
70
32
0
SEQEND
100
AcDbEntity
8
1
0
POLYLINE
100
AcDbEntity
8
1
62
3
100
AcDb3dPolyline
66
1
10
0.000000
20
0.000000
30
0.000000
70
8
0
VERTEX
100
AcDbEntity
8
1
100
AcDbVertex
100
AcDb3dPolylineVertex
10
350.999999
20
0.020040
30
0.006789
70
32
0
VERTEX
100
AcDbEntity
8
1
100
AcDbVertex
100
AcDb3dPolylineVertex
10
350.999994
20
0.063287
30
0.049218
70
32
0
VERTEX
100
AcDbEntity
8
1
100
AcDbVertex
100
AcDb3dPolylineVertex
10
350.999973
20
0.136818
30
0.121651
70
32
0
VERTEX
100
AcDbEntity
8
1
100
AcDbVertex
100
AcDb3dPolylineVertex
10
350.999918
20
0.240022
30
0.223947
70
32
0
VERTEX
100
AcDbEntity
8
1
100
AcDbVertex
100
AcDb3dPolylineVertex
10
350.999803
20
0.371974
30
0.355970
70
32
0
VERTEX
100
AcDbEntity
8
1
100
AcDbVertex
100
AcDb3dPolylineVertex
10
350.999598
20
0.531095
30
0.517863
70
32
0
VERTEX
100
AcDbEntity
8
1
100
AcDbVertex
100
AcDb3dPolylineVertex
10
350.999271
20
0.715139
30
0.710037
70
32
0
VERTEX
100
AcDbEntity
8
1
100
AcDbVertex
100
AcDb3dPolylineVertex
10
350.998788
20
0.922450
30
0.932136
70
32
0
VERTEX
100
AcDbEntity
8
1
100
AcDbVertex
100
AcDb3dPolylineVertex
10
350.998110
20
1.151935
30
1.183086
70
32
0
VERTEX
100
AcDbEntity
8
1
100
AcDbVertex
100
AcDb3dPolylineVertex
10
350.997203
20
1.401174
30
1.462633
70
32
0
VERTEX
100
AcDbEntity
8
1
100
AcDbVertex
100
AcDb3dPolylineVertex
10
350.996037
20
1.667841
30
1.770180
70
32
0
VERTEX
100
AcDbEntity
8
1
100
AcDbVertex
100
AcDb3dPolylineVertex
10
350.994581
20
1.950429
30
2.104240
70
32
0
VERTEX
100
AcDbEntity
8
1
100
AcDbVertex
100
AcDb3dPolylineVertex
10
350.992813
20
2.246202
30
2.464065
70
32
0
VERTEX
100
AcDbEntity
8
1
100
AcDbVertex
100
AcDb3dPolylineVertex
10
350.990719
20
2.552524
30
2.848592
70
32
0
VERTEX
100
AcDbEntity
8
1
100
AcDbVertex
100
AcDb3dPolylineVertex
10
350.988277
20
2.868710
30
3.255093
70
32
0
VERTEX
100
AcDbEntity
8
1
100
AcDbVertex
100
AcDb3dPolylineVertex
10
350.985497
20
3.190781
30
3.683133
70
32
0
VERTEX
100
AcDbEntity
8
1
100
AcDbVertex
100
AcDb3dPolylineVertex
10
350.982366
20
3.518380
30
4.129447
70
32
0
VERTEX
100
AcDbEntity
8
1
100
AcDbVertex
100
AcDb3dPolylineVertex
10
350.978901
20
3.848551
30
4.592540
70
32
0
VERTEX
100
AcDbEntity
8
1
100
AcDbVertex
100
AcDb3dPolylineVertex
10
350.975113
20
4.179752
30
5.069801
70
32
0
VERTEX
100
AcDbEntity
8
1
100
AcDbVertex
100
AcDb3dPolylineVertex
10
350.971014
20
4.510803
30
5.558301
70
32
0
VERTEX
100
AcDbEntity
8
1
100
AcDbVertex
100
AcDb3dPolylineVertex
10
350.966646
20
4.838733
30
6.056277
70
32
0
VERTEX
100
AcDbEntity
8
1
100
AcDbVertex
100
AcDb3dPolylineVertex
10
350.962025
20
5.163037
30
6.560272
70
32
0
VERTEX
100
AcDbEntity
8
1
100
AcDbVertex
100
AcDb3dPolylineVertex
10
350.957213
20
5.480404
30
7.068644
70
32
0
VERTEX
100
AcDbEntity
8
1
100
AcDbVertex
100
AcDb3dPolylineVertex
10
350.952228
20
5.790821
30
7.577637
70
32
0
VERTEX
100
AcDbEntity
8
1
100
AcDbVertex
100
AcDb3dPolylineVertex
10
350.947146
20
6.091040
30
8.085558
70
32
0
VERTEX
100
AcDbEntity
8
1
100
AcDbVertex
100
AcDb3dPolylineVertex
10
350.941984
20
6.381552
30
8.588444
70
32
0
VERTEX
100
AcDbEntity
8
1
100
AcDbVertex
100
AcDb3dPolylineVertex
10
350.936826
20
6.659165
30
9.084637
70
32
0
VERTEX
100
AcDbEntity
8
1
100
AcDbVertex
100
AcDb3dPolylineVertex
10
350.931685
20
6.924762
30
9.570143
70
32
0
VERTEX
100
AcDbEntity
8
1
100
AcDbVertex
100
AcDb3dPolylineVertex
10
350.926643
20
7.175718
30
10.043127
70
32
0
VERTEX
100
AcDbEntity
8
1
100
AcDbVertex
100
AcDb3dPolylineVertex
10
350.921716
20
7.412785
30
10.499953
70
32
0
VERTEX
100
AcDbEntity
8
1
100
AcDbVertex
100
AcDb3dPolylineVertex
10
350.916971
20
7.634079
30
10.938603
70
32
0
VERTEX
100
AcDbEntity
8
1
100
AcDbVertex
100
AcDb3dPolylineVertex
10
350.912436
20
7.839776
30
11.356078
70
32
0
VERTEX
100
AcDbEntity
8
1
100
AcDbVertex
100
AcDb3dPolylineVertex
10
350.908140
20
8.029783
30
11.749721
70
32
0
VERTEX
100
AcDbEntity
8
1
100
AcDbVertex
100
AcDb3dPolylineVertex
10
350.904140
20
8.202732
30
12.117709
70
32
0
VERTEX
100
AcDbEntity
8
1
100
AcDbVertex
100
AcDb3dPolylineVertex
10
350.900443
20
8.359392
30
12.457307
70
32
0
VERTEX
100
AcDbEntity
8
1
100
AcDbVertex
100
AcDb3dPolylineVertex
10
350.897071
20
8.499721
30
12.766418
70
32
0
VERTEX
100
AcDbEntity
8
1
100
AcDbVertex
100
AcDb3dPolylineVertex
10
350.894067
20
8.622854
30
13.043548
70
32
0
VERTEX
100
AcDbEntity
8
1
100
AcDbVertex
100
AcDb3dPolylineVertex
10
350.891439
20
8.729152
30
13.286813
70
32
0
VERTEX
100
AcDbEntity
8
1
100
AcDbVertex
100
AcDb3dPolylineVertex
10
350.889195
20
8.818893
30
13.494598
70
32
0
VERTEX
100
AcDbEntity
8
1
100
AcDbVertex
100
AcDb3dPolylineVertex
10
350.887349
20
8.892044
30
13.665667
70
32
0
VERTEX
100
AcDbEntity
8
1
100
AcDbVertex
100
AcDb3dPolylineVertex
10
350.885911
20
8.948599
30
13.798996
70
32
0
VERTEX
100
AcDbEntity
8
1
100
AcDbVertex
100
AcDb3dPolylineVertex
10
350.884890
20
8.988563
30
13.893784
70
32
0
VERTEX
100
AcDbEntity
8
1
100
AcDbVertex
100
AcDb3dPolylineVertex
10
350.884290
20
9.011949
30
13.949471
70
32
0
SEQEND
100
AcDbEntity
8
1
0
POLYLINE
100
AcDbEntity
8
1
62
2
100
AcDb3dPolyline
66
1
10
0.000000
20
0.000000
30
0.000000
70
8
0
VERTEX
100
AcDbEntity
8
1
100
AcDbVertex
100
AcDb3dPolylineVertex
10
350.884290
20
9.011949
30
13.949471
70
32
0
VERTEX
100
AcDbEntity
8
1
100
AcDbVertex
100
AcDb3dPolylineVertex
10
350.884237
20
9.013990
30
13.955800
70
32
0
VERTEX
100
AcDbEntity
8
1
100
AcDbVertex
100
AcDb3dPolylineVertex
10
350.884213
20
9.014927
30
13.962382
70
32
0
VERTEX
100
AcDbEntity
8
1
100
AcDbVertex
100
AcDb3dPolylineVertex
10
350.884218
20
9.014736
30
13.969028
70
32
0
VERTEX
100
AcDbEntity
8
1
100
AcDbVertex
100
AcDb3dPolylineVertex
10
350.884252
20
9.013420
30
13.975543
70
32
0
VERTEX
100
AcDbEntity
8
1
100
AcDbVertex
100
AcDb3dPolylineVertex
10
350.884314
20
9.011018
30
13.981740
70
32
0
VERTEX
100
AcDbEntity
8
1
100
AcDbVertex
100
AcDb3dPolylineVertex
10
350.884401
20
9.007600
30
13.987439
70
32
0
VERTEX
100
AcDbEntity
8
1
100
AcDbVertex
100
AcDb3dPolylineVertex
10
350.884513
20
9.003265
30
13.992476
70
32
0
VERTEX
100
AcDbEntity
8
1
100
AcDbVertex
100
AcDb3dPolylineVertex
10
350.884644
20
8.998139
30
13.996703
70
32
0
VERTEX
100
AcDbEntity
8
1
100
AcDbVertex
100
AcDb3dPolylineVertex
10
350.884792
20
8.992371
30
14.000000
70
32
0
VERTEX
100
AcDbEntity
8
1
100
AcDbVertex
100
AcDb3dPolylineVertex
10
350.884952
20
8.986127
30
14.002271
70
32
0
VERTEX
100
AcDbEntity
8
1
100
AcDbVertex
100
AcDb3dPolylineVertex
10
350.885119
20
8.979590
30
14.003451
70
32
0
VERTEX
100
AcDbEntity
8
1
100
AcDbVertex
100
AcDb3dPolylineVertex
10
350.885289
20
8.972947
30
14.003506
70
32
0
VERTEX
100
AcDbEntity
8
1
100
AcDbVertex
100
AcDb3dPolylineVertex
10
350.885457
20
8.966392
30
14.002435
70
32
0
VERTEX
100
AcDbEntity
8
1
100
AcDbVertex
100
AcDb3dPolylineVertex
10
350.885617
20
8.960113
30
14.000268
70
32
0
VERTEX
100
AcDbEntity
8
1
100
AcDbVertex
100
AcDb3dPolylineVertex
10
350.885766
20
8.954294
30
13.997069
70
32
0
VERTEX
100
AcDbEntity
8
1
100
AcDbVertex
100
AcDb3dPolylineVertex
10
350.885898
20
8.949101
30
13.992929
70
32
0
VERTEX
100
AcDbEntity
8
1
100
AcDbVertex
100
AcDb3dPolylineVertex
10
350.886011
20
8.944686
30
13.987970
70
32
0
VERTEX
100
AcDbEntity
8
1
100
AcDbVertex
100
AcDb3dPolylineVertex
10
350.886100
20
8.941175
30
13.982333
70
32
0
SEQEND
100
AcDbEntity
8
1
0
POLYLINE
100
AcDbEntity
8
1
62
1
100
AcDb3dPolyline
66
1
10
0.000000
20
0.000000
30
0.000000
70
8
0
VERTEX
100
AcDbEntity
8
1
100
AcDbVertex
100
AcDb3dPolylineVertex
10
350.886100
20
8.941175
30
13.982333
70
32
0
VERTEX
100
AcDbEntity
8
1
100
AcDbVertex
100
AcDb3dPolylineVertex
10
350.886799
20
8.913729
30
13.928626
70
32
0
VERTEX
100
AcDbEntity
8
1
100
AcDbVertex
100
AcDb3dPolylineVertex
10
350.887986
20
8.866863
30
13.837227
70
32
0
VERTEX
100
AcDbEntity
8
1
100
AcDbVertex
100
AcDb3dPolylineVertex
10
350.889654
20
8.800621
30
13.708708
70
32
0
VERTEX
100
AcDbEntity
8
1
100
AcDbVertex
100
AcDb3dPolylineVertex
10
350.891789
20
8.715081
30
13.543878
70
32
0
VERTEX
100
AcDbEntity
8
1
100
AcDbVertex
100
AcDb3dPolylineVertex
10
350.894374
20
8.610346
30
13.343774
70
32
0
VERTEX
100
AcDbEntity
8
1
100
AcDbVertex
100
AcDb3dPolylineVertex
10
350.897390
20
8.486568
30
13.109653
70
32
0
VERTEX
100
AcDbEntity
8
1
100
AcDbVertex
100
AcDb3dPolylineVertex
10
350.900803
20
8.344262
30
12.842819
70
32
0
VERTEX
100
AcDbEntity
8
1
100
AcDbVertex
100
AcDb3dPolylineVertex
10
350.904573
20
8.184152
30
12.544691
70
32
0
VERTEX
100
AcDbEntity
8
1
100
AcDbVertex
100
AcDb3dPolylineVertex
10
350.908687
20
8.005828
30
12.217458
70
32
0
VERTEX
100
AcDbEntity
8
1
100
AcDbVertex
100
AcDb3dPolylineVertex
10
350.913103
20
7.809877
30
11.863029
70
32
0
VERTEX
100
AcDbEntity
8
1
100
AcDbVertex
100
AcDb3dPolylineVertex
10
350.917758
20
7.597836
30
11.483001
70
32
0
VERTEX
100
AcDbEntity
8
1
100
AcDbVertex
100
AcDb3dPolylineVertex
10
350.922632
20
7.369301
30
11.080151
70
32
0
VERTEX
100
AcDbEntity
8
1
100
AcDbVertex
100
AcDb3dPolylineVertex
10
350.927670
20
7.125342
30
10.656663
70
32
0
VERTEX
100
AcDbEntity
8
1
100
AcDbVertex
100
AcDb3dPolylineVertex
10
350.932810
20
6.867542
30
10.214575
70
32
0
VERTEX
100
AcDbEntity
8
1
100
AcDbVertex
100
AcDb3dPolylineVertex
10
350.938025
20
6.595639
30
9.757079
70
32
0
VERTEX
100
AcDbEntity
8
1
100
AcDbVertex
100
AcDb3dPolylineVertex
10
350.943237
20
6.312257
30
9.285868
70
32
0
VERTEX
100
AcDbEntity
8
1
100
AcDbVertex
100
AcDb3dPolylineVertex
10
350.948425
20
6.016909
30
8.804522
70
32
0
VERTEX
100
AcDbEntity
8
1
100
AcDbVertex
100
AcDb3dPolylineVertex
10
350.953506
20
5.712872
30
8.314504
70
32
0
VERTEX
100
AcDbEntity
8
1
100
AcDbVertex
100
AcDb3dPolylineVertex
10
350.958465
20
5.399590
30
7.819625
70
32
0
VERTEX
100
AcDbEntity
8
1
100
AcDbVertex
100
AcDb3dPolylineVertex
10
350.963230
20
5.080446
30
7.321359
70
32
0
VERTEX
100
AcDbEntity
8
1
100
AcDbVertex
100
AcDb3dPolylineVertex
10
350.967786
20
4.755316
30
6.823386
70
32
0
VERTEX
100
AcDbEntity
8
1
100
AcDbVertex
100
AcDb3dPolylineVertex
10
350.972074
20
4.427532
30
6.327219
70
32
0
VERTEX
100
AcDbEntity
8
1
100
AcDbVertex
100
AcDb3dPolylineVertex
10
350.976085
20
4.097326
30
5.836358
70
32
0
VERTEX
100
AcDbEntity
8
1
100
AcDbVertex
100
AcDb3dPolylineVertex
10
350.979776
20
3.767900
30
5.352334
70
32
0
VERTEX
100
AcDbEntity
8
1
100
AcDbVertex
100
AcDb3dPolylineVertex
10
350.983141
20
3.440142
30
4.878188
70
32
0
VERTEX
100
AcDbEntity
8
1
100
AcDbVertex
100
AcDb3dPolylineVertex
10
350.986161
20
3.116840
30
4.415589
70
32
0
VERTEX
100
AcDbEntity
8
1
100
AcDbVertex
100
AcDb3dPolylineVertex
10
350.988828
20
2.800494
30
3.966307
70
32
0
VERTEX
100
AcDbEntity
8
1
100
AcDbVertex
100
AcDb3dPolylineVertex
10
350.991152
20
2.492232
30
3.532989
70
32
0
VERTEX
100
AcDbEntity
8
1
100
AcDbVertex
100
AcDb3dPolylineVertex
10
350.993132
20
2.195785
30
3.116262
70
32
0
VERTEX
100
AcDbEntity
8
1
100
AcDbVertex
100
AcDb3dPolylineVertex
10
350.994797
20
1.911219
30
2.719331
70
32
0
VERTEX
100
AcDbEntity
8
1
100
AcDbVertex
100
AcDb3dPolylineVertex
10
350.996160
20
1.641826
30
2.342843
70
32
0
VERTEX
100
AcDbEntity
8
1
100
AcDbVertex
100
AcDb3dPolylineVertex
10
350.997252
20
1.388823
30
1.988844
70
32
0
VERTEX
100
AcDbEntity
8
1
100
AcDbVertex
100
AcDb3dPolylineVertex
10
350.998106
20
1.153183
30
1.659423
70
32
0
VERTEX
100
AcDbEntity
8
1
100
AcDbVertex
100
AcDb3dPolylineVertex
10
350.998750
20
0.936908
30
1.355674
70
32
0
VERTEX
100
AcDbEntity
8
1
100
AcDbVertex
100
AcDb3dPolylineVertex
10
350.999218
20
0.740969
30
1.079303
70
32
0
VERTEX
100
AcDbEntity
8
1
100
AcDbVertex
100
AcDb3dPolylineVertex
10
350.999544
20
0.565975
30
0.832107
70
32
0
VERTEX
100
AcDbEntity
8
1
100
AcDbVertex
100
AcDb3dPolylineVertex
10
350.999756
20
0.413580
30
0.614802
70
32
0
VERTEX
100
AcDbEntity
8
1
100
AcDbVertex
100
AcDb3dPolylineVertex
10
350.999885
20
0.284556
30
0.428571
70
32
0
VERTEX
100
AcDbEntity
8
1
100
AcDbVertex
100
AcDb3dPolylineVertex
10
350.999954
20
0.178754
30
0.275112
70
32
0
VERTEX
100
AcDbEntity
8
1
100
AcDbVertex
100
AcDb3dPolylineVertex
10
350.999987
20
0.096334
30
0.155605
70
32
0
VERTEX
100
AcDbEntity
8
1
100
AcDbVertex
100
AcDb3dPolylineVertex
10
350.999998
20
0.037725
30
0.070721
70
32
0
VERTEX
100
AcDbEntity
8
1
100
AcDbVertex
100
AcDb3dPolylineVertex
10
351.000000
20
0.003298
30
0.020897
70
32
0
SEQEND
100
AcDbEntity
8
1
0
POLYLINE
100
AcDbEntity
8
1
62
4
100
AcDb3dPolyline
66
1
10
0.000000
20
0.000000
30
0.000000
70
8
0
VERTEX
100
AcDbEntity
8
1
100
AcDbVertex
100
AcDb3dPolylineVertex
10
361.500000
20
0.002951
30
0.020770
70
32
0
VERTEX
100
AcDbEntity
8
1
100
AcDbVertex
100
AcDb3dPolylineVertex
10
361.500000
20
0.001227
30
0.017955
70
32
0
VERTEX
100
AcDbEntity
8
1
100
AcDbVertex
100
AcDb3dPolylineVertex
10
361.500000
20
-0.000198
30
0.015120
70
32
0
VERTEX
100
AcDbEntity
8
1
100
AcDbVertex
100
AcDb3dPolylineVertex
10
361.500000
20
-0.001288
30
0.012333
70
32
0
VERTEX
100
AcDbEntity
8
1
100
AcDbVertex
100
AcDb3dPolylineVertex
10
361.500000
20
-0.002020
30
0.009658
70
32
0
VERTEX
100
AcDbEntity
8
1
100
AcDbVertex
100
AcDb3dPolylineVertex
10
361.500000
20
-0.002375
30
0.007158
70
32
0
VERTEX
100
AcDbEntity
8
1
100
AcDbVertex
100
AcDb3dPolylineVertex
10
361.500000
20
-0.002346
30
0.004893
70
32
0
VERTEX
100
AcDbEntity
8
1
100
AcDbVertex
100
AcDb3dPolylineVertex
10
361.500000
20
-0.001932
30
0.002915
70
32
0
VERTEX
100
AcDbEntity
8
1
100
AcDbVertex
100
AcDb3dPolylineVertex
10
361.500000
20
-0.001144
30
0.001271
70
32
0
VERTEX
100
AcDbEntity
8
1
100
AcDbVertex
100
AcDb3dPolylineVertex
10
361.500000
20
0.000000
30
0.000000
70
32
0
VERTEX
100
AcDbEntity
8
1
100
AcDbVertex
100
AcDb3dPolylineVertex
10
361.500000
20
0.001473
30
-0.000869
70
32
0
VERTEX
100
AcDbEntity
8
1
100
AcDbVertex
100
AcDb3dPolylineVertex
10
361.500000
20
0.003241
30
-0.001315
70
32
0
VERTEX
100
AcDbEntity
8
1
100
AcDbVertex
100
AcDb3dPolylineVertex
10
361.500000
20
0.005262
30
-0.001327
70
32
0
VERTEX
100
AcDbEntity
8
1
100
AcDbVertex
100
AcDb3dPolylineVertex
10
361.500000
20
0.007488
30
-0.000906
70
32
0
VERTEX
100
AcDbEntity
8
1
100
AcDbVertex
100
AcDb3dPolylineVertex
10
361.500000
20
0.009867
30
-0.000061
70
32
0
VERTEX
100
AcDbEntity
8
1
100
AcDbVertex
100
AcDb3dPolylineVertex
10
361.500000
20
0.012344
30
0.001189
70
32
0
VERTEX
100
AcDbEntity
8
1
100
AcDbVertex
100
AcDb3dPolylineVertex
10
361.500000
20
0.014859
30
0.002812
70
32
0
VERTEX
100
AcDbEntity
8
1
100
AcDbVertex
100
AcDb3dPolylineVertex
10
361.500000
20
0.017354
30
0.004773
70
32
0
VERTEX
100
AcDbEntity
8
1
100
AcDbVertex
100
AcDb3dPolylineVertex
10
361.499999
20
0.019770
30
0.007024
70
32
0
SEQEND
100
AcDbEntity
8
1
0
POLYLINE
100
AcDbEntity
8
1
62
3
100
AcDb3dPolyline
66
1
10
0.000000
20
0.000000
30
0.000000
70
8
0
VERTEX
100
AcDbEntity
8
1
100
AcDbVertex
100
AcDb3dPolylineVertex
10
361.499999
20
0.019770
30
0.007024
70
32
0
VERTEX
100
AcDbEntity
8
1
100
AcDbVertex
100
AcDb3dPolylineVertex
10
361.499995
20
0.062048
30
0.049737
70
32
0
VERTEX
100
AcDbEntity
8
1
100
AcDbVertex
100
AcDb3dPolylineVertex
10
361.499975
20
0.133897
30
0.122623
70
32
0
VERTEX
100
AcDbEntity
8
1
100
AcDbVertex
100
AcDb3dPolylineVertex
10
361.499924
20
0.234733
30
0.225546
70
32
0
VERTEX
100
AcDbEntity
8
1
100
AcDbVertex
100
AcDb3dPolylineVertex
10
361.499817
20
0.363637
30
0.358364
70
32
0
VERTEX
100
AcDbEntity
8
1
100
AcDbVertex
100
AcDb3dPolylineVertex
10
361.499627
20
0.519034
30
0.521196
70
32
0
VERTEX
100
AcDbEntity
8
1
100
AcDbVertex
100
AcDb3dPolylineVertex
10
361.499325
20
0.698686
30
0.714422
70
32
0
VERTEX
100
AcDbEntity
8
1
100
AcDbVertex
100
AcDb3dPolylineVertex
10
361.498877
20
0.900983
30
0.937642
70
32
0
VERTEX
100
AcDbEntity
8
1
100
AcDbVertex
100
AcDb3dPolylineVertex
10
361.498250
20
1.124835
30
1.189793
70
32
0
VERTEX
100
AcDbEntity
8
1
100
AcDbVertex
100
AcDb3dPolylineVertex
10
361.497412
20
1.367862
30
1.470575
70
32
0
VERTEX
100
AcDbEntity
8
1
100
AcDbVertex
100
AcDb3dPolylineVertex
10
361.496335
20
1.627779
30
1.779351
70
32
0
VERTEX
100
AcDbEntity
8
1
100
AcDbVertex
100
AcDb3dPolylineVertex
10
361.494991
20
1.903051
30
2.114675
70
32
0
VERTEX
100
AcDbEntity
8
1
100
AcDbVertex
100
AcDb3dPolylineVertex
10
361.493360
20
2.191122
30
2.475653
70
32
0
VERTEX
100
AcDbEntity
8
1
100
AcDbVertex
100
AcDb3dPolylineVertex
10
361.491429
20
2.489263
30
2.861292
70
32
0
VERTEX
100
AcDbEntity
8
1
100
AcDbVertex
100
AcDb3dPolylineVertex
10
361.489180
20
2.796915
30
3.268821
70
32
0
VERTEX
100
AcDbEntity
8
1
100
AcDbVertex
100
AcDb3dPolylineVertex
10
361.486621
20
3.110169
30
3.697734
70
32
0
VERTEX
100
AcDbEntity
8
1
100
AcDbVertex
100
AcDb3dPolylineVertex
10
361.483740
20
3.428627
30
4.144847
70
32
0
VERTEX
100
AcDbEntity
8
1
100
AcDbVertex
100
AcDb3dPolylineVertex
10
361.480554
20
3.749555
30
4.608527
70
32
0
VERTEX
100
AcDbEntity
8
1
100
AcDbVertex
100
AcDb3dPolylineVertex
10
361.477074
20
4.071272
30
5.086287
70
32
0
VERTEX
100
AcDbEntity
8
1
100
AcDbVertex
100
AcDb3dPolylineVertex
10
361.473309
20
4.392822
30
5.575096
70
32
0
VERTEX
100
AcDbEntity
8
1
100
AcDbVertex
100
AcDb3dPolylineVertex
10
361.469300
20
4.711179
30
6.073239
70
32
0
VERTEX
100
AcDbEntity
8
1
100
AcDbVertex
100
AcDb3dPolylineVertex
10
361.465060
20
5.025946
30
6.577240
70
32
0
VERTEX
100
AcDbEntity
8
1
100
AcDbVertex
100
AcDb3dPolylineVertex
10
361.460648
20
5.333853
30
7.085450
70
32
0
VERTEX
100
AcDbEntity
8
1
100
AcDbVertex
100
AcDb3dPolylineVertex
10
361.456080
20
5.634926
30
7.594139
70
32
0
VERTEX
100
AcDbEntity
8
1
100
AcDbVertex
100
AcDb3dPolylineVertex
10
361.451425
20
5.926002
30
8.101577
70
32
0
VERTEX
100
AcDbEntity
8
1
100
AcDbVertex
100
AcDb3dPolylineVertex
10
361.446699
20
6.207575
30
8.603867
70
32
0
VERTEX
100
AcDbEntity
8
1
100
AcDbVertex
100
AcDb3dPolylineVertex
10
361.441979
20
6.476557
30
9.099295
70
32
0
VERTEX
100
AcDbEntity
8
1
100
AcDbVertex
100
AcDb3dPolylineVertex
10
361.437278
20
6.733824
30
9.583949
70
32
0
VERTEX
100
AcDbEntity
8
1
100
AcDbVertex
100
AcDb3dPolylineVertex
10
361.432669
20
6.976808
30
10.055962
70
32
0
VERTEX
100
AcDbEntity
8
1
100
AcDbVertex
100
AcDb3dPolylineVertex
10
361.428166
20
7.206319
30
10.511741
70
32
0
VERTEX
100
AcDbEntity
8
1
100
AcDbVertex
100
AcDb3dPolylineVertex
10
361.423833
20
7.420424
30
10.949301
70
32
0
VERTEX
100
AcDbEntity
8
1
100
AcDbVertex
100
AcDb3dPolylineVertex
10
361.419693
20
7.619432
30
11.365633
70
32
0
VERTEX
100
AcDbEntity
8
1
100
AcDbVertex
100
AcDb3dPolylineVertex
10
361.415772
20
7.803207
30
11.758129
70
32
0
VERTEX
100
AcDbEntity
8
1
100
AcDbVertex
100
AcDb3dPolylineVertex
10
361.412123
20
7.970416
30
12.124973
70
32
0
VERTEX
100
AcDbEntity
8
1
100
AcDbVertex
100
AcDb3dPolylineVertex
10
361.408751
20
8.121860
30
12.463458
70
32
0
VERTEX
100
AcDbEntity
8
1
100
AcDbVertex
100
AcDb3dPolylineVertex
10
361.405678
20
8.257493
30
12.771516
70
32
0
VERTEX
100
AcDbEntity
8
1
100
AcDbVertex
100
AcDb3dPolylineVertex
10
361.402940
20
8.376460
30
13.047662
70
32
0
VERTEX
100
AcDbEntity
8
1
100
AcDbVertex
100
AcDb3dPolylineVertex
10
361.400545
20
8.479153
30
13.290030
70
32
0
VERTEX
100
AcDbEntity
8
1
100
AcDbVertex
100
AcDb3dPolylineVertex
10
361.398501
20
8.565838
30
13.497033
70
32
0
VERTEX
100
AcDbEntity
8
1
100
AcDbVertex
100
AcDb3dPolylineVertex
10
361.396819
20
8.636491
30
13.667445
70
32
0
VERTEX
100
AcDbEntity
8
1
100
AcDbVertex
100
AcDb3dPolylineVertex
10
361.395510
20
8.691109
30
13.800254
70
32
0
VERTEX
100
AcDbEntity
8
1
100
AcDbVertex
100
AcDb3dPolylineVertex
10
361.394580
20
8.729703
30
13.894668
70
32
0
VERTEX
100
AcDbEntity
8
1
100
AcDbVertex
100
AcDb3dPolylineVertex
10
361.394034
20
8.752280
30
13.950118
70
32
0
SEQEND
100
AcDbEntity
8
1
0
POLYLINE
100
AcDbEntity
8
1
62
2
100
AcDb3dPolyline
66
1
10
0.000000
20
0.000000
30
0.000000
70
8
0
VERTEX
100
AcDbEntity
8
1
100
AcDbVertex
100
AcDb3dPolylineVertex
10
361.394034
20
8.752280
30
13.950118
70
32
0
VERTEX
100
AcDbEntity
8
1
100
AcDbVertex
100
AcDb3dPolylineVertex
10
361.393986
20
8.754234
30
13.956414
70
32
0
VERTEX
100
AcDbEntity
8
1
100
AcDbVertex
100
AcDb3dPolylineVertex
10
361.393966
20
8.755093
30
13.962951
70
32
0
VERTEX
100
AcDbEntity
8
1
100
AcDbVertex
100
AcDb3dPolylineVertex
10
361.393972
20
8.754830
30
13.969537
70
32
0
VERTEX
100
AcDbEntity
8
1
100
AcDbVertex
100
AcDb3dPolylineVertex
10
361.394005
20
8.753454
30
13.975983
70
32
0
VERTEX
100
AcDbEntity
8
1
100
AcDbVertex
100
AcDb3dPolylineVertex
10
361.394065
20
8.751005
30
13.982101
70
32
0
VERTEX
100
AcDbEntity
8
1
100
AcDbVertex
100
AcDb3dPolylineVertex
10
361.394148
20
8.747554
30
13.987714
70
32
0
VERTEX
100
AcDbEntity
8
1
100
AcDbVertex
100
AcDb3dPolylineVertex
10
361.394253
20
8.743202
30
13.992659
70
32
0
VERTEX
100
AcDbEntity
8
1
100
AcDbVertex
100
AcDb3dPolylineVertex
10
361.394377
20
8.738073
30
13.996794
70
32
0
VERTEX
100
AcDbEntity
8
1
100
AcDbVertex
100
AcDb3dPolylineVertex
10
361.394517
20
8.732318
30
14.000000
70
32
0
VERTEX
100
AcDbEntity
8
1
100
AcDbVertex
100
AcDb3dPolylineVertex
10
361.394667
20
8.726103
30
14.002183
70
32
0
VERTEX
100
AcDbEntity
8
1
100
AcDbVertex
100
AcDb3dPolylineVertex
10
361.394823
20
8.719608
30
14.003281
70
32
0
VERTEX
100
AcDbEntity
8
1
100
AcDbVertex
100
AcDb3dPolylineVertex
10
361.394982
20
8.713021
30
14.003263
70
32
0
VERTEX
100
AcDbEntity
8
1
100
AcDbVertex
100
AcDb3dPolylineVertex
10
361.395139
20
8.706533
30
14.002128
70
32
0
VERTEX
100
AcDbEntity
8
1
100
AcDbVertex
100
AcDb3dPolylineVertex
10
361.395288
20
8.700333
30
13.999911
70
32
0
VERTEX
100
AcDbEntity
8
1
100
AcDbVertex
100
AcDb3dPolylineVertex
10
361.395426
20
8.694598
30
13.996674
70
32
0
VERTEX
100
AcDbEntity
8
1
100
AcDbVertex
100
AcDb3dPolylineVertex
10
361.395549
20
8.689495
30
13.992513
70
32
0
VERTEX
100
AcDbEntity
8
1
100
AcDbVertex
100
AcDb3dPolylineVertex
10
361.395653
20
8.685172
30
13.987547
70
32
0
VERTEX
100
AcDbEntity
8
1
100
AcDbVertex
100
AcDb3dPolylineVertex
10
361.395735
20
8.681754
30
13.981920
70
32
0
SEQEND
100
AcDbEntity
8
1
0
POLYLINE
100
AcDbEntity
8
1
62
1
100
AcDb3dPolyline
66
1
10
0.000000
20
0.000000
30
0.000000
70
8
0
VERTEX
100
AcDbEntity
8
1
100
AcDbVertex
100
AcDb3dPolylineVertex
10
361.395735
20
8.681754
30
13.981920
70
32
0
VERTEX
100
AcDbEntity
8
1
100
AcDbVertex
100
AcDb3dPolylineVertex
10
361.396373
20
8.655144
30
13.928380
70
32
0
VERTEX
100
AcDbEntity
8
1
100
AcDbVertex
100
AcDb3dPolylineVertex
10
361.397459
20
8.609692
30
13.837237
70
32
0
VERTEX
100
AcDbEntity
8
1
100
AcDbVertex
100
AcDb3dPolylineVertex
10
361.398984
20
8.545446
30
13.709071
70
32
0
VERTEX
100
AcDbEntity
8
1
100
AcDbVertex
100
AcDb3dPolylineVertex
10
361.400936
20
8.462478
30
13.544682
70
32
0
VERTEX
100
AcDbEntity
8
1
100
AcDbVertex
100
AcDb3dPolylineVertex
10
361.403300
20
8.360887
30
13.345099
70
32
0
VERTEX
100
AcDbEntity
8
1
100
AcDbVertex
100
AcDb3dPolylineVertex
10
361.406058
20
8.240809
30
13.111564
70
32
0
VERTEX
100
AcDbEntity
8
1
100
AcDbVertex
100
AcDb3dPolylineVertex
10
361.409180
20
8.102745
30
12.845374
70
32
0
VERTEX
100
AcDbEntity
8
1
100
AcDbVertex
100
AcDb3dPolylineVertex
10
361.412629
20
7.947419
30
12.547935
70
32
0
VERTEX
100
AcDbEntity
8
1
100
AcDbVertex
100
AcDb3dPolylineVertex
10
361.416392
20
7.774403
30
12.221409
70
32
0
VERTEX
100
AcDbEntity
8
1
100
AcDbVertex
100
AcDb3dPolylineVertex
10
361.420433
20
7.584250
30
11.867697
70
32
0
VERTEX
100
AcDbEntity
8
1
100
AcDbVertex
100
AcDb3dPolylineVertex
10
361.424692
20
7.378481
30
11.488390
70
32
0
VERTEX
100
AcDbEntity
8
1
100
AcDbVertex
100
AcDb3dPolylineVertex
10
361.429152
20
7.156697
30
11.086225
70
32
0
VERTEX
100
AcDbEntity
8
1
100
AcDbVertex
100
AcDb3dPolylineVertex
10
361.433763
20
6.919872
30
10.663400
70
32
0
VERTEX
100
AcDbEntity
8
1
100
AcDbVertex
100
AcDb3dPolylineVertex
10
361.438467
20
6.669653
30
10.221911
70
32
0
VERTEX
100
AcDbEntity
8
1
100
AcDbVertex
100
AcDb3dPolylineVertex
10
361.443242
20
6.405671
30
9.764945
70
32
0
VERTEX
100
AcDbEntity
8
1
100
AcDbVertex
100
AcDb3dPolylineVertex
10
361.448013
20
6.130545
30
9.294205
70
32
0
VERTEX
100
AcDbEntity
8
1
100
AcDbVertex
100
AcDb3dPolylineVertex
10
361.452764
20
5.843766
30
8.813211
70
32
0
VERTEX
100
AcDbEntity
8
1
100
AcDbVertex
100
AcDb3dPolylineVertex
10
361.457417
20
5.548506
30
8.323491
70
32
0
VERTEX
100
AcDbEntity
8
1
100
AcDbVertex
100
AcDb3dPolylineVertex
10
361.461959
20
5.244242
30
7.828774
70
32
0
VERTEX
100
AcDbEntity
8
1
100
AcDbVertex
100
AcDb3dPolylineVertex
10
361.466324
20
4.934258
30
7.330593
70
32
0
VERTEX
100
AcDbEntity
8
1
100
AcDbVertex
100
AcDb3dPolylineVertex
10
361.470497
20
4.618423
30
6.832573
70
32
0
VERTEX
100
AcDbEntity
8
1
100
AcDbVertex
100
AcDb3dPolylineVertex
10
361.474425
20
4.299999
30
6.336260
70
32
0
VERTEX
100
AcDbEntity
8
1
100
AcDbVertex
100
AcDb3dPolylineVertex
10
361.478099
20
3.979157
30
5.845148
70
32
0
VERTEX
100
AcDbEntity
8
1
100
AcDbVertex
100
AcDb3dPolylineVertex
10
361.481481
20
3.659100
30
5.360758
70
32
0
VERTEX
100
AcDbEntity
8
1
100
AcDbVertex
100
AcDb3dPolylineVertex
10
361.484565
20
3.340556
30
4.886189
70
32
0
VERTEX
100
AcDbEntity
8
1
100
AcDbVertex
100
AcDb3dPolylineVertex
10
361.487331
20
3.026423
30
4.423033
70
32
0
VERTEX
100
AcDbEntity
8
1
100
AcDbVertex
100
AcDb3dPolylineVertex
10
361.489775
20
2.718958
30
3.973206
70
32
0
VERTEX
100
AcDbEntity
8
1
100
AcDbVertex
100
AcDb3dPolylineVertex
10
361.491904
20
2.419406
30
3.539244
70
32
0
VERTEX
100
AcDbEntity
8
1
100
AcDbVertex
100
AcDb3dPolylineVertex
10
361.493717
20
2.131349
30
3.121891
70
32
0
VERTEX
100
AcDbEntity
8
1
100
AcDbVertex
100
AcDb3dPolylineVertex
10
361.495241
20
1.854828
30
2.724311
70
32
0
VERTEX
100
AcDbEntity
8
1
100
AcDbVertex
100
AcDb3dPolylineVertex
10
361.496489
20
1.593161
30
2.347144
70
32
0
VERTEX
100
AcDbEntity
8
1
100
AcDbVertex
100
AcDb3dPolylineVertex
10
361.497489
20
1.347384
30
1.992545
70
32
0
VERTEX
100
AcDbEntity
8
1
100
AcDbVertex
100
AcDb3dPolylineVertex
10
361.498269
20
1.118559
30
1.662497
70
32
0
VERTEX
100
AcDbEntity
8
1
100
AcDbVertex
100
AcDb3dPolylineVertex
10
361.498858
20
0.908586
30
1.358168
70
32
0
VERTEX
100
AcDbEntity
8
1
100
AcDbVertex
100
AcDb3dPolylineVertex
10
361.499286
20
0.718398
30
1.081266
70
32
0
VERTEX
100
AcDbEntity
8
1
100
AcDbVertex
100
AcDb3dPolylineVertex
10
361.499584
20
0.548581
30
0.833574
70
32
0
VERTEX
100
AcDbEntity
8
1
100
AcDbVertex
100
AcDb3dPolylineVertex
10
361.499778
20
0.400730
30
0.615852
70
32
0
VERTEX
100
AcDbEntity
8
1
100
AcDbVertex
100
AcDb3dPolylineVertex
10
361.499895
20
0.275613
30
0.429268
70
32
0
VERTEX
100
AcDbEntity
8
1
100
AcDbVertex
100
AcDb3dPolylineVertex
10
361.499959
20
0.173043
30
0.275512
70
32
0
VERTEX
100
AcDbEntity
8
1
100
AcDbVertex
100
AcDb3dPolylineVertex
10
361.499988
20
0.093147
30
0.155769
70
32
0
VERTEX
100
AcDbEntity
8
1
100
AcDbVertex
100
AcDb3dPolylineVertex
10
361.499998
20
0.036335
30
0.070714
70
32
0
VERTEX
100
AcDbEntity
8
1
100
AcDbVertex
100
AcDb3dPolylineVertex
10
361.500000
20
0.002951
30
0.020770
70
32
0
SEQEND
100
AcDbEntity
8
1
0
POLYLINE
100
AcDbEntity
8
1
62
4
100
AcDb3dPolyline
66
1
10
0.000000
20
0.000000
30
0.000000
70
8
0
VERTEX
100
AcDbEntity
8
1
100
AcDbVertex
100
AcDb3dPolylineVertex
10
372.000000
20
0.002601
30
0.020641
70
32
0
VERTEX
100
AcDbEntity
8
1
100
AcDbVertex
100
AcDb3dPolylineVertex
10
372.000000
20
0.000935
30
0.017823
70
32
0
VERTEX
100
AcDbEntity
8
1
100
AcDbVertex
100
AcDb3dPolylineVertex
10
372.000000
20
-0.000432
30
0.014990
70
32
0
VERTEX
100
AcDbEntity
8
1
100
AcDbVertex
100
AcDb3dPolylineVertex
10
372.000000
20
-0.001470
30
0.012209
70
32
0
VERTEX
100
AcDbEntity
8
1
100
AcDbVertex
100
AcDb3dPolylineVertex
10
372.000000
20
-0.002154
30
0.009545
70
32
0
VERTEX
100
AcDbEntity
8
1
100
AcDbVertex
100
AcDb3dPolylineVertex
10
372.000000
20
-0.002467
30
0.007062
70
32
0
VERTEX
100
AcDbEntity
8
1
100
AcDbVertex
100
AcDb3dPolylineVertex
10
372.000000
20
-0.002402
30
0.004816
70
32
0
VERTEX
100
AcDbEntity
8
1
100
AcDbVertex
100
AcDb3dPolylineVertex
10
372.000000
20
-0.001961
30
0.002861
70
32
0
VERTEX
100
AcDbEntity
8
1
100
AcDbVertex
100
AcDb3dPolylineVertex
10
372.000000
20
-0.001154
30
0.001243
70
32
0
VERTEX
100
AcDbEntity
8
1
100
AcDbVertex
100
AcDb3dPolylineVertex
10
372.000000
20
0.000000
30
0.000000
70
32
0
VERTEX
100
AcDbEntity
8
1
100
AcDbVertex
100
AcDb3dPolylineVertex
10
372.000000
20
0.001474
30
-0.000839
70
32
0
VERTEX
100
AcDbEntity
8
1
100
AcDbVertex
100
AcDb3dPolylineVertex
10
372.000000
20
0.003234
30
-0.001255
70
32
0
VERTEX
100
AcDbEntity
8
1
100
AcDbVertex
100
AcDb3dPolylineVertex
10
372.000000
20
0.005238
30
-0.001237
70
32
0
VERTEX
100
AcDbEntity
8
1
100
AcDbVertex
100
AcDb3dPolylineVertex
10
372.000000
20
0.007439
30
-0.000786
70
32
0
VERTEX
100
AcDbEntity
8
1
100
AcDbVertex
100
AcDb3dPolylineVertex
10
372.000000
20
0.009785
30
0.000088
70
32
0
VERTEX
100
AcDbEntity
8
1
100
AcDbVertex
100
AcDb3dPolylineVertex
10
372.000000
20
0.012222
30
0.001364
70
32
0
VERTEX
100
AcDbEntity
8
1
100
AcDbVertex
100
AcDb3dPolylineVertex
10
372.000000
20
0.014692
30
0.003011
70
32
0
VERTEX
100
AcDbEntity
8
1
100
AcDbVertex
100
AcDb3dPolylineVertex
10
372.000000
20
0.017137
30
0.004993
70
32
0
VERTEX
100
AcDbEntity
8
1
100
AcDbVertex
100
AcDb3dPolylineVertex
10
371.999999
20
0.019499
30
0.007261
70
32
0
SEQEND
100
AcDbEntity
8
1
0
POLYLINE
100
AcDbEntity
8
1
62
3
100
AcDb3dPolyline
66
1
10
0.000000
20
0.000000
30
0.000000
70
8
0
VERTEX
100
AcDbEntity
8
1
100
AcDbVertex
100
AcDb3dPolylineVertex
10
371.999999
20
0.019499
30
0.007261
70
32
0
VERTEX
100
AcDbEntity
8
1
100
AcDbVertex
100
AcDb3dPolylineVertex
10
371.999995
20
0.060765
30
0.050226
70
32
0
VERTEX
100
AcDbEntity
8
1
100
AcDbVertex
100
AcDb3dPolylineVertex
10
371.999977
20
0.130921
30
0.123570
70
32
0
VERTEX
100
AcDbEntity
8
1
100
AcDbVertex
100
AcDb3dPolylineVertex
10
371.999929
20
0.229372
30
0.227130
70
32
0
VERTEX
100
AcDbEntity
8
1
100
AcDbVertex
100
AcDb3dPolylineVertex
10
371.999830
20
0.355206
30
0.360750
70
32
0
VERTEX
100
AcDbEntity
8
1
100
AcDbVertex
100
AcDb3dPolylineVertex
10
371.999655
20
0.506854
30
0.524532
70
32
0
VERTEX
100
AcDbEntity
8
1
100
AcDbVertex
100
AcDb3dPolylineVertex
10
371.999375
20
0.682085
30
0.718819
70
32
0
VERTEX
100
AcDbEntity
8
1
100
AcDbVertex
100
AcDb3dPolylineVertex
10
371.998961
20
0.879337
30
0.943170
70
32
0
VERTEX
100
AcDbEntity
8
1
100
AcDbVertex
100
AcDb3dPolylineVertex
10
371.998381
20
1.097523
30
1.196531
70
32
0
VERTEX
100
AcDbEntity
8
1
100
AcDbVertex
100
AcDb3dPolylineVertex
10
371.997607
20
1.334303
30
1.478555
70
32
0
VERTEX
100
AcDbEntity
8
1
100
AcDbVertex
100
AcDb3dPolylineVertex
10
371.996613
20
1.587435
30
1.788566
70
32
0
VERTEX
100
AcDbEntity
8
1
100
AcDbVertex
100
AcDb3dPolylineVertex
10
371.995373
20
1.855354
30
2.125156
70
32
0
VERTEX
100
AcDbEntity
8
1
100
AcDbVertex
100
AcDb3dPolylineVertex
10
371.993869
20
2.135689
30
2.487292
70
32
0
VERTEX
100
AcDbEntity
8
1
100
AcDbVertex
100
AcDb3dPolylineVertex
10
371.992092
20
2.425621
30
2.874040
70
32
0
VERTEX
100
AcDbEntity
8
1
100
AcDbVertex
100
AcDb3dPolylineVertex
10
371.990021
20
2.724705
30
3.282599
70
32
0
VERTEX
100
AcDbEntity
8
1
100
AcDbVertex
100
AcDb3dPolylineVertex
10
371.987667
20
3.029118
30
3.712376
70
32
0
VERTEX
100
AcDbEntity
8
1
100
AcDbVertex
100
AcDb3dPolylineVertex
10
371.985020
20
3.338414
30
4.160285
70
32
0
VERTEX
100
AcDbEntity
8
1
100
AcDbVertex
100
AcDb3dPolylineVertex
10
371.982092
20
3.650082
30
4.624544
70
32
0
VERTEX
100
AcDbEntity
8
1
100
AcDbVertex
100
AcDb3dPolylineVertex
10
371.978897
20
3.962308
30
5.102790
70
32
0
VERTEX
100
AcDbEntity
8
1
100
AcDbVertex
100
AcDb3dPolylineVertex
10
371.975443
20
4.274347
30
5.591904
70
32
0
VERTEX
100
AcDbEntity
8
1
100
AcDbVertex
100
AcDb3dPolylineVertex
10
371.971766
20
4.583131
30
6.090200
70
32
0
VERTEX
100
AcDbEntity
8
1
100
AcDbVertex
100
AcDb3dPolylineVertex
10
371.967880
20
4.888365
30
6.594202
70
32
0
VERTEX
100
AcDbEntity
8
1
100
AcDbVertex
100
AcDb3dPolylineVertex
10
371.963838
20
5.186823
30
7.102232
70
32
0
VERTEX
100
AcDbEntity
8
1
100
AcDbVertex
100
AcDb3dPolylineVertex
10
371.959656
20
5.478563
30
7.610613
70
32
0
VERTEX
100
AcDbEntity
8
1
100
AcDbVertex
100
AcDb3dPolylineVertex
10
371.955396
20
5.760518
30
8.117554
70
32
0
VERTEX
100
AcDbEntity
8
1
100
AcDbVertex
100
AcDb3dPolylineVertex
10
371.951073
20
6.033169
30
8.619244
70
32
0
VERTEX
100
AcDbEntity
8
1
100
AcDbVertex
100
AcDb3dPolylineVertex
10
371.946759
20
6.293553
30
9.113898
70
32
0
VERTEX
100
AcDbEntity
8
1
100
AcDbVertex
100
AcDb3dPolylineVertex
10
371.942463
20
6.542517
30
9.597690
70
32
0
VERTEX
100
AcDbEntity
8
1
100
AcDbVertex
100
AcDb3dPolylineVertex
10
371.938254
20
6.777562
30
10.068733
70
32
0
VERTEX
100
AcDbEntity
8
1
100
AcDbVertex
100
AcDb3dPolylineVertex
10
371.934142
20
6.999546
30
10.523460
70
32
0
VERTEX
100
AcDbEntity
8
1
100
AcDbVertex
100
AcDb3dPolylineVertex
10
371.930190
20
7.206502
30
10.959930
70
32
0
VERTEX
100
AcDbEntity
8
1
100
AcDbVertex
100
AcDb3dPolylineVertex
10
371.926413
20
7.398853
30
11.375114
70
32
0
VERTEX
100
AcDbEntity
8
1
100
AcDbVertex
100
AcDb3dPolylineVertex
10
371.922838
20
7.576426
30
11.766470
70
32
0
VERTEX
100
AcDbEntity
8
1
100
AcDbVertex
100
AcDb3dPolylineVertex
10
371.919513
20
7.737931
30
12.132170
70
32
0
VERTEX
100
AcDbEntity
8
1
100
AcDbVertex
100
AcDb3dPolylineVertex
10
371.916442
20
7.884187
30
12.469546
70
32
0
VERTEX
100
AcDbEntity
8
1
100
AcDbVertex
100
AcDb3dPolylineVertex
10
371.913642
20
8.015154
30
12.776553
70
32
0
VERTEX
100
AcDbEntity
8
1
100
AcDbVertex
100
AcDb3dPolylineVertex
10
371.911150
20
8.129984
30
13.051722
70
32
0
VERTEX
100
AcDbEntity
8
1
100
AcDbVertex
100
AcDb3dPolylineVertex
10
371.908970
20
8.229090
30
13.293199
70
32
0
VERTEX
100
AcDbEntity
8
1
100
AcDbVertex
100
AcDb3dPolylineVertex
10
371.907110
20
8.312738
30
13.499423
70
32
0
VERTEX
100
AcDbEntity
8
1
100
AcDbVertex
100
AcDb3dPolylineVertex
10
371.905580
20
8.380911
30
13.669181
70
32
0
VERTEX
100
AcDbEntity
8
1
100
AcDbVertex
100
AcDb3dPolylineVertex
10
371.904389
20
8.433608
30
13.801472
70
32
0
VERTEX
100
AcDbEntity
8
1
100
AcDbVertex
100
AcDb3dPolylineVertex
10
371.903542
20
8.470841
30
13.895515
70
32
0
VERTEX
100
AcDbEntity
8
1
100
AcDbVertex
100
AcDb3dPolylineVertex
10
371.903046
20
8.492625
30
13.950760
70
32
0
SEQEND
100
AcDbEntity
8
1
0
POLYLINE
100
AcDbEntity
8
1
62
2
100
AcDb3dPolyline
66
1
10
0.000000
20
0.000000
30
0.000000
70
8
0
VERTEX
100
AcDbEntity
8
1
100
AcDbVertex
100
AcDb3dPolylineVertex
10
371.903046
20
8.492625
30
13.950760
70
32
0
VERTEX
100
AcDbEntity
8
1
100
AcDbVertex
100
AcDb3dPolylineVertex
10
371.903003
20
8.494494
30
13.957025
70
32
0
VERTEX
100
AcDbEntity
8
1
100
AcDbVertex
100
AcDb3dPolylineVertex
10
371.902985
20
8.495273
30
13.963516
70
32
0
VERTEX
100
AcDbEntity
8
1
100
AcDbVertex
100
AcDb3dPolylineVertex
10
371.902993
20
8.494941
30
13.970043
70
32
0
VERTEX
100
AcDbEntity
8
1
100
AcDbVertex
100
AcDb3dPolylineVertex
10
371.903025
20
8.493506
30
13.976419
70
32
0
VERTEX
100
AcDbEntity
8
1
100
AcDbVertex
100
AcDb3dPolylineVertex
10
371.903082
20
8.491010
30
13.982458
70
32
0
VERTEX
100
AcDbEntity
8
1
100
AcDbVertex
100
AcDb3dPolylineVertex
10
371.903162
20
8.487526
30
13.987986
70
32
0
VERTEX
100
AcDbEntity
8
1
100
AcDbVertex
100
AcDb3dPolylineVertex
10
371.903262
20
8.483155
30
13.992842
70
32
0
VERTEX
100
AcDbEntity
8
1
100
AcDbVertex
100
AcDb3dPolylineVertex
10
371.903379
20
8.478025
30
13.996885
70
32
0
VERTEX
100
AcDbEntity
8
1
100
AcDbVertex
100
AcDb3dPolylineVertex
10
371.903510
20
8.472282
30
14.000000
70
32
0
VERTEX
100
AcDbEntity
8
1
100
AcDbVertex
100
AcDb3dPolylineVertex
10
371.903650
20
8.466095
30
14.002096
70
32
0
VERTEX
100
AcDbEntity
8
1
100
AcDbVertex
100
AcDb3dPolylineVertex
10
371.903797
20
8.459643
30
14.003113
70
32
0
VERTEX
100
AcDbEntity
8
1
100
AcDbVertex
100
AcDb3dPolylineVertex
10
371.903946
20
8.453112
30
14.003021
70
32
0
VERTEX
100
AcDbEntity
8
1
100
AcDbVertex
100
AcDb3dPolylineVertex
10
371.904092
20
8.446691
30
14.001824
70
32
0
VERTEX
100
AcDbEntity
8
1
100
AcDbVertex
100
AcDb3dPolylineVertex
10
371.904231
20
8.440567
30
13.999556
70
32
0
VERTEX
100
AcDbEntity
8
1
100
AcDbVertex
100
AcDb3dPolylineVertex
10
371.904359
20
8.434917
30
13.996283
70
32
0
VERTEX
100
AcDbEntity
8
1
100
AcDbVertex
100
AcDb3dPolylineVertex
10
371.904473
20
8.429904
30
13.992100
70
32
0
VERTEX
100
AcDbEntity
8
1
100
AcDbVertex
100
AcDb3dPolylineVertex
10
371.904568
20
8.425673
30
13.987127
70
32
0
VERTEX
100
AcDbEntity
8
1
100
AcDbVertex
100
AcDb3dPolylineVertex
10
371.904644
20
8.422346
30
13.981509
70
32
0
SEQEND
100
AcDbEntity
8
1
0
POLYLINE
100
AcDbEntity
8
1
62
1
100
AcDb3dPolyline
66
1
10
0.000000
20
0.000000
30
0.000000
70
8
0
VERTEX
100
AcDbEntity
8
1
100
AcDbVertex
100
AcDb3dPolylineVertex
10
371.904644
20
8.422346
30
13.981509
70
32
0
VERTEX
100
AcDbEntity
8
1
100
AcDbVertex
100
AcDb3dPolylineVertex
10
371.905227
20
8.396553
30
13.928107
70
32
0
VERTEX
100
AcDbEntity
8
1
100
AcDbVertex
100
AcDb3dPolylineVertex
10
371.906219
20
8.352506
30
13.837219
70
32
0
VERTEX
100
AcDbEntity
8
1
100
AcDbVertex
100
AcDb3dPolylineVertex
10
371.907612
20
8.290241
30
13.709406
70
32
0
VERTEX
100
AcDbEntity
8
1
100
AcDbVertex
100
AcDb3dPolylineVertex
10
371.909396
20
8.209827
30
13.545458
70
32
0
VERTEX
100
AcDbEntity
8
1
100
AcDbVertex
100
AcDb3dPolylineVertex
10
371.911557
20
8.111357
30
13.346393
70
32
0
VERTEX
100
AcDbEntity
8
1
100
AcDbVertex
100
AcDb3dPolylineVertex
10
371.914077
20
7.994960
30
13.113441
70
32
0
VERTEX
100
AcDbEntity
8
1
100
AcDbVertex
100
AcDb3dPolylineVertex
10
371.916930
20
7.861115
30
12.847895
70
32
0
VERTEX
100
AcDbEntity
8
1
100
AcDbVertex
100
AcDb3dPolylineVertex
10
371.920082
20
7.710540
30
12.551145
70
32
0
VERTEX
100
AcDbEntity
8
1
100
AcDbVertex
100
AcDb3dPolylineVertex
10
371.923522
20
7.542804
30
12.225325
70
32
0
VERTEX
100
AcDbEntity
8
1
100
AcDbVertex
100
AcDb3dPolylineVertex
10
371.927216
20
7.358413
30
11.872331
70
32
0
VERTEX
100
AcDbEntity
8
1
100
AcDbVertex
100
AcDb3dPolylineVertex
10
371.931110
20
7.158889
30
11.493746
70
32
0
VERTEX
100
AcDbEntity
8
1
100
AcDbVertex
100
AcDb3dPolylineVertex
10
371.935187
20
6.943819
30
11.092265
70
32
0
VERTEX
100
AcDbEntity
8
1
100
AcDbVertex
100
AcDb3dPolylineVertex
10
371.939405
20
6.714096
30
10.670109
70
32
0
VERTEX
100
AcDbEntity
8
1
100
AcDbVertex
100
AcDb3dPolylineVertex
10
371.943706
20
6.471425
30
10.229218
70
32
0
VERTEX
100
AcDbEntity
8
1
100
AcDbVertex
100
AcDb3dPolylineVertex
10
371.948074
20
6.215341
30
9.772789
70
32
0
VERTEX
100
AcDbEntity
8
1
100
AcDbVertex
100
AcDb3dPolylineVertex
10
371.952438
20
5.948440
30
9.302520
70
32
0
VERTEX
100
AcDbEntity
8
1
100
AcDbVertex
100
AcDb3dPolylineVertex
10
371.956784
20
5.670203
30
8.821884
70
32
0
VERTEX
100
AcDbEntity
8
1
100
AcDbVertex
100
AcDb3dPolylineVertex
10
371.961041
20
5.383701
30
8.332468
70
32
0
VERTEX
100
AcDbEntity
8
1
100
AcDbVertex
100
AcDb3dPolylineVertex
10
371.965197
20
5.088439
30
7.837916
70
32
0
VERTEX
100
AcDbEntity
8
1
100
AcDbVertex
100
AcDb3dPolylineVertex
10
371.969191
20
4.787601
30
7.339825
70
32
0
VERTEX
100
AcDbEntity
8
1
100
AcDbVertex
100
AcDb3dPolylineVertex
10
371.973010
20
4.481048
30
6.841759
70
32
0
VERTEX
100
AcDbEntity
8
1
100
AcDbVertex
100
AcDb3dPolylineVertex
10
371.976605
20
4.171981
30
6.345310
70
32
0
VERTEX
100
AcDbEntity
8
1
100
AcDbVertex
100
AcDb3dPolylineVertex
10
371.979968
20
3.860503
30
5.853946
70
32
0
VERTEX
100
AcDbEntity
8
1
100
AcDbVertex
100
AcDb3dPolylineVertex
10
371.983062
20
3.549819
30
5.369194
70
32
0
VERTEX
100
AcDbEntity
8
1
100
AcDbVertex
100
AcDb3dPolylineVertex
10
371.985886
20
3.240500
30
4.894202
70
32
0
VERTEX
100
AcDbEntity
8
1
100
AcDbVertex
100
AcDb3dPolylineVertex
10
371.988417
20
2.935551
30
4.430489
70
32
0
VERTEX
100
AcDbEntity
8
1
100
AcDbVertex
100
AcDb3dPolylineVertex
10
371.990654
20
2.636987
30
3.980118
70
32
0
VERTEX
100
AcDbEntity
8
1
100
AcDbVertex
100
AcDb3dPolylineVertex
10
371.992601
20
2.346169
30
3.545507
70
32
0
VERTEX
100
AcDbEntity
8
1
100
AcDbVertex
100
AcDb3dPolylineVertex
10
371.994260
20
2.066525
30
3.127526
70
32
0
VERTEX
100
AcDbEntity
8
1
100
AcDbVertex
100
AcDb3dPolylineVertex
10
371.995654
20
1.798082
30
2.729289
70
32
0
VERTEX
100
AcDbEntity
8
1
100
AcDbVertex
100
AcDb3dPolylineVertex
10
371.996795
20
1.544173
30
2.351442
70
32
0
VERTEX
100
AcDbEntity
8
1
100
AcDbVertex
100
AcDb3dPolylineVertex
10
371.997709
20
1.305652
30
1.996236
70
32
0
VERTEX
100
AcDbEntity
8
1
100
AcDbVertex
100
AcDb3dPolylineVertex
10
371.998422
20
1.083680
30
1.665556
70
32
0
VERTEX
100
AcDbEntity
8
1
100
AcDbVertex
100
AcDb3dPolylineVertex
10
371.998959
20
0.880043
30
1.360643
70
32
0
VERTEX
100
AcDbEntity
8
1
100
AcDbVertex
100
AcDb3dPolylineVertex
10
371.999350
20
0.695642
30
1.083205
70
32
0
VERTEX
100
AcDbEntity
8
1
100
AcDbVertex
100
AcDb3dPolylineVertex
10
371.999621
20
0.531035
30
0.835012
70
32
0
VERTEX
100
AcDbEntity
8
1
100
AcDbVertex
100
AcDb3dPolylineVertex
10
371.999798
20
0.387759
30
0.616868
70
32
0
VERTEX
100
AcDbEntity
8
1
100
AcDbVertex
100
AcDb3dPolylineVertex
10
371.999904
20
0.266576
30
0.429928
70
32
0
VERTEX
100
AcDbEntity
8
1
100
AcDbVertex
100
AcDb3dPolylineVertex
10
371.999962
20
0.167261
30
0.275874
70
32
0
VERTEX
100
AcDbEntity
8
1
100
AcDbVertex
100
AcDb3dPolylineVertex
10
371.999989
20
0.089908
30
0.155893
70
32
0
VERTEX
100
AcDbEntity
8
1
100
AcDbVertex
100
AcDb3dPolylineVertex
10
371.999998
20
0.034906
30
0.070666
70
32
0
VERTEX
100
AcDbEntity
8
1
100
AcDbVertex
100
AcDb3dPolylineVertex
10
372.000000
20
0.002601
30
0.020641
70
32
0
SEQEND
100
AcDbEntity
8
1
0
POLYLINE
100
AcDbEntity
8
1
62
7
100
AcDb3dPolyline
66
1
10
0.000000
20
0.000000
30
0.000000
70
8
0
VERTEX
100
AcDbEntity
8
1
100
AcDbVertex
100
AcDb3dPolylineVertex
10
330.000000
20
0.003984
30
0.021150
70
32
0
VERTEX
100
AcDbEntity
8
1
100
AcDbVertex
100
AcDb3dPolylineVertex
10
340.500000
20
0.003642
30
0.021024
70
32
0
VERTEX
100
AcDbEntity
8
1
100
AcDbVertex
100
AcDb3dPolylineVertex
10
351.000000
20
0.003298
30
0.020897
70
32
0
VERTEX
100
AcDbEntity
8
1
100
AcDbVertex
100
AcDb3dPolylineVertex
10
361.500000
20
0.002951
30
0.020770
70
32
0
VERTEX
100
AcDbEntity
8
1
100
AcDbVertex
100
AcDb3dPolylineVertex
10
372.000000
20
0.002601
30
0.020641
70
32
0
SEQEND
100
AcDbEntity
8
1
0
POLYLINE
100
AcDbEntity
8
1
62
7
100
AcDb3dPolyline
66
1
10
0.000000
20
0.000000
30
0.000000
70
8
0
VERTEX
100
AcDbEntity
8
1
100
AcDbVertex
100
AcDb3dPolylineVertex
10
329.999999
20
0.020574
30
0.006326
70
32
0
VERTEX
100
AcDbEntity
8
1
100
AcDbVertex
100
AcDb3dPolylineVertex
10
340.499999
20
0.020308
30
0.006556
70
32
0
VERTEX
100
AcDbEntity
8
1
100
AcDbVertex
100
AcDb3dPolylineVertex
10
350.999999
20
0.020040
30
0.006789
70
32
0
VERTEX
100
AcDbEntity
8
1
100
AcDbVertex
100
AcDb3dPolylineVertex
10
361.499999
20
0.019770
30
0.007024
70
32
0
VERTEX
100
AcDbEntity
8
1
100
AcDbVertex
100
AcDb3dPolylineVertex
10
371.999999
20
0.019499
30
0.007261
70
32
0
SEQEND
100
AcDbEntity
8
1
0
POLYLINE
100
AcDbEntity
8
1
62
7
100
AcDb3dPolyline
66
1
10
0.000000
20
0.000000
30
0.000000
70
8
0
VERTEX
100
AcDbEntity
8
1
100
AcDbVertex
100
AcDb3dPolylineVertex
10
329.864377
20
9.460069
30
13.983170
70
32
0
VERTEX
100
AcDbEntity
8
1
100
AcDbVertex
100
AcDb3dPolylineVertex
10
340.375673
20
9.200612
30
13.982750
70
32
0
VERTEX
100
AcDbEntity
8
1
100
AcDbVertex
100
AcDb3dPolylineVertex
10
350.886100
20
8.941175
30
13.982333
70
32
0
VERTEX
100
AcDbEntity
8
1
100
AcDbVertex
100
AcDb3dPolylineVertex
10
361.395735
20
8.681754
30
13.981920
70
32
0
VERTEX
100
AcDbEntity
8
1
100
AcDbVertex
100
AcDb3dPolylineVertex
10
371.904644
20
8.422346
30
13.981509
70
32
0
SEQEND
100
AcDbEntity
8
1
0
POLYLINE
100
AcDbEntity
8
1
62
7
100
AcDb3dPolyline
66
1
10
0.000000
20
0.000000
30
0.000000
70
8
0
VERTEX
100
AcDbEntity
8
1
100
AcDbVertex
100
AcDb3dPolylineVertex
10
329.862325
20
9.531342
30
13.948166
70
32
0
VERTEX
100
AcDbEntity
8
1
100
AcDbVertex
100
AcDb3dPolylineVertex
10
340.373746
20
9.271636
30
13.948820
70
32
0
VERTEX
100
AcDbEntity
8
1
100
AcDbVertex
100
AcDb3dPolylineVertex
10
350.884290
20
9.011949
30
13.949471
70
32
0
VERTEX
100
AcDbEntity
8
1
100
AcDbVertex
100
AcDb3dPolylineVertex
10
361.394034
20
8.752280
30
13.950118
70
32
0
VERTEX
100
AcDbEntity
8
1
100
AcDbVertex
100
AcDb3dPolylineVertex
10
371.903046
20
8.492625
30
13.950760
70
32
0
SEQEND
100
AcDbEntity
8
1
0
POLYLINE
100
AcDbEntity
8
1
62
7
100
AcDb3dPolyline
66
1
10
0.000000
20
0.000000
30
0.000000
70
8
0
VERTEX
100
AcDbEntity
8
1
100
AcDbVertex
100
AcDb3dPolylineVertex
10
330.000000
20
0.000000
30
-42.000000
70
32
0
VERTEX
100
AcDbEntity
8
1
100
AcDbVertex
100
AcDb3dPolylineVertex
10
330.000000
20
0.000000
30
0.000000
70
32
0
VERTEX
100
AcDbEntity
8
1
100
AcDbVertex
100
AcDb3dPolylineVertex
10
330.000000
20
0.000000
30
0.233333
70
32
0
VERTEX
100
AcDbEntity
8
1
100
AcDbVertex
100
AcDb3dPolylineVertex
10
330.000000
20
0.000000
30
0.466667
70
32
0
VERTEX
100
AcDbEntity
8
1
100
AcDbVertex
100
AcDb3dPolylineVertex
10
330.000000
20
0.000000
30
0.700000
70
32
0
VERTEX
100
AcDbEntity
8
1
100
AcDbVertex
100
AcDb3dPolylineVertex
10
330.000000
20
0.000000
30
0.933333
70
32
0
VERTEX
100
AcDbEntity
8
1
100
AcDbVertex
100
AcDb3dPolylineVertex
10
330.000000
20
0.000000
30
1.166667
70
32
0
VERTEX
100
AcDbEntity
8
1
100
AcDbVertex
100
AcDb3dPolylineVertex
10
330.000000
20
0.000000
30
1.400000
70
32
0
VERTEX
100
AcDbEntity
8
1
100
AcDbVertex
100
AcDb3dPolylineVertex
10
330.000000
20
0.000000
30
1.633333
70
32
0
VERTEX
100
AcDbEntity
8
1
100
AcDbVertex
100
AcDb3dPolylineVertex
10
330.000000
20
0.000000
30
1.866667
70
32
0
VERTEX
100
AcDbEntity
8
1
100
AcDbVertex
100
AcDb3dPolylineVertex
10
330.000000
20
0.000000
30
2.100000
70
32
0
VERTEX
100
AcDbEntity
8
1
100
AcDbVertex
100
AcDb3dPolylineVertex
10
330.000000
20
0.000000
30
2.333333
70
32
0
VERTEX
100
AcDbEntity
8
1
100
AcDbVertex
100
AcDb3dPolylineVertex
10
330.000000
20
0.000000
30
2.566667
70
32
0
VERTEX
100
AcDbEntity
8
1
100
AcDbVertex
100
AcDb3dPolylineVertex
10
330.000000
20
0.000000
30
2.800000
70
32
0
VERTEX
100
AcDbEntity
8
1
100
AcDbVertex
100
AcDb3dPolylineVertex
10
330.000000
20
0.000000
30
3.033333
70
32
0
VERTEX
100
AcDbEntity
8
1
100
AcDbVertex
100
AcDb3dPolylineVertex
10
330.000000
20
0.000000
30
3.266667
70
32
0
VERTEX
100
AcDbEntity
8
1
100
AcDbVertex
100
AcDb3dPolylineVertex
10
330.000000
20
0.000000
30
3.500000
70
32
0
VERTEX
100
AcDbEntity
8
1
100
AcDbVertex
100
AcDb3dPolylineVertex
10
330.000000
20
0.000000
30
3.733333
70
32
0
VERTEX
100
AcDbEntity
8
1
100
AcDbVertex
100
AcDb3dPolylineVertex
10
330.000000
20
0.000000
30
3.966667
70
32
0
VERTEX
100
AcDbEntity
8
1
100
AcDbVertex
100
AcDb3dPolylineVertex
10
330.000000
20
0.000000
30
4.200000
70
32
0
VERTEX
100
AcDbEntity
8
1
100
AcDbVertex
100
AcDb3dPolylineVertex
10
330.000000
20
0.000000
30
4.433333
70
32
0
VERTEX
100
AcDbEntity
8
1
100
AcDbVertex
100
AcDb3dPolylineVertex
10
330.000000
20
0.000000
30
4.666667
70
32
0
VERTEX
100
AcDbEntity
8
1
100
AcDbVertex
100
AcDb3dPolylineVertex
10
330.000000
20
0.000000
30
4.900000
70
32
0
VERTEX
100
AcDbEntity
8
1
100
AcDbVertex
100
AcDb3dPolylineVertex
10
330.000000
20
0.000000
30
5.133333
70
32
0
VERTEX
100
AcDbEntity
8
1
100
AcDbVertex
100
AcDb3dPolylineVertex
10
330.000000
20
0.000000
30
5.366667
70
32
0
VERTEX
100
AcDbEntity
8
1
100
AcDbVertex
100
AcDb3dPolylineVertex
10
330.000000
20
0.000000
30
5.600000
70
32
0
VERTEX
100
AcDbEntity
8
1
100
AcDbVertex
100
AcDb3dPolylineVertex
10
330.000000
20
0.000000
30
5.833333
70
32
0
VERTEX
100
AcDbEntity
8
1
100
AcDbVertex
100
AcDb3dPolylineVertex
10
330.000000
20
0.000000
30
6.066667
70
32
0
VERTEX
100
AcDbEntity
8
1
100
AcDbVertex
100
AcDb3dPolylineVertex
10
330.000000
20
0.000000
30
6.300000
70
32
0
VERTEX
100
AcDbEntity
8
1
100
AcDbVertex
100
AcDb3dPolylineVertex
10
330.000000
20
0.000000
30
6.533333
70
32
0
VERTEX
100
AcDbEntity
8
1
100
AcDbVertex
100
AcDb3dPolylineVertex
10
330.000000
20
0.000000
30
6.766667
70
32
0
VERTEX
100
AcDbEntity
8
1
100
AcDbVertex
100
AcDb3dPolylineVertex
10
330.000000
20
0.000000
30
7.000000
70
32
0
VERTEX
100
AcDbEntity
8
1
100
AcDbVertex
100
AcDb3dPolylineVertex
10
330.000000
20
0.000000
30
7.233333
70
32
0
VERTEX
100
AcDbEntity
8
1
100
AcDbVertex
100
AcDb3dPolylineVertex
10
330.000000
20
0.000000
30
7.466667
70
32
0
VERTEX
100
AcDbEntity
8
1
100
AcDbVertex
100
AcDb3dPolylineVertex
10
330.000000
20
0.000000
30
7.700000
70
32
0
VERTEX
100
AcDbEntity
8
1
100
AcDbVertex
100
AcDb3dPolylineVertex
10
330.000000
20
0.000000
30
7.933333
70
32
0
VERTEX
100
AcDbEntity
8
1
100
AcDbVertex
100
AcDb3dPolylineVertex
10
330.000000
20
0.000000
30
8.166667
70
32
0
VERTEX
100
AcDbEntity
8
1
100
AcDbVertex
100
AcDb3dPolylineVertex
10
330.000000
20
0.000000
30
8.400000
70
32
0
VERTEX
100
AcDbEntity
8
1
100
AcDbVertex
100
AcDb3dPolylineVertex
10
330.000000
20
0.000000
30
8.633333
70
32
0
VERTEX
100
AcDbEntity
8
1
100
AcDbVertex
100
AcDb3dPolylineVertex
10
330.000000
20
0.000000
30
8.866667
70
32
0
VERTEX
100
AcDbEntity
8
1
100
AcDbVertex
100
AcDb3dPolylineVertex
10
330.000000
20
0.000000
30
9.100000
70
32
0
VERTEX
100
AcDbEntity
8
1
100
AcDbVertex
100
AcDb3dPolylineVertex
10
330.000000
20
0.000000
30
9.333333
70
32
0
VERTEX
100
AcDbEntity
8
1
100
AcDbVertex
100
AcDb3dPolylineVertex
10
330.000000
20
0.000000
30
9.566667
70
32
0
VERTEX
100
AcDbEntity
8
1
100
AcDbVertex
100
AcDb3dPolylineVertex
10
330.000000
20
0.000000
30
9.800000
70
32
0
VERTEX
100
AcDbEntity
8
1
100
AcDbVertex
100
AcDb3dPolylineVertex
10
330.000000
20
0.000000
30
10.033333
70
32
0
VERTEX
100
AcDbEntity
8
1
100
AcDbVertex
100
AcDb3dPolylineVertex
10
330.000000
20
0.000000
30
10.266667
70
32
0
VERTEX
100
AcDbEntity
8
1
100
AcDbVertex
100
AcDb3dPolylineVertex
10
330.000000
20
0.000000
30
10.500000
70
32
0
VERTEX
100
AcDbEntity
8
1
100
AcDbVertex
100
AcDb3dPolylineVertex
10
330.000000
20
0.000000
30
10.733333
70
32
0
VERTEX
100
AcDbEntity
8
1
100
AcDbVertex
100
AcDb3dPolylineVertex
10
330.000000
20
0.000000
30
10.966667
70
32
0
VERTEX
100
AcDbEntity
8
1
100
AcDbVertex
100
AcDb3dPolylineVertex
10
330.000000
20
0.000000
30
11.200000
70
32
0
VERTEX
100
AcDbEntity
8
1
100
AcDbVertex
100
AcDb3dPolylineVertex
10
330.000000
20
0.000000
30
11.433333
70
32
0
VERTEX
100
AcDbEntity
8
1
100
AcDbVertex
100
AcDb3dPolylineVertex
10
330.000000
20
0.000000
30
11.666667
70
32
0
VERTEX
100
AcDbEntity
8
1
100
AcDbVertex
100
AcDb3dPolylineVertex
10
330.000000
20
0.000000
30
11.900000
70
32
0
VERTEX
100
AcDbEntity
8
1
100
AcDbVertex
100
AcDb3dPolylineVertex
10
330.000000
20
0.000000
30
12.133333
70
32
0
VERTEX
100
AcDbEntity
8
1
100
AcDbVertex
100
AcDb3dPolylineVertex
10
330.000000
20
0.000000
30
12.366667
70
32
0
VERTEX
100
AcDbEntity
8
1
100
AcDbVertex
100
AcDb3dPolylineVertex
10
330.000000
20
0.000000
30
12.600000
70
32
0
VERTEX
100
AcDbEntity
8
1
100
AcDbVertex
100
AcDb3dPolylineVertex
10
330.000000
20
0.000000
30
12.833333
70
32
0
VERTEX
100
AcDbEntity
8
1
100
AcDbVertex
100
AcDb3dPolylineVertex
10
330.000000
20
0.000000
30
13.066667
70
32
0
VERTEX
100
AcDbEntity
8
1
100
AcDbVertex
100
AcDb3dPolylineVertex
10
330.000000
20
0.000000
30
13.300000
70
32
0
VERTEX
100
AcDbEntity
8
1
100
AcDbVertex
100
AcDb3dPolylineVertex
10
330.000000
20
0.000000
30
13.533333
70
32
0
VERTEX
100
AcDbEntity
8
1
100
AcDbVertex
100
AcDb3dPolylineVertex
10
330.000000
20
0.000000
30
13.766667
70
32
0
VERTEX
100
AcDbEntity
8
1
100
AcDbVertex
100
AcDb3dPolylineVertex
10
330.000000
20
0.000000
30
14.000000
70
32
0
VERTEX
100
AcDbEntity
8
1
100
AcDbVertex
100
AcDb3dPolylineVertex
10
330.000000
20
0.000000
30
56.000000
70
32
0
SEQEND
100
AcDbEntity
8
1
0
POLYLINE
100
AcDbEntity
8
1
62
7
100
AcDb3dPolyline
66
1
10
0.000000
20
0.000000
30
0.000000
70
8
0
VERTEX
100
AcDbEntity
8
1
100
AcDbVertex
100
AcDb3dPolylineVertex
10
372.000000
20
0.000000
30
-42.000000
70
32
0
VERTEX
100
AcDbEntity
8
1
100
AcDbVertex
100
AcDb3dPolylineVertex
10
372.000000
20
0.000000
30
0.000000
70
32
0
VERTEX
100
AcDbEntity
8
1
100
AcDbVertex
100
AcDb3dPolylineVertex
10
372.000000
20
0.000000
30
0.233333
70
32
0
VERTEX
100
AcDbEntity
8
1
100
AcDbVertex
100
AcDb3dPolylineVertex
10
372.000000
20
0.000000
30
0.466667
70
32
0
VERTEX
100
AcDbEntity
8
1
100
AcDbVertex
100
AcDb3dPolylineVertex
10
372.000000
20
0.000000
30
0.700000
70
32
0
VERTEX
100
AcDbEntity
8
1
100
AcDbVertex
100
AcDb3dPolylineVertex
10
372.000000
20
0.000000
30
0.933333
70
32
0
VERTEX
100
AcDbEntity
8
1
100
AcDbVertex
100
AcDb3dPolylineVertex
10
372.000000
20
0.000000
30
1.166667
70
32
0
VERTEX
100
AcDbEntity
8
1
100
AcDbVertex
100
AcDb3dPolylineVertex
10
372.000000
20
0.000000
30
1.400000
70
32
0
VERTEX
100
AcDbEntity
8
1
100
AcDbVertex
100
AcDb3dPolylineVertex
10
372.000000
20
0.000000
30
1.633333
70
32
0
VERTEX
100
AcDbEntity
8
1
100
AcDbVertex
100
AcDb3dPolylineVertex
10
372.000000
20
0.000000
30
1.866667
70
32
0
VERTEX
100
AcDbEntity
8
1
100
AcDbVertex
100
AcDb3dPolylineVertex
10
372.000000
20
0.000000
30
2.100000
70
32
0
VERTEX
100
AcDbEntity
8
1
100
AcDbVertex
100
AcDb3dPolylineVertex
10
372.000000
20
0.000000
30
2.333333
70
32
0
VERTEX
100
AcDbEntity
8
1
100
AcDbVertex
100
AcDb3dPolylineVertex
10
372.000000
20
0.000000
30
2.566667
70
32
0
VERTEX
100
AcDbEntity
8
1
100
AcDbVertex
100
AcDb3dPolylineVertex
10
372.000000
20
0.000000
30
2.800000
70
32
0
VERTEX
100
AcDbEntity
8
1
100
AcDbVertex
100
AcDb3dPolylineVertex
10
372.000000
20
0.000000
30
3.033333
70
32
0
VERTEX
100
AcDbEntity
8
1
100
AcDbVertex
100
AcDb3dPolylineVertex
10
372.000000
20
0.000000
30
3.266667
70
32
0
VERTEX
100
AcDbEntity
8
1
100
AcDbVertex
100
AcDb3dPolylineVertex
10
372.000000
20
0.000000
30
3.500000
70
32
0
VERTEX
100
AcDbEntity
8
1
100
AcDbVertex
100
AcDb3dPolylineVertex
10
372.000000
20
0.000000
30
3.733333
70
32
0
VERTEX
100
AcDbEntity
8
1
100
AcDbVertex
100
AcDb3dPolylineVertex
10
372.000000
20
0.000000
30
3.966667
70
32
0
VERTEX
100
AcDbEntity
8
1
100
AcDbVertex
100
AcDb3dPolylineVertex
10
372.000000
20
0.000000
30
4.200000
70
32
0
VERTEX
100
AcDbEntity
8
1
100
AcDbVertex
100
AcDb3dPolylineVertex
10
372.000000
20
0.000000
30
4.433333
70
32
0
VERTEX
100
AcDbEntity
8
1
100
AcDbVertex
100
AcDb3dPolylineVertex
10
372.000000
20
0.000000
30
4.666667
70
32
0
VERTEX
100
AcDbEntity
8
1
100
AcDbVertex
100
AcDb3dPolylineVertex
10
372.000000
20
0.000000
30
4.900000
70
32
0
VERTEX
100
AcDbEntity
8
1
100
AcDbVertex
100
AcDb3dPolylineVertex
10
372.000000
20
0.000000
30
5.133333
70
32
0
VERTEX
100
AcDbEntity
8
1
100
AcDbVertex
100
AcDb3dPolylineVertex
10
372.000000
20
0.000000
30
5.366667
70
32
0
VERTEX
100
AcDbEntity
8
1
100
AcDbVertex
100
AcDb3dPolylineVertex
10
372.000000
20
0.000000
30
5.600000
70
32
0
VERTEX
100
AcDbEntity
8
1
100
AcDbVertex
100
AcDb3dPolylineVertex
10
372.000000
20
0.000000
30
5.833333
70
32
0
VERTEX
100
AcDbEntity
8
1
100
AcDbVertex
100
AcDb3dPolylineVertex
10
372.000000
20
0.000000
30
6.066667
70
32
0
VERTEX
100
AcDbEntity
8
1
100
AcDbVertex
100
AcDb3dPolylineVertex
10
372.000000
20
0.000000
30
6.300000
70
32
0
VERTEX
100
AcDbEntity
8
1
100
AcDbVertex
100
AcDb3dPolylineVertex
10
372.000000
20
0.000000
30
6.533333
70
32
0
VERTEX
100
AcDbEntity
8
1
100
AcDbVertex
100
AcDb3dPolylineVertex
10
372.000000
20
0.000000
30
6.766667
70
32
0
VERTEX
100
AcDbEntity
8
1
100
AcDbVertex
100
AcDb3dPolylineVertex
10
372.000000
20
0.000000
30
7.000000
70
32
0
VERTEX
100
AcDbEntity
8
1
100
AcDbVertex
100
AcDb3dPolylineVertex
10
372.000000
20
0.000000
30
7.233333
70
32
0
VERTEX
100
AcDbEntity
8
1
100
AcDbVertex
100
AcDb3dPolylineVertex
10
372.000000
20
0.000000
30
7.466667
70
32
0
VERTEX
100
AcDbEntity
8
1
100
AcDbVertex
100
AcDb3dPolylineVertex
10
372.000000
20
0.000000
30
7.700000
70
32
0
VERTEX
100
AcDbEntity
8
1
100
AcDbVertex
100
AcDb3dPolylineVertex
10
372.000000
20
0.000000
30
7.933333
70
32
0
VERTEX
100
AcDbEntity
8
1
100
AcDbVertex
100
AcDb3dPolylineVertex
10
372.000000
20
0.000000
30
8.166667
70
32
0
VERTEX
100
AcDbEntity
8
1
100
AcDbVertex
100
AcDb3dPolylineVertex
10
372.000000
20
0.000000
30
8.400000
70
32
0
VERTEX
100
AcDbEntity
8
1
100
AcDbVertex
100
AcDb3dPolylineVertex
10
372.000000
20
0.000000
30
8.633333
70
32
0
VERTEX
100
AcDbEntity
8
1
100
AcDbVertex
100
AcDb3dPolylineVertex
10
372.000000
20
0.000000
30
8.866667
70
32
0
VERTEX
100
AcDbEntity
8
1
100
AcDbVertex
100
AcDb3dPolylineVertex
10
372.000000
20
0.000000
30
9.100000
70
32
0
VERTEX
100
AcDbEntity
8
1
100
AcDbVertex
100
AcDb3dPolylineVertex
10
372.000000
20
0.000000
30
9.333333
70
32
0
VERTEX
100
AcDbEntity
8
1
100
AcDbVertex
100
AcDb3dPolylineVertex
10
372.000000
20
0.000000
30
9.566667
70
32
0
VERTEX
100
AcDbEntity
8
1
100
AcDbVertex
100
AcDb3dPolylineVertex
10
372.000000
20
0.000000
30
9.800000
70
32
0
VERTEX
100
AcDbEntity
8
1
100
AcDbVertex
100
AcDb3dPolylineVertex
10
372.000000
20
0.000000
30
10.033333
70
32
0
VERTEX
100
AcDbEntity
8
1
100
AcDbVertex
100
AcDb3dPolylineVertex
10
372.000000
20
0.000000
30
10.266667
70
32
0
VERTEX
100
AcDbEntity
8
1
100
AcDbVertex
100
AcDb3dPolylineVertex
10
372.000000
20
0.000000
30
10.500000
70
32
0
VERTEX
100
AcDbEntity
8
1
100
AcDbVertex
100
AcDb3dPolylineVertex
10
372.000000
20
0.000000
30
10.733333
70
32
0
VERTEX
100
AcDbEntity
8
1
100
AcDbVertex
100
AcDb3dPolylineVertex
10
372.000000
20
0.000000
30
10.966667
70
32
0
VERTEX
100
AcDbEntity
8
1
100
AcDbVertex
100
AcDb3dPolylineVertex
10
372.000000
20
0.000000
30
11.200000
70
32
0
VERTEX
100
AcDbEntity
8
1
100
AcDbVertex
100
AcDb3dPolylineVertex
10
372.000000
20
0.000000
30
11.433333
70
32
0
VERTEX
100
AcDbEntity
8
1
100
AcDbVertex
100
AcDb3dPolylineVertex
10
372.000000
20
0.000000
30
11.666667
70
32
0
VERTEX
100
AcDbEntity
8
1
100
AcDbVertex
100
AcDb3dPolylineVertex
10
372.000000
20
0.000000
30
11.900000
70
32
0
VERTEX
100
AcDbEntity
8
1
100
AcDbVertex
100
AcDb3dPolylineVertex
10
372.000000
20
0.000000
30
12.133333
70
32
0
VERTEX
100
AcDbEntity
8
1
100
AcDbVertex
100
AcDb3dPolylineVertex
10
372.000000
20
0.000000
30
12.366667
70
32
0
VERTEX
100
AcDbEntity
8
1
100
AcDbVertex
100
AcDb3dPolylineVertex
10
372.000000
20
0.000000
30
12.600000
70
32
0
VERTEX
100
AcDbEntity
8
1
100
AcDbVertex
100
AcDb3dPolylineVertex
10
372.000000
20
0.000000
30
12.833333
70
32
0
VERTEX
100
AcDbEntity
8
1
100
AcDbVertex
100
AcDb3dPolylineVertex
10
372.000000
20
0.000000
30
13.066667
70
32
0
VERTEX
100
AcDbEntity
8
1
100
AcDbVertex
100
AcDb3dPolylineVertex
10
372.000000
20
0.000000
30
13.300000
70
32
0
VERTEX
100
AcDbEntity
8
1
100
AcDbVertex
100
AcDb3dPolylineVertex
10
372.000000
20
0.000000
30
13.533333
70
32
0
VERTEX
100
AcDbEntity
8
1
100
AcDbVertex
100
AcDb3dPolylineVertex
10
372.000000
20
0.000000
30
13.766667
70
32
0
VERTEX
100
AcDbEntity
8
1
100
AcDbVertex
100
AcDb3dPolylineVertex
10
372.000000
20
0.000000
30
14.000000
70
32
0
VERTEX
100
AcDbEntity
8
1
100
AcDbVertex
100
AcDb3dPolylineVertex
10
372.000000
20
0.000000
30
56.000000
70
32
0
SEQEND
100
AcDbEntity
8
1
0
ENDSEC
0
EOF

