0
SECTION
2
HEADER
9
$ACADVER
1
AC1009
9
$EXTMIN
10
0.000000
20
0.000000
30
-112.000000
9
$EXTMAX
10
410.000000
20
410.000000
30
150.000000
0
ENDSEC
0
SECTION
2
ENTITIES
0
POLYLINE
100
AcDbEntity
8
1
62
4
100
AcDb3dPolyline
66
1
10
0.000000
20
0.000000
30
0.000000
70
8
0
VERTEX
100
AcDbEntity
8
1
100
AcDbVertex
100
AcDb3dPolylineVertex
10
297.999999
20
0.024527
30
3.287173
70
32
0
VERTEX
100
AcDbEntity
8
1
100
AcDbVertex
100
AcDb3dPolylineVertex
10
298.000000
20
0.016593
30
3.278503
70
32
0
VERTEX
100
AcDbEntity
8
1
100
AcDbVertex
100
AcDb3dPolylineVertex
10
298.000000
20
0.009709
30
3.269599
70
32
0
VERTEX
100
AcDbEntity
8
1
100
AcDbVertex
100
AcDb3dPolylineVertex
10
298.000000
20
0.004025
30
3.260655
70
32
0
VERTEX
100
AcDbEntity
8
1
100
AcDbVertex
100
AcDb3dPolylineVertex
10
298.000000
20
-0.000333
30
3.251867
70
32
0
VERTEX
100
AcDbEntity
8
1
100
AcDbVertex
100
AcDb3dPolylineVertex
10
298.000000
20
-0.003270
30
3.243429
70
32
0
VERTEX
100
AcDbEntity
8
1
100
AcDbVertex
100
AcDb3dPolylineVertex
10
298.000000
20
-0.004721
30
3.235526
70
32
0
VERTEX
100
AcDbEntity
8
1
100
AcDbVertex
100
AcDb3dPolylineVertex
10
298.000000
20
-0.004653
30
3.228331
70
32
0
VERTEX
100
AcDbEntity
8
1
100
AcDbVertex
100
AcDb3dPolylineVertex
10
298.000000
20
-0.003068
30
3.222003
70
32
0
VERTEX
100
AcDbEntity
8
1
100
AcDbVertex
100
AcDb3dPolylineVertex
10
298.000000
20
0.000000
30
3.216680
70
32
0
VERTEX
100
AcDbEntity
8
1
100
AcDbVertex
100
AcDb3dPolylineVertex
10
298.000000
20
0.004484
30
3.212480
70
32
0
VERTEX
100
AcDbEntity
8
1
100
AcDbVertex
100
AcDb3dPolylineVertex
10
298.000000
20
0.010284
30
3.209494
70
32
0
VERTEX
100
AcDbEntity
8
1
100
AcDbVertex
100
AcDb3dPolylineVertex
10
297.999999
20
0.017275
30
3.207789
70
32
0
VERTEX
100
AcDbEntity
8
1
100
AcDbVertex
100
AcDb3dPolylineVertex
10
297.999999
20
0.025302
30
3.207403
70
32
0
VERTEX
100
AcDbEntity
8
1
100
AcDbVertex
100
AcDb3dPolylineVertex
10
297.999998
20
0.034189
30
3.208342
70
32
0
VERTEX
100
AcDbEntity
8
1
100
AcDbVertex
100
AcDb3dPolylineVertex
10
297.999997
20
0.043740
30
3.210588
70
32
0
VERTEX
100
AcDbEntity
8
1
100
AcDbVertex
100
AcDb3dPolylineVertex
10
297.999995
20
0.053746
30
3.214090
70
32
0
VERTEX
100
AcDbEntity
8
1
100
AcDbVertex
100
AcDb3dPolylineVertex
10
297.999993
20
0.063986
30
3.218772
70
32
0
VERTEX
100
AcDbEntity
8
1
100
AcDbVertex
100
AcDb3dPolylineVertex
10
297.999991
20
0.074236
30
3.224531
70
32
0
SEQEND
100
AcDbEntity
8
1
0
POLYLINE
100
AcDbEntity
8
1
62
3
100
AcDb3dPolyline
66
1
10
0.000000
20
0.000000
30
0.000000
70
8
0
VERTEX
100
AcDbEntity
8
1
100
AcDbVertex
100
AcDb3dPolylineVertex
10
297.999991
20
0.074236
30
3.224531
70
32
0
VERTEX
100
AcDbEntity
8
1
100
AcDbVertex
100
AcDb3dPolylineVertex
10
297.999926
20
0.210540
30
3.308436
70
32
0
VERTEX
100
AcDbEntity
8
1
100
AcDbVertex
100
AcDb3dPolylineVertex
10
297.999672
20
0.442380
30
3.451851
70
32
0
VERTEX
100
AcDbEntity
8
1
100
AcDbVertex
100
AcDb3dPolylineVertex
10
297.999010
20
0.768108
30
3.654837
70
32
0
VERTEX
100
AcDbEntity
8
1
100
AcDbVertex
100
AcDb3dPolylineVertex
10
297.997643
20
1.185224
30
3.917650
70
32
0
VERTEX
100
AcDbEntity
8
1
100
AcDbVertex
100
AcDb3dPolylineVertex
10
297.995210
20
1.689553
30
4.241775
70
32
0
VERTEX
100
AcDbEntity
8
1
100
AcDbVertex
100
AcDb3dPolylineVertex
10
297.991316
20
2.275054
30
4.630090
70
32
0
VERTEX
100
AcDbEntity
8
1
100
AcDbVertex
100
AcDb3dPolylineVertex
10
297.985535
20
2.936150
30
5.083962
70
32
0
VERTEX
100
AcDbEntity
8
1
100
AcDbVertex
100
AcDb3dPolylineVertex
10
297.977396
20
3.670389
30
5.600117
70
32
0
VERTEX
100
AcDbEntity
8
1
100
AcDbVertex
100
AcDb3dPolylineVertex
10
297.966466
20
4.470454
30
6.180344
70
32
0
VERTEX
100
AcDbEntity
8
1
100
AcDbVertex
100
AcDb3dPolylineVertex
10
297.952334
20
5.329790
30
6.824610
70
32
0
VERTEX
100
AcDbEntity
8
1
100
AcDbVertex
100
AcDb3dPolylineVertex
10
297.934560
20
6.244827
30
7.528616
70
32
0
VERTEX
100
AcDbEntity
8
1
100
AcDbVertex
100
AcDb3dPolylineVertex
10
297.912922
20
7.203518
30
8.297112
70
32
0
VERTEX
100
AcDbEntity
8
1
100
AcDbVertex
100
AcDb3dPolylineVertex
10
297.887056
20
8.203755
30
9.122652
70
32
0
VERTEX
100
AcDbEntity
8
1
100
AcDbVertex
100
AcDb3dPolylineVertex
10
297.856787
20
9.237668
30
10.003791
70
32
0
VERTEX
100
AcDbEntity
8
1
100
AcDbVertex
100
AcDb3dPolylineVertex
10
297.822082
20
10.295990
30
10.939922
70
32
0
VERTEX
100
AcDbEntity
8
1
100
AcDbVertex
100
AcDb3dPolylineVertex
10
297.782748
20
11.376942
30
11.921799
70
32
0
VERTEX
100
AcDbEntity
8
1
100
AcDbVertex
100
AcDb3dPolylineVertex
10
297.739034
20
12.468676
30
12.950582
70
32
0
VERTEX
100
AcDbEntity
8
1
100
AcDbVertex
100
AcDb3dPolylineVertex
10
297.690825
20
13.571033
30
14.014752
70
32
0
VERTEX
100
AcDbEntity
8
1
100
AcDbVertex
100
AcDb3dPolylineVertex
10
297.638537
20
14.673150
30
15.113704
70
32
0
VERTEX
100
AcDbEntity
8
1
100
AcDbVertex
100
AcDb3dPolylineVertex
10
297.582323
20
15.772164
30
16.238440
70
32
0
VERTEX
100
AcDbEntity
8
1
100
AcDbVertex
100
AcDb3dPolylineVertex
10
297.522628
20
16.860769
30
17.384358
70
32
0
VERTEX
100
AcDbEntity
8
1
100
AcDbVertex
100
AcDb3dPolylineVertex
10
297.459963
20
17.932378
30
18.546018
70
32
0
VERTEX
100
AcDbEntity
8
1
100
AcDbVertex
100
AcDb3dPolylineVertex
10
297.394767
20
18.982947
30
19.715590
70
32
0
VERTEX
100
AcDbEntity
8
1
100
AcDbVertex
100
AcDb3dPolylineVertex
10
297.327797
20
20.004534
30
20.888946
70
32
0
VERTEX
100
AcDbEntity
8
1
100
AcDbVertex
100
AcDb3dPolylineVertex
10
297.259457
20
20.995601
30
22.056257
70
32
0
VERTEX
100
AcDbEntity
8
1
100
AcDbVertex
100
AcDb3dPolylineVertex
10
297.190691
20
21.947507
30
23.214272
70
32
0
VERTEX
100
AcDbEntity
8
1
100
AcDbVertex
100
AcDb3dPolylineVertex
10
297.121869
20
22.860333
30
24.352353
70
32
0
VERTEX
100
AcDbEntity
8
1
100
AcDbVertex
100
AcDb3dPolylineVertex
10
297.053882
20
23.727436
30
25.466044
70
32
0
VERTEX
100
AcDbEntity
8
1
100
AcDbVertex
100
AcDb3dPolylineVertex
10
296.987253
20
24.547332
30
26.546892
70
32
0
VERTEX
100
AcDbEntity
8
1
100
AcDbVertex
100
AcDb3dPolylineVertex
10
296.922543
20
25.318044
30
27.587383
70
32
0
VERTEX
100
AcDbEntity
8
1
100
AcDbVertex
100
AcDb3dPolylineVertex
10
296.860593
20
26.034371
30
28.583048
70
32
0
VERTEX
100
AcDbEntity
8
1
100
AcDbVertex
100
AcDb3dPolylineVertex
10
296.801588
20
26.698635
30
29.524010
70
32
0
VERTEX
100
AcDbEntity
8
1
100
AcDbVertex
100
AcDb3dPolylineVertex
10
296.746339
20
27.305866
30
30.406674
70
32
0
VERTEX
100
AcDbEntity
8
1
100
AcDbVertex
100
AcDb3dPolylineVertex
10
296.695167
20
27.856377
30
31.223937
70
32
0
VERTEX
100
AcDbEntity
8
1
100
AcDbVertex
100
AcDb3dPolylineVertex
10
296.648334
20
28.350764
30
31.969168
70
32
0
VERTEX
100
AcDbEntity
8
1
100
AcDbVertex
100
AcDb3dPolylineVertex
10
296.606392
20
28.786252
30
32.638863
70
32
0
VERTEX
100
AcDbEntity
8
1
100
AcDbVertex
100
AcDb3dPolylineVertex
10
296.569633
20
29.162522
30
33.228318
70
32
0
VERTEX
100
AcDbEntity
8
1
100
AcDbVertex
100
AcDb3dPolylineVertex
10
296.538178
20
29.480655
30
33.732496
70
32
0
VERTEX
100
AcDbEntity
8
1
100
AcDbVertex
100
AcDb3dPolylineVertex
10
296.512244
20
29.740364
30
34.148023
70
32
0
VERTEX
100
AcDbEntity
8
1
100
AcDbVertex
100
AcDb3dPolylineVertex
10
296.492013
20
29.941381
30
34.472162
70
32
0
VERTEX
100
AcDbEntity
8
1
100
AcDbVertex
100
AcDb3dPolylineVertex
10
296.477621
20
30.083550
30
34.702755
70
32
0
VERTEX
100
AcDbEntity
8
1
100
AcDbVertex
100
AcDb3dPolylineVertex
10
296.469163
20
30.166792
30
34.838291
70
32
0
SEQEND
100
AcDbEntity
8
1
0
POLYLINE
100
AcDbEntity
8
1
62
2
100
AcDb3dPolyline
66
1
10
0.000000
20
0.000000
30
0.000000
70
8
0
VERTEX
100
AcDbEntity
8
1
100
AcDbVertex
100
AcDb3dPolylineVertex
10
296.469163
20
30.166792
30
34.838291
70
32
0
VERTEX
100
AcDbEntity
8
1
100
AcDbVertex
100
AcDb3dPolylineVertex
10
296.468089
20
30.177345
30
34.859274
70
32
0
VERTEX
100
AcDbEntity
8
1
100
AcDbVertex
100
AcDb3dPolylineVertex
10
296.467387
20
30.184240
30
34.881735
70
32
0
VERTEX
100
AcDbEntity
8
1
100
AcDbVertex
100
AcDb3dPolylineVertex
10
296.467077
20
30.187281
30
34.905037
70
32
0
VERTEX
100
AcDbEntity
8
1
100
AcDbVertex
100
AcDb3dPolylineVertex
10
296.467169
20
30.186383
30
34.928515
70
32
0
VERTEX
100
AcDbEntity
8
1
100
AcDbVertex
100
AcDb3dPolylineVertex
10
296.467659
20
30.181571
30
34.951502
70
32
0
VERTEX
100
AcDbEntity
8
1
100
AcDbVertex
100
AcDb3dPolylineVertex
10
296.468533
20
30.172984
30
34.973348
70
32
0
VERTEX
100
AcDbEntity
8
1
100
AcDbVertex
100
AcDb3dPolylineVertex
10
296.469766
20
30.160866
30
34.993430
70
32
0
VERTEX
100
AcDbEntity
8
1
100
AcDbVertex
100
AcDb3dPolylineVertex
10
296.471322
20
30.145565
30
35.011182
70
32
0
VERTEX
100
AcDbEntity
8
1
100
AcDbVertex
100
AcDb3dPolylineVertex
10
296.473157
20
30.127515
30
35.026100
70
32
0
VERTEX
100
AcDbEntity
8
1
100
AcDbVertex
100
AcDb3dPolylineVertex
10
296.475218
20
30.107230
30
35.037762
70
32
0
VERTEX
100
AcDbEntity
8
1
100
AcDbVertex
100
AcDb3dPolylineVertex
10
296.477445
20
30.085289
30
35.045840
70
32
0
VERTEX
100
AcDbEntity
8
1
100
AcDbVertex
100
AcDb3dPolylineVertex
10
296.479776
20
30.062313
30
35.050104
70
32
0
VERTEX
100
AcDbEntity
8
1
100
AcDbVertex
100
AcDb3dPolylineVertex
10
296.482143
20
30.038955
30
35.050436
70
32
0
VERTEX
100
AcDbEntity
8
1
100
AcDbVertex
100
AcDb3dPolylineVertex
10
296.484480
20
30.015877
30
35.046827
70
32
0
VERTEX
100
AcDbEntity
8
1
100
AcDbVertex
100
AcDb3dPolylineVertex
10
296.486721
20
29.993734
30
35.039379
70
32
0
VERTEX
100
AcDbEntity
8
1
100
AcDbVertex
100
AcDb3dPolylineVertex
10
296.488803
20
29.973153
30
35.028303
70
32
0
VERTEX
100
AcDbEntity
8
1
100
AcDbVertex
100
AcDb3dPolylineVertex
10
296.490666
20
29.954715
30
35.013912
70
32
0
VERTEX
100
AcDbEntity
8
1
100
AcDbVertex
100
AcDb3dPolylineVertex
10
296.492259
20
29.938944
30
34.996614
70
32
0
SEQEND
100
AcDbEntity
8
1
0
POLYLINE
100
AcDbEntity
8
1
62
1
100
AcDb3dPolyline
66
1
10
0.000000
20
0.000000
30
0.000000
70
8
0
VERTEX
100
AcDbEntity
8
1
100
AcDbVertex
100
AcDb3dPolylineVertex
10
296.492259
20
29.938944
30
34.996614
70
32
0
VERTEX
100
AcDbEntity
8
1
100
AcDbVertex
100
AcDb3dPolylineVertex
10
296.502008
20
29.842236
30
34.870870
70
32
0
VERTEX
100
AcDbEntity
8
1
100
AcDbVertex
100
AcDb3dPolylineVertex
10
296.518571
20
29.677210
30
34.657012
70
32
0
VERTEX
100
AcDbEntity
8
1
100
AcDbVertex
100
AcDb3dPolylineVertex
10
296.541802
20
29.444180
30
34.356552
70
32
0
VERTEX
100
AcDbEntity
8
1
100
AcDbVertex
100
AcDb3dPolylineVertex
10
296.571489
20
29.143645
30
33.971632
70
32
0
VERTEX
100
AcDbEntity
8
1
100
AcDbVertex
100
AcDb3dPolylineVertex
10
296.607361
20
28.776261
30
33.505006
70
32
0
VERTEX
100
AcDbEntity
8
1
100
AcDbVertex
100
AcDb3dPolylineVertex
10
296.649081
20
28.342951
30
32.959934
70
32
0
VERTEX
100
AcDbEntity
8
1
100
AcDbVertex
100
AcDb3dPolylineVertex
10
296.696108
20
27.846361
30
32.339093
70
32
0
VERTEX
100
AcDbEntity
8
1
100
AcDbVertex
100
AcDb3dPolylineVertex
10
296.747968
20
27.288157
30
31.646487
70
32
0
VERTEX
100
AcDbEntity
8
1
100
AcDbVertex
100
AcDb3dPolylineVertex
10
296.804341
20
26.668022
30
30.888235
70
32
0
VERTEX
100
AcDbEntity
8
1
100
AcDbVertex
100
AcDb3dPolylineVertex
10
296.864520
20
25.989546
30
30.068152
70
32
0
VERTEX
100
AcDbEntity
8
1
100
AcDbVertex
100
AcDb3dPolylineVertex
10
296.927774
20
25.256626
30
29.190306
70
32
0
VERTEX
100
AcDbEntity
8
1
100
AcDbVertex
100
AcDb3dPolylineVertex
10
296.993756
20
24.468527
30
28.262889
70
32
0
VERTEX
100
AcDbEntity
8
1
100
AcDbVertex
100
AcDb3dPolylineVertex
10
297.061450
20
23.632496
30
27.288314
70
32
0
VERTEX
100
AcDbEntity
8
1
100
AcDbVertex
100
AcDb3dPolylineVertex
10
297.130415
20
22.748992
30
26.274795
70
32
0
VERTEX
100
AcDbEntity
8
1
100
AcDbVertex
100
AcDb3dPolylineVertex
10
297.199900
20
21.822455
30
25.227780
70
32
0
VERTEX
100
AcDbEntity
8
1
100
AcDbVertex
100
AcDb3dPolylineVertex
10
297.269102
20
20.858596
30
24.151936
70
32
0
VERTEX
100
AcDbEntity
8
1
100
AcDbVertex
100
AcDb3dPolylineVertex
10
297.337570
20
19.858739
30
23.055979
70
32
0
VERTEX
100
AcDbEntity
8
1
100
AcDbVertex
100
AcDb3dPolylineVertex
10
297.404383
20
18.831702
30
21.942385
70
32
0
VERTEX
100
AcDbEntity
8
1
100
AcDbVertex
100
AcDb3dPolylineVertex
10
297.469211
20
17.778315
30
20.820861
70
32
0
VERTEX
100
AcDbEntity
8
1
100
AcDbVertex
100
AcDb3dPolylineVertex
10
297.531291
20
16.707213
30
19.694276
70
32
0
VERTEX
100
AcDbEntity
8
1
100
AcDbVertex
100
AcDb3dPolylineVertex
10
297.590282
20
15.621267
30
18.570863
70
32
0
VERTEX
100
AcDbEntity
8
1
100
AcDbVertex
100
AcDb3dPolylineVertex
10
297.645666
20
14.527828
30
17.454737
70
32
0
VERTEX
100
AcDbEntity
8
1
100
AcDbVertex
100
AcDb3dPolylineVertex
10
297.697121
20
13.432205
30
16.351917
70
32
0
VERTEX
100
AcDbEntity
8
1
100
AcDbVertex
100
AcDb3dPolylineVertex
10
297.744419
20
12.339397
30
15.268723
70
32
0
VERTEX
100
AcDbEntity
8
1
100
AcDbVertex
100
AcDb3dPolylineVertex
10
297.787225
20
11.259165
30
14.206499
70
32
0
VERTEX
100
AcDbEntity
8
1
100
AcDbVertex
100
AcDb3dPolylineVertex
10
297.825608
20
10.193478
30
13.174360
70
32
0
VERTEX
100
AcDbEntity
8
1
100
AcDbVertex
100
AcDb3dPolylineVertex
10
297.859336
20
9.155119
30
12.169868
70
32
0
VERTEX
100
AcDbEntity
8
1
100
AcDbVertex
100
AcDb3dPolylineVertex
10
297.888664
20
8.145173
30
11.202616
70
32
0
VERTEX
100
AcDbEntity
8
1
100
AcDbVertex
100
AcDb3dPolylineVertex
10
297.913618
20
7.174675
30
10.271126
70
32
0
VERTEX
100
AcDbEntity
8
1
100
AcDbVertex
100
AcDb3dPolylineVertex
10
297.934516
20
6.246942
30
9.381907
70
32
0
VERTEX
100
AcDbEntity
8
1
100
AcDbVertex
100
AcDb3dPolylineVertex
10
297.951678
20
5.366345
30
8.539988
70
32
0
VERTEX
100
AcDbEntity
8
1
100
AcDbVertex
100
AcDb3dPolylineVertex
10
297.965376
20
4.542570
30
7.743769
70
32
0
VERTEX
100
AcDbEntity
8
1
100
AcDbVertex
100
AcDb3dPolylineVertex
10
297.976091
20
3.774812
30
7.003236
70
32
0
VERTEX
100
AcDbEntity
8
1
100
AcDbVertex
100
AcDb3dPolylineVertex
10
297.984185
20
3.070094
30
6.318750
70
32
0
VERTEX
100
AcDbEntity
8
1
100
AcDbVertex
100
AcDb3dPolylineVertex
10
297.990078
20
2.431724
30
5.694372
70
32
0
VERTEX
100
AcDbEntity
8
1
100
AcDbVertex
100
AcDb3dPolylineVertex
10
297.994186
20
1.861422
30
5.135460
70
32
0
VERTEX
100
AcDbEntity
8
1
100
AcDbVertex
100
AcDb3dPolylineVertex
10
297.996874
20
1.364867
30
4.641823
70
32
0
VERTEX
100
AcDbEntity
8
1
100
AcDbVertex
100
AcDb3dPolylineVertex
10
297.998506
20
0.943651
30
4.217429
70
32
0
VERTEX
100
AcDbEntity
8
1
100
AcDbVertex
100
AcDb3dPolylineVertex
10
297.999400
20
0.597904
30
3.867286
70
32
0
VERTEX
100
AcDbEntity
8
1
100
AcDbVertex
100
AcDb3dPolylineVertex
10
297.999819
20
0.328545
30
3.594582
70
32
0
VERTEX
100
AcDbEntity
8
1
100
AcDbVertex
100
AcDb3dPolylineVertex
10
297.999968
20
0.137037
30
3.400890
70
32
0
VERTEX
100
AcDbEntity
8
1
100
AcDbVertex
100
AcDb3dPolylineVertex
10
297.999999
20
0.024527
30
3.287173
70
32
0
SEQEND
100
AcDbEntity
8
1
0
POLYLINE
100
AcDbEntity
8
1
62
4
100
AcDb3dPolyline
66
1
10
0.000000
20
0.000000
30
0.000000
70
8
0
VERTEX
100
AcDbEntity
8
1
100
AcDbVertex
100
AcDb3dPolylineVertex
10
325.999999
20
0.025000
30
2.504003
70
32
0
VERTEX
100
AcDbEntity
8
1
100
AcDbVertex
100
AcDb3dPolylineVertex
10
326.000000
20
0.015725
30
2.492310
70
32
0
VERTEX
100
AcDbEntity
8
1
100
AcDbVertex
100
AcDb3dPolylineVertex
10
326.000000
20
0.007818
30
2.480467
70
32
0
VERTEX
100
AcDbEntity
8
1
100
AcDbVertex
100
AcDb3dPolylineVertex
10
326.000000
20
0.001439
30
2.468712
70
32
0
VERTEX
100
AcDbEntity
8
1
100
AcDbVertex
100
AcDb3dPolylineVertex
10
326.000000
20
-0.003286
30
2.457281
70
32
0
VERTEX
100
AcDbEntity
8
1
100
AcDbVertex
100
AcDb3dPolylineVertex
10
326.000000
20
-0.006260
30
2.446401
70
32
0
VERTEX
100
AcDbEntity
8
1
100
AcDbVertex
100
AcDb3dPolylineVertex
10
326.000000
20
-0.007424
30
2.436292
70
32
0
VERTEX
100
AcDbEntity
8
1
100
AcDbVertex
100
AcDb3dPolylineVertex
10
326.000000
20
-0.006754
30
2.427155
70
32
0
VERTEX
100
AcDbEntity
8
1
100
AcDbVertex
100
AcDb3dPolylineVertex
10
326.000000
20
-0.004263
30
2.419174
70
32
0
VERTEX
100
AcDbEntity
8
1
100
AcDbVertex
100
AcDb3dPolylineVertex
10
326.000000
20
-0.000000
30
2.412510
70
32
0
VERTEX
100
AcDbEntity
8
1
100
AcDbVertex
100
AcDb3dPolylineVertex
10
326.000000
20
0.005949
30
2.407295
70
32
0
VERTEX
100
AcDbEntity
8
1
100
AcDbVertex
100
AcDb3dPolylineVertex
10
326.000000
20
0.013466
30
2.403635
70
32
0
VERTEX
100
AcDbEntity
8
1
100
AcDbVertex
100
AcDb3dPolylineVertex
10
325.999999
20
0.022400
30
2.401603
70
32
0
VERTEX
100
AcDbEntity
8
1
100
AcDbVertex
100
AcDb3dPolylineVertex
10
325.999998
20
0.032571
30
2.401239
70
32
0
VERTEX
100
AcDbEntity
8
1
100
AcDbVertex
100
AcDb3dPolylineVertex
10
325.999997
20
0.043776
30
2.402552
70
32
0
VERTEX
100
AcDbEntity
8
1
100
AcDbVertex
100
AcDb3dPolylineVertex
10
325.999995
20
0.055790
30
2.405515
70
32
0
VERTEX
100
AcDbEntity
8
1
100
AcDbVertex
100
AcDb3dPolylineVertex
10
325.999993
20
0.068372
30
2.410068
70
32
0
VERTEX
100
AcDbEntity
8
1
100
AcDbVertex
100
AcDb3dPolylineVertex
10
325.999990
20
0.081269
30
2.416121
70
32
0
VERTEX
100
AcDbEntity
8
1
100
AcDbVertex
100
AcDb3dPolylineVertex
10
325.999986
20
0.094222
30
2.423551
70
32
0
SEQEND
100
AcDbEntity
8
1
0
POLYLINE
100
AcDbEntity
8
1
62
3
100
AcDb3dPolyline
66
1
10
0.000000
20
0.000000
30
0.000000
70
8
0
VERTEX
100
AcDbEntity
8
1
100
AcDbVertex
100
AcDb3dPolylineVertex
10
325.999986
20
0.094222
30
2.423551
70
32
0
VERTEX
100
AcDbEntity
8
1
100
AcDbVertex
100
AcDb3dPolylineVertex
10
325.999917
20
0.232140
30
2.510024
70
32
0
VERTEX
100
AcDbEntity
8
1
100
AcDbVertex
100
AcDb3dPolylineVertex
10
325.999666
20
0.466752
30
2.657929
70
32
0
VERTEX
100
AcDbEntity
8
1
100
AcDbVertex
100
AcDb3dPolylineVertex
10
325.999028
20
0.796258
30
2.867374
70
32
0
VERTEX
100
AcDbEntity
8
1
100
AcDbVertex
100
AcDb3dPolylineVertex
10
325.997725
20
1.217914
30
3.138818
70
32
0
VERTEX
100
AcDbEntity
8
1
100
AcDbVertex
100
AcDb3dPolylineVertex
10
325.995426
20
1.726865
30
3.474320
70
32
0
VERTEX
100
AcDbEntity
8
1
100
AcDbVertex
100
AcDb3dPolylineVertex
10
325.991773
20
2.315967
30
3.877661
70
32
0
VERTEX
100
AcDbEntity
8
1
100
AcDbVertex
100
AcDb3dPolylineVertex
10
325.986385
20
2.979356
30
4.350233
70
32
0
VERTEX
100
AcDbEntity
8
1
100
AcDbVertex
100
AcDb3dPolylineVertex
10
325.978833
20
3.714852
30
4.888493
70
32
0
VERTEX
100
AcDbEntity
8
1
100
AcDbVertex
100
AcDb3dPolylineVertex
10
325.968743
20
4.514285
30
5.494773
70
32
0
VERTEX
100
AcDbEntity
8
1
100
AcDbVertex
100
AcDb3dPolylineVertex
10
325.955762
20
5.370394
30
6.169467
70
32
0
VERTEX
100
AcDbEntity
8
1
100
AcDbVertex
100
AcDb3dPolylineVertex
10
325.939500
20
6.280300
30
6.907496
70
32
0
VERTEX
100
AcDbEntity
8
1
100
AcDbVertex
100
AcDb3dPolylineVertex
10
325.919801
20
7.230712
30
7.714139
70
32
0
VERTEX
100
AcDbEntity
8
1
100
AcDbVertex
100
AcDb3dPolylineVertex
10
325.896376
20
8.219009
30
8.582546
70
32
0
VERTEX
100
AcDbEntity
8
1
100
AcDbVertex
100
AcDb3dPolylineVertex
10
325.869051
20
9.239118
30
9.508996
70
32
0
VERTEX
100
AcDbEntity
8
1
100
AcDbVertex
100
AcDb3dPolylineVertex
10
325.837904
20
10.279109
30
10.495082
70
32
0
VERTEX
100
AcDbEntity
8
1
100
AcDbVertex
100
AcDb3dPolylineVertex
10
325.802706
20
11.340065
30
11.528745
70
32
0
VERTEX
100
AcDbEntity
8
1
100
AcDbVertex
100
AcDb3dPolylineVertex
10
325.763775
20
12.408185
30
12.612405
70
32
0
VERTEX
100
AcDbEntity
8
1
100
AcDbVertex
100
AcDb3dPolylineVertex
10
325.720981
20
13.484900
30
13.733187
70
32
0
VERTEX
100
AcDbEntity
8
1
100
AcDbVertex
100
AcDb3dPolylineVertex
10
325.674701
20
14.559844
30
14.889435
70
32
0
VERTEX
100
AcDbEntity
8
1
100
AcDbVertex
100
AcDb3dPolylineVertex
10
325.625133
20
15.629229
30
16.073061
70
32
0
VERTEX
100
AcDbEntity
8
1
100
AcDbVertex
100
AcDb3dPolylineVertex
10
325.572612
20
16.687543
30
17.277472
70
32
0
VERTEX
100
AcDbEntity
8
1
100
AcDbVertex
100
AcDb3dPolylineVertex
10
325.517703
20
17.726389
30
18.498613
70
32
0
VERTEX
100
AcDbEntity
8
1
100
AcDbVertex
100
AcDb3dPolylineVertex
10
325.460686
20
18.744118
30
19.726481
70
32
0
VERTEX
100
AcDbEntity
8
1
100
AcDbVertex
100
AcDb3dPolylineVertex
10
325.402367
20
19.730671
30
20.958404
70
32
0
VERTEX
100
AcDbEntity
8
1
100
AcDbVertex
100
AcDb3dPolylineVertex
10
325.342950
20
20.687307
30
22.182322
70
32
0
VERTEX
100
AcDbEntity
8
1
100
AcDbVertex
100
AcDb3dPolylineVertex
10
325.283440
20
21.602858
30
23.396626
70
32
0
VERTEX
100
AcDbEntity
8
1
100
AcDbVertex
100
AcDb3dPolylineVertex
10
325.223971
20
22.480401
30
24.588464
70
32
0
VERTEX
100
AcDbEntity
8
1
100
AcDbVertex
100
AcDb3dPolylineVertex
10
325.165461
20
23.311437
30
25.754569
70
32
0
VERTEX
100
AcDbEntity
8
1
100
AcDbVertex
100
AcDb3dPolylineVertex
10
325.108230
20
24.096450
30
26.885028
70
32
0
VERTEX
100
AcDbEntity
8
1
100
AcDbVertex
100
AcDb3dPolylineVertex
10
325.052815
20
24.832794
30
27.972867
70
32
0
VERTEX
100
AcDbEntity
8
1
100
AcDbVertex
100
AcDb3dPolylineVertex
10
324.999914
20
25.515799
30
29.013034
70
32
0
VERTEX
100
AcDbEntity
8
1
100
AcDbVertex
100
AcDb3dPolylineVertex
10
324.949607
20
26.148667
30
29.995269
70
32
0
VERTEX
100
AcDbEntity
8
1
100
AcDbVertex
100
AcDb3dPolylineVertex
10
324.902664
20
26.725624
30
30.916404
70
32
0
VERTEX
100
AcDbEntity
8
1
100
AcDbVertex
100
AcDb3dPolylineVertex
10
324.859267
20
27.248055
30
31.768683
70
32
0
VERTEX
100
AcDbEntity
8
1
100
AcDbVertex
100
AcDb3dPolylineVertex
10
324.819594
20
27.716984
30
32.545323
70
32
0
VERTEX
100
AcDbEntity
8
1
100
AcDbVertex
100
AcDb3dPolylineVertex
10
324.784155
20
28.129209
30
33.243020
70
32
0
VERTEX
100
AcDbEntity
8
1
100
AcDbVertex
100
AcDb3dPolylineVertex
10
324.753166
20
28.484757
30
33.856932
70
32
0
VERTEX
100
AcDbEntity
8
1
100
AcDbVertex
100
AcDb3dPolylineVertex
10
324.726673
20
28.785205
30
34.381792
70
32
0
VERTEX
100
AcDbEntity
8
1
100
AcDbVertex
100
AcDb3dPolylineVertex
10
324.704846
20
29.030381
30
34.814194
70
32
0
VERTEX
100
AcDbEntity
8
1
100
AcDbVertex
100
AcDb3dPolylineVertex
10
324.687830
20
29.220084
30
35.151393
70
32
0
VERTEX
100
AcDbEntity
8
1
100
AcDbVertex
100
AcDb3dPolylineVertex
10
324.675730
20
29.354219
30
35.391221
70
32
0
VERTEX
100
AcDbEntity
8
1
100
AcDbVertex
100
AcDb3dPolylineVertex
10
324.668622
20
29.432738
30
35.532154
70
32
0
SEQEND
100
AcDbEntity
8
1
0
POLYLINE
100
AcDbEntity
8
1
62
2
100
AcDb3dPolyline
66
1
10
0.000000
20
0.000000
30
0.000000
70
8
0
VERTEX
100
AcDbEntity
8
1
100
AcDbVertex
100
AcDb3dPolylineVertex
10
324.668622
20
29.432738
30
35.532154
70
32
0
VERTEX
100
AcDbEntity
8
1
100
AcDbVertex
100
AcDb3dPolylineVertex
10
324.667505
20
29.445050
30
35.559416
70
32
0
VERTEX
100
AcDbEntity
8
1
100
AcDbVertex
100
AcDb3dPolylineVertex
10
324.666815
20
29.452664
30
35.588348
70
32
0
VERTEX
100
AcDbEntity
8
1
100
AcDbVertex
100
AcDb3dPolylineVertex
10
324.666570
20
29.455366
30
35.618142
70
32
0
VERTEX
100
AcDbEntity
8
1
100
AcDbVertex
100
AcDb3dPolylineVertex
10
324.666777
20
29.453082
30
35.647963
70
32
0
VERTEX
100
AcDbEntity
8
1
100
AcDbVertex
100
AcDb3dPolylineVertex
10
324.667430
20
29.445877
30
35.676977
70
32
0
VERTEX
100
AcDbEntity
8
1
100
AcDbVertex
100
AcDb3dPolylineVertex
10
324.668512
20
29.433954
30
35.704374
70
32
0
VERTEX
100
AcDbEntity
8
1
100
AcDbVertex
100
AcDb3dPolylineVertex
10
324.669989
20
29.417649
30
35.729389
70
32
0
VERTEX
100
AcDbEntity
8
1
100
AcDbVertex
100
AcDb3dPolylineVertex
10
324.671822
20
29.397419
30
35.751327
70
32
0
VERTEX
100
AcDbEntity
8
1
100
AcDbVertex
100
AcDb3dPolylineVertex
10
324.673956
20
29.373833
30
35.769575
70
32
0
VERTEX
100
AcDbEntity
8
1
100
AcDbVertex
100
AcDb3dPolylineVertex
10
324.676333
20
29.347551
30
35.783627
70
32
0
VERTEX
100
AcDbEntity
8
1
100
AcDbVertex
100
AcDb3dPolylineVertex
10
324.678885
20
29.319308
30
35.793094
70
32
0
VERTEX
100
AcDbEntity
8
1
100
AcDbVertex
100
AcDb3dPolylineVertex
10
324.681539
20
29.289895
30
35.797712
70
32
0
VERTEX
100
AcDbEntity
8
1
100
AcDbVertex
100
AcDb3dPolylineVertex
10
324.684223
20
29.260132
30
35.797355
70
32
0
VERTEX
100
AcDbEntity
8
1
100
AcDbVertex
100
AcDb3dPolylineVertex
10
324.686860
20
29.230851
30
35.792034
70
32
0
VERTEX
100
AcDbEntity
8
1
100
AcDbVertex
100
AcDb3dPolylineVertex
10
324.689379
20
29.202866
30
35.781898
70
32
0
VERTEX
100
AcDbEntity
8
1
100
AcDbVertex
100
AcDb3dPolylineVertex
10
324.691708
20
29.176959
30
35.767229
70
32
0
VERTEX
100
AcDbEntity
8
1
100
AcDbVertex
100
AcDb3dPolylineVertex
10
324.693784
20
29.153850
30
35.748435
70
32
0
VERTEX
100
AcDbEntity
8
1
100
AcDbVertex
100
AcDb3dPolylineVertex
10
324.695549
20
29.134182
30
35.726039
70
32
0
SEQEND
100
AcDbEntity
8
1
0
POLYLINE
100
AcDbEntity
8
1
62
1
100
AcDb3dPolyline
66
1
10
0.000000
20
0.000000
30
0.000000
70
8
0
VERTEX
100
AcDbEntity
8
1
100
AcDbVertex
100
AcDb3dPolylineVertex
10
324.695549
20
29.134182
30
35.726039
70
32
0
VERTEX
100
AcDbEntity
8
1
100
AcDbVertex
100
AcDb3dPolylineVertex
10
324.704125
20
29.038442
30
35.596810
70
32
0
VERTEX
100
AcDbEntity
8
1
100
AcDbVertex
100
AcDb3dPolylineVertex
10
324.718694
20
28.875067
30
35.376987
70
32
0
VERTEX
100
AcDbEntity
8
1
100
AcDbVertex
100
AcDb3dPolylineVertex
10
324.739125
20
28.644386
30
35.068104
70
32
0
VERTEX
100
AcDbEntity
8
1
100
AcDbVertex
100
AcDb3dPolylineVertex
10
324.765227
20
28.346915
30
34.672319
70
32
0
VERTEX
100
AcDbEntity
8
1
100
AcDbVertex
100
AcDb3dPolylineVertex
10
324.796758
20
27.983318
30
34.192411
70
32
0
VERTEX
100
AcDbEntity
8
1
100
AcDbVertex
100
AcDb3dPolylineVertex
10
324.833414
20
27.554554
30
33.631661
70
32
0
VERTEX
100
AcDbEntity
8
1
100
AcDbVertex
100
AcDb3dPolylineVertex
10
324.874679
20
27.063688
30
32.992567
70
32
0
VERTEX
100
AcDbEntity
8
1
100
AcDbVertex
100
AcDb3dPolylineVertex
10
324.920116
20
26.512608
30
32.279083
70
32
0
VERTEX
100
AcDbEntity
8
1
100
AcDbVertex
100
AcDb3dPolylineVertex
10
324.969490
20
25.900396
30
31.497659
70
32
0
VERTEX
100
AcDbEntity
8
1
100
AcDbVertex
100
AcDb3dPolylineVertex
10
325.022153
20
25.230933
30
30.652073
70
32
0
VERTEX
100
AcDbEntity
8
1
100
AcDbVertex
100
AcDb3dPolylineVertex
10
325.077389
20
24.508997
30
29.745903
70
32
0
VERTEX
100
AcDbEntity
8
1
100
AcDbVertex
100
AcDb3dPolylineVertex
10
325.134973
20
23.732872
30
28.787933
70
32
0
VERTEX
100
AcDbEntity
8
1
100
AcDbVertex
100
AcDb3dPolylineVertex
10
325.193965
20
22.910370
30
27.780481
70
32
0
VERTEX
100
AcDbEntity
8
1
100
AcDbVertex
100
AcDb3dPolylineVertex
10
325.253961
20
22.042257
30
26.731419
70
32
0
VERTEX
100
AcDbEntity
8
1
100
AcDbVertex
100
AcDb3dPolylineVertex
10
325.314368
20
21.132014
30
25.647045
70
32
0
VERTEX
100
AcDbEntity
8
1
100
AcDbVertex
100
AcDb3dPolylineVertex
10
325.374378
20
20.186981
30
24.530943
70
32
0
VERTEX
100
AcDbEntity
8
1
100
AcDbVertex
100
AcDb3dPolylineVertex
10
325.433735
20
19.206359
30
23.393367
70
32
0
VERTEX
100
AcDbEntity
8
1
100
AcDbVertex
100
AcDb3dPolylineVertex
10
325.491478
20
18.201580
30
22.235054
70
32
0
VERTEX
100
AcDbEntity
8
1
100
AcDbVertex
100
AcDb3dPolylineVertex
10
325.547493
20
17.170605
30
21.067816
70
32
0
VERTEX
100
AcDbEntity
8
1
100
AcDbVertex
100
AcDb3dPolylineVertex
10
325.600984
20
16.124497
30
19.892829
70
32
0
VERTEX
100
AcDbEntity
8
1
100
AcDbVertex
100
AcDb3dPolylineVertex
10
325.651786
20
15.063668
30
18.720321
70
32
0
VERTEX
100
AcDbEntity
8
1
100
AcDbVertex
100
AcDb3dPolylineVertex
10
325.699356
20
13.997490
30
17.552838
70
32
0
VERTEX
100
AcDbEntity
8
1
100
AcDbVertex
100
AcDb3dPolylineVertex
10
325.743514
20
12.929144
30
16.398371
70
32
0
VERTEX
100
AcDbEntity
8
1
100
AcDbVertex
100
AcDb3dPolylineVertex
10
325.784009
20
11.865063
30
15.261912
70
32
0
VERTEX
100
AcDbEntity
8
1
100
AcDbVertex
100
AcDb3dPolylineVertex
10
325.820599
20
10.813762
30
14.146368
70
32
0
VERTEX
100
AcDbEntity
8
1
100
AcDbVertex
100
AcDb3dPolylineVertex
10
325.853344
20
9.777437
30
13.060441
70
32
0
VERTEX
100
AcDbEntity
8
1
100
AcDbVertex
100
AcDb3dPolylineVertex
10
325.882010
20
8.770157
30
12.001026
70
32
0
VERTEX
100
AcDbEntity
8
1
100
AcDbVertex
100
AcDb3dPolylineVertex
10
325.906894
20
7.790802
30
10.979638
70
32
0
VERTEX
100
AcDbEntity
8
1
100
AcDbVertex
100
AcDb3dPolylineVertex
10
325.927961
20
6.853048
30
9.992631
70
32
0
VERTEX
100
AcDbEntity
8
1
100
AcDbVertex
100
AcDb3dPolylineVertex
10
325.945563
20
5.957343
30
9.049357
70
32
0
VERTEX
100
AcDbEntity
8
1
100
AcDbVertex
100
AcDb3dPolylineVertex
10
325.959953
20
5.109677
30
8.153185
70
32
0
VERTEX
100
AcDbEntity
8
1
100
AcDbVertex
100
AcDb3dPolylineVertex
10
325.971388
20
4.319062
30
7.303710
70
32
0
VERTEX
100
AcDbEntity
8
1
100
AcDbVertex
100
AcDb3dPolylineVertex
10
325.980306
20
3.583328
30
6.511998
70
32
0
VERTEX
100
AcDbEntity
8
1
100
AcDbVertex
100
AcDb3dPolylineVertex
10
325.987011
20
2.910079
30
5.778152
70
32
0
VERTEX
100
AcDbEntity
8
1
100
AcDbVertex
100
AcDb3dPolylineVertex
10
325.991874
20
2.301823
30
5.107152
70
32
0
VERTEX
100
AcDbEntity
8
1
100
AcDbVertex
100
AcDb3dPolylineVertex
10
325.995252
20
1.759364
30
4.505331
70
32
0
VERTEX
100
AcDbEntity
8
1
100
AcDbVertex
100
AcDb3dPolylineVertex
10
325.997453
20
1.288595
30
3.972619
70
32
0
VERTEX
100
AcDbEntity
8
1
100
AcDbVertex
100
AcDb3dPolylineVertex
10
325.998783
20
0.890782
30
3.513358
70
32
0
VERTEX
100
AcDbEntity
8
1
100
AcDbVertex
100
AcDb3dPolylineVertex
10
325.999511
20
0.564916
30
3.133754
70
32
0
VERTEX
100
AcDbEntity
8
1
100
AcDbVertex
100
AcDb3dPolylineVertex
10
325.999851
20
0.311216
30
2.837811
70
32
0
VERTEX
100
AcDbEntity
8
1
100
AcDbVertex
100
AcDb3dPolylineVertex
10
325.999974
20
0.130888
30
2.627489
70
32
0
VERTEX
100
AcDbEntity
8
1
100
AcDbVertex
100
AcDb3dPolylineVertex
10
325.999999
20
0.025000
30
2.504003
70
32
0
SEQEND
100
AcDbEntity
8
1
0
POLYLINE
100
AcDbEntity
8
1
62
4
100
AcDb3dPolyline
66
1
10
0.000000
20
0.000000
30
0.000000
70
8
0
VERTEX
100
AcDbEntity
8
1
100
AcDbVertex
100
AcDb3dPolylineVertex
10
353.999999
20
0.022722
30
1.721714
70
32
0
VERTEX
100
AcDbEntity
8
1
100
AcDbVertex
100
AcDb3dPolylineVertex
10
354.000000
20
0.012479
30
1.706725
70
32
0
VERTEX
100
AcDbEntity
8
1
100
AcDbVertex
100
AcDb3dPolylineVertex
10
354.000000
20
0.003925
30
1.691729
70
32
0
VERTEX
100
AcDbEntity
8
1
100
AcDbVertex
100
AcDb3dPolylineVertex
10
354.000000
20
-0.002785
30
1.677001
70
32
0
VERTEX
100
AcDbEntity
8
1
100
AcDbVertex
100
AcDb3dPolylineVertex
10
354.000000
20
-0.007527
30
1.662809
70
32
0
VERTEX
100
AcDbEntity
8
1
100
AcDbVertex
100
AcDb3dPolylineVertex
10
354.000000
20
-0.010214
30
1.649411
70
32
0
VERTEX
100
AcDbEntity
8
1
100
AcDbVertex
100
AcDb3dPolylineVertex
10
354.000000
20
-0.010797
30
1.637051
70
32
0
VERTEX
100
AcDbEntity
8
1
100
AcDbVertex
100
AcDb3dPolylineVertex
10
354.000000
20
-0.009264
30
1.625956
70
32
0
VERTEX
100
AcDbEntity
8
1
100
AcDbVertex
100
AcDb3dPolylineVertex
10
354.000000
20
-0.005644
30
1.616327
70
32
0
VERTEX
100
AcDbEntity
8
1
100
AcDbVertex
100
AcDb3dPolylineVertex
10
354.000000
20
0.000000
30
1.608340
70
32
0
VERTEX
100
AcDbEntity
8
1
100
AcDbVertex
100
AcDb3dPolylineVertex
10
354.000000
20
0.007564
30
1.602141
70
32
0
VERTEX
100
AcDbEntity
8
1
100
AcDbVertex
100
AcDb3dPolylineVertex
10
354.000000
20
0.016911
30
1.597843
70
32
0
VERTEX
100
AcDbEntity
8
1
100
AcDbVertex
100
AcDb3dPolylineVertex
10
353.999999
20
0.027870
30
1.595525
70
32
0
VERTEX
100
AcDbEntity
8
1
100
AcDbVertex
100
AcDb3dPolylineVertex
10
353.999998
20
0.040242
30
1.595228
70
32
0
VERTEX
100
AcDbEntity
8
1
100
AcDbVertex
100
AcDb3dPolylineVertex
10
353.999996
20
0.053800
30
1.596960
70
32
0
VERTEX
100
AcDbEntity
8
1
100
AcDbVertex
100
AcDb3dPolylineVertex
10
353.999993
20
0.068298
30
1.600688
70
32
0
VERTEX
100
AcDbEntity
8
1
100
AcDbVertex
100
AcDb3dPolylineVertex
10
353.999990
20
0.083471
30
1.606344
70
32
0
VERTEX
100
AcDbEntity
8
1
100
AcDbVertex
100
AcDb3dPolylineVertex
10
353.999986
20
0.099041
30
1.613825
70
32
0
VERTEX
100
AcDbEntity
8
1
100
AcDbVertex
100
AcDb3dPolylineVertex
10
353.999981
20
0.114724
30
1.622995
70
32
0
SEQEND
100
AcDbEntity
8
1
0
POLYLINE
100
AcDbEntity
8
1
62
3
100
AcDb3dPolyline
66
1
10
0.000000
20
0.000000
30
0.000000
70
8
0
VERTEX
100
AcDbEntity
8
1
100
AcDbVertex
100
AcDb3dPolylineVertex
10
353.999981
20
0.114724
30
1.622995
70
32
0
VERTEX
100
AcDbEntity
8
1
100
AcDbVertex
100
AcDb3dPolylineVertex
10
353.999908
20
0.254650
30
1.712242
70
32
0
VERTEX
100
AcDbEntity
8
1
100
AcDbVertex
100
AcDb3dPolylineVertex
10
353.999657
20
0.492638
30
1.864955
70
32
0
VERTEX
100
AcDbEntity
8
1
100
AcDbVertex
100
AcDb3dPolylineVertex
10
353.999035
20
0.826749
30
2.081307
70
32
0
VERTEX
100
AcDbEntity
8
1
100
AcDbVertex
100
AcDb3dPolylineVertex
10
353.997779
20
1.253938
30
2.361976
70
32
0
VERTEX
100
AcDbEntity
8
1
100
AcDbVertex
100
AcDb3dPolylineVertex
10
353.995582
20
1.768553
30
2.709605
70
32
0
VERTEX
100
AcDbEntity
8
1
100
AcDbVertex
100
AcDb3dPolylineVertex
10
353.992119
20
2.362162
30
3.128890
70
32
0
VERTEX
100
AcDbEntity
8
1
100
AcDbVertex
100
AcDb3dPolylineVertex
10
353.987043
20
3.028793
30
3.621032
70
32
0
VERTEX
100
AcDbEntity
8
1
100
AcDbVertex
100
AcDb3dPolylineVertex
10
353.979963
20
3.766421
30
4.182355
70
32
0
VERTEX
100
AcDbEntity
8
1
100
AcDbVertex
100
AcDb3dPolylineVertex
10
353.970552
20
4.565960
30
4.815665
70
32
0
VERTEX
100
AcDbEntity
8
1
100
AcDbVertex
100
AcDb3dPolylineVertex
10
353.958516
20
5.419339
30
5.521800
70
32
0
VERTEX
100
AcDbEntity
8
1
100
AcDbVertex
100
AcDb3dPolylineVertex
10
353.943505
20
6.324195
30
6.295130
70
32
0
VERTEX
100
AcDbEntity
8
1
100
AcDbVertex
100
AcDb3dPolylineVertex
10
353.925406
20
7.266852
30
7.140478
70
32
0
VERTEX
100
AcDbEntity
8
1
100
AcDbVertex
100
AcDb3dPolylineVertex
10
353.904021
20
8.242807
30
8.052836
70
32
0
VERTEX
100
AcDbEntity
8
1
100
AcDbVertex
100
AcDb3dPolylineVertex
10
353.879156
20
9.248941
30
9.025339
70
32
0
VERTEX
100
AcDbEntity
8
1
100
AcDbVertex
100
AcDb3dPolylineVertex
10
353.850988
20
10.270273
30
10.061791
70
32
0
VERTEX
100
AcDbEntity
8
1
100
AcDbVertex
100
AcDb3dPolylineVertex
10
353.819260
20
11.310678
30
11.147783
70
32
0
VERTEX
100
AcDbEntity
8
1
100
AcDbVertex
100
AcDb3dPolylineVertex
10
353.784337
20
12.354867
30
12.286307
70
32
0
VERTEX
100
AcDbEntity
8
1
100
AcDbVertex
100
AcDb3dPolylineVertex
10
353.746105
20
13.404964
30
13.464112
70
32
0
VERTEX
100
AcDbEntity
8
1
100
AcDbVertex
100
AcDb3dPolylineVertex
10
353.704854
20
14.452551
30
14.677339
70
32
0
VERTEX
100
AcDbEntity
8
1
100
AcDbVertex
100
AcDb3dPolylineVertex
10
353.660873
20
15.491512
30
15.919789
70
32
0
VERTEX
100
AcDbEntity
8
1
100
AcDbVertex
100
AcDb3dPolylineVertex
10
353.614362
20
16.519178
30
17.182317
70
32
0
VERTEX
100
AcDbEntity
8
1
100
AcDbVertex
100
AcDb3dPolylineVertex
10
353.565956
20
17.524680
30
18.462556
70
32
0
VERTEX
100
AcDbEntity
8
1
100
AcDbVertex
100
AcDb3dPolylineVertex
10
353.515782
20
18.509231
30
19.748194
70
32
0
VERTEX
100
AcDbEntity
8
1
100
AcDbVertex
100
AcDb3dPolylineVertex
10
353.464699
20
19.460376
30
21.038024
70
32
0
VERTEX
100
AcDbEntity
8
1
100
AcDbVertex
100
AcDb3dPolylineVertex
10
353.412733
20
20.382356
30
22.317832
70
32
0
VERTEX
100
AcDbEntity
8
1
100
AcDbVertex
100
AcDb3dPolylineVertex
10
353.360946
20
21.261275
30
23.587602
70
32
0
VERTEX
100
AcDbEntity
8
1
100
AcDbVertex
100
AcDb3dPolylineVertex
10
353.309270
20
22.103388
30
24.832397
70
32
0
VERTEX
100
AcDbEntity
8
1
100
AcDbVertex
100
AcDb3dPolylineVertex
10
353.258649
20
22.898183
30
26.050077
70
32
0
VERTEX
100
AcDbEntity
8
1
100
AcDbVertex
100
AcDb3dPolylineVertex
10
353.209221
20
23.648391
30
27.229220
70
32
0
VERTEX
100
AcDbEntity
8
1
100
AcDbVertex
100
AcDb3dPolylineVertex
10
353.161529
20
24.350246
30
28.363618
70
32
0
VERTEX
100
AcDbEntity
8
1
100
AcDbVertex
100
AcDb3dPolylineVertex
10
353.116125
20
25.000051
30
29.447411
70
32
0
VERTEX
100
AcDbEntity
8
1
100
AcDbVertex
100
AcDb3dPolylineVertex
10
353.073010
20
25.601749
30
30.470065
70
32
0
VERTEX
100
AcDbEntity
8
1
100
AcDbVertex
100
AcDb3dPolylineVertex
10
353.032935
20
26.148547
30
31.428906
70
32
0
VERTEX
100
AcDbEntity
8
1
100
AcDbVertex
100
AcDb3dPolylineVertex
10
352.995956
20
26.643103
30
32.315467
70
32
0
VERTEX
100
AcDbEntity
8
1
100
AcDbVertex
100
AcDb3dPolylineVertex
10
352.962186
20
27.086814
30
33.122827
70
32
0
VERTEX
100
AcDbEntity
8
1
100
AcDbVertex
100
AcDb3dPolylineVertex
10
352.932102
20
27.476009
30
33.847937
70
32
0
VERTEX
100
AcDbEntity
8
1
100
AcDbVertex
100
AcDb3dPolylineVertex
10
352.905861
20
27.811034
30
34.485783
70
32
0
VERTEX
100
AcDbEntity
8
1
100
AcDbVertex
100
AcDb3dPolylineVertex
10
352.883450
20
28.093965
30
35.030893
70
32
0
VERTEX
100
AcDbEntity
8
1
100
AcDbVertex
100
AcDb3dPolylineVertex
10
352.865000
20
28.324761
30
35.479811
70
32
0
VERTEX
100
AcDbEntity
8
1
100
AcDbVertex
100
AcDb3dPolylineVertex
10
352.850624
20
28.503285
30
35.829790
70
32
0
VERTEX
100
AcDbEntity
8
1
100
AcDbVertex
100
AcDb3dPolylineVertex
10
352.840407
20
28.629485
30
36.078658
70
32
0
VERTEX
100
AcDbEntity
8
1
100
AcDbVertex
100
AcDb3dPolylineVertex
10
352.834405
20
28.703355
30
36.224900
70
32
0
SEQEND
100
AcDbEntity
8
1
0
POLYLINE
100
AcDbEntity
8
1
62
2
100
AcDb3dPolyline
66
1
10
0.000000
20
0.000000
30
0.000000
70
8
0
VERTEX
100
AcDbEntity
8
1
100
AcDbVertex
100
AcDb3dPolylineVertex
10
352.834405
20
28.703355
30
36.224900
70
32
0
VERTEX
100
AcDbEntity
8
1
100
AcDbVertex
100
AcDb3dPolylineVertex
10
352.833288
20
28.717078
30
36.258834
70
32
0
VERTEX
100
AcDbEntity
8
1
100
AcDbVertex
100
AcDb3dPolylineVertex
10
352.832642
20
28.725018
30
36.294567
70
32
0
VERTEX
100
AcDbEntity
8
1
100
AcDbVertex
100
AcDb3dPolylineVertex
10
352.832484
20
28.726956
30
36.331113
70
32
0
VERTEX
100
AcDbEntity
8
1
100
AcDbVertex
100
AcDb3dPolylineVertex
10
352.832819
20
28.722839
30
36.367467
70
32
0
VERTEX
100
AcDbEntity
8
1
100
AcDbVertex
100
AcDb3dPolylineVertex
10
352.833638
20
28.712784
30
36.402626
70
32
0
VERTEX
100
AcDbEntity
8
1
100
AcDbVertex
100
AcDb3dPolylineVertex
10
352.834916
20
28.697068
30
36.435625
70
32
0
VERTEX
100
AcDbEntity
8
1
100
AcDbVertex
100
AcDb3dPolylineVertex
10
352.836619
20
28.676128
30
36.465557
70
32
0
VERTEX
100
AcDbEntity
8
1
100
AcDbVertex
100
AcDb3dPolylineVertex
10
352.838697
20
28.650542
30
36.491603
70
32
0
VERTEX
100
AcDbEntity
8
1
100
AcDbVertex
100
AcDb3dPolylineVertex
10
352.841094
20
28.621017
30
36.513050
70
32
0
VERTEX
100
AcDbEntity
8
1
100
AcDbVertex
100
AcDb3dPolylineVertex
10
352.843740
20
28.588368
30
36.529312
70
32
0
VERTEX
100
AcDbEntity
8
1
100
AcDbVertex
100
AcDb3dPolylineVertex
10
352.846564
20
28.553494
30
36.539945
70
32
0
VERTEX
100
AcDbEntity
8
1
100
AcDbVertex
100
AcDb3dPolylineVertex
10
352.849487
20
28.517355
30
36.544660
70
32
0
VERTEX
100
AcDbEntity
8
1
100
AcDbVertex
100
AcDb3dPolylineVertex
10
352.852428
20
28.480944
30
36.543332
70
32
0
VERTEX
100
AcDbEntity
8
1
100
AcDbVertex
100
AcDb3dPolylineVertex
10
352.855306
20
28.445260
30
36.535997
70
32
0
VERTEX
100
AcDbEntity
8
1
100
AcDbVertex
100
AcDb3dPolylineVertex
10
352.858044
20
28.411283
30
36.522857
70
32
0
VERTEX
100
AcDbEntity
8
1
100
AcDbVertex
100
AcDb3dPolylineVertex
10
352.860566
20
28.379943
30
36.504273
70
32
0
VERTEX
100
AcDbEntity
8
1
100
AcDbVertex
100
AcDb3dPolylineVertex
10
352.862804
20
28.352099
30
36.480754
70
32
0
VERTEX
100
AcDbEntity
8
1
100
AcDbVertex
100
AcDb3dPolylineVertex
10
352.864698
20
28.328512
30
36.452943
70
32
0
SEQEND
100
AcDbEntity
8
1
0
POLYLINE
100
AcDbEntity
8
1
62
1
100
AcDb3dPolyline
66
1
10
0.000000
20
0.000000
30
0.000000
70
8
0
VERTEX
100
AcDbEntity
8
1
100
AcDbVertex
100
AcDb3dPolylineVertex
10
352.864698
20
28.328512
30
36.452943
70
32
0
VERTEX
100
AcDbEntity
8
1
100
AcDbVertex
100
AcDb3dPolylineVertex
10
352.872312
20
28.233516
30
36.320154
70
32
0
VERTEX
100
AcDbEntity
8
1
100
AcDbVertex
100
AcDb3dPolylineVertex
10
352.885243
20
28.071432
30
36.094280
70
32
0
VERTEX
100
AcDbEntity
8
1
100
AcDbVertex
100
AcDb3dPolylineVertex
10
352.903372
20
27.842591
30
35.776850
70
32
0
VERTEX
100
AcDbEntity
8
1
100
AcDbVertex
100
AcDb3dPolylineVertex
10
352.926526
20
27.547539
30
35.370035
70
32
0
VERTEX
100
AcDbEntity
8
1
100
AcDbVertex
100
AcDb3dPolylineVertex
10
352.954487
20
27.186953
30
34.876653
70
32
0
VERTEX
100
AcDbEntity
8
1
100
AcDbVertex
100
AcDb3dPolylineVertex
10
352.986976
20
26.761812
30
34.300021
70
32
0
VERTEX
100
AcDbEntity
8
1
100
AcDbVertex
100
AcDb3dPolylineVertex
10
353.023500
20
26.275622
30
33.642484
70
32
0
VERTEX
100
AcDbEntity
8
1
100
AcDbVertex
100
AcDb3dPolylineVertex
10
353.063651
20
25.730493
30
32.907913
70
32
0
VERTEX
100
AcDbEntity
8
1
100
AcDbVertex
100
AcDb3dPolylineVertex
10
353.107259
20
25.124961
30
32.103093
70
32
0
VERTEX
100
AcDbEntity
8
1
100
AcDbVertex
100
AcDb3dPolylineVertex
10
353.153729
20
24.463107
30
31.231817
70
32
0
VERTEX
100
AcDbEntity
8
1
100
AcDbVertex
100
AcDb3dPolylineVertex
10
353.202347
20
23.750827
30
30.297110
70
32
0
VERTEX
100
AcDbEntity
8
1
100
AcDbVertex
100
AcDb3dPolylineVertex
10
353.253001
20
22.985156
30
29.308469
70
32
0
VERTEX
100
AcDbEntity
8
1
100
AcDbVertex
100
AcDb3dPolylineVertex
10
353.304813
20
22.174514
30
28.268105
70
32
0
VERTEX
100
AcDbEntity
8
1
100
AcDbVertex
100
AcDb3dPolylineVertex
10
353.357386
20
21.320363
30
27.183375
70
32
0
VERTEX
100
AcDbEntity
8
1
100
AcDbVertex
100
AcDb3dPolylineVertex
10
353.410282
20
20.424806
30
26.061636
70
32
0
VERTEX
100
AcDbEntity
8
1
100
AcDbVertex
100
AcDb3dPolylineVertex
10
353.462671
20
19.497176
30
24.905283
70
32
0
VERTEX
100
AcDbEntity
8
1
100
AcDbVertex
100
AcDb3dPolylineVertex
10
353.514470
20
18.534286
30
23.726135
70
32
0
VERTEX
100
AcDbEntity
8
1
100
AcDbVertex
100
AcDb3dPolylineVertex
10
353.564676
20
17.550486
30
22.523219
70
32
0
VERTEX
100
AcDbEntity
8
1
100
AcDbVertex
100
AcDb3dPolylineVertex
10
353.613357
20
16.540675
30
21.310408
70
32
0
VERTEX
100
AcDbEntity
8
1
100
AcDbVertex
100
AcDb3dPolylineVertex
10
353.659687
20
15.518554
30
20.087221
70
32
0
VERTEX
100
AcDbEntity
8
1
100
AcDbVertex
100
AcDb3dPolylineVertex
10
353.703657
20
14.481806
30
18.865881
70
32
0
VERTEX
100
AcDbEntity
8
1
100
AcDbVertex
100
AcDb3dPolylineVertex
10
353.744688
20
13.442306
30
17.647205
70
32
0
VERTEX
100
AcDbEntity
8
1
100
AcDbVertex
100
AcDb3dPolylineVertex
10
353.782744
20
12.400408
30
16.441484
70
32
0
VERTEX
100
AcDbEntity
8
1
100
AcDbVertex
100
AcDb3dPolylineVertex
10
353.817517
20
11.365063
30
15.251769
70
32
0
VERTEX
100
AcDbEntity
8
1
100
AcDbVertex
100
AcDb3dPolylineVertex
10
353.848894
20
10.342147
30
14.083486
70
32
0
VERTEX
100
AcDbEntity
8
1
100
AcDbVertex
100
AcDb3dPolylineVertex
10
353.876884
20
9.335467
30
12.943818
70
32
0
VERTEX
100
AcDbEntity
8
1
100
AcDbVertex
100
AcDb3dPolylineVertex
10
353.901284
20
8.359503
30
11.829939
70
32
0
VERTEX
100
AcDbEntity
8
1
100
AcDbVertex
100
AcDb3dPolylineVertex
10
353.922409
20
7.411379
30
10.754591
70
32
0
VERTEX
100
AcDbEntity
8
1
100
AcDbVertex
100
AcDb3dPolylineVertex
10
353.940186
20
6.507292
30
9.712463
70
32
0
VERTEX
100
AcDbEntity
8
1
100
AcDbVertex
100
AcDb3dPolylineVertex
10
353.954998
20
5.644417
30
8.715758
70
32
0
VERTEX
100
AcDbEntity
8
1
100
AcDbVertex
100
AcDb3dPolylineVertex
10
353.967028
20
4.831487
30
7.765335
70
32
0
VERTEX
100
AcDbEntity
8
1
100
AcDbVertex
100
AcDb3dPolylineVertex
10
353.976540
20
4.075457
30
6.863233
70
32
0
VERTEX
100
AcDbEntity
8
1
100
AcDbVertex
100
AcDb3dPolylineVertex
10
353.983925
20
3.373597
30
6.020655
70
32
0
VERTEX
100
AcDbEntity
8
1
100
AcDbVertex
100
AcDb3dPolylineVertex
10
353.989443
20
2.733894
30
5.237695
70
32
0
VERTEX
100
AcDbEntity
8
1
100
AcDbVertex
100
AcDb3dPolylineVertex
10
353.993423
20
2.157926
30
4.520282
70
32
0
VERTEX
100
AcDbEntity
8
1
100
AcDbVertex
100
AcDb3dPolylineVertex
10
353.996176
20
1.645479
30
3.875692
70
32
0
VERTEX
100
AcDbEntity
8
1
100
AcDbVertex
100
AcDb3dPolylineVertex
10
353.997958
20
1.202520
30
3.304138
70
32
0
VERTEX
100
AcDbEntity
8
1
100
AcDbVertex
100
AcDb3dPolylineVertex
10
353.999027
20
0.830139
30
2.810137
70
32
0
VERTEX
100
AcDbEntity
8
1
100
AcDbVertex
100
AcDb3dPolylineVertex
10
353.999609
20
0.525984
30
2.401125
70
32
0
VERTEX
100
AcDbEntity
8
1
100
AcDbVertex
100
AcDb3dPolylineVertex
10
353.999882
20
0.289437
30
2.081953
70
32
0
VERTEX
100
AcDbEntity
8
1
100
AcDbVertex
100
AcDb3dPolylineVertex
10
353.999979
20
0.121372
30
1.855000
70
32
0
VERTEX
100
AcDbEntity
8
1
100
AcDbVertex
100
AcDb3dPolylineVertex
10
353.999999
20
0.022722
30
1.721714
70
32
0
SEQEND
100
AcDbEntity
8
1
0
POLYLINE
100
AcDbEntity
8
1
62
4
100
AcDb3dPolyline
66
1
10
0.000000
20
0.000000
30
0.000000
70
8
0
VERTEX
100
AcDbEntity
8
1
100
AcDbVertex
100
AcDb3dPolylineVertex
10
382.000000
20
0.017539
30
0.939984
70
32
0
VERTEX
100
AcDbEntity
8
1
100
AcDbVertex
100
AcDb3dPolylineVertex
10
382.000000
20
0.006746
30
0.921481
70
32
0
VERTEX
100
AcDbEntity
8
1
100
AcDbVertex
100
AcDb3dPolylineVertex
10
382.000000
20
-0.002048
30
0.903170
70
32
0
VERTEX
100
AcDbEntity
8
1
100
AcDbVertex
100
AcDb3dPolylineVertex
10
382.000000
20
-0.008696
30
0.885353
70
32
0
VERTEX
100
AcDbEntity
8
1
100
AcDbVertex
100
AcDb3dPolylineVertex
10
382.000000
20
-0.013089
30
0.868325
70
32
0
VERTEX
100
AcDbEntity
8
1
100
AcDbVertex
100
AcDb3dPolylineVertex
10
382.000000
20
-0.015152
30
0.852368
70
32
0
VERTEX
100
AcDbEntity
8
1
100
AcDbVertex
100
AcDb3dPolylineVertex
10
382.000000
20
-0.014851
30
0.837746
70
32
0
VERTEX
100
AcDbEntity
8
1
100
AcDbVertex
100
AcDb3dPolylineVertex
10
382.000000
20
-0.012191
30
0.824699
70
32
0
VERTEX
100
AcDbEntity
8
1
100
AcDbVertex
100
AcDb3dPolylineVertex
10
382.000000
20
-0.007213
30
0.813445
70
32
0
VERTEX
100
AcDbEntity
8
1
100
AcDbVertex
100
AcDb3dPolylineVertex
10
382.000000
20
0.000000
30
0.804170
70
32
0
VERTEX
100
AcDbEntity
8
1
100
AcDbVertex
100
AcDb3dPolylineVertex
10
382.000000
20
0.009329
30
0.797027
70
32
0
VERTEX
100
AcDbEntity
8
1
100
AcDbVertex
100
AcDb3dPolylineVertex
10
381.999999
20
0.020621
30
0.792135
70
32
0
VERTEX
100
AcDbEntity
8
1
100
AcDbVertex
100
AcDb3dPolylineVertex
10
381.999999
20
0.033689
30
0.789575
70
32
0
VERTEX
100
AcDbEntity
8
1
100
AcDbVertex
100
AcDb3dPolylineVertex
10
381.999997
20
0.048316
30
0.789390
70
32
0
VERTEX
100
AcDbEntity
8
1
100
AcDbVertex
100
AcDb3dPolylineVertex
10
381.999995
20
0.064262
30
0.791583
70
32
0
VERTEX
100
AcDbEntity
8
1
100
AcDbVertex
100
AcDb3dPolylineVertex
10
381.999991
20
0.081260
30
0.796118
70
32
0
VERTEX
100
AcDbEntity
8
1
100
AcDbVertex
100
AcDb3dPolylineVertex
10
381.999987
20
0.099030
30
0.802920
70
32
0
VERTEX
100
AcDbEntity
8
1
100
AcDbVertex
100
AcDb3dPolylineVertex
10
381.999982
20
0.117278
30
0.811876
70
32
0
VERTEX
100
AcDbEntity
8
1
100
AcDbVertex
100
AcDb3dPolylineVertex
10
381.999976
20
0.135700
30
0.822839
70
32
0
SEQEND
100
AcDbEntity
8
1
0
POLYLINE
100
AcDbEntity
8
1
62
3
100
AcDb3dPolyline
66
1
10
0.000000
20
0.000000
30
0.000000
70
8
0
VERTEX
100
AcDbEntity
8
1
100
AcDbVertex
100
AcDb3dPolylineVertex
10
381.999976
20
0.135700
30
0.822839
70
32
0
VERTEX
100
AcDbEntity
8
1
100
AcDbVertex
100
AcDb3dPolylineVertex
10
381.999899
20
0.278065
30
0.915107
70
32
0
VERTEX
100
AcDbEntity
8
1
100
AcDbVertex
100
AcDb3dPolylineVertex
10
381.999646
20
0.520031
30
1.072965
70
32
0
VERTEX
100
AcDbEntity
8
1
100
AcDbVertex
100
AcDb3dPolylineVertex
10
381.999033
20
0.859575
30
1.296697
70
32
0
VERTEX
100
AcDbEntity
8
1
100
AcDbVertex
100
AcDb3dPolylineVertex
10
381.997811
20
1.293282
30
1.587208
70
32
0
VERTEX
100
AcDbEntity
8
1
100
AcDbVertex
100
AcDb3dPolylineVertex
10
381.995690
20
1.814560
30
1.947750
70
32
0
VERTEX
100
AcDbEntity
8
1
100
AcDbVertex
100
AcDb3dPolylineVertex
10
381.992375
20
2.413593
30
2.383842
70
32
0
VERTEX
100
AcDbEntity
8
1
100
AcDbVertex
100
AcDb3dPolylineVertex
10
381.987547
20
3.084462
30
2.896329
70
32
0
VERTEX
100
AcDbEntity
8
1
100
AcDbVertex
100
AcDb3dPolylineVertex
10
381.980850
20
3.824934
30
3.481753
70
32
0
VERTEX
100
AcDbEntity
8
1
100
AcDbVertex
100
AcDb3dPolylineVertex
10
381.971998
20
4.625256
30
4.143031
70
32
0
VERTEX
100
AcDbEntity
8
1
100
AcDbVertex
100
AcDb3dPolylineVertex
10
381.960740
20
5.476586
30
4.881297
70
32
0
VERTEX
100
AcDbEntity
8
1
100
AcDbVertex
100
AcDb3dPolylineVertex
10
381.946779
20
6.376390
30
5.691073
70
32
0
VERTEX
100
AcDbEntity
8
1
100
AcDbVertex
100
AcDb3dPolylineVertex
10
381.930022
20
7.311542
30
6.575855
70
32
0
VERTEX
100
AcDbEntity
8
1
100
AcDbVertex
100
AcDb3dPolylineVertex
10
381.910361
20
8.275025
30
7.532732
70
32
0
VERTEX
100
AcDbEntity
8
1
100
AcDbVertex
100
AcDb3dPolylineVertex
10
381.887582
20
9.266877
30
8.551987
70
32
0
VERTEX
100
AcDbEntity
8
1
100
AcDbVertex
100
AcDb3dPolylineVertex
10
381.861939
20
10.269333
30
9.638967
70
32
0
VERTEX
100
AcDbEntity
8
1
100
AcDbVertex
100
AcDb3dPolylineVertex
10
381.833178
20
11.288229
30
10.777995
70
32
0
VERTEX
100
AcDbEntity
8
1
100
AcDbVertex
100
AcDb3dPolylineVertex
10
381.801657
20
12.308318
30
11.971116
70
32
0
VERTEX
100
AcDbEntity
8
1
100
AcDbVertex
100
AcDb3dPolylineVertex
10
381.767313
20
13.331115
30
13.205949
70
32
0
VERTEX
100
AcDbEntity
8
1
100
AcDbVertex
100
AcDb3dPolylineVertex
10
381.730342
20
14.350814
30
14.476061
70
32
0
VERTEX
100
AcDbEntity
8
1
100
AcDbVertex
100
AcDb3dPolylineVertex
10
381.691110
20
15.358922
30
15.776929
70
32
0
VERTEX
100
AcDbEntity
8
1
100
AcDbVertex
100
AcDb3dPolylineVertex
10
381.649706
20
16.355491
30
17.097265
70
32
0
VERTEX
100
AcDbEntity
8
1
100
AcDbVertex
100
AcDb3dPolylineVertex
10
381.606822
20
17.327255
30
18.436024
70
32
0
VERTEX
100
AcDbEntity
8
1
100
AcDbVertex
100
AcDb3dPolylineVertex
10
381.562454
20
18.278231
30
19.778940
70
32
0
VERTEX
100
AcDbEntity
8
1
100
AcDbVertex
100
AcDb3dPolylineVertex
10
381.517507
20
19.193529
30
21.126069
70
32
0
VERTEX
100
AcDbEntity
8
1
100
AcDbVertex
100
AcDb3dPolylineVertex
10
381.471854
20
20.080462
30
22.461270
70
32
0
VERTEX
100
AcDbEntity
8
1
100
AcDbVertex
100
AcDb3dPolylineVertex
10
381.426593
20
20.922571
30
23.785745
70
32
0
VERTEX
100
AcDbEntity
8
1
100
AcDbVertex
100
AcDb3dPolylineVertex
10
381.381494
20
21.729145
30
25.082721
70
32
0
VERTEX
100
AcDbEntity
8
1
100
AcDbVertex
100
AcDb3dPolylineVertex
10
381.337524
20
22.487610
30
26.351198
70
32
0
VERTEX
100
AcDbEntity
8
1
100
AcDbVertex
100
AcDb3dPolylineVertex
10
381.294656
20
23.203138
30
27.578219
70
32
0
VERTEX
100
AcDbEntity
8
1
100
AcDbVertex
100
AcDb3dPolylineVertex
10
381.253463
20
23.870414
30
28.758500
70
32
0
VERTEX
100
AcDbEntity
8
1
100
AcDbVertex
100
AcDb3dPolylineVertex
10
381.214340
20
24.487286
30
29.885072
70
32
0
VERTEX
100
AcDbEntity
8
1
100
AcDbVertex
100
AcDb3dPolylineVertex
10
381.177262
20
25.057827
30
30.947566
70
32
0
VERTEX
100
AcDbEntity
8
1
100
AcDbVertex
100
AcDb3dPolylineVertex
10
381.142938
20
25.574614
30
31.943478
70
32
0
VERTEX
100
AcDbEntity
8
1
100
AcDbVertex
100
AcDb3dPolylineVertex
10
381.111324
20
26.041476
30
32.863704
70
32
0
VERTEX
100
AcDbEntity
8
1
100
AcDbVertex
100
AcDb3dPolylineVertex
10
381.082483
20
26.460177
30
33.701277
70
32
0
VERTEX
100
AcDbEntity
8
1
100
AcDbVertex
100
AcDb3dPolylineVertex
10
381.056868
20
26.826535
30
34.453320
70
32
0
VERTEX
100
AcDbEntity
8
1
100
AcDbVertex
100
AcDb3dPolylineVertex
10
381.034585
20
27.141199
30
35.114674
70
32
0
VERTEX
100
AcDbEntity
8
1
100
AcDbVertex
100
AcDb3dPolylineVertex
10
381.015573
20
27.406814
30
35.679656
70
32
0
VERTEX
100
AcDbEntity
8
1
100
AcDbVertex
100
AcDb3dPolylineVertex
10
380.999932
20
27.623398
30
36.144815
70
32
0
VERTEX
100
AcDbEntity
8
1
100
AcDbVertex
100
AcDb3dPolylineVertex
10
380.987753
20
27.790858
30
36.507374
70
32
0
VERTEX
100
AcDbEntity
8
1
100
AcDbVertex
100
AcDb3dPolylineVertex
10
380.979102
20
27.909209
30
36.765131
70
32
0
VERTEX
100
AcDbEntity
8
1
100
AcDbVertex
100
AcDb3dPolylineVertex
10
380.974023
20
27.978459
30
36.916538
70
32
0
SEQEND
100
AcDbEntity
8
1
0
POLYLINE
100
AcDbEntity
8
1
62
2
100
AcDb3dPolyline
66
1
10
0.000000
20
0.000000
30
0.000000
70
8
0
VERTEX
100
AcDbEntity
8
1
100
AcDbVertex
100
AcDb3dPolylineVertex
10
380.974023
20
27.978459
30
36.916538
70
32
0
VERTEX
100
AcDbEntity
8
1
100
AcDbVertex
100
AcDb3dPolylineVertex
10
380.972936
20
27.993245
30
36.957527
70
32
0
VERTEX
100
AcDbEntity
8
1
100
AcDbVertex
100
AcDb3dPolylineVertex
10
380.972358
20
28.001122
30
37.000380
70
32
0
VERTEX
100
AcDbEntity
8
1
100
AcDbVertex
100
AcDb3dPolylineVertex
10
380.972302
20
28.001875
30
37.043933
70
32
0
VERTEX
100
AcDbEntity
8
1
100
AcDbVertex
100
AcDb3dPolylineVertex
10
380.972772
20
27.995486
30
37.087003
70
32
0
VERTEX
100
AcDbEntity
8
1
100
AcDbVertex
100
AcDb3dPolylineVertex
10
380.973753
20
27.982130
30
37.128425
70
32
0
VERTEX
100
AcDbEntity
8
1
100
AcDbVertex
100
AcDb3dPolylineVertex
10
380.975218
20
27.962173
30
37.167078
70
32
0
VERTEX
100
AcDbEntity
8
1
100
AcDbVertex
100
AcDb3dPolylineVertex
10
380.977127
20
27.936157
30
37.201916
70
32
0
VERTEX
100
AcDbEntity
8
1
100
AcDbVertex
100
AcDb3dPolylineVertex
10
380.979425
20
27.904793
30
37.232002
70
32
0
VERTEX
100
AcDbEntity
8
1
100
AcDbVertex
100
AcDb3dPolylineVertex
10
380.982050
20
27.868933
30
37.256525
70
32
0
VERTEX
100
AcDbEntity
8
1
100
AcDbVertex
100
AcDb3dPolylineVertex
10
380.984929
20
27.829550
30
37.274826
70
32
0
VERTEX
100
AcDbEntity
8
1
100
AcDbVertex
100
AcDb3dPolylineVertex
10
380.987983
20
27.787713
30
37.286415
70
32
0
VERTEX
100
AcDbEntity
8
1
100
AcDbVertex
100
AcDb3dPolylineVertex
10
380.991128
20
27.744554
30
37.290982
70
32
0
VERTEX
100
AcDbEntity
8
1
100
AcDbVertex
100
AcDb3dPolylineVertex
10
380.994280
20
27.701243
30
37.288408
70
32
0
VERTEX
100
AcDbEntity
8
1
100
AcDbVertex
100
AcDb3dPolylineVertex
10
380.997352
20
27.658948
30
37.278763
70
32
0
VERTEX
100
AcDbEntity
8
1
100
AcDbVertex
100
AcDb3dPolylineVertex
10
381.000264
20
27.618812
30
37.262310
70
32
0
VERTEX
100
AcDbEntity
8
1
100
AcDbVertex
100
AcDb3dPolylineVertex
10
381.002937
20
27.581917
30
37.239493
70
32
0
VERTEX
100
AcDbEntity
8
1
100
AcDbVertex
100
AcDb3dPolylineVertex
10
381.005300
20
27.549258
30
37.210926
70
32
0
VERTEX
100
AcDbEntity
8
1
100
AcDbVertex
100
AcDb3dPolylineVertex
10
381.007290
20
27.521714
30
37.177379
70
32
0
SEQEND
100
AcDbEntity
8
1
0
POLYLINE
100
AcDbEntity
8
1
62
1
100
AcDb3dPolyline
66
1
10
0.000000
20
0.000000
30
0.000000
70
8
0
VERTEX
100
AcDbEntity
8
1
100
AcDbVertex
100
AcDb3dPolylineVertex
10
381.007290
20
27.521714
30
37.177379
70
32
0
VERTEX
100
AcDbEntity
8
1
100
AcDbVertex
100
AcDb3dPolylineVertex
10
381.014100
20
27.427282
30
37.041012
70
32
0
VERTEX
100
AcDbEntity
8
1
100
AcDbVertex
100
AcDb3dPolylineVertex
10
381.025665
20
27.266140
30
36.808979
70
32
0
VERTEX
100
AcDbEntity
8
1
100
AcDbVertex
100
AcDb3dPolylineVertex
10
381.041875
20
27.038662
30
36.482857
70
32
0
VERTEX
100
AcDbEntity
8
1
100
AcDbVertex
100
AcDb3dPolylineVertex
10
381.062572
20
26.745393
30
36.064849
70
32
0
VERTEX
100
AcDbEntity
8
1
100
AcDbVertex
100
AcDb3dPolylineVertex
10
381.087557
20
26.387009
30
35.557791
70
32
0
VERTEX
100
AcDbEntity
8
1
100
AcDbVertex
100
AcDb3dPolylineVertex
10
381.116570
20
25.964590
30
34.965004
70
32
0
VERTEX
100
AcDbEntity
8
1
100
AcDbVertex
100
AcDb3dPolylineVertex
10
381.149137
20
25.482060
30
34.288754
70
32
0
VERTEX
100
AcDbEntity
8
1
100
AcDbVertex
100
AcDb3dPolylineVertex
10
381.184872
20
24.941793
30
33.532832
70
32
0
VERTEX
100
AcDbEntity
8
1
100
AcDbVertex
100
AcDb3dPolylineVertex
10
381.223663
20
24.341712
30
32.704307
70
32
0
VERTEX
100
AcDbEntity
8
1
100
AcDbVertex
100
AcDb3dPolylineVertex
10
381.264957
20
23.686127
30
31.807078
70
32
0
VERTEX
100
AcDbEntity
8
1
100
AcDbVertex
100
AcDb3dPolylineVertex
10
381.308049
20
22.981984
30
30.843680
70
32
0
VERTEX
100
AcDbEntity
8
1
100
AcDbVertex
100
AcDb3dPolylineVertex
10
381.352890
20
22.225517
30
29.823979
70
32
0
VERTEX
100
AcDbEntity
8
1
100
AcDbVertex
100
AcDb3dPolylineVertex
10
381.398698
20
21.425063
30
28.750591
70
32
0
VERTEX
100
AcDbEntity
8
1
100
AcDbVertex
100
AcDb3dPolylineVertex
10
381.445042
20
20.583481
30
27.629977
70
32
0
VERTEX
100
AcDbEntity
8
1
100
AcDbVertex
100
AcDb3dPolylineVertex
10
381.491636
20
19.701067
30
26.470729
70
32
0
VERTEX
100
AcDbEntity
8
1
100
AcDbVertex
100
AcDb3dPolylineVertex
10
381.537627
20
18.789341
30
25.274039
70
32
0
VERTEX
100
AcDbEntity
8
1
100
AcDbVertex
100
AcDb3dPolylineVertex
10
381.583065
20
17.842780
30
24.053229
70
32
0
VERTEX
100
AcDbEntity
8
1
100
AcDbVertex
100
AcDb3dPolylineVertex
10
381.626933
20
16.878501
30
22.805879
70
32
0
VERTEX
100
AcDbEntity
8
1
100
AcDbVertex
100
AcDb3dPolylineVertex
10
381.669433
20
15.888489
30
21.547561
70
32
0
VERTEX
100
AcDbEntity
8
1
100
AcDbVertex
100
AcDb3dPolylineVertex
10
381.709721
20
14.889231
30
20.276322
70
32
0
VERTEX
100
AcDbEntity
8
1
100
AcDbVertex
100
AcDb3dPolylineVertex
10
381.747910
20
13.875621
30
19.006189
70
32
0
VERTEX
100
AcDbEntity
8
1
100
AcDbVertex
100
AcDb3dPolylineVertex
10
381.783405
20
12.862034
30
17.736552
70
32
0
VERTEX
100
AcDbEntity
8
1
100
AcDbVertex
100
AcDb3dPolylineVertex
10
381.816279
20
11.846052
30
16.479639
70
32
0
VERTEX
100
AcDbEntity
8
1
100
AcDbVertex
100
AcDb3dPolylineVertex
10
381.846193
20
10.839049
30
15.236941
70
32
0
VERTEX
100
AcDbEntity
8
1
100
AcDbVertex
100
AcDb3dPolylineVertex
10
381.873136
20
9.844177
30
14.016206
70
32
0
VERTEX
100
AcDbEntity
8
1
100
AcDbVertex
100
AcDb3dPolylineVertex
10
381.897063
20
8.867530
30
12.822696
70
32
0
VERTEX
100
AcDbEntity
8
1
100
AcDbVertex
100
AcDb3dPolylineVertex
10
381.917833
20
7.922676
30
11.655114
70
32
0
VERTEX
100
AcDbEntity
8
1
100
AcDbVertex
100
AcDb3dPolylineVertex
10
381.935740
20
7.006484
30
10.525922
70
32
0
VERTEX
100
AcDbEntity
8
1
100
AcDbVertex
100
AcDb3dPolylineVertex
10
381.950703
20
6.136844
30
9.429200
70
32
0
VERTEX
100
AcDbEntity
8
1
100
AcDbVertex
100
AcDb3dPolylineVertex
10
381.963122
20
5.307878
30
8.379359
70
32
0
VERTEX
100
AcDbEntity
8
1
100
AcDbVertex
100
AcDb3dPolylineVertex
10
381.973125
20
4.531242
30
7.375051
70
32
0
VERTEX
100
AcDbEntity
8
1
100
AcDbVertex
100
AcDb3dPolylineVertex
10
381.980988
20
3.811159
30
6.421032
70
32
0
VERTEX
100
AcDbEntity
8
1
100
AcDbVertex
100
AcDb3dPolylineVertex
10
381.987051
20
3.145256
30
5.527779
70
32
0
VERTEX
100
AcDbEntity
8
1
100
AcDbVertex
100
AcDb3dPolylineVertex
10
381.991548
20
2.541169
30
4.696103
70
32
0
VERTEX
100
AcDbEntity
8
1
100
AcDbVertex
100
AcDb3dPolylineVertex
10
381.994767
20
1.999557
30
3.932756
70
32
0
VERTEX
100
AcDbEntity
8
1
100
AcDbVertex
100
AcDb3dPolylineVertex
10
381.996978
20
1.519399
30
3.245617
70
32
0
VERTEX
100
AcDbEntity
8
1
100
AcDbVertex
100
AcDb3dPolylineVertex
10
381.998398
20
1.106345
30
2.635550
70
32
0
VERTEX
100
AcDbEntity
8
1
100
AcDbVertex
100
AcDb3dPolylineVertex
10
381.999241
20
0.761442
30
2.107102
70
32
0
VERTEX
100
AcDbEntity
8
1
100
AcDbVertex
100
AcDb3dPolylineVertex
10
381.999697
20
0.480874
30
1.668872
70
32
0
VERTEX
100
AcDbEntity
8
1
100
AcDbVertex
100
AcDb3dPolylineVertex
10
381.999909
20
0.263017
30
1.326594
70
32
0
VERTEX
100
AcDbEntity
8
1
100
AcDbVertex
100
AcDb3dPolylineVertex
10
381.999985
20
0.108333
30
1.083092
70
32
0
VERTEX
100
AcDbEntity
8
1
100
AcDbVertex
100
AcDb3dPolylineVertex
10
382.000000
20
0.017539
30
0.939984
70
32
0
SEQEND
100
AcDbEntity
8
1
0
POLYLINE
100
AcDbEntity
8
1
62
4
100
AcDb3dPolyline
66
1
10
0.000000
20
0.000000
30
0.000000
70
8
0
VERTEX
100
AcDbEntity
8
1
100
AcDbVertex
100
AcDb3dPolylineVertex
10
410.000000
20
0.009364
30
0.158512
70
32
0
VERTEX
100
AcDbEntity
8
1
100
AcDbVertex
100
AcDb3dPolylineVertex
10
410.000000
20
-0.001531
30
0.136336
70
32
0
VERTEX
100
AcDbEntity
8
1
100
AcDbVertex
100
AcDb3dPolylineVertex
10
410.000000
20
-0.010135
30
0.114597
70
32
0
VERTEX
100
AcDbEntity
8
1
100
AcDbVertex
100
AcDb3dPolylineVertex
10
410.000000
20
-0.016317
30
0.093621
70
32
0
VERTEX
100
AcDbEntity
8
1
100
AcDbVertex
100
AcDb3dPolylineVertex
10
410.000000
20
-0.019985
30
0.073721
70
32
0
VERTEX
100
AcDbEntity
8
1
100
AcDbVertex
100
AcDb3dPolylineVertex
10
409.999999
20
-0.021083
30
0.055196
70
32
0
VERTEX
100
AcDbEntity
8
1
100
AcDbVertex
100
AcDb3dPolylineVertex
10
410.000000
20
-0.019593
30
0.038323
70
32
0
VERTEX
100
AcDbEntity
8
1
100
AcDbVertex
100
AcDb3dPolylineVertex
10
410.000000
20
-0.015536
30
0.023355
70
32
0
VERTEX
100
AcDbEntity
8
1
100
AcDbVertex
100
AcDb3dPolylineVertex
10
410.000000
20
-0.008973
30
0.010517
70
32
0
VERTEX
100
AcDbEntity
8
1
100
AcDbVertex
100
AcDb3dPolylineVertex
10
410.000000
20
0.000000
30
0.000000
70
32
0
VERTEX
100
AcDbEntity
8
1
100
AcDbVertex
100
AcDb3dPolylineVertex
10
410.000000
20
0.011248
30
-0.008037
70
32
0
VERTEX
100
AcDbEntity
8
1
100
AcDbVertex
100
AcDb3dPolylineVertex
10
409.999999
20
0.024604
30
-0.013473
70
32
0
VERTEX
100
AcDbEntity
8
1
100
AcDbVertex
100
AcDb3dPolylineVertex
10
409.999998
20
0.039867
30
-0.016227
70
32
0
VERTEX
100
AcDbEntity
8
1
100
AcDbVertex
100
AcDb3dPolylineVertex
10
409.999996
20
0.056809
30
-0.016256
70
32
0
VERTEX
100
AcDbEntity
8
1
100
AcDbVertex
100
AcDb3dPolylineVertex
10
409.999993
20
0.075176
30
-0.013561
70
32
0
VERTEX
100
AcDbEntity
8
1
100
AcDbVertex
100
AcDb3dPolylineVertex
10
409.999989
20
0.094693
30
-0.008181
70
32
0
VERTEX
100
AcDbEntity
8
1
100
AcDbVertex
100
AcDb3dPolylineVertex
10
409.999984
20
0.115066
30
-0.000196
70
32
0
VERTEX
100
AcDbEntity
8
1
100
AcDbVertex
100
AcDb3dPolylineVertex
10
409.999977
20
0.135989
30
0.010273
70
32
0
VERTEX
100
AcDbEntity
8
1
100
AcDbVertex
100
AcDb3dPolylineVertex
10
409.999970
20
0.157150
30
0.023071
70
32
0
SEQEND
100
AcDbEntity
8
1
0
POLYLINE
100
AcDbEntity
8
1
62
3
100
AcDb3dPolyline
66
1
10
0.000000
20
0.000000
30
0.000000
70
8
0
VERTEX
100
AcDbEntity
8
1
100
AcDbVertex
100
AcDb3dPolylineVertex
10
409.999970
20
0.157150
30
0.023071
70
32
0
VERTEX
100
AcDbEntity
8
1
100
AcDbVertex
100
AcDb3dPolylineVertex
10
409.999889
20
0.302250
30
0.118522
70
32
0
VERTEX
100
AcDbEntity
8
1
100
AcDbVertex
100
AcDb3dPolylineVertex
10
409.999633
20
0.548805
30
0.281875
70
32
0
VERTEX
100
AcDbEntity
8
1
100
AcDbVertex
100
AcDb3dPolylineVertex
10
409.999024
20
0.894614
30
0.513474
70
32
0
VERTEX
100
AcDbEntity
8
1
100
AcDbVertex
100
AcDb3dPolylineVertex
10
409.997824
20
1.335828
30
0.814460
70
32
0
VERTEX
100
AcDbEntity
8
1
100
AcDbVertex
100
AcDb3dPolylineVertex
10
409.995759
20
1.864784
30
1.188676
70
32
0
VERTEX
100
AcDbEntity
8
1
100
AcDbVertex
100
AcDb3dPolylineVertex
10
409.992559
20
2.470112
30
1.642444
70
32
0
VERTEX
100
AcDbEntity
8
1
100
AcDbVertex
100
AcDb3dPolylineVertex
10
409.987929
20
3.146149
30
2.176085
70
32
0
VERTEX
100
AcDbEntity
8
1
100
AcDbVertex
100
AcDb3dPolylineVertex
10
409.981543
20
3.890274
30
2.786465
70
32
0
VERTEX
100
AcDbEntity
8
1
100
AcDbVertex
100
AcDb3dPolylineVertex
10
409.973151
20
4.692035
30
3.476575
70
32
0
VERTEX
100
AcDbEntity
8
1
100
AcDbVertex
100
AcDb3dPolylineVertex
10
409.962544
20
5.541884
30
4.247696
70
32
0
VERTEX
100
AcDbEntity
8
1
100
AcDbVertex
100
AcDb3dPolylineVertex
10
409.949474
20
6.436512
30
5.094958
70
32
0
VERTEX
100
AcDbEntity
8
1
100
AcDbVertex
100
AcDb3dPolylineVertex
10
409.933853
20
7.364531
30
6.019662
70
32
0
VERTEX
100
AcDbEntity
8
1
100
AcDbVertex
100
AcDb3dPolylineVertex
10
409.915669
20
8.315295
30
7.021610
70
32
0
VERTEX
100
AcDbEntity
8
1
100
AcDbVertex
100
AcDb3dPolylineVertex
10
409.894682
20
9.292467
30
8.088176
70
32
0
VERTEX
100
AcDbEntity
8
1
100
AcDbVertex
100
AcDb3dPolylineVertex
10
409.871207
20
10.275890
30
9.225705
70
32
0
VERTEX
100
AcDbEntity
8
1
100
AcDbVertex
100
AcDb3dPolylineVertex
10
409.845008
20
11.272518
30
10.418054
70
32
0
VERTEX
100
AcDbEntity
8
1
100
AcDbVertex
100
AcDb3dPolylineVertex
10
409.816405
20
12.268439
30
11.665469
70
32
0
VERTEX
100
AcDbEntity
8
1
100
AcDbVertex
100
AcDb3dPolylineVertex
10
409.785420
20
13.263077
30
12.957321
70
32
0
VERTEX
100
AcDbEntity
8
1
100
AcDbVertex
100
AcDb3dPolylineVertex
10
409.752129
20
14.254572
30
14.283962
70
32
0
VERTEX
100
AcDbEntity
8
1
100
AcDbVertex
100
AcDb3dPolylineVertex
10
409.716988
20
15.231210
30
15.642976
70
32
0
VERTEX
100
AcDbEntity
8
1
100
AcDbVertex
100
AcDb3dPolylineVertex
10
409.679974
20
16.196258
30
17.020728
70
32
0
VERTEX
100
AcDbEntity
8
1
100
AcDbVertex
100
AcDb3dPolylineVertex
10
409.641831
20
17.133884
30
18.417461
70
32
0
VERTEX
100
AcDbEntity
8
1
100
AcDbVertex
100
AcDb3dPolylineVertex
10
409.602448
20
18.050880
30
19.817209
70
32
0
VERTEX
100
AcDbEntity
8
1
100
AcDbVertex
100
AcDb3dPolylineVertex
10
409.562755
20
18.930134
30
21.220917
70
32
0
VERTEX
100
AcDbEntity
8
1
100
AcDbVertex
100
AcDb3dPolylineVertex
10
409.522508
20
19.781693
30
22.610945
70
32
0
VERTEX
100
AcDbEntity
8
1
100
AcDbVertex
100
AcDb3dPolylineVertex
10
409.482818
20
20.586926
30
23.989306
70
32
0
VERTEX
100
AcDbEntity
8
1
100
AcDbVertex
100
AcDb3dPolylineVertex
10
409.443330
20
21.357892
30
25.337880
70
32
0
VERTEX
100
AcDbEntity
8
1
100
AcDbVertex
100
AcDb3dPolylineVertex
10
409.405027
20
22.079943
30
26.656412
70
32
0
VERTEX
100
AcDbEntity
8
1
100
AcDbVertex
100
AcDb3dPolylineVertex
10
409.367735
20
22.760878
30
27.930615
70
32
0
VERTEX
100
AcDbEntity
8
1
100
AcDbVertex
100
AcDb3dPolylineVertex
10
409.332073
20
23.393464
30
29.156211
70
32
0
VERTEX
100
AcDbEntity
8
1
100
AcDbVertex
100
AcDb3dPolylineVertex
10
409.298279
20
23.977457
30
30.324996
70
32
0
VERTEX
100
AcDbEntity
8
1
100
AcDbVertex
100
AcDb3dPolylineVertex
10
409.266312
20
24.517045
30
31.426730
70
32
0
VERTEX
100
AcDbEntity
8
1
100
AcDbVertex
100
AcDb3dPolylineVertex
10
409.236857
20
25.003898
30
32.459162
70
32
0
VERTEX
100
AcDbEntity
8
1
100
AcDbVertex
100
AcDb3dPolylineVertex
10
409.209776
20
25.443252
30
33.412604
70
32
0
VERTEX
100
AcDbEntity
8
1
100
AcDbVertex
100
AcDb3dPolylineVertex
10
409.185097
20
25.837111
30
34.279972
70
32
0
VERTEX
100
AcDbEntity
8
1
100
AcDbVertex
100
AcDb3dPolylineVertex
10
409.163252
20
26.180782
30
35.058581
70
32
0
VERTEX
100
AcDbEntity
8
1
100
AcDbVertex
100
AcDb3dPolylineVertex
10
409.144304
20
26.475243
30
35.743116
70
32
0
VERTEX
100
AcDbEntity
8
1
100
AcDbVertex
100
AcDb3dPolylineVertex
10
409.128155
20
26.723644
30
36.327731
70
32
0
VERTEX
100
AcDbEntity
8
1
100
AcDbVertex
100
AcDb3dPolylineVertex
10
409.114879
20
26.926119
30
36.808914
70
32
0
VERTEX
100
AcDbEntity
8
1
100
AcDbVertex
100
AcDb3dPolylineVertex
10
409.104549
20
27.082621
30
37.183880
70
32
0
VERTEX
100
AcDbEntity
8
1
100
AcDbVertex
100
AcDb3dPolylineVertex
10
409.097213
20
27.193196
30
37.450422
70
32
0
VERTEX
100
AcDbEntity
8
1
100
AcDbVertex
100
AcDb3dPolylineVertex
10
409.092908
20
27.257895
30
37.607002
70
32
0
SEQEND
100
AcDbEntity
8
1
0
POLYLINE
100
AcDbEntity
8
1
62
2
100
AcDb3dPolyline
66
1
10
0.000000
20
0.000000
30
0.000000
70
8
0
VERTEX
100
AcDbEntity
8
1
100
AcDbVertex
100
AcDb3dPolylineVertex
10
409.092908
20
27.257895
30
37.607002
70
32
0
VERTEX
100
AcDbEntity
8
1
100
AcDbVertex
100
AcDb3dPolylineVertex
10
409.091875
20
27.273394
30
37.655436
70
32
0
VERTEX
100
AcDbEntity
8
1
100
AcDbVertex
100
AcDb3dPolylineVertex
10
409.091380
20
27.280815
30
37.705734
70
32
0
VERTEX
100
AcDbEntity
8
1
100
AcDbVertex
100
AcDb3dPolylineVertex
10
409.091437
20
27.279961
30
37.756553
70
32
0
VERTEX
100
AcDbEntity
8
1
100
AcDbVertex
100
AcDb3dPolylineVertex
10
409.092044
20
27.270856
30
37.806534
70
32
0
VERTEX
100
AcDbEntity
8
1
100
AcDbVertex
100
AcDb3dPolylineVertex
10
409.093184
20
27.253747
30
37.854344
70
32
0
VERTEX
100
AcDbEntity
8
1
100
AcDbVertex
100
AcDb3dPolylineVertex
10
409.094826
20
27.229092
30
37.898711
70
32
0
VERTEX
100
AcDbEntity
8
1
100
AcDbVertex
100
AcDb3dPolylineVertex
10
409.096924
20
27.197555
30
37.938453
70
32
0
VERTEX
100
AcDbEntity
8
1
100
AcDbVertex
100
AcDb3dPolylineVertex
10
409.099420
20
27.159982
30
37.972517
70
32
0
VERTEX
100
AcDbEntity
8
1
100
AcDbVertex
100
AcDb3dPolylineVertex
10
409.102246
20
27.117377
30
38.000000
70
32
0
VERTEX
100
AcDbEntity
8
1
100
AcDbVertex
100
AcDb3dPolylineVertex
10
409.105326
20
27.070881
30
38.020177
70
32
0
VERTEX
100
AcDbEntity
8
1
100
AcDbVertex
100
AcDb3dPolylineVertex
10
409.108575
20
27.021736
30
38.032516
70
32
0
VERTEX
100
AcDbEntity
8
1
100
AcDbVertex
100
AcDb3dPolylineVertex
10
409.111906
20
26.971251
30
38.036695
70
32
0
VERTEX
100
AcDbEntity
8
1
100
AcDbVertex
100
AcDb3dPolylineVertex
10
409.115231
20
26.920772
30
38.032605
70
32
0
VERTEX
100
AcDbEntity
8
1
100
AcDbVertex
100
AcDb3dPolylineVertex
10
409.118461
20
26.871642
30
38.020360
70
32
0
VERTEX
100
AcDbEntity
8
1
100
AcDbVertex
100
AcDb3dPolylineVertex
10
409.121511
20
26.825165
30
38.000285
70
32
0
VERTEX
100
AcDbEntity
8
1
100
AcDbVertex
100
AcDb3dPolylineVertex
10
409.124301
20
26.782576
30
37.972915
70
32
0
VERTEX
100
AcDbEntity
8
1
100
AcDbVertex
100
AcDb3dPolylineVertex
10
409.126759
20
26.745004
30
37.938975
70
32
0
VERTEX
100
AcDbEntity
8
1
100
AcDbVertex
100
AcDb3dPolylineVertex
10
409.128821
20
26.713446
30
37.899365
70
32
0
SEQEND
100
AcDbEntity
8
1
0
POLYLINE
100
AcDbEntity
8
1
62
1
100
AcDb3dPolyline
66
1
10
0.000000
20
0.000000
30
0.000000
70
8
0
VERTEX
100
AcDbEntity
8
1
100
AcDbVertex
100
AcDb3dPolylineVertex
10
409.128821
20
26.713446
30
37.899365
70
32
0
VERTEX
100
AcDbEntity
8
1
100
AcDbVertex
100
AcDb3dPolylineVertex
10
409.134954
20
26.619348
30
37.759301
70
32
0
VERTEX
100
AcDbEntity
8
1
100
AcDbVertex
100
AcDb3dPolylineVertex
10
409.145367
20
26.458808
30
37.521000
70
32
0
VERTEX
100
AcDbEntity
8
1
100
AcDbVertex
100
AcDb3dPolylineVertex
10
409.159959
20
26.232194
30
37.186032
70
32
0
VERTEX
100
AcDbEntity
8
1
100
AcDbVertex
100
AcDb3dPolylineVertex
10
409.178582
20
25.940086
30
36.756616
70
32
0
VERTEX
100
AcDbEntity
8
1
100
AcDbVertex
100
AcDb3dPolylineVertex
10
409.201052
20
25.583178
30
36.235632
70
32
0
VERTEX
100
AcDbEntity
8
1
100
AcDbVertex
100
AcDb3dPolylineVertex
10
409.227130
20
25.162586
30
35.626428
70
32
0
VERTEX
100
AcDbEntity
8
1
100
AcDbVertex
100
AcDb3dPolylineVertex
10
409.256353
20
24.682740
30
34.931155
70
32
0
VERTEX
100
AcDbEntity
8
1
100
AcDbVertex
100
AcDb3dPolylineVertex
10
409.288357
20
24.146241
30
34.153570
70
32
0
VERTEX
100
AcDbEntity
8
1
100
AcDbVertex
100
AcDb3dPolylineVertex
10
409.323072
20
23.550422
30
33.301054
70
32
0
VERTEX
100
AcDbEntity
8
1
100
AcDbVertex
100
AcDb3dPolylineVertex
10
409.359990
20
22.899757
30
32.377514
70
32
0
VERTEX
100
AcDbEntity
8
1
100
AcDbVertex
100
AcDb3dPolylineVertex
10
409.398401
20
22.202464
30
31.385080
70
32
0
VERTEX
100
AcDbEntity
8
1
100
AcDbVertex
100
AcDb3dPolylineVertex
10
409.438319
20
21.453744
30
30.334056
70
32
0
VERTEX
100
AcDbEntity
8
1
100
AcDbVertex
100
AcDb3dPolylineVertex
10
409.479041
20
20.661915
30
29.227390
70
32
0
VERTEX
100
AcDbEntity
8
1
100
AcDbVertex
100
AcDb3dPolylineVertex
10
409.520099
20
19.831504
30
28.070603
70
32
0
VERTEX
100
AcDbEntity
8
1
100
AcDbVertex
100
AcDb3dPolylineVertex
10
409.561340
20
18.960715
30
26.873563
70
32
0
VERTEX
100
AcDbEntity
8
1
100
AcDbVertex
100
AcDb3dPolylineVertex
10
409.601893
20
18.063472
30
25.636447
70
32
0
VERTEX
100
AcDbEntity
8
1
100
AcDbVertex
100
AcDb3dPolylineVertex
10
409.641912
20
17.131947
30
24.373673
70
32
0
VERTEX
100
AcDbEntity
8
1
100
AcDbVertex
100
AcDb3dPolylineVertex
10
409.680390
20
16.185725
30
23.081897
70
32
0
VERTEX
100
AcDbEntity
8
1
100
AcDbVertex
100
AcDb3dPolylineVertex
10
409.717614
20
15.214369
30
21.777907
70
32
0
VERTEX
100
AcDbEntity
8
1
100
AcDbVertex
100
AcDb3dPolylineVertex
10
409.752747
20
14.236787
30
20.458734
70
32
0
VERTEX
100
AcDbEntity
8
1
100
AcDbVertex
100
AcDb3dPolylineVertex
10
409.785994
20
13.245333
30
19.139804
70
32
0
VERTEX
100
AcDbEntity
8
1
100
AcDbVertex
100
AcDb3dPolylineVertex
10
409.816752
20
12.256841
30
17.819342
70
32
0
VERTEX
100
AcDbEntity
8
1
100
AcDbVertex
100
AcDb3dPolylineVertex
10
409.845187
20
11.266013
30
16.511420
70
32
0
VERTEX
100
AcDbEntity
8
1
100
AcDbVertex
100
AcDb3dPolylineVertex
10
409.870926
20
10.287091
30
15.215797
70
32
0
VERTEX
100
AcDbEntity
8
1
100
AcDbVertex
100
AcDb3dPolylineVertex
10
409.894064
20
9.319675
30
13.942949
70
32
0
VERTEX
100
AcDbEntity
8
1
100
AcDbVertex
100
AcDb3dPolylineVertex
10
409.914485
20
8.373481
30
12.695559
70
32
0
VERTEX
100
AcDbEntity
8
1
100
AcDbVertex
100
AcDb3dPolylineVertex
10
409.932133
20
7.459675
30
11.474731
70
32
0
VERTEX
100
AcDbEntity
8
1
100
AcDbVertex
100
AcDb3dPolylineVertex
10
409.947258
20
6.576139
30
10.291799
70
32
0
VERTEX
100
AcDbEntity
8
1
100
AcDbVertex
100
AcDb3dPolylineVertex
10
409.959796
20
5.741585
30
9.141039
70
32
0
VERTEX
100
AcDbEntity
8
1
100
AcDbVertex
100
AcDb3dPolylineVertex
10
409.970148
20
4.947461
30
8.038522
70
32
0
VERTEX
100
AcDbEntity
8
1
100
AcDbVertex
100
AcDb3dPolylineVertex
10
409.978397
20
4.208778
30
6.980641
70
32
0
VERTEX
100
AcDbEntity
8
1
100
AcDbVertex
100
AcDb3dPolylineVertex
10
409.984839
20
3.525881
30
5.975500
70
32
0
VERTEX
100
AcDbEntity
8
1
100
AcDbVertex
100
AcDb3dPolylineVertex
10
409.989759
20
2.897904
30
5.031990
70
32
0
VERTEX
100
AcDbEntity
8
1
100
AcDbVertex
100
AcDb3dPolylineVertex
10
409.993371
20
2.331499
30
4.152112
70
32
0
VERTEX
100
AcDbEntity
8
1
100
AcDbVertex
100
AcDb3dPolylineVertex
10
409.995932
20
1.826426
30
3.343311
70
32
0
VERTEX
100
AcDbEntity
8
1
100
AcDbVertex
100
AcDb3dPolylineVertex
10
409.997675
20
1.380799
30
2.614041
70
32
0
VERTEX
100
AcDbEntity
8
1
100
AcDbVertex
100
AcDb3dPolylineVertex
10
409.998781
20
0.999732
30
1.965950
70
32
0
VERTEX
100
AcDbEntity
8
1
100
AcDbVertex
100
AcDb3dPolylineVertex
10
409.999429
20
0.684400
30
1.403462
70
32
0
VERTEX
100
AcDbEntity
8
1
100
AcDbVertex
100
AcDb3dPolylineVertex
10
409.999775
20
0.429327
30
0.936332
70
32
0
VERTEX
100
AcDbEntity
8
1
100
AcDbVertex
100
AcDb3dPolylineVertex
10
409.999935
20
0.231731
30
0.571178
70
32
0
VERTEX
100
AcDbEntity
8
1
100
AcDbVertex
100
AcDb3dPolylineVertex
10
409.999990
20
0.091572
30
0.311285
70
32
0
VERTEX
100
AcDbEntity
8
1
100
AcDbVertex
100
AcDb3dPolylineVertex
10
410.000000
20
0.009364
30
0.158512
70
32
0
SEQEND
100
AcDbEntity
8
1
0
POLYLINE
100
AcDbEntity
8
1
62
7
100
AcDb3dPolyline
66
1
10
0.000000
20
0.000000
30
0.000000
70
8
0
VERTEX
100
AcDbEntity
8
1
100
AcDbVertex
100
AcDb3dPolylineVertex
10
297.999999
20
0.024527
30
3.287173
70
32
0
VERTEX
100
AcDbEntity
8
1
100
AcDbVertex
100
AcDb3dPolylineVertex
10
325.999999
20
0.025000
30
2.504003
70
32
0
VERTEX
100
AcDbEntity
8
1
100
AcDbVertex
100
AcDb3dPolylineVertex
10
353.999999
20
0.022722
30
1.721714
70
32
0
VERTEX
100
AcDbEntity
8
1
100
AcDbVertex
100
AcDb3dPolylineVertex
10
382.000000
20
0.017539
30
0.939984
70
32
0
VERTEX
100
AcDbEntity
8
1
100
AcDbVertex
100
AcDb3dPolylineVertex
10
410.000000
20
0.009364
30
0.158512
70
32
0
SEQEND
100
AcDbEntity
8
1
0
POLYLINE
100
AcDbEntity
8
1
62
7
100
AcDb3dPolyline
66
1
10
0.000000
20
0.000000
30
0.000000
70
8
0
VERTEX
100
AcDbEntity
8
1
100
AcDbVertex
100
AcDb3dPolylineVertex
10
297.999991
20
0.074236
30
3.224531
70
32
0
VERTEX
100
AcDbEntity
8
1
100
AcDbVertex
100
AcDb3dPolylineVertex
10
325.999986
20
0.094222
30
2.423551
70
32
0
VERTEX
100
AcDbEntity
8
1
100
AcDbVertex
100
AcDb3dPolylineVertex
10
353.999981
20
0.114724
30
1.622995
70
32
0
VERTEX
100
AcDbEntity
8
1
100
AcDbVertex
100
AcDb3dPolylineVertex
10
381.999976
20
0.135700
30
0.822839
70
32
0
VERTEX
100
AcDbEntity
8
1
100
AcDbVertex
100
AcDb3dPolylineVertex
10
409.999970
20
0.157150
30
0.023071
70
32
0
SEQEND
100
AcDbEntity
8
1
0
POLYLINE
100
AcDbEntity
8
1
62
7
100
AcDb3dPolyline
66
1
10
0.000000
20
0.000000
30
0.000000
70
8
0
VERTEX
100
AcDbEntity
8
1
100
AcDbVertex
100
AcDb3dPolylineVertex
10
296.492259
20
29.938944
30
34.996614
70
32
0
VERTEX
100
AcDbEntity
8
1
100
AcDbVertex
100
AcDb3dPolylineVertex
10
324.695549
20
29.134182
30
35.726039
70
32
0
VERTEX
100
AcDbEntity
8
1
100
AcDbVertex
100
AcDb3dPolylineVertex
10
352.864698
20
28.328512
30
36.452943
70
32
0
VERTEX
100
AcDbEntity
8
1
100
AcDbVertex
100
AcDb3dPolylineVertex
10
381.007290
20
27.521714
30
37.177379
70
32
0
VERTEX
100
AcDbEntity
8
1
100
AcDbVertex
100
AcDb3dPolylineVertex
10
409.128821
20
26.713446
30
37.899365
70
32
0
SEQEND
100
AcDbEntity
8
1
0
POLYLINE
100
AcDbEntity
8
1
62
7
100
AcDb3dPolyline
66
1
10
0.000000
20
0.000000
30
0.000000
70
8
0
VERTEX
100
AcDbEntity
8
1
100
AcDbVertex
100
AcDb3dPolylineVertex
10
296.469163
20
30.166792
30
34.838291
70
32
0
VERTEX
100
AcDbEntity
8
1
100
AcDbVertex
100
AcDb3dPolylineVertex
10
324.668622
20
29.432738
30
35.532154
70
32
0
VERTEX
100
AcDbEntity
8
1
100
AcDbVertex
100
AcDb3dPolylineVertex
10
352.834405
20
28.703355
30
36.224900
70
32
0
VERTEX
100
AcDbEntity
8
1
100
AcDbVertex
100
AcDb3dPolylineVertex
10
380.974023
20
27.978459
30
36.916538
70
32
0
VERTEX
100
AcDbEntity
8
1
100
AcDbVertex
100
AcDb3dPolylineVertex
10
409.092908
20
27.257895
30
37.607002
70
32
0
SEQEND
100
AcDbEntity
8
1
0
POLYLINE
100
AcDbEntity
8
1
62
7
100
AcDb3dPolyline
66
1
10
0.000000
20
0.000000
30
0.000000
70
8
0
VERTEX
100
AcDbEntity
8
1
100
AcDbVertex
100
AcDb3dPolylineVertex
10
298.000000
20
0.000000
30
-112.000000
70
32
0
VERTEX
100
AcDbEntity
8
1
100
AcDbVertex
100
AcDb3dPolylineVertex
10
298.000000
20
0.000000
30
0.000000
70
32
0
VERTEX
100
AcDbEntity
8
1
100
AcDbVertex
100
AcDb3dPolylineVertex
10
298.000000
20
0.000000
30
3.216680
70
32
0
VERTEX
100
AcDbEntity
8
1
100
AcDbVertex
100
AcDb3dPolylineVertex
10
298.000000
20
0.000000
30
3.746837
70
32
0
VERTEX
100
AcDbEntity
8
1
100
AcDbVertex
100
AcDb3dPolylineVertex
10
298.000000
20
0.000000
30
4.276994
70
32
0
VERTEX
100
AcDbEntity
8
1
100
AcDbVertex
100
AcDb3dPolylineVertex
10
298.000000
20
0.000000
30
4.807151
70
32
0
VERTEX
100
AcDbEntity
8
1
100
AcDbVertex
100
AcDb3dPolylineVertex
10
298.000000
20
0.000000
30
5.337308
70
32
0
VERTEX
100
AcDbEntity
8
1
100
AcDbVertex
100
AcDb3dPolylineVertex
10
298.000000
20
0.000000
30
5.867465
70
32
0
VERTEX
100
AcDbEntity
8
1
100
AcDbVertex
100
AcDb3dPolylineVertex
10
298.000000
20
0.000000
30
6.397622
70
32
0
VERTEX
100
AcDbEntity
8
1
100
AcDbVertex
100
AcDb3dPolylineVertex
10
298.000000
20
0.000000
30
6.927779
70
32
0
VERTEX
100
AcDbEntity
8
1
100
AcDbVertex
100
AcDb3dPolylineVertex
10
298.000000
20
0.000000
30
7.457936
70
32
0
VERTEX
100
AcDbEntity
8
1
100
AcDbVertex
100
AcDb3dPolylineVertex
10
298.000000
20
0.000000
30
7.988093
70
32
0
VERTEX
100
AcDbEntity
8
1
100
AcDbVertex
100
AcDb3dPolylineVertex
10
298.000000
20
0.000000
30
8.518250
70
32
0
VERTEX
100
AcDbEntity
8
1
100
AcDbVertex
100
AcDb3dPolylineVertex
10
298.000000
20
0.000000
30
9.048407
70
32
0
VERTEX
100
AcDbEntity
8
1
100
AcDbVertex
100
AcDb3dPolylineVertex
10
298.000000
20
0.000000
30
9.578564
70
32
0
VERTEX
100
AcDbEntity
8
1
100
AcDbVertex
100
AcDb3dPolylineVertex
10
298.000000
20
0.000000
30
10.108721
70
32
0
VERTEX
100
AcDbEntity
8
1
100
AcDbVertex
100
AcDb3dPolylineVertex
10
298.000000
20
0.000000
30
10.638878
70
32
0
VERTEX
100
AcDbEntity
8
1
100
AcDbVertex
100
AcDb3dPolylineVertex
10
298.000000
20
0.000000
30
11.169035
70
32
0
VERTEX
100
AcDbEntity
8
1
100
AcDbVertex
100
AcDb3dPolylineVertex
10
298.000000
20
0.000000
30
11.699192
70
32
0
VERTEX
100
AcDbEntity
8
1
100
AcDbVertex
100
AcDb3dPolylineVertex
10
298.000000
20
0.000000
30
12.229349
70
32
0
VERTEX
100
AcDbEntity
8
1
100
AcDbVertex
100
AcDb3dPolylineVertex
10
298.000000
20
0.000000
30
12.759506
70
32
0
VERTEX
100
AcDbEntity
8
1
100
AcDbVertex
100
AcDb3dPolylineVertex
10
298.000000
20
0.000000
30
13.289663
70
32
0
VERTEX
100
AcDbEntity
8
1
100
AcDbVertex
100
AcDb3dPolylineVertex
10
298.000000
20
0.000000
30
13.819820
70
32
0
VERTEX
100
AcDbEntity
8
1
100
AcDbVertex
100
AcDb3dPolylineVertex
10
298.000000
20
0.000000
30
14.349977
70
32
0
VERTEX
100
AcDbEntity
8
1
100
AcDbVertex
100
AcDb3dPolylineVertex
10
298.000000
20
0.000000
30
14.880134
70
32
0
VERTEX
100
AcDbEntity
8
1
100
AcDbVertex
100
AcDb3dPolylineVertex
10
298.000000
20
0.000000
30
15.410291
70
32
0
VERTEX
100
AcDbEntity
8
1
100
AcDbVertex
100
AcDb3dPolylineVertex
10
298.000000
20
0.000000
30
15.940448
70
32
0
VERTEX
100
AcDbEntity
8
1
100
AcDbVertex
100
AcDb3dPolylineVertex
10
298.000000
20
0.000000
30
16.470605
70
32
0
VERTEX
100
AcDbEntity
8
1
100
AcDbVertex
100
AcDb3dPolylineVertex
10
298.000000
20
0.000000
30
17.000762
70
32
0
VERTEX
100
AcDbEntity
8
1
100
AcDbVertex
100
AcDb3dPolylineVertex
10
298.000000
20
0.000000
30
17.530919
70
32
0
VERTEX
100
AcDbEntity
8
1
100
AcDbVertex
100
AcDb3dPolylineVertex
10
298.000000
20
0.000000
30
18.061076
70
32
0
VERTEX
100
AcDbEntity
8
1
100
AcDbVertex
100
AcDb3dPolylineVertex
10
298.000000
20
0.000000
30
18.591233
70
32
0
VERTEX
100
AcDbEntity
8
1
100
AcDbVertex
100
AcDb3dPolylineVertex
10
298.000000
20
0.000000
30
19.121390
70
32
0
VERTEX
100
AcDbEntity
8
1
100
AcDbVertex
100
AcDb3dPolylineVertex
10
298.000000
20
0.000000
30
19.651547
70
32
0
VERTEX
100
AcDbEntity
8
1
100
AcDbVertex
100
AcDb3dPolylineVertex
10
298.000000
20
0.000000
30
20.181704
70
32
0
VERTEX
100
AcDbEntity
8
1
100
AcDbVertex
100
AcDb3dPolylineVertex
10
298.000000
20
0.000000
30
20.711861
70
32
0
VERTEX
100
AcDbEntity
8
1
100
AcDbVertex
100
AcDb3dPolylineVertex
10
298.000000
20
0.000000
30
21.242018
70
32
0
VERTEX
100
AcDbEntity
8
1
100
AcDbVertex
100
AcDb3dPolylineVertex
10
298.000000
20
0.000000
30
21.772175
70
32
0
VERTEX
100
AcDbEntity
8
1
100
AcDbVertex
100
AcDb3dPolylineVertex
10
298.000000
20
0.000000
30
22.302332
70
32
0
VERTEX
100
AcDbEntity
8
1
100
AcDbVertex
100
AcDb3dPolylineVertex
10
298.000000
20
0.000000
30
22.832489
70
32
0
VERTEX
100
AcDbEntity
8
1
100
AcDbVertex
100
AcDb3dPolylineVertex
10
298.000000
20
0.000000
30
23.362646
70
32
0
VERTEX
100
AcDbEntity
8
1
100
AcDbVertex
100
AcDb3dPolylineVertex
10
298.000000
20
0.000000
30
23.892803
70
32
0
VERTEX
100
AcDbEntity
8
1
100
AcDbVertex
100
AcDb3dPolylineVertex
10
298.000000
20
0.000000
30
24.422960
70
32
0
VERTEX
100
AcDbEntity
8
1
100
AcDbVertex
100
AcDb3dPolylineVertex
10
298.000000
20
0.000000
30
24.953117
70
32
0
VERTEX
100
AcDbEntity
8
1
100
AcDbVertex
100
AcDb3dPolylineVertex
10
298.000000
20
0.000000
30
25.483274
70
32
0
VERTEX
100
AcDbEntity
8
1
100
AcDbVertex
100
AcDb3dPolylineVertex
10
298.000000
20
0.000000
30
26.013431
70
32
0
VERTEX
100
AcDbEntity
8
1
100
AcDbVertex
100
AcDb3dPolylineVertex
10
298.000000
20
0.000000
30
26.543588
70
32
0
VERTEX
100
AcDbEntity
8
1
100
AcDbVertex
100
AcDb3dPolylineVertex
10
298.000000
20
0.000000
30
27.073745
70
32
0
VERTEX
100
AcDbEntity
8
1
100
AcDbVertex
100
AcDb3dPolylineVertex
10
298.000000
20
0.000000
30
27.603902
70
32
0
VERTEX
100
AcDbEntity
8
1
100
AcDbVertex
100
AcDb3dPolylineVertex
10
298.000000
20
0.000000
30
28.134059
70
32
0
VERTEX
100
AcDbEntity
8
1
100
AcDbVertex
100
AcDb3dPolylineVertex
10
298.000000
20
0.000000
30
28.664216
70
32
0
VERTEX
100
AcDbEntity
8
1
100
AcDbVertex
100
AcDb3dPolylineVertex
10
298.000000
20
0.000000
30
29.194373
70
32
0
VERTEX
100
AcDbEntity
8
1
100
AcDbVertex
100
AcDb3dPolylineVertex
10
298.000000
20
0.000000
30
29.724530
70
32
0
VERTEX
100
AcDbEntity
8
1
100
AcDbVertex
100
AcDb3dPolylineVertex
10
298.000000
20
0.000000
30
30.254687
70
32
0
VERTEX
100
AcDbEntity
8
1
100
AcDbVertex
100
AcDb3dPolylineVertex
10
298.000000
20
0.000000
30
30.784844
70
32
0
VERTEX
100
AcDbEntity
8
1
100
AcDbVertex
100
AcDb3dPolylineVertex
10
298.000000
20
0.000000
30
31.315001
70
32
0
VERTEX
100
AcDbEntity
8
1
100
AcDbVertex
100
AcDb3dPolylineVertex
10
298.000000
20
0.000000
30
31.845158
70
32
0
VERTEX
100
AcDbEntity
8
1
100
AcDbVertex
100
AcDb3dPolylineVertex
10
298.000000
20
0.000000
30
32.375315
70
32
0
VERTEX
100
AcDbEntity
8
1
100
AcDbVertex
100
AcDb3dPolylineVertex
10
298.000000
20
0.000000
30
32.905472
70
32
0
VERTEX
100
AcDbEntity
8
1
100
AcDbVertex
100
AcDb3dPolylineVertex
10
298.000000
20
0.000000
30
33.435629
70
32
0
VERTEX
100
AcDbEntity
8
1
100
AcDbVertex
100
AcDb3dPolylineVertex
10
298.000000
20
0.000000
30
33.965786
70
32
0
VERTEX
100
AcDbEntity
8
1
100
AcDbVertex
100
AcDb3dPolylineVertex
10
298.000000
20
0.000000
30
34.495943
70
32
0
VERTEX
100
AcDbEntity
8
1
100
AcDbVertex
100
AcDb3dPolylineVertex
10
298.000000
20
0.000000
30
35.026100
70
32
0
VERTEX
100
AcDbEntity
8
1
100
AcDbVertex
100
AcDb3dPolylineVertex
10
298.000000
20
0.000000
30
38.000000
70
32
0
VERTEX
100
AcDbEntity
8
1
100
AcDbVertex
100
AcDb3dPolylineVertex
10
298.000000
20
0.000000
30
150.000000
70
32
0
SEQEND
100
AcDbEntity
8
1
0
POLYLINE
100
AcDbEntity
8
1
62
7
100
AcDb3dPolyline
66
1
10
0.000000
20
0.000000
30
0.000000
70
8
0
VERTEX
100
AcDbEntity
8
1
100
AcDbVertex
100
AcDb3dPolylineVertex
10
410.000000
20
0.000000
30
-112.000000
70
32
0
VERTEX
100
AcDbEntity
8
1
100
AcDbVertex
100
AcDb3dPolylineVertex
10
410.000000
20
0.000000
30
0.000000
70
32
0
VERTEX
100
AcDbEntity
8
1
100
AcDbVertex
100
AcDb3dPolylineVertex
10
410.000000
20
0.000000
30
0.633333
70
32
0
VERTEX
100
AcDbEntity
8
1
100
AcDbVertex
100
AcDb3dPolylineVertex
10
410.000000
20
0.000000
30
1.266667
70
32
0
VERTEX
100
AcDbEntity
8
1
100
AcDbVertex
100
AcDb3dPolylineVertex
10
410.000000
20
0.000000
30
1.900000
70
32
0
VERTEX
100
AcDbEntity
8
1
100
AcDbVertex
100
AcDb3dPolylineVertex
10
410.000000
20
0.000000
30
2.533333
70
32
0
VERTEX
100
AcDbEntity
8
1
100
AcDbVertex
100
AcDb3dPolylineVertex
10
410.000000
20
0.000000
30
3.166667
70
32
0
VERTEX
100
AcDbEntity
8
1
100
AcDbVertex
100
AcDb3dPolylineVertex
10
410.000000
20
0.000000
30
3.800000
70
32
0
VERTEX
100
AcDbEntity
8
1
100
AcDbVertex
100
AcDb3dPolylineVertex
10
410.000000
20
0.000000
30
4.433333
70
32
0
VERTEX
100
AcDbEntity
8
1
100
AcDbVertex
100
AcDb3dPolylineVertex
10
410.000000
20
0.000000
30
5.066667
70
32
0
VERTEX
100
AcDbEntity
8
1
100
AcDbVertex
100
AcDb3dPolylineVertex
10
410.000000
20
0.000000
30
5.700000
70
32
0
VERTEX
100
AcDbEntity
8
1
100
AcDbVertex
100
AcDb3dPolylineVertex
10
410.000000
20
0.000000
30
6.333333
70
32
0
VERTEX
100
AcDbEntity
8
1
100
AcDbVertex
100
AcDb3dPolylineVertex
10
410.000000
20
0.000000
30
6.966667
70
32
0
VERTEX
100
AcDbEntity
8
1
100
AcDbVertex
100
AcDb3dPolylineVertex
10
410.000000
20
0.000000
30
7.600000
70
32
0
VERTEX
100
AcDbEntity
8
1
100
AcDbVertex
100
AcDb3dPolylineVertex
10
410.000000
20
0.000000
30
8.233333
70
32
0
VERTEX
100
AcDbEntity
8
1
100
AcDbVertex
100
AcDb3dPolylineVertex
10
410.000000
20
0.000000
30
8.866667
70
32
0
VERTEX
100
AcDbEntity
8
1
100
AcDbVertex
100
AcDb3dPolylineVertex
10
410.000000
20
0.000000
30
9.500000
70
32
0
VERTEX
100
AcDbEntity
8
1
100
AcDbVertex
100
AcDb3dPolylineVertex
10
410.000000
20
0.000000
30
10.133333
70
32
0
VERTEX
100
AcDbEntity
8
1
100
AcDbVertex
100
AcDb3dPolylineVertex
10
410.000000
20
0.000000
30
10.766667
70
32
0
VERTEX
100
AcDbEntity
8
1
100
AcDbVertex
100
AcDb3dPolylineVertex
10
410.000000
20
0.000000
30
11.400000
70
32
0
VERTEX
100
AcDbEntity
8
1
100
AcDbVertex
100
AcDb3dPolylineVertex
10
410.000000
20
0.000000
30
12.033333
70
32
0
VERTEX
100
AcDbEntity
8
1
100
AcDbVertex
100
AcDb3dPolylineVertex
10
410.000000
20
0.000000
30
12.666667
70
32
0
VERTEX
100
AcDbEntity
8
1
100
AcDbVertex
100
AcDb3dPolylineVertex
10
410.000000
20
0.000000
30
13.300000
70
32
0
VERTEX
100
AcDbEntity
8
1
100
AcDbVertex
100
AcDb3dPolylineVertex
10
410.000000
20
0.000000
30
13.933333
70
32
0
VERTEX
100
AcDbEntity
8
1
100
AcDbVertex
100
AcDb3dPolylineVertex
10
410.000000
20
0.000000
30
14.566667
70
32
0
VERTEX
100
AcDbEntity
8
1
100
AcDbVertex
100
AcDb3dPolylineVertex
10
410.000000
20
0.000000
30
15.200000
70
32
0
VERTEX
100
AcDbEntity
8
1
100
AcDbVertex
100
AcDb3dPolylineVertex
10
410.000000
20
0.000000
30
15.833333
70
32
0
VERTEX
100
AcDbEntity
8
1
100
AcDbVertex
100
AcDb3dPolylineVertex
10
410.000000
20
0.000000
30
16.466667
70
32
0
VERTEX
100
AcDbEntity
8
1
100
AcDbVertex
100
AcDb3dPolylineVertex
10
410.000000
20
0.000000
30
17.100000
70
32
0
VERTEX
100
AcDbEntity
8
1
100
AcDbVertex
100
AcDb3dPolylineVertex
10
410.000000
20
0.000000
30
17.733333
70
32
0
VERTEX
100
AcDbEntity
8
1
100
AcDbVertex
100
AcDb3dPolylineVertex
10
410.000000
20
0.000000
30
18.366667
70
32
0
VERTEX
100
AcDbEntity
8
1
100
AcDbVertex
100
AcDb3dPolylineVertex
10
410.000000
20
0.000000
30
19.000000
70
32
0
VERTEX
100
AcDbEntity
8
1
100
AcDbVertex
100
AcDb3dPolylineVertex
10
410.000000
20
0.000000
30
19.633333
70
32
0
VERTEX
100
AcDbEntity
8
1
100
AcDbVertex
100
AcDb3dPolylineVertex
10
410.000000
20
0.000000
30
20.266667
70
32
0
VERTEX
100
AcDbEntity
8
1
100
AcDbVertex
100
AcDb3dPolylineVertex
10
410.000000
20
0.000000
30
20.900000
70
32
0
VERTEX
100
AcDbEntity
8
1
100
AcDbVertex
100
AcDb3dPolylineVertex
10
410.000000
20
0.000000
30
21.533333
70
32
0
VERTEX
100
AcDbEntity
8
1
100
AcDbVertex
100
AcDb3dPolylineVertex
10
410.000000
20
0.000000
30
22.166667
70
32
0
VERTEX
100
AcDbEntity
8
1
100
AcDbVertex
100
AcDb3dPolylineVertex
10
410.000000
20
0.000000
30
22.800000
70
32
0
VERTEX
100
AcDbEntity
8
1
100
AcDbVertex
100
AcDb3dPolylineVertex
10
410.000000
20
0.000000
30
23.433333
70
32
0
VERTEX
100
AcDbEntity
8
1
100
AcDbVertex
100
AcDb3dPolylineVertex
10
410.000000
20
0.000000
30
24.066667
70
32
0
VERTEX
100
AcDbEntity
8
1
100
AcDbVertex
100
AcDb3dPolylineVertex
10
410.000000
20
0.000000
30
24.700000
70
32
0
VERTEX
100
AcDbEntity
8
1
100
AcDbVertex
100
AcDb3dPolylineVertex
10
410.000000
20
0.000000
30
25.333333
70
32
0
VERTEX
100
AcDbEntity
8
1
100
AcDbVertex
100
AcDb3dPolylineVertex
10
410.000000
20
0.000000
30
25.966667
70
32
0
VERTEX
100
AcDbEntity
8
1
100
AcDbVertex
100
AcDb3dPolylineVertex
10
410.000000
20
0.000000
30
26.600000
70
32
0
VERTEX
100
AcDbEntity
8
1
100
AcDbVertex
100
AcDb3dPolylineVertex
10
410.000000
20
0.000000
30
27.233333
70
32
0
VERTEX
100
AcDbEntity
8
1
100
AcDbVertex
100
AcDb3dPolylineVertex
10
410.000000
20
0.000000
30
27.866667
70
32
0
VERTEX
100
AcDbEntity
8
1
100
AcDbVertex
100
AcDb3dPolylineVertex
10
410.000000
20
0.000000
30
28.500000
70
32
0
VERTEX
100
AcDbEntity
8
1
100
AcDbVertex
100
AcDb3dPolylineVertex
10
410.000000
20
0.000000
30
29.133333
70
32
0
VERTEX
100
AcDbEntity
8
1
100
AcDbVertex
100
AcDb3dPolylineVertex
10
410.000000
20
0.000000
30
29.766667
70
32
0
VERTEX
100
AcDbEntity
8
1
100
AcDbVertex
100
AcDb3dPolylineVertex
10
410.000000
20
0.000000
30
30.400000
70
32
0
VERTEX
100
AcDbEntity
8
1
100
AcDbVertex
100
AcDb3dPolylineVertex
10
410.000000
20
0.000000
30
31.033333
70
32
0
VERTEX
100
AcDbEntity
8
1
100
AcDbVertex
100
AcDb3dPolylineVertex
10
410.000000
20
0.000000
30
31.666667
70
32
0
VERTEX
100
AcDbEntity
8
1
100
AcDbVertex
100
AcDb3dPolylineVertex
10
410.000000
20
0.000000
30
32.300000
70
32
0
VERTEX
100
AcDbEntity
8
1
100
AcDbVertex
100
AcDb3dPolylineVertex
10
410.000000
20
0.000000
30
32.933333
70
32
0
VERTEX
100
AcDbEntity
8
1
100
AcDbVertex
100
AcDb3dPolylineVertex
10
410.000000
20
0.000000
30
33.566667
70
32
0
VERTEX
100
AcDbEntity
8
1
100
AcDbVertex
100
AcDb3dPolylineVertex
10
410.000000
20
0.000000
30
34.200000
70
32
0
VERTEX
100
AcDbEntity
8
1
100
AcDbVertex
100
AcDb3dPolylineVertex
10
410.000000
20
0.000000
30
34.833333
70
32
0
VERTEX
100
AcDbEntity
8
1
100
AcDbVertex
100
AcDb3dPolylineVertex
10
410.000000
20
0.000000
30
35.466667
70
32
0
VERTEX
100
AcDbEntity
8
1
100
AcDbVertex
100
AcDb3dPolylineVertex
10
410.000000
20
0.000000
30
36.100000
70
32
0
VERTEX
100
AcDbEntity
8
1
100
AcDbVertex
100
AcDb3dPolylineVertex
10
410.000000
20
0.000000
30
36.733333
70
32
0
VERTEX
100
AcDbEntity
8
1
100
AcDbVertex
100
AcDb3dPolylineVertex
10
410.000000
20
0.000000
30
37.366667
70
32
0
VERTEX
100
AcDbEntity
8
1
100
AcDbVertex
100
AcDb3dPolylineVertex
10
410.000000
20
0.000000
30
38.000000
70
32
0
VERTEX
100
AcDbEntity
8
1
100
AcDbVertex
100
AcDb3dPolylineVertex
10
410.000000
20
0.000000
30
150.000000
70
32
0
SEQEND
100
AcDbEntity
8
1
0
ENDSEC
0
EOF

