0
SECTION
2
HEADER
9
$ACADVER
1
AC1009
9
$EXTMIN
10
0.000000
20
0.000000
30
-51.000000
9
$EXTMAX
10
379.000000
20
379.000000
30
71.000000
0
ENDSEC
0
SECTION
2
ENTITIES
0
POLYLINE
100
AcDbEntity
8
1
62
4
100
AcDb3dPolyline
66
1
10
0.000000
20
0.000000
30
0.000000
70
8
0
VERTEX
100
AcDbEntity
8
1
100
AcDbVertex
100
AcDb3dPolylineVertex
10
328.000111
20
-0.105533
30
-0.002693
70
32
0
VERTEX
100
AcDbEntity
8
1
100
AcDbVertex
100
AcDb3dPolylineVertex
10
328.000400
20
-0.090222
30
-0.008671
70
32
0
VERTEX
100
AcDbEntity
8
1
100
AcDbVertex
100
AcDb3dPolylineVertex
10
328.000618
20
-0.075329
30
-0.013153
70
32
0
VERTEX
100
AcDbEntity
8
1
100
AcDbVertex
100
AcDb3dPolylineVertex
10
328.000760
20
-0.061078
30
-0.016072
70
32
0
VERTEX
100
AcDbEntity
8
1
100
AcDbVertex
100
AcDb3dPolylineVertex
10
328.000824
20
-0.047683
30
-0.017383
70
32
0
VERTEX
100
AcDbEntity
8
1
100
AcDbVertex
100
AcDb3dPolylineVertex
10
328.000811
20
-0.035346
30
-0.017068
70
32
0
VERTEX
100
AcDbEntity
8
1
100
AcDbVertex
100
AcDb3dPolylineVertex
10
328.000720
20
-0.024253
30
-0.015131
70
32
0
VERTEX
100
AcDbEntity
8
1
100
AcDbVertex
100
AcDb3dPolylineVertex
10
328.000552
20
-0.014572
30
-0.011602
70
32
0
VERTEX
100
AcDbEntity
8
1
100
AcDbVertex
100
AcDb3dPolylineVertex
10
328.000311
20
-0.006446
30
-0.006532
70
32
0
VERTEX
100
AcDbEntity
8
1
100
AcDbVertex
100
AcDb3dPolylineVertex
10
328.000000
20
-0.000000
30
0.000000
70
32
0
VERTEX
100
AcDbEntity
8
1
100
AcDbVertex
100
AcDb3dPolylineVertex
10
327.999624
20
0.004671
30
0.007897
70
32
0
VERTEX
100
AcDbEntity
8
1
100
AcDbVertex
100
AcDb3dPolylineVertex
10
327.999188
20
0.007497
30
0.017040
70
32
0
VERTEX
100
AcDbEntity
8
1
100
AcDbVertex
100
AcDb3dPolylineVertex
10
327.998700
20
0.008435
30
0.027292
70
32
0
VERTEX
100
AcDbEntity
8
1
100
AcDbVertex
100
AcDb3dPolylineVertex
10
327.998167
20
0.007473
30
0.038497
70
32
0
VERTEX
100
AcDbEntity
8
1
100
AcDbVertex
100
AcDb3dPolylineVertex
10
327.997596
20
0.004624
30
0.050488
70
32
0
VERTEX
100
AcDbEntity
8
1
100
AcDbVertex
100
AcDb3dPolylineVertex
10
327.996996
20
-0.000067
30
0.063084
70
32
0
VERTEX
100
AcDbEntity
8
1
100
AcDbVertex
100
AcDb3dPolylineVertex
10
327.996376
20
-0.006529
30
0.076096
70
32
0
VERTEX
100
AcDbEntity
8
1
100
AcDbVertex
100
AcDb3dPolylineVertex
10
327.995746
20
-0.014665
30
0.089328
70
32
0
VERTEX
100
AcDbEntity
8
1
100
AcDbVertex
100
AcDb3dPolylineVertex
10
327.995114
20
-0.024353
30
0.102581
70
32
0
SEQEND
100
AcDbEntity
8
1
0
POLYLINE
100
AcDbEntity
8
1
62
3
100
AcDb3dPolyline
66
1
10
0.000000
20
0.000000
30
0.000000
70
8
0
VERTEX
100
AcDbEntity
8
1
100
AcDbVertex
100
AcDb3dPolylineVertex
10
327.995114
20
-0.024353
30
0.102581
70
32
0
VERTEX
100
AcDbEntity
8
1
100
AcDbVertex
100
AcDb3dPolylineVertex
10
327.990797
20
-0.095714
30
0.192966
70
32
0
VERTEX
100
AcDbEntity
8
1
100
AcDbVertex
100
AcDb3dPolylineVertex
10
327.983418
20
-0.217406
30
0.346710
70
32
0
VERTEX
100
AcDbEntity
8
1
100
AcDbVertex
100
AcDb3dPolylineVertex
10
327.972979
20
-0.388942
30
0.562592
70
32
0
VERTEX
100
AcDbEntity
8
1
100
AcDbVertex
100
AcDb3dPolylineVertex
10
327.959507
20
-0.610072
30
0.838428
70
32
0
VERTEX
100
AcDbEntity
8
1
100
AcDbVertex
100
AcDb3dPolylineVertex
10
327.943121
20
-0.881954
30
1.169549
70
32
0
VERTEX
100
AcDbEntity
8
1
100
AcDbVertex
100
AcDb3dPolylineVertex
10
327.924021
20
-1.207156
30
1.548898
70
32
0
VERTEX
100
AcDbEntity
8
1
100
AcDbVertex
100
AcDb3dPolylineVertex
10
327.902199
20
-1.584708
30
1.973399
70
32
0
VERTEX
100
AcDbEntity
8
1
100
AcDbVertex
100
AcDb3dPolylineVertex
10
327.877517
20
-2.011085
30
2.442633
70
32
0
VERTEX
100
AcDbEntity
8
1
100
AcDbVertex
100
AcDb3dPolylineVertex
10
327.850065
20
-2.486790
30
2.950588
70
32
0
VERTEX
100
AcDbEntity
8
1
100
AcDbVertex
100
AcDb3dPolylineVertex
10
327.819877
20
-3.011298
30
3.492145
70
32
0
VERTEX
100
AcDbEntity
8
1
100
AcDbVertex
100
AcDb3dPolylineVertex
10
327.786782
20
-3.579782
30
4.067092
70
32
0
VERTEX
100
AcDbEntity
8
1
100
AcDbVertex
100
AcDb3dPolylineVertex
10
327.750887
20
-4.192794
30
4.668202
70
32
0
VERTEX
100
AcDbEntity
8
1
100
AcDbVertex
100
AcDb3dPolylineVertex
10
327.712178
20
-4.848290
30
5.291171
70
32
0
VERTEX
100
AcDbEntity
8
1
100
AcDbVertex
100
AcDb3dPolylineVertex
10
327.670389
20
-5.537659
30
5.939229
70
32
0
VERTEX
100
AcDbEntity
8
1
100
AcDbVertex
100
AcDb3dPolylineVertex
10
327.625798
20
-6.264610
30
6.600594
70
32
0
VERTEX
100
AcDbEntity
8
1
100
AcDbVertex
100
AcDb3dPolylineVertex
10
327.578099
20
-7.017226
30
7.281749
70
32
0
VERTEX
100
AcDbEntity
8
1
100
AcDbVertex
100
AcDb3dPolylineVertex
10
327.527520
20
-7.796592
30
7.973622
70
32
0
VERTEX
100
AcDbEntity
8
1
100
AcDbVertex
100
AcDb3dPolylineVertex
10
327.473999
20
-8.594012
30
8.678299
70
32
0
VERTEX
100
AcDbEntity
8
1
100
AcDbVertex
100
AcDb3dPolylineVertex
10
327.417656
20
-9.404223
30
9.393630
70
32
0
VERTEX
100
AcDbEntity
8
1
100
AcDbVertex
100
AcDb3dPolylineVertex
10
327.358737
20
-10.225079
30
10.113842
70
32
0
VERTEX
100
AcDbEntity
8
1
100
AcDbVertex
100
AcDb3dPolylineVertex
10
327.297390
20
-11.048099
30
10.840104
70
32
0
VERTEX
100
AcDbEntity
8
1
100
AcDbVertex
100
AcDb3dPolylineVertex
10
327.234008
20
-11.874347
30
11.563036
70
32
0
VERTEX
100
AcDbEntity
8
1
100
AcDbVertex
100
AcDb3dPolylineVertex
10
327.168820
20
-12.693416
30
12.285731
70
32
0
VERTEX
100
AcDbEntity
8
1
100
AcDbVertex
100
AcDb3dPolylineVertex
10
327.102289
20
-13.507901
30
12.997347
70
32
0
VERTEX
100
AcDbEntity
8
1
100
AcDbVertex
100
AcDb3dPolylineVertex
10
327.034751
20
-14.305989
30
13.702384
70
32
0
VERTEX
100
AcDbEntity
8
1
100
AcDbVertex
100
AcDb3dPolylineVertex
10
326.966711
20
-15.091995
30
14.388556
70
32
0
VERTEX
100
AcDbEntity
8
1
100
AcDbVertex
100
AcDb3dPolylineVertex
10
326.898612
20
-15.853632
30
15.060902
70
32
0
VERTEX
100
AcDbEntity
8
1
100
AcDbVertex
100
AcDb3dPolylineVertex
10
326.830972
20
-16.593517
30
15.709356
70
32
0
VERTEX
100
AcDbEntity
8
1
100
AcDbVertex
100
AcDb3dPolylineVertex
10
326.764322
20
-17.303008
30
16.335466
70
32
0
VERTEX
100
AcDbEntity
8
1
100
AcDbVertex
100
AcDb3dPolylineVertex
10
326.699200
20
-17.980682
30
16.933756
70
32
0
VERTEX
100
AcDbEntity
8
1
100
AcDbVertex
100
AcDb3dPolylineVertex
10
326.636143
20
-18.623787
30
17.500403
70
32
0
VERTEX
100
AcDbEntity
8
1
100
AcDbVertex
100
AcDb3dPolylineVertex
10
326.575738
20
-19.225590
30
18.035718
70
32
0
VERTEX
100
AcDbEntity
8
1
100
AcDbVertex
100
AcDb3dPolylineVertex
10
326.518473
20
-19.787465
30
18.532553
70
32
0
VERTEX
100
AcDbEntity
8
1
100
AcDbVertex
100
AcDb3dPolylineVertex
10
326.464905
20
-20.303960
30
18.990689
70
32
0
VERTEX
100
AcDbEntity
8
1
100
AcDbVertex
100
AcDb3dPolylineVertex
10
326.415563
20
-20.771146
30
19.408807
70
32
0
VERTEX
100
AcDbEntity
8
1
100
AcDbVertex
100
AcDb3dPolylineVertex
10
326.370871
20
-21.189320
30
19.782079
70
32
0
VERTEX
100
AcDbEntity
8
1
100
AcDbVertex
100
AcDb3dPolylineVertex
10
326.331261
20
-21.556308
30
20.108481
70
32
0
VERTEX
100
AcDbEntity
8
1
100
AcDbVertex
100
AcDb3dPolylineVertex
10
326.297155
20
-21.868648
30
20.387646
70
32
0
VERTEX
100
AcDbEntity
8
1
100
AcDbVertex
100
AcDb3dPolylineVertex
10
326.268892
20
-22.124942
30
20.617804
70
32
0
VERTEX
100
AcDbEntity
8
1
100
AcDbVertex
100
AcDb3dPolylineVertex
10
326.246750
20
-22.324179
30
20.797370
70
32
0
VERTEX
100
AcDbEntity
8
1
100
AcDbVertex
100
AcDb3dPolylineVertex
10
326.230947
20
-22.465546
30
20.925133
70
32
0
VERTEX
100
AcDbEntity
8
1
100
AcDbVertex
100
AcDb3dPolylineVertex
10
326.221644
20
-22.548456
30
21.000202
70
32
0
SEQEND
100
AcDbEntity
8
1
0
POLYLINE
100
AcDbEntity
8
1
62
2
100
AcDb3dPolyline
66
1
10
0.000000
20
0.000000
30
0.000000
70
8
0
VERTEX
100
AcDbEntity
8
1
100
AcDbVertex
100
AcDb3dPolylineVertex
10
326.221644
20
-22.548456
30
21.000202
70
32
0
VERTEX
100
AcDbEntity
8
1
100
AcDbVertex
100
AcDb3dPolylineVertex
10
326.218824
20
-22.575114
30
21.020644
70
32
0
VERTEX
100
AcDbEntity
8
1
100
AcDbVertex
100
AcDb3dPolylineVertex
10
326.216017
20
-22.604751
30
21.036463
70
32
0
VERTEX
100
AcDbEntity
8
1
100
AcDbVertex
100
AcDb3dPolylineVertex
10
326.213295
20
-22.636582
30
21.047240
70
32
0
VERTEX
100
AcDbEntity
8
1
100
AcDbVertex
100
AcDb3dPolylineVertex
10
326.210731
20
-22.669763
30
21.052688
70
32
0
VERTEX
100
AcDbEntity
8
1
100
AcDbVertex
100
AcDb3dPolylineVertex
10
326.208392
20
-22.703415
30
21.052664
70
32
0
VERTEX
100
AcDbEntity
8
1
100
AcDbVertex
100
AcDb3dPolylineVertex
10
326.206340
20
-22.736643
30
21.047169
70
32
0
VERTEX
100
AcDbEntity
8
1
100
AcDbVertex
100
AcDb3dPolylineVertex
10
326.204630
20
-22.768565
30
21.036346
70
32
0
VERTEX
100
AcDbEntity
8
1
100
AcDbVertex
100
AcDb3dPolylineVertex
10
326.203308
20
-22.798332
30
21.020484
70
32
0
VERTEX
100
AcDbEntity
8
1
100
AcDbVertex
100
AcDb3dPolylineVertex
10
326.202410
20
-22.825150
30
21.000000
70
32
0
VERTEX
100
AcDbEntity
8
1
100
AcDbVertex
100
AcDb3dPolylineVertex
10
326.201962
20
-22.848303
30
20.975438
70
32
0
VERTEX
100
AcDbEntity
8
1
100
AcDbVertex
100
AcDb3dPolylineVertex
10
326.201976
20
-22.867174
30
20.947449
70
32
0
VERTEX
100
AcDbEntity
8
1
100
AcDbVertex
100
AcDb3dPolylineVertex
10
326.202452
20
-22.881257
30
20.916775
70
32
0
VERTEX
100
AcDbEntity
8
1
100
AcDbVertex
100
AcDb3dPolylineVertex
10
326.203380
20
-22.890173
30
20.884231
70
32
0
VERTEX
100
AcDbEntity
8
1
100
AcDbVertex
100
AcDb3dPolylineVertex
10
326.204736
20
-22.893683
30
20.850682
70
32
0
VERTEX
100
AcDbEntity
8
1
100
AcDbVertex
100
AcDb3dPolylineVertex
10
326.206482
20
-22.891689
30
20.817019
70
32
0
VERTEX
100
AcDbEntity
8
1
100
AcDbVertex
100
AcDb3dPolylineVertex
10
326.208574
20
-22.884244
30
20.784140
70
32
0
VERTEX
100
AcDbEntity
8
1
100
AcDbVertex
100
AcDb3dPolylineVertex
10
326.210955
20
-22.871545
30
20.752921
70
32
0
VERTEX
100
AcDbEntity
8
1
100
AcDbVertex
100
AcDb3dPolylineVertex
10
326.213561
20
-22.853930
30
20.724195
70
32
0
SEQEND
100
AcDbEntity
8
1
0
POLYLINE
100
AcDbEntity
8
1
62
1
100
AcDb3dPolyline
66
1
10
0.000000
20
0.000000
30
0.000000
70
8
0
VERTEX
100
AcDbEntity
8
1
100
AcDbVertex
100
AcDb3dPolylineVertex
10
326.213561
20
-22.853930
30
20.724195
70
32
0
VERTEX
100
AcDbEntity
8
1
100
AcDbVertex
100
AcDb3dPolylineVertex
10
326.222519
20
-22.787625
30
20.633706
70
32
0
VERTEX
100
AcDbEntity
8
1
100
AcDbVertex
100
AcDb3dPolylineVertex
10
326.237757
20
-22.674477
30
20.479638
70
32
0
VERTEX
100
AcDbEntity
8
1
100
AcDbVertex
100
AcDb3dPolylineVertex
10
326.259157
20
-22.514811
30
20.262974
70
32
0
VERTEX
100
AcDbEntity
8
1
100
AcDbVertex
100
AcDb3dPolylineVertex
10
326.286555
20
-22.309058
30
19.985069
70
32
0
VERTEX
100
AcDbEntity
8
1
100
AcDbVertex
100
AcDb3dPolylineVertex
10
326.319741
20
-22.057834
30
19.647610
70
32
0
VERTEX
100
AcDbEntity
8
1
100
AcDbVertex
100
AcDb3dPolylineVertex
10
326.358463
20
-21.761752
30
19.252786
70
32
0
VERTEX
100
AcDbEntity
8
1
100
AcDbVertex
100
AcDb3dPolylineVertex
10
326.402464
20
-21.419761
30
18.804832
70
32
0
VERTEX
100
AcDbEntity
8
1
100
AcDbVertex
100
AcDb3dPolylineVertex
10
326.451405
20
-21.032515
30
18.306930
70
32
0
VERTEX
100
AcDbEntity
8
1
100
AcDbVertex
100
AcDb3dPolylineVertex
10
326.504854
20
-20.603561
30
17.760012
70
32
0
VERTEX
100
AcDbEntity
8
1
100
AcDbVertex
100
AcDb3dPolylineVertex
10
326.562424
20
-20.132654
30
17.169025
70
32
0
VERTEX
100
AcDbEntity
8
1
100
AcDbVertex
100
AcDb3dPolylineVertex
10
326.623703
20
-19.618471
30
16.540466
70
32
0
VERTEX
100
AcDbEntity
8
1
100
AcDbVertex
100
AcDb3dPolylineVertex
10
326.688138
20
-19.066963
30
15.874295
70
32
0
VERTEX
100
AcDbEntity
8
1
100
AcDbVertex
100
AcDb3dPolylineVertex
10
326.755266
20
-18.476425
30
15.178260
70
32
0
VERTEX
100
AcDbEntity
8
1
100
AcDbVertex
100
AcDb3dPolylineVertex
10
326.824541
20
-17.849583
30
14.456252
70
32
0
VERTEX
100
AcDbEntity
8
1
100
AcDbVertex
100
AcDb3dPolylineVertex
10
326.895398
20
-17.190937
30
13.710712
70
32
0
VERTEX
100
AcDbEntity
8
1
100
AcDbVertex
100
AcDb3dPolylineVertex
10
326.967303
20
-16.498201
30
12.951256
70
32
0
VERTEX
100
AcDbEntity
8
1
100
AcDbVertex
100
AcDb3dPolylineVertex
10
327.039676
20
-15.780761
30
12.175971
70
32
0
VERTEX
100
AcDbEntity
8
1
100
AcDbVertex
100
AcDb3dPolylineVertex
10
327.111960
20
-15.033499
30
11.398079
70
32
0
VERTEX
100
AcDbEntity
8
1
100
AcDbVertex
100
AcDb3dPolylineVertex
10
327.183631
20
-14.268262
30
10.613448
70
32
0
VERTEX
100
AcDbEntity
8
1
100
AcDbVertex
100
AcDb3dPolylineVertex
10
327.254127
20
-13.481105
30
9.834652
70
32
0
VERTEX
100
AcDbEntity
8
1
100
AcDbVertex
100
AcDb3dPolylineVertex
10
327.323011
20
-12.682781
30
9.058794
70
32
0
VERTEX
100
AcDbEntity
8
1
100
AcDbVertex
100
AcDb3dPolylineVertex
10
327.389759
20
-11.871302
30
8.296732
70
32
0
VERTEX
100
AcDbEntity
8
1
100
AcDbVertex
100
AcDb3dPolylineVertex
10
327.454033
20
-11.056343
30
7.546639
70
32
0
VERTEX
100
AcDbEntity
8
1
100
AcDbVertex
100
AcDb3dPolylineVertex
10
327.515397
20
-10.238193
30
6.816986
70
32
0
VERTEX
100
AcDbEntity
8
1
100
AcDbVertex
100
AcDb3dPolylineVertex
10
327.573575
20
-9.423567
30
6.109012
70
32
0
VERTEX
100
AcDbEntity
8
1
100
AcDbVertex
100
AcDb3dPolylineVertex
10
327.628283
20
-8.616097
30
5.427270
70
32
0
VERTEX
100
AcDbEntity
8
1
100
AcDbVertex
100
AcDb3dPolylineVertex
10
327.679169
20
-7.815963
30
4.780217
70
32
0
VERTEX
100
AcDbEntity
8
1
100
AcDbVertex
100
AcDb3dPolylineVertex
10
327.726220
20
-7.033034
30
4.164795
70
32
0
VERTEX
100
AcDbEntity
8
1
100
AcDbVertex
100
AcDb3dPolylineVertex
10
327.769047
20
-6.264028
30
3.593137
70
32
0
VERTEX
100
AcDbEntity
8
1
100
AcDbVertex
100
AcDb3dPolylineVertex
10
327.807855
20
-5.521078
30
3.058737
70
32
0
VERTEX
100
AcDbEntity
8
1
100
AcDbVertex
100
AcDb3dPolylineVertex
10
327.842441
20
-4.803720
30
2.569718
70
32
0
VERTEX
100
AcDbEntity
8
1
100
AcDbVertex
100
AcDb3dPolylineVertex
10
327.872893
20
-4.117723
30
2.126280
70
32
0
VERTEX
100
AcDbEntity
8
1
100
AcDbVertex
100
AcDb3dPolylineVertex
10
327.899471
20
-3.471057
30
1.725320
70
32
0
VERTEX
100
AcDbEntity
8
1
100
AcDbVertex
100
AcDb3dPolylineVertex
10
327.922222
20
-2.865865
30
1.370358
70
32
0
VERTEX
100
AcDbEntity
8
1
100
AcDbVertex
100
AcDb3dPolylineVertex
10
327.941419
20
-2.308088
30
1.059629
70
32
0
VERTEX
100
AcDbEntity
8
1
100
AcDbVertex
100
AcDb3dPolylineVertex
10
327.957414
20
-1.804147
30
0.790097
70
32
0
VERTEX
100
AcDbEntity
8
1
100
AcDbVertex
100
AcDb3dPolylineVertex
10
327.970343
20
-1.355835
30
0.563948
70
32
0
VERTEX
100
AcDbEntity
8
1
100
AcDbVertex
100
AcDb3dPolylineVertex
10
327.980463
20
-0.966866
30
0.380348
70
32
0
VERTEX
100
AcDbEntity
8
1
100
AcDbVertex
100
AcDb3dPolylineVertex
10
327.988220
20
-0.643825
30
0.234112
70
32
0
VERTEX
100
AcDbEntity
8
1
100
AcDbVertex
100
AcDb3dPolylineVertex
10
327.993953
20
-0.391187
30
0.122092
70
32
0
VERTEX
100
AcDbEntity
8
1
100
AcDbVertex
100
AcDb3dPolylineVertex
10
327.997871
20
-0.211287
30
0.043274
70
32
0
VERTEX
100
AcDbEntity
8
1
100
AcDbVertex
100
AcDb3dPolylineVertex
10
328.000111
20
-0.105533
30
-0.002693
70
32
0
SEQEND
100
AcDbEntity
8
1
0
POLYLINE
100
AcDbEntity
8
1
62
4
100
AcDb3dPolyline
66
1
10
0.000000
20
0.000000
30
0.000000
70
8
0
VERTEX
100
AcDbEntity
8
1
100
AcDbVertex
100
AcDb3dPolylineVertex
10
340.702706
20
-0.093282
30
0.495274
70
32
0
VERTEX
100
AcDbEntity
8
1
100
AcDbVertex
100
AcDb3dPolylineVertex
10
340.703012
20
-0.079666
30
0.490043
70
32
0
VERTEX
100
AcDbEntity
8
1
100
AcDbVertex
100
AcDb3dPolylineVertex
10
340.703241
20
-0.066405
30
0.486136
70
32
0
VERTEX
100
AcDbEntity
8
1
100
AcDbVertex
100
AcDb3dPolylineVertex
10
340.703390
20
-0.053714
30
0.483616
70
32
0
VERTEX
100
AcDbEntity
8
1
100
AcDbVertex
100
AcDb3dPolylineVertex
10
340.703455
20
-0.041799
30
0.482523
70
32
0
VERTEX
100
AcDbEntity
8
1
100
AcDbVertex
100
AcDb3dPolylineVertex
10
340.703435
20
-0.030853
30
0.482875
70
32
0
VERTEX
100
AcDbEntity
8
1
100
AcDbVertex
100
AcDb3dPolylineVertex
10
340.703332
20
-0.021052
30
0.484667
70
32
0
VERTEX
100
AcDbEntity
8
1
100
AcDbVertex
100
AcDb3dPolylineVertex
10
340.703147
20
-0.012555
30
0.487869
70
32
0
VERTEX
100
AcDbEntity
8
1
100
AcDbVertex
100
AcDb3dPolylineVertex
10
340.702884
20
-0.005500
30
0.492430
70
32
0
VERTEX
100
AcDbEntity
8
1
100
AcDbVertex
100
AcDb3dPolylineVertex
10
340.702545
20
0.000000
30
0.498276
70
32
0
VERTEX
100
AcDbEntity
8
1
100
AcDbVertex
100
AcDb3dPolylineVertex
10
340.702138
20
0.003855
30
0.505312
70
32
0
VERTEX
100
AcDbEntity
8
1
100
AcDbVertex
100
AcDb3dPolylineVertex
10
340.701668
20
0.006004
30
0.513424
70
32
0
VERTEX
100
AcDbEntity
8
1
100
AcDbVertex
100
AcDb3dPolylineVertex
10
340.701144
20
0.006412
30
0.522481
70
32
0
VERTEX
100
AcDbEntity
8
1
100
AcDbVertex
100
AcDb3dPolylineVertex
10
340.700573
20
0.005073
30
0.532337
70
32
0
VERTEX
100
AcDbEntity
8
1
100
AcDbVertex
100
AcDb3dPolylineVertex
10
340.699966
20
0.002009
30
0.542832
70
32
0
VERTEX
100
AcDbEntity
8
1
100
AcDbVertex
100
AcDb3dPolylineVertex
10
340.699331
20
-0.002730
30
0.553797
70
32
0
VERTEX
100
AcDbEntity
8
1
100
AcDbVertex
100
AcDb3dPolylineVertex
10
340.698679
20
-0.009067
30
0.565054
70
32
0
VERTEX
100
AcDbEntity
8
1
100
AcDbVertex
100
AcDb3dPolylineVertex
10
340.698021
20
-0.016899
30
0.576422
70
32
0
VERTEX
100
AcDbEntity
8
1
100
AcDbVertex
100
AcDb3dPolylineVertex
10
340.697366
20
-0.026099
30
0.587717
70
32
0
SEQEND
100
AcDbEntity
8
1
0
POLYLINE
100
AcDbEntity
8
1
62
3
100
AcDb3dPolyline
66
1
10
0.000000
20
0.000000
30
0.000000
70
8
0
VERTEX
100
AcDbEntity
8
1
100
AcDbVertex
100
AcDb3dPolylineVertex
10
340.697366
20
-0.026099
30
0.587717
70
32
0
VERTEX
100
AcDbEntity
8
1
100
AcDbVertex
100
AcDb3dPolylineVertex
10
340.692372
20
-0.101702
30
0.673741
70
32
0
VERTEX
100
AcDbEntity
8
1
100
AcDbVertex
100
AcDb3dPolylineVertex
10
340.683839
20
-0.230599
30
0.820052
70
32
0
VERTEX
100
AcDbEntity
8
1
100
AcDbVertex
100
AcDb3dPolylineVertex
10
340.671773
20
-0.412266
30
1.025511
70
32
0
VERTEX
100
AcDbEntity
8
1
100
AcDbVertex
100
AcDb3dPolylineVertex
10
340.656210
20
-0.646331
30
1.288073
70
32
0
VERTEX
100
AcDbEntity
8
1
100
AcDbVertex
100
AcDb3dPolylineVertex
10
340.637291
20
-0.933619
30
1.603366
70
32
0
VERTEX
100
AcDbEntity
8
1
100
AcDbVertex
100
AcDb3dPolylineVertex
10
340.615262
20
-1.276220
30
1.964684
70
32
0
VERTEX
100
AcDbEntity
8
1
100
AcDbVertex
100
AcDb3dPolylineVertex
10
340.590133
20
-1.673032
30
2.369086
70
32
0
VERTEX
100
AcDbEntity
8
1
100
AcDbVertex
100
AcDb3dPolylineVertex
10
340.561762
20
-2.120690
30
2.816078
70
32
0
VERTEX
100
AcDbEntity
8
1
100
AcDbVertex
100
AcDb3dPolylineVertex
10
340.530276
20
-2.619270
30
3.300009
70
32
0
VERTEX
100
AcDbEntity
8
1
100
AcDbVertex
100
AcDb3dPolylineVertex
10
340.495738
20
-3.167899
30
3.816061
70
32
0
VERTEX
100
AcDbEntity
8
1
100
AcDbVertex
100
AcDb3dPolylineVertex
10
340.457983
20
-3.762079
30
4.363748
70
32
0
VERTEX
100
AcDbEntity
8
1
100
AcDbVertex
100
AcDb3dPolylineVertex
10
340.417136
20
-4.401319
30
4.936904
70
32
0
VERTEX
100
AcDbEntity
8
1
100
AcDbVertex
100
AcDb3dPolylineVertex
10
340.373238
20
-5.083711
30
5.530911
70
32
0
VERTEX
100
AcDbEntity
8
1
100
AcDbVertex
100
AcDb3dPolylineVertex
10
340.325976
20
-5.800837
30
6.149137
70
32
0
VERTEX
100
AcDbEntity
8
1
100
AcDbVertex
100
AcDb3dPolylineVertex
10
340.275706
20
-6.555056
30
6.780867
70
32
0
VERTEX
100
AcDbEntity
8
1
100
AcDbVertex
100
AcDb3dPolylineVertex
10
340.222091
20
-7.335696
30
7.431617
70
32
0
VERTEX
100
AcDbEntity
8
1
100
AcDbVertex
100
AcDb3dPolylineVertex
10
340.165392
20
-8.142151
30
8.093942
70
32
0
VERTEX
100
AcDbEntity
8
1
100
AcDbVertex
100
AcDb3dPolylineVertex
10
340.105580
20
-8.967139
30
8.768501
70
32
0
VERTEX
100
AcDbEntity
8
1
100
AcDbVertex
100
AcDb3dPolylineVertex
10
340.042763
20
-9.804736
30
9.453993
70
32
0
VERTEX
100
AcDbEntity
8
1
100
AcDbVertex
100
AcDb3dPolylineVertex
10
339.977269
20
-10.652962
30
10.144214
70
32
0
VERTEX
100
AcDbEntity
8
1
100
AcDbVertex
100
AcDb3dPolylineVertex
10
339.909225
20
-11.503532
30
10.840418
70
32
0
VERTEX
100
AcDbEntity
8
1
100
AcDbVertex
100
AcDb3dPolylineVertex
10
339.839119
20
-12.356694
30
11.533687
70
32
0
VERTEX
100
AcDbEntity
8
1
100
AcDbVertex
100
AcDb3dPolylineVertex
10
339.767149
20
-13.202811
30
12.226706
70
32
0
VERTEX
100
AcDbEntity
8
1
100
AcDbVertex
100
AcDb3dPolylineVertex
10
339.693892
20
-14.043233
30
12.909443
70
32
0
VERTEX
100
AcDbEntity
8
1
100
AcDbVertex
100
AcDb3dPolylineVertex
10
339.619636
20
-14.867314
30
13.585697
70
32
0
VERTEX
100
AcDbEntity
8
1
100
AcDbVertex
100
AcDb3dPolylineVertex
10
339.545023
20
-15.677716
30
14.244290
70
32
0
VERTEX
100
AcDbEntity
8
1
100
AcDbVertex
100
AcDb3dPolylineVertex
10
339.470436
20
-16.463504
30
14.889458
70
32
0
VERTEX
100
AcDbEntity
8
1
100
AcDbVertex
100
AcDb3dPolylineVertex
10
339.396515
20
-17.226117
30
15.511856
70
32
0
VERTEX
100
AcDbEntity
8
1
100
AcDbVertex
100
AcDb3dPolylineVertex
10
339.323763
20
-17.957393
30
16.112939
70
32
0
VERTEX
100
AcDbEntity
8
1
100
AcDbVertex
100
AcDb3dPolylineVertex
10
339.252790
20
-18.655981
30
16.686976
70
32
0
VERTEX
100
AcDbEntity
8
1
100
AcDbVertex
100
AcDb3dPolylineVertex
10
339.184174
20
-19.318177
30
17.231117
70
32
0
VERTEX
100
AcDbEntity
8
1
100
AcDbVertex
100
AcDb3dPolylineVertex
10
339.118492
20
-19.938300
30
17.744899
70
32
0
VERTEX
100
AcDbEntity
8
1
100
AcDbVertex
100
AcDb3dPolylineVertex
10
339.056326
20
-20.516793
30
18.221787
70
32
0
VERTEX
100
AcDbEntity
8
1
100
AcDbVertex
100
AcDb3dPolylineVertex
10
338.998228
20
-21.048363
30
18.661671
70
32
0
VERTEX
100
AcDbEntity
8
1
100
AcDbVertex
100
AcDb3dPolylineVertex
10
338.944733
20
-21.529482
30
19.062981
70
32
0
VERTEX
100
AcDbEntity
8
1
100
AcDbVertex
100
AcDb3dPolylineVertex
10
338.896333
20
-21.960005
30
19.421155
70
32
0
VERTEX
100
AcDbEntity
8
1
100
AcDbVertex
100
AcDb3dPolylineVertex
10
338.853484
20
-22.337440
30
19.734535
70
32
0
VERTEX
100
AcDbEntity
8
1
100
AcDbVertex
100
AcDb3dPolylineVertex
10
338.816601
20
-22.658736
30
20.002530
70
32
0
VERTEX
100
AcDbEntity
8
1
100
AcDbVertex
100
AcDb3dPolylineVertex
10
338.786044
20
-22.922460
30
20.223432
70
32
0
VERTEX
100
AcDbEntity
8
1
100
AcDbVertex
100
AcDb3dPolylineVertex
10
338.762108
20
-23.127516
30
20.395752
70
32
0
VERTEX
100
AcDbEntity
8
1
100
AcDbVertex
100
AcDb3dPolylineVertex
10
338.745028
20
-23.273037
30
20.518346
70
32
0
VERTEX
100
AcDbEntity
8
1
100
AcDbVertex
100
AcDb3dPolylineVertex
10
338.734972
20
-23.358404
30
20.590381
70
32
0
SEQEND
100
AcDbEntity
8
1
0
POLYLINE
100
AcDbEntity
8
1
62
2
100
AcDb3dPolyline
66
1
10
0.000000
20
0.000000
30
0.000000
70
8
0
VERTEX
100
AcDbEntity
8
1
100
AcDbVertex
100
AcDb3dPolylineVertex
10
338.734972
20
-23.358404
30
20.590381
70
32
0
VERTEX
100
AcDbEntity
8
1
100
AcDbVertex
100
AcDb3dPolylineVertex
10
338.732384
20
-23.381871
30
20.607079
70
32
0
VERTEX
100
AcDbEntity
8
1
100
AcDbVertex
100
AcDb3dPolylineVertex
10
338.729864
20
-23.407774
30
20.619685
70
32
0
VERTEX
100
AcDbEntity
8
1
100
AcDbVertex
100
AcDb3dPolylineVertex
10
338.727479
20
-23.435413
30
20.627857
70
32
0
VERTEX
100
AcDbEntity
8
1
100
AcDbVertex
100
AcDb3dPolylineVertex
10
338.725293
20
-23.464040
30
20.631374
70
32
0
VERTEX
100
AcDbEntity
8
1
100
AcDbVertex
100
AcDb3dPolylineVertex
10
338.723365
20
-23.492880
30
20.630143
70
32
0
VERTEX
100
AcDbEntity
8
1
100
AcDbVertex
100
AcDb3dPolylineVertex
10
338.721748
20
-23.521154
30
20.624195
70
32
0
VERTEX
100
AcDbEntity
8
1
100
AcDbVertex
100
AcDb3dPolylineVertex
10
338.720486
20
-23.548094
30
20.613692
70
32
0
VERTEX
100
AcDbEntity
8
1
100
AcDbVertex
100
AcDb3dPolylineVertex
10
338.719613
20
-23.572971
30
20.598918
70
32
0
VERTEX
100
AcDbEntity
8
1
100
AcDbVertex
100
AcDb3dPolylineVertex
10
338.719153
20
-23.595110
30
20.580271
70
32
0
VERTEX
100
AcDbEntity
8
1
100
AcDbVertex
100
AcDb3dPolylineVertex
10
338.719121
20
-23.613907
30
20.558257
70
32
0
VERTEX
100
AcDbEntity
8
1
100
AcDbVertex
100
AcDb3dPolylineVertex
10
338.719517
20
-23.628853
30
20.533469
70
32
0
VERTEX
100
AcDbEntity
8
1
100
AcDbVertex
100
AcDb3dPolylineVertex
10
338.720332
20
-23.639538
30
20.506579
70
32
0
VERTEX
100
AcDbEntity
8
1
100
AcDbVertex
100
AcDb3dPolylineVertex
10
338.721544
20
-23.645672
30
20.478316
70
32
0
VERTEX
100
AcDbEntity
8
1
100
AcDbVertex
100
AcDb3dPolylineVertex
10
338.723121
20
-23.647086
30
20.449444
70
32
0
VERTEX
100
AcDbEntity
8
1
100
AcDbVertex
100
AcDb3dPolylineVertex
10
338.725020
20
-23.643738
30
20.420748
70
32
0
VERTEX
100
AcDbEntity
8
1
100
AcDbVertex
100
AcDb3dPolylineVertex
10
338.727189
20
-23.635720
30
20.393005
70
32
0
VERTEX
100
AcDbEntity
8
1
100
AcDbVertex
100
AcDb3dPolylineVertex
10
338.729570
20
-23.623248
30
20.366969
70
32
0
VERTEX
100
AcDbEntity
8
1
100
AcDbVertex
100
AcDb3dPolylineVertex
10
338.732098
20
-23.606660
30
20.343348
70
32
0
SEQEND
100
AcDbEntity
8
1
0
POLYLINE
100
AcDbEntity
8
1
62
1
100
AcDb3dPolyline
66
1
10
0.000000
20
0.000000
30
0.000000
70
8
0
VERTEX
100
AcDbEntity
8
1
100
AcDbVertex
100
AcDb3dPolylineVertex
10
338.732098
20
-23.606660
30
20.343348
70
32
0
VERTEX
100
AcDbEntity
8
1
100
AcDbVertex
100
AcDb3dPolylineVertex
10
338.742075
20
-23.534948
30
20.257397
70
32
0
VERTEX
100
AcDbEntity
8
1
100
AcDbVertex
100
AcDb3dPolylineVertex
10
338.759042
20
-23.412631
30
20.111076
70
32
0
VERTEX
100
AcDbEntity
8
1
100
AcDbVertex
100
AcDb3dPolylineVertex
10
338.782861
20
-23.240115
30
19.905313
70
32
0
VERTEX
100
AcDbEntity
8
1
100
AcDbVertex
100
AcDb3dPolylineVertex
10
338.813341
20
-23.017959
30
19.641398
70
32
0
VERTEX
100
AcDbEntity
8
1
100
AcDbVertex
100
AcDb3dPolylineVertex
10
338.850238
20
-22.746928
30
19.320948
70
32
0
VERTEX
100
AcDbEntity
8
1
100
AcDbVertex
100
AcDb3dPolylineVertex
10
338.893258
20
-22.427877
30
18.946012
70
32
0
VERTEX
100
AcDbEntity
8
1
100
AcDbVertex
100
AcDb3dPolylineVertex
10
338.942066
20
-22.060481
30
18.520367
70
32
0
VERTEX
100
AcDbEntity
8
1
100
AcDbVertex
100
AcDb3dPolylineVertex
10
338.996267
20
-21.645428
30
18.047296
70
32
0
VERTEX
100
AcDbEntity
8
1
100
AcDbVertex
100
AcDb3dPolylineVertex
10
339.055416
20
-21.186202
30
17.527703
70
32
0
VERTEX
100
AcDbEntity
8
1
100
AcDbVertex
100
AcDb3dPolylineVertex
10
339.119042
20
-20.683364
30
16.965967
70
32
0
VERTEX
100
AcDbEntity
8
1
100
AcDbVertex
100
AcDb3dPolylineVertex
10
339.186631
20
-20.136168
30
16.368352
70
32
0
VERTEX
100
AcDbEntity
8
1
100
AcDbVertex
100
AcDb3dPolylineVertex
10
339.257639
20
-19.550067
30
15.735071
70
32
0
VERTEX
100
AcDbEntity
8
1
100
AcDbVertex
100
AcDb3dPolylineVertex
10
339.331494
20
-18.924842
30
15.072729
70
32
0
VERTEX
100
AcDbEntity
8
1
100
AcDbVertex
100
AcDb3dPolylineVertex
10
339.407599
20
-18.262702
30
14.385799
70
32
0
VERTEX
100
AcDbEntity
8
1
100
AcDbVertex
100
AcDb3dPolylineVertex
10
339.485374
20
-17.568649
30
13.676077
70
32
0
VERTEX
100
AcDbEntity
8
1
100
AcDbVertex
100
AcDb3dPolylineVertex
10
339.564164
20
-16.841290
30
12.952689
70
32
0
VERTEX
100
AcDbEntity
8
1
100
AcDbVertex
100
AcDb3dPolylineVertex
10
339.643437
20
-16.089237
30
12.214048
70
32
0
VERTEX
100
AcDbEntity
8
1
100
AcDbVertex
100
AcDb3dPolylineVertex
10
339.722486
20
-15.309103
30
11.472180
70
32
0
VERTEX
100
AcDbEntity
8
1
100
AcDbVertex
100
AcDb3dPolylineVertex
10
339.800865
20
-14.511440
30
10.723676
70
32
0
VERTEX
100
AcDbEntity
8
1
100
AcDbVertex
100
AcDb3dPolylineVertex
10
339.877882
20
-13.693802
30
9.980037
70
32
0
VERTEX
100
AcDbEntity
8
1
100
AcDbVertex
100
AcDb3dPolylineVertex
10
339.953166
20
-12.866005
30
9.238815
70
32
0
VERTEX
100
AcDbEntity
8
1
100
AcDbVertex
100
AcDb3dPolylineVertex
10
340.026090
20
-12.027102
30
8.510118
70
32
0
VERTEX
100
AcDbEntity
8
1
100
AcDbVertex
100
AcDb3dPolylineVertex
10
340.096373
20
-11.186204
30
7.792256
70
32
0
VERTEX
100
AcDbEntity
8
1
100
AcDbVertex
100
AcDb3dPolylineVertex
10
340.163502
20
-10.344011
30
7.093479
70
32
0
VERTEX
100
AcDbEntity
8
1
100
AcDbVertex
100
AcDb3dPolylineVertex
10
340.227240
20
-9.507596
30
6.414314
70
32
0
VERTEX
100
AcDbEntity
8
1
100
AcDbVertex
100
AcDb3dPolylineVertex
10
340.287255
20
-8.680094
30
5.759903
70
32
0
VERTEX
100
AcDbEntity
8
1
100
AcDbVertex
100
AcDb3dPolylineVertex
10
340.343178
20
-7.863233
30
5.137037
70
32
0
VERTEX
100
AcDbEntity
8
1
100
AcDbVertex
100
AcDb3dPolylineVertex
10
340.395013
20
-7.065306
30
4.544072
70
32
0
VERTEX
100
AcDbEntity
8
1
100
AcDbVertex
100
AcDb3dPolylineVertex
10
340.442292
20
-6.284368
30
3.991984
70
32
0
VERTEX
100
AcDbEntity
8
1
100
AcDbVertex
100
AcDb3dPolylineVertex
10
340.485284
20
-5.531271
30
3.475162
70
32
0
VERTEX
100
AcDbEntity
8
1
100
AcDbVertex
100
AcDb3dPolylineVertex
10
340.523707
20
-4.805799
30
3.001719
70
32
0
VERTEX
100
AcDbEntity
8
1
100
AcDbVertex
100
AcDb3dPolylineVertex
10
340.557682
20
-4.113896
30
2.571415
70
32
0
VERTEX
100
AcDbEntity
8
1
100
AcDbVertex
100
AcDb3dPolylineVertex
10
340.587467
20
-3.462515
30
2.182092
70
32
0
VERTEX
100
AcDbEntity
8
1
100
AcDbVertex
100
AcDb3dPolylineVertex
10
340.613092
20
-2.854143
30
1.836907
70
32
0
VERTEX
100
AcDbEntity
8
1
100
AcDbVertex
100
AcDb3dPolylineVertex
10
340.634841
20
-2.294381
30
1.534317
70
32
0
VERTEX
100
AcDbEntity
8
1
100
AcDbVertex
100
AcDb3dPolylineVertex
10
340.653079
20
-1.789223
30
1.271579
70
32
0
VERTEX
100
AcDbEntity
8
1
100
AcDbVertex
100
AcDb3dPolylineVertex
10
340.667924
20
-1.340619
30
1.050755
70
32
0
VERTEX
100
AcDbEntity
8
1
100
AcDbVertex
100
AcDb3dPolylineVertex
10
340.679631
20
-0.952144
30
0.871098
70
32
0
VERTEX
100
AcDbEntity
8
1
100
AcDbVertex
100
AcDb3dPolylineVertex
10
340.688678
20
-0.629897
30
0.727748
70
32
0
VERTEX
100
AcDbEntity
8
1
100
AcDbVertex
100
AcDb3dPolylineVertex
10
340.695415
20
-0.378011
30
0.617822
70
32
0
VERTEX
100
AcDbEntity
8
1
100
AcDbVertex
100
AcDb3dPolylineVertex
10
340.700047
20
-0.198692
30
0.540432
70
32
0
VERTEX
100
AcDbEntity
8
1
100
AcDbVertex
100
AcDb3dPolylineVertex
10
340.702706
20
-0.093282
30
0.495274
70
32
0
SEQEND
100
AcDbEntity
8
1
0
POLYLINE
100
AcDbEntity
8
1
62
4
100
AcDb3dPolyline
66
1
10
0.000000
20
0.000000
30
0.000000
70
8
0
VERTEX
100
AcDbEntity
8
1
100
AcDbVertex
100
AcDb3dPolylineVertex
10
353.405299
20
-0.081077
30
0.993406
70
32
0
VERTEX
100
AcDbEntity
8
1
100
AcDbVertex
100
AcDb3dPolylineVertex
10
353.405612
20
-0.069178
30
0.988909
70
32
0
VERTEX
100
AcDbEntity
8
1
100
AcDbVertex
100
AcDb3dPolylineVertex
10
353.405845
20
-0.057572
30
0.985563
70
32
0
VERTEX
100
AcDbEntity
8
1
100
AcDbVertex
100
AcDb3dPolylineVertex
10
353.405995
20
-0.046461
30
0.983426
70
32
0
VERTEX
100
AcDbEntity
8
1
100
AcDbVertex
100
AcDb3dPolylineVertex
10
353.406058
20
-0.036037
30
0.982535
70
32
0
VERTEX
100
AcDbEntity
8
1
100
AcDbVertex
100
AcDb3dPolylineVertex
10
353.406033
20
-0.026483
30
0.982906
70
32
0
VERTEX
100
AcDbEntity
8
1
100
AcDbVertex
100
AcDb3dPolylineVertex
10
353.405921
20
-0.017965
30
0.984532
70
32
0
VERTEX
100
AcDbEntity
8
1
100
AcDbVertex
100
AcDb3dPolylineVertex
10
353.405724
20
-0.010630
30
0.987385
70
32
0
VERTEX
100
AcDbEntity
8
1
100
AcDbVertex
100
AcDb3dPolylineVertex
10
353.405445
20
-0.004607
30
0.991415
70
32
0
VERTEX
100
AcDbEntity
8
1
100
AcDbVertex
100
AcDb3dPolylineVertex
10
353.405090
20
0.000000
30
0.996552
70
32
0
VERTEX
100
AcDbEntity
8
1
100
AcDbVertex
100
AcDb3dPolylineVertex
10
353.404665
20
0.003111
30
1.002707
70
32
0
VERTEX
100
AcDbEntity
8
1
100
AcDbVertex
100
AcDb3dPolylineVertex
10
353.404176
20
0.004672
30
1.009772
70
32
0
VERTEX
100
AcDbEntity
8
1
100
AcDbVertex
100
AcDb3dPolylineVertex
10
353.403633
20
0.004656
30
1.017625
70
32
0
VERTEX
100
AcDbEntity
8
1
100
AcDbVertex
100
AcDb3dPolylineVertex
10
353.403045
20
0.003064
30
1.026130
70
32
0
VERTEX
100
AcDbEntity
8
1
100
AcDbVertex
100
AcDb3dPolylineVertex
10
353.402422
20
-0.000077
30
1.035137
70
32
0
VERTEX
100
AcDbEntity
8
1
100
AcDbVertex
100
AcDb3dPolylineVertex
10
353.401775
20
-0.004711
30
1.044492
70
32
0
VERTEX
100
AcDbEntity
8
1
100
AcDbVertex
100
AcDb3dPolylineVertex
10
353.401116
20
-0.010758
30
1.054030
70
32
0
VERTEX
100
AcDbEntity
8
1
100
AcDbVertex
100
AcDb3dPolylineVertex
10
353.400455
20
-0.018112
30
1.063587
70
32
0
VERTEX
100
AcDbEntity
8
1
100
AcDbVertex
100
AcDb3dPolylineVertex
10
353.399803
20
-0.026645
30
1.072996
70
32
0
SEQEND
100
AcDbEntity
8
1
0
POLYLINE
100
AcDbEntity
8
1
62
3
100
AcDb3dPolyline
66
1
10
0.000000
20
0.000000
30
0.000000
70
8
0
VERTEX
100
AcDbEntity
8
1
100
AcDbVertex
100
AcDb3dPolylineVertex
10
353.399803
20
-0.026645
30
1.072996
70
32
0
VERTEX
100
AcDbEntity
8
1
100
AcDbVertex
100
AcDb3dPolylineVertex
10
353.394146
20
-0.106475
30
1.154601
70
32
0
VERTEX
100
AcDbEntity
8
1
100
AcDbVertex
100
AcDb3dPolylineVertex
10
353.384485
20
-0.242511
30
1.293344
70
32
0
VERTEX
100
AcDbEntity
8
1
100
AcDbVertex
100
AcDb3dPolylineVertex
10
353.370828
20
-0.434217
30
1.488186
70
32
0
VERTEX
100
AcDbEntity
8
1
100
AcDbVertex
100
AcDb3dPolylineVertex
10
353.353218
20
-0.681101
30
1.737224
70
32
0
VERTEX
100
AcDbEntity
8
1
100
AcDbVertex
100
AcDb3dPolylineVertex
10
353.331819
20
-0.983669
30
2.036390
70
32
0
VERTEX
100
AcDbEntity
8
1
100
AcDbVertex
100
AcDb3dPolylineVertex
10
353.306919
20
-1.343548
30
2.379348
70
32
0
VERTEX
100
AcDbEntity
8
1
100
AcDbVertex
100
AcDb3dPolylineVertex
10
353.278543
20
-1.759501
30
2.763294
70
32
0
VERTEX
100
AcDbEntity
8
1
100
AcDbVertex
100
AcDb3dPolylineVertex
10
353.246554
20
-2.228308
30
3.187646
70
32
0
VERTEX
100
AcDbEntity
8
1
100
AcDbVertex
100
AcDb3dPolylineVertex
10
353.211107
20
-2.749633
30
3.647128
70
32
0
VERTEX
100
AcDbEntity
8
1
100
AcDbVertex
100
AcDb3dPolylineVertex
10
353.172294
20
-3.322260
30
4.137240
70
32
0
VERTEX
100
AcDbEntity
8
1
100
AcDbVertex
100
AcDb3dPolylineVertex
10
353.129965
20
-3.941997
30
4.657193
70
32
0
VERTEX
100
AcDbEntity
8
1
100
AcDbVertex
100
AcDb3dPolylineVertex
10
353.084240
20
-4.607377
30
5.201921
70
32
0
VERTEX
100
AcDbEntity
8
1
100
AcDbVertex
100
AcDb3dPolylineVertex
10
353.035224
20
-5.316513
30
5.766598
70
32
0
VERTEX
100
AcDbEntity
8
1
100
AcDbVertex
100
AcDb3dPolylineVertex
10
352.982565
20
-6.061356
30
6.354478
70
32
0
VERTEX
100
AcDbEntity
8
1
100
AcDbVertex
100
AcDb3dPolylineVertex
10
352.926665
20
-6.842813
30
6.956205
70
32
0
VERTEX
100
AcDbEntity
8
1
100
AcDbVertex
100
AcDb3dPolylineVertex
10
352.867177
20
-7.651392
30
7.576241
70
32
0
VERTEX
100
AcDbEntity
8
1
100
AcDbVertex
100
AcDb3dPolylineVertex
10
352.804371
20
-8.485052
30
8.208675
70
32
0
VERTEX
100
AcDbEntity
8
1
100
AcDbVertex
100
AcDb3dPolylineVertex
10
352.738269
20
-9.337546
30
8.852994
70
32
0
VERTEX
100
AcDbEntity
8
1
100
AcDbVertex
100
AcDb3dPolylineVertex
10
352.668972
20
-10.202706
30
9.508309
70
32
0
VERTEX
100
AcDbEntity
8
1
100
AcDbVertex
100
AcDb3dPolylineVertex
10
352.596885
20
-11.078327
30
10.168427
70
32
0
VERTEX
100
AcDbEntity
8
1
100
AcDbVertex
100
AcDb3dPolylineVertex
10
352.522125
20
-11.956595
30
10.834308
70
32
0
VERTEX
100
AcDbEntity
8
1
100
AcDbVertex
100
AcDb3dPolylineVertex
10
352.445260
20
-12.836736
30
11.497847
70
32
0
VERTEX
100
AcDbEntity
8
1
100
AcDbVertex
100
AcDb3dPolylineVertex
10
352.366475
20
-13.709960
30
12.161100
70
32
0
VERTEX
100
AcDbEntity
8
1
100
AcDbVertex
100
AcDb3dPolylineVertex
10
352.286445
20
-14.576412
30
12.814954
70
32
0
VERTEX
100
AcDbEntity
8
1
100
AcDbVertex
100
AcDb3dPolylineVertex
10
352.205431
20
-15.426594
30
13.462351
70
32
0
VERTEX
100
AcDbEntity
8
1
100
AcDbVertex
100
AcDb3dPolylineVertex
10
352.124185
20
-16.261530
30
14.093427
70
32
0
VERTEX
100
AcDbEntity
8
1
100
AcDbVertex
100
AcDb3dPolylineVertex
10
352.043055
20
-17.071545
30
14.711508
70
32
0
VERTEX
100
AcDbEntity
8
1
100
AcDbVertex
100
AcDb3dPolylineVertex
10
351.962788
20
-17.856972
30
15.308037
70
32
0
VERTEX
100
AcDbEntity
8
1
100
AcDbVertex
100
AcDb3dPolylineVertex
10
351.883867
20
-18.610179
30
15.884236
70
32
0
VERTEX
100
AcDbEntity
8
1
100
AcDbVertex
100
AcDb3dPolylineVertex
10
351.806984
20
-19.329716
30
16.434271
70
32
0
VERTEX
100
AcDbEntity
8
1
100
AcDbVertex
100
AcDb3dPolylineVertex
10
351.732737
20
-20.011220
30
16.956076
70
32
0
VERTEX
100
AcDbEntity
8
1
100
AcDbVertex
100
AcDb3dPolylineVertex
10
351.661714
20
-20.649731
30
17.448597
70
32
0
VERTEX
100
AcDbEntity
8
1
100
AcDbVertex
100
AcDb3dPolylineVertex
10
351.594583
20
-21.244947
30
17.905827
70
32
0
VERTEX
100
AcDbEntity
8
1
100
AcDbVertex
100
AcDb3dPolylineVertex
10
351.531887
20
-21.791731
30
18.327732
70
32
0
VERTEX
100
AcDbEntity
8
1
100
AcDbVertex
100
AcDb3dPolylineVertex
10
351.474184
20
-22.286893
30
18.712478
70
32
0
VERTEX
100
AcDbEntity
8
1
100
AcDbVertex
100
AcDb3dPolylineVertex
10
351.422025
20
-22.729799
30
19.055862
70
32
0
VERTEX
100
AcDbEntity
8
1
100
AcDbVertex
100
AcDb3dPolylineVertex
10
351.375883
20
-23.117778
30
19.356491
70
32
0
VERTEX
100
AcDbEntity
8
1
100
AcDbVertex
100
AcDb3dPolylineVertex
10
351.336180
20
-23.448116
30
19.613544
70
32
0
VERTEX
100
AcDbEntity
8
1
100
AcDbVertex
100
AcDb3dPolylineVertex
10
351.303292
20
-23.719332
30
19.825379
70
32
0
VERTEX
100
AcDbEntity
8
1
100
AcDbVertex
100
AcDb3dPolylineVertex
10
351.277536
20
-23.930255
30
19.990602
70
32
0
VERTEX
100
AcDbEntity
8
1
100
AcDbVertex
100
AcDb3dPolylineVertex
10
351.259160
20
-24.079961
30
20.108133
70
32
0
VERTEX
100
AcDbEntity
8
1
100
AcDbVertex
100
AcDb3dPolylineVertex
10
351.248342
20
-24.167786
30
20.177185
70
32
0
SEQEND
100
AcDbEntity
8
1
0
POLYLINE
100
AcDbEntity
8
1
62
2
100
AcDb3dPolyline
66
1
10
0.000000
20
0.000000
30
0.000000
70
8
0
VERTEX
100
AcDbEntity
8
1
100
AcDbVertex
100
AcDb3dPolylineVertex
10
351.248342
20
-24.167786
30
20.177185
70
32
0
VERTEX
100
AcDbEntity
8
1
100
AcDbVertex
100
AcDb3dPolylineVertex
10
351.246038
20
-24.187903
30
20.190450
70
32
0
VERTEX
100
AcDbEntity
8
1
100
AcDbVertex
100
AcDb3dPolylineVertex
10
351.243844
20
-24.209955
30
20.200188
70
32
0
VERTEX
100
AcDbEntity
8
1
100
AcDbVertex
100
AcDb3dPolylineVertex
10
351.241820
20
-24.233335
30
20.206130
70
32
0
VERTEX
100
AcDbEntity
8
1
100
AcDbVertex
100
AcDb3dPolylineVertex
10
351.240021
20
-24.257397
30
20.208113
70
32
0
VERTEX
100
AcDbEntity
8
1
100
AcDbVertex
100
AcDb3dPolylineVertex
10
351.238498
20
-24.281478
30
20.206081
70
32
0
VERTEX
100
AcDbEntity
8
1
100
AcDbVertex
100
AcDb3dPolylineVertex
10
351.237292
20
-24.304913
30
20.200092
70
32
0
VERTEX
100
AcDbEntity
8
1
100
AcDbVertex
100
AcDb3dPolylineVertex
10
351.236437
20
-24.327055
30
20.190310
70
32
0
VERTEX
100
AcDbEntity
8
1
100
AcDbVertex
100
AcDb3dPolylineVertex
10
351.235957
20
-24.347293
30
20.177004
70
32
0
VERTEX
100
AcDbEntity
8
1
100
AcDbVertex
100
AcDb3dPolylineVertex
10
351.235866
20
-24.365067
30
20.160543
70
32
0
VERTEX
100
AcDbEntity
8
1
100
AcDbVertex
100
AcDb3dPolylineVertex
10
351.236166
20
-24.379884
30
20.141379
70
32
0
VERTEX
100
AcDbEntity
8
1
100
AcDbVertex
100
AcDb3dPolylineVertex
10
351.236850
20
-24.391334
30
20.120042
70
32
0
VERTEX
100
AcDbEntity
8
1
100
AcDbVertex
100
AcDb3dPolylineVertex
10
351.237900
20
-24.399099
30
20.097120
70
32
0
VERTEX
100
AcDbEntity
8
1
100
AcDbVertex
100
AcDb3dPolylineVertex
10
351.239286
20
-24.402962
30
20.073246
70
32
0
VERTEX
100
AcDbEntity
8
1
100
AcDbVertex
100
AcDb3dPolylineVertex
10
351.240971
20
-24.402817
30
20.049080
70
32
0
VERTEX
100
AcDbEntity
8
1
100
AcDbVertex
100
AcDb3dPolylineVertex
10
351.242909
20
-24.398665
30
20.025289
70
32
0
VERTEX
100
AcDbEntity
8
1
100
AcDbVertex
100
AcDb3dPolylineVertex
10
351.245045
20
-24.390621
30
20.002531
70
32
0
VERTEX
100
AcDbEntity
8
1
100
AcDbVertex
100
AcDb3dPolylineVertex
10
351.247320
20
-24.378906
30
19.981436
70
32
0
VERTEX
100
AcDbEntity
8
1
100
AcDbVertex
100
AcDb3dPolylineVertex
10
351.249672
20
-24.363845
30
19.962587
70
32
0
SEQEND
100
AcDbEntity
8
1
0
POLYLINE
100
AcDbEntity
8
1
62
1
100
AcDb3dPolyline
66
1
10
0.000000
20
0.000000
30
0.000000
70
8
0
VERTEX
100
AcDbEntity
8
1
100
AcDbVertex
100
AcDb3dPolylineVertex
10
351.249672
20
-24.363845
30
19.962587
70
32
0
VERTEX
100
AcDbEntity
8
1
100
AcDbVertex
100
AcDb3dPolylineVertex
10
351.260630
20
-24.286926
30
19.881348
70
32
0
VERTEX
100
AcDbEntity
8
1
100
AcDbVertex
100
AcDb3dPolylineVertex
10
351.279261
20
-24.155755
30
19.743040
70
32
0
VERTEX
100
AcDbEntity
8
1
100
AcDbVertex
100
AcDb3dPolylineVertex
10
351.305408
20
-23.970831
30
19.548547
70
32
0
VERTEX
100
AcDbEntity
8
1
100
AcDbVertex
100
AcDb3dPolylineVertex
10
351.338855
20
-23.732833
30
19.299086
70
32
0
VERTEX
100
AcDbEntity
8
1
100
AcDbVertex
100
AcDb3dPolylineVertex
10
351.379327
20
-23.442665
30
18.996194
70
32
0
VERTEX
100
AcDbEntity
8
1
100
AcDbVertex
100
AcDb3dPolylineVertex
10
351.426488
20
-23.101397
30
18.641777
70
32
0
VERTEX
100
AcDbEntity
8
1
100
AcDbVertex
100
AcDb3dPolylineVertex
10
351.479940
20
-22.709345
30
18.239138
70
32
0
VERTEX
100
AcDbEntity
8
1
100
AcDbVertex
100
AcDb3dPolylineVertex
10
351.539230
20
-22.267349
30
17.791550
70
32
0
VERTEX
100
AcDbEntity
8
1
100
AcDbVertex
100
AcDb3dPolylineVertex
10
351.603894
20
-21.778767
30
17.299973
70
32
0
VERTEX
100
AcDbEntity
8
1
100
AcDbVertex
100
AcDb3dPolylineVertex
10
351.673395
20
-21.244883
30
16.768194
70
32
0
VERTEX
100
AcDbEntity
8
1
100
AcDbVertex
100
AcDb3dPolylineVertex
10
351.747121
20
-20.665505
30
16.202202
70
32
0
VERTEX
100
AcDbEntity
8
1
100
AcDbVertex
100
AcDb3dPolylineVertex
10
351.824528
20
-20.045754
30
15.602375
70
32
0
VERTEX
100
AcDbEntity
8
1
100
AcDbVertex
100
AcDb3dPolylineVertex
10
351.904960
20
-19.386550
30
14.974340
70
32
0
VERTEX
100
AcDbEntity
8
1
100
AcDbVertex
100
AcDb3dPolylineVertex
10
351.987754
20
-18.689862
30
14.322966
70
32
0
VERTEX
100
AcDbEntity
8
1
100
AcDbVertex
100
AcDb3dPolylineVertex
10
352.072324
20
-17.961002
30
13.649547
70
32
0
VERTEX
100
AcDbEntity
8
1
100
AcDbVertex
100
AcDb3dPolylineVertex
10
352.157905
20
-17.199514
30
12.962575
70
32
0
VERTEX
100
AcDbEntity
8
1
100
AcDbVertex
100
AcDb3dPolylineVertex
10
352.243999
20
-16.413291
30
12.260854
70
32
0
VERTEX
100
AcDbEntity
8
1
100
AcDbVertex
100
AcDb3dPolylineVertex
10
352.329778
20
-15.600581
30
11.555108
70
32
0
VERTEX
100
AcDbEntity
8
1
100
AcDbVertex
100
AcDb3dPolylineVertex
10
352.414840
20
-14.770647
30
10.842855
70
32
0
VERTEX
100
AcDbEntity
8
1
100
AcDbVertex
100
AcDb3dPolylineVertex
10
352.498394
20
-13.922521
30
10.134368
70
32
0
VERTEX
100
AcDbEntity
8
1
100
AcDbVertex
100
AcDb3dPolylineVertex
10
352.580108
20
-13.065118
30
9.427761
70
32
0
VERTEX
100
AcDbEntity
8
1
100
AcDbVertex
100
AcDb3dPolylineVertex
10
352.659277
20
-12.198618
30
8.732170
70
32
0
VERTEX
100
AcDbEntity
8
1
100
AcDbVertex
100
AcDb3dPolylineVertex
10
352.735652
20
-11.331363
30
8.046401
70
32
0
VERTEX
100
AcDbEntity
8
1
100
AcDbVertex
100
AcDb3dPolylineVertex
10
352.808657
20
-10.464749
30
7.378105
70
32
0
VERTEX
100
AcDbEntity
8
1
100
AcDbVertex
100
AcDb3dPolylineVertex
10
352.878089
20
-9.605823
30
6.727543
70
32
0
VERTEX
100
AcDbEntity
8
1
100
AcDbVertex
100
AcDb3dPolylineVertex
10
352.943563
20
-8.757652
30
6.100014
70
32
0
VERTEX
100
AcDbEntity
8
1
100
AcDbVertex
100
AcDb3dPolylineVertex
10
353.004720
20
-7.923151
30
5.500901
70
32
0
VERTEX
100
AcDbEntity
8
1
100
AcDbVertex
100
AcDb3dPolylineVertex
10
353.061540
20
-7.109304
30
4.929886
70
32
0
VERTEX
100
AcDbEntity
8
1
100
AcDbVertex
100
AcDb3dPolylineVertex
10
353.113507
20
-6.315454
30
4.396705
70
32
0
VERTEX
100
AcDbEntity
8
1
100
AcDbVertex
100
AcDb3dPolylineVertex
10
353.160912
20
-5.551089
30
3.896937
70
32
0
VERTEX
100
AcDbEntity
8
1
100
AcDbVertex
100
AcDb3dPolylineVertex
10
353.203402
20
-4.816434
30
3.438438
70
32
0
VERTEX
100
AcDbEntity
8
1
100
AcDbVertex
100
AcDb3dPolylineVertex
10
353.241133
20
-4.117508
30
3.020634
70
32
0
VERTEX
100
AcDbEntity
8
1
100
AcDbVertex
100
AcDb3dPolylineVertex
10
353.274340
20
-3.460333
30
2.642360
70
32
0
VERTEX
100
AcDbEntity
8
1
100
AcDbVertex
100
AcDb3dPolylineVertex
10
353.303042
20
-2.847731
30
2.306379
70
32
0
VERTEX
100
AcDbEntity
8
1
100
AcDbVertex
100
AcDb3dPolylineVertex
10
353.327528
20
-2.284985
30
2.011389
70
32
0
VERTEX
100
AcDbEntity
8
1
100
AcDbVertex
100
AcDb3dPolylineVertex
10
353.348176
20
-1.777691
30
1.754961
70
32
0
VERTEX
100
AcDbEntity
8
1
100
AcDbVertex
100
AcDb3dPolylineVertex
10
353.365085
20
-1.327955
30
1.539017
70
32
0
VERTEX
100
AcDbEntity
8
1
100
AcDbVertex
100
AcDb3dPolylineVertex
10
353.378510
20
-0.939220
30
1.362908
70
32
0
VERTEX
100
AcDbEntity
8
1
100
AcDbVertex
100
AcDb3dPolylineVertex
10
353.388955
20
-0.617125
30
1.222108
70
32
0
VERTEX
100
AcDbEntity
8
1
100
AcDbVertex
100
AcDb3dPolylineVertex
10
353.396779
20
-0.365485
30
1.114019
70
32
0
VERTEX
100
AcDbEntity
8
1
100
AcDbVertex
100
AcDb3dPolylineVertex
10
353.402184
20
-0.186384
30
1.037874
70
32
0
VERTEX
100
AcDbEntity
8
1
100
AcDbVertex
100
AcDb3dPolylineVertex
10
353.405299
20
-0.081077
30
0.993406
70
32
0
SEQEND
100
AcDbEntity
8
1
0
POLYLINE
100
AcDbEntity
8
1
62
4
100
AcDb3dPolyline
66
1
10
0.000000
20
0.000000
30
0.000000
70
8
0
VERTEX
100
AcDbEntity
8
1
100
AcDbVertex
100
AcDb3dPolylineVertex
10
366.107884
20
-0.068888
30
1.491703
70
32
0
VERTEX
100
AcDbEntity
8
1
100
AcDbVertex
100
AcDb3dPolylineVertex
10
366.108193
20
-0.058732
30
1.487927
70
32
0
VERTEX
100
AcDbEntity
8
1
100
AcDbVertex
100
AcDb3dPolylineVertex
10
366.108423
20
-0.048807
30
1.485128
70
32
0
VERTEX
100
AcDbEntity
8
1
100
AcDbVertex
100
AcDb3dPolylineVertex
10
366.108568
20
-0.039297
30
1.483359
70
32
0
VERTEX
100
AcDbEntity
8
1
100
AcDbVertex
100
AcDb3dPolylineVertex
10
366.108627
20
-0.030382
30
1.482653
70
32
0
VERTEX
100
AcDbEntity
8
1
100
AcDbVertex
100
AcDb3dPolylineVertex
10
366.108597
20
-0.022227
30
1.483023
70
32
0
VERTEX
100
AcDbEntity
8
1
100
AcDbVertex
100
AcDb3dPolylineVertex
10
366.108480
20
-0.014986
30
1.484462
70
32
0
VERTEX
100
AcDbEntity
8
1
100
AcDbVertex
100
AcDb3dPolylineVertex
10
366.108278
20
-0.008794
30
1.486943
70
32
0
VERTEX
100
AcDbEntity
8
1
100
AcDbVertex
100
AcDb3dPolylineVertex
10
366.107995
20
-0.003768
30
1.490420
70
32
0
VERTEX
100
AcDbEntity
8
1
100
AcDbVertex
100
AcDb3dPolylineVertex
10
366.107635
20
-0.000000
30
1.494828
70
32
0
VERTEX
100
AcDbEntity
8
1
100
AcDbVertex
100
AcDb3dPolylineVertex
10
366.107207
20
0.002438
30
1.500083
70
32
0
VERTEX
100
AcDbEntity
8
1
100
AcDbVertex
100
AcDb3dPolylineVertex
10
366.106717
20
0.003502
30
1.506089
70
32
0
VERTEX
100
AcDbEntity
8
1
100
AcDbVertex
100
AcDb3dPolylineVertex
10
366.106176
20
0.003171
30
1.512732
70
32
0
VERTEX
100
AcDbEntity
8
1
100
AcDbVertex
100
AcDb3dPolylineVertex
10
366.105592
20
0.001451
30
1.519888
70
32
0
VERTEX
100
AcDbEntity
8
1
100
AcDbVertex
100
AcDb3dPolylineVertex
10
366.104978
20
-0.001624
30
1.527423
70
32
0
VERTEX
100
AcDbEntity
8
1
100
AcDbVertex
100
AcDb3dPolylineVertex
10
366.104344
20
-0.005998
30
1.535197
70
32
0
VERTEX
100
AcDbEntity
8
1
100
AcDbVertex
100
AcDb3dPolylineVertex
10
366.103702
20
-0.011587
30
1.543064
70
32
0
VERTEX
100
AcDbEntity
8
1
100
AcDbVertex
100
AcDb3dPolylineVertex
10
366.103065
20
-0.018289
30
1.550876
70
32
0
VERTEX
100
AcDbEntity
8
1
100
AcDbVertex
100
AcDb3dPolylineVertex
10
366.102444
20
-0.025976
30
1.558489
70
32
0
SEQEND
100
AcDbEntity
8
1
0
POLYLINE
100
AcDbEntity
8
1
62
3
100
AcDb3dPolyline
66
1
10
0.000000
20
0.000000
30
0.000000
70
8
0
VERTEX
100
AcDbEntity
8
1
100
AcDbVertex
100
AcDb3dPolylineVertex
10
366.102444
20
-0.025976
30
1.558489
70
32
0
VERTEX
100
AcDbEntity
8
1
100
AcDbVertex
100
AcDb3dPolylineVertex
10
366.096149
20
-0.109928
30
1.635502
70
32
0
VERTEX
100
AcDbEntity
8
1
100
AcDbVertex
100
AcDb3dPolylineVertex
10
366.085396
20
-0.253049
30
1.766509
70
32
0
VERTEX
100
AcDbEntity
8
1
100
AcDbVertex
100
AcDb3dPolylineVertex
10
366.070199
20
-0.454715
30
1.950498
70
32
0
VERTEX
100
AcDbEntity
8
1
100
AcDbVertex
100
AcDb3dPolylineVertex
10
366.050606
20
-0.714316
30
2.185711
70
32
0
VERTEX
100
AcDbEntity
8
1
100
AcDbVertex
100
AcDb3dPolylineVertex
10
366.026799
20
-1.032052
30
2.468395
70
32
0
VERTEX
100
AcDbEntity
8
1
100
AcDbVertex
100
AcDb3dPolylineVertex
10
365.999107
20
-1.409104
30
2.792601
70
32
0
VERTEX
100
AcDbEntity
8
1
100
AcDbVertex
100
AcDb3dPolylineVertex
10
365.967570
20
-1.844096
30
3.155670
70
32
0
VERTEX
100
AcDbEntity
8
1
100
AcDbVertex
100
AcDb3dPolylineVertex
10
365.932057
20
-2.333936
30
3.556919
70
32
0
VERTEX
100
AcDbEntity
8
1
100
AcDbVertex
100
AcDb3dPolylineVertex
10
365.892751
20
-2.877892
30
3.991462
70
32
0
VERTEX
100
AcDbEntity
8
1
100
AcDbVertex
100
AcDb3dPolylineVertex
10
365.849765
20
-3.474411
30
4.455137
70
32
0
VERTEX
100
AcDbEntity
8
1
100
AcDbVertex
100
AcDb3dPolylineVertex
10
365.802974
20
-4.119564
30
4.946845
70
32
0
VERTEX
100
AcDbEntity
8
1
100
AcDbVertex
100
AcDb3dPolylineVertex
10
365.752476
20
-4.811010
30
5.462615
70
32
0
VERTEX
100
AcDbEntity
8
1
100
AcDbVertex
100
AcDb3dPolylineVertex
10
365.698446
20
-5.546858
30
5.997409
70
32
0
VERTEX
100
AcDbEntity
8
1
100
AcDbVertex
100
AcDb3dPolylineVertex
10
365.640479
20
-6.319244
30
6.554577
70
32
0
VERTEX
100
AcDbEntity
8
1
100
AcDbVertex
100
AcDb3dPolylineVertex
10
365.579017
20
-7.127934
30
7.125886
70
32
0
VERTEX
100
AcDbEntity
8
1
100
AcDbVertex
100
AcDb3dPolylineVertex
10
365.513716
20
-7.964394
30
7.714863
70
32
0
VERTEX
100
AcDbEntity
8
1
100
AcDbVertex
100
AcDb3dPolylineVertex
10
365.444821
20
-8.825314
30
8.317126
70
32
0
VERTEX
100
AcDbEntity
8
1
100
AcDbVertex
100
AcDb3dPolylineVertex
10
365.372444
20
-9.705392
30
8.930918
70
32
0
VERTEX
100
AcDbEntity
8
1
100
AcDbVertex
100
AcDb3dPolylineVertex
10
365.296658
20
-10.598154
30
9.555887
70
32
0
VERTEX
100
AcDbEntity
8
1
100
AcDbVertex
100
AcDb3dPolylineVertex
10
365.217962
20
-11.501295
30
10.185682
70
32
0
VERTEX
100
AcDbEntity
8
1
100
AcDbVertex
100
AcDb3dPolylineVertex
10
365.136463
20
-12.407281
30
10.821137
70
32
0
VERTEX
100
AcDbEntity
8
1
100
AcDbVertex
100
AcDb3dPolylineVertex
10
365.052802
20
-13.314502
30
11.454852
70
32
0
VERTEX
100
AcDbEntity
8
1
100
AcDbVertex
100
AcDb3dPolylineVertex
10
364.967173
20
-14.215006
30
12.088119
70
32
0
VERTEX
100
AcDbEntity
8
1
100
AcDbVertex
100
AcDb3dPolylineVertex
10
364.880310
20
-15.107558
30
12.713149
70
32
0
VERTEX
100
AcDbEntity
8
1
100
AcDbVertex
100
AcDb3dPolylineVertex
10
364.792488
20
-15.983892
30
13.331706
70
32
0
VERTEX
100
AcDbEntity
8
1
100
AcDbVertex
100
AcDb3dPolylineVertex
10
364.704529
20
-16.843375
30
13.935517
70
32
0
VERTEX
100
AcDbEntity
8
1
100
AcDbVertex
100
AcDb3dPolylineVertex
10
364.616791
20
-17.677782
30
14.526520
70
32
0
VERTEX
100
AcDbEntity
8
1
100
AcDbVertex
100
AcDb3dPolylineVertex
10
364.530095
20
-18.486106
30
15.097415
70
32
0
VERTEX
100
AcDbEntity
8
1
100
AcDbVertex
100
AcDb3dPolylineVertex
10
364.444924
20
-19.261411
30
15.648877
70
32
0
VERTEX
100
AcDbEntity
8
1
100
AcDbVertex
100
AcDb3dPolylineVertex
10
364.362049
20
-20.001890
30
16.175266
70
32
0
VERTEX
100
AcDbEntity
8
1
100
AcDbVertex
100
AcDb3dPolylineVertex
10
364.282078
20
-20.702794
30
16.675074
70
32
0
VERTEX
100
AcDbEntity
8
1
100
AcDbVertex
100
AcDb3dPolylineVertex
10
364.205635
20
-21.359869
30
17.146515
70
32
0
VERTEX
100
AcDbEntity
8
1
100
AcDbVertex
100
AcDb3dPolylineVertex
10
364.133450
20
-21.971809
30
17.584542
70
32
0
VERTEX
100
AcDbEntity
8
1
100
AcDbVertex
100
AcDb3dPolylineVertex
10
364.066073
20
-22.533946
30
17.988769
70
32
0
VERTEX
100
AcDbEntity
8
1
100
AcDbVertex
100
AcDb3dPolylineVertex
10
364.004089
20
-23.043252
30
18.357230
70
32
0
VERTEX
100
AcDbEntity
8
1
100
AcDbVertex
100
AcDb3dPolylineVertex
10
363.948101
20
-23.498580
30
18.686174
70
32
0
VERTEX
100
AcDbEntity
8
1
100
AcDbVertex
100
AcDb3dPolylineVertex
10
363.898598
20
-23.897201
30
18.974345
70
32
0
VERTEX
100
AcDbEntity
8
1
100
AcDbVertex
100
AcDb3dPolylineVertex
10
363.856015
20
-24.236669
30
19.220700
70
32
0
VERTEX
100
AcDbEntity
8
1
100
AcDbVertex
100
AcDb3dPolylineVertex
10
363.820750
20
-24.515444
30
19.423676
70
32
0
VERTEX
100
AcDbEntity
8
1
100
AcDbVertex
100
AcDb3dPolylineVertex
10
363.793138
20
-24.732279
30
19.581964
70
32
0
VERTEX
100
AcDbEntity
8
1
100
AcDbVertex
100
AcDb3dPolylineVertex
10
363.773440
20
-24.886201
30
19.694548
70
32
0
VERTEX
100
AcDbEntity
8
1
100
AcDbVertex
100
AcDb3dPolylineVertex
10
363.761841
20
-24.976541
30
19.760713
70
32
0
SEQEND
100
AcDbEntity
8
1
0
POLYLINE
100
AcDbEntity
8
1
62
2
100
AcDb3dPolyline
66
1
10
0.000000
20
0.000000
30
0.000000
70
8
0
VERTEX
100
AcDbEntity
8
1
100
AcDbVertex
100
AcDb3dPolylineVertex
10
363.761841
20
-24.976541
30
19.760713
70
32
0
VERTEX
100
AcDbEntity
8
1
100
AcDbVertex
100
AcDb3dPolylineVertex
10
363.759871
20
-24.993154
30
19.770852
70
32
0
VERTEX
100
AcDbEntity
8
1
100
AcDbVertex
100
AcDb3dPolylineVertex
10
363.758039
20
-25.011245
30
19.778063
70
32
0
VERTEX
100
AcDbEntity
8
1
100
AcDbVertex
100
AcDb3dPolylineVertex
10
363.756394
20
-25.030306
30
19.782143
70
32
0
VERTEX
100
AcDbEntity
8
1
100
AcDbVertex
100
AcDb3dPolylineVertex
10
363.754984
20
-25.049801
30
19.782978
70
32
0
VERTEX
100
AcDbEntity
8
1
100
AcDbVertex
100
AcDb3dPolylineVertex
10
363.753848
20
-25.069182
30
19.780545
70
32
0
VERTEX
100
AcDbEntity
8
1
100
AcDbVertex
100
AcDb3dPolylineVertex
10
363.753017
20
-25.087903
30
19.774911
70
32
0
VERTEX
100
AcDbEntity
8
1
100
AcDbVertex
100
AcDb3dPolylineVertex
10
363.752517
20
-25.105438
30
19.766236
70
32
0
VERTEX
100
AcDbEntity
8
1
100
AcDbVertex
100
AcDb3dPolylineVertex
10
363.752360
20
-25.121294
30
19.754763
70
32
0
VERTEX
100
AcDbEntity
8
1
100
AcDbVertex
100
AcDb3dPolylineVertex
10
363.752551
20
-25.135023
30
19.740814
70
32
0
VERTEX
100
AcDbEntity
8
1
100
AcDbVertex
100
AcDb3dPolylineVertex
10
363.753086
20
-25.146239
30
19.724783
70
32
0
VERTEX
100
AcDbEntity
8
1
100
AcDbVertex
100
AcDb3dPolylineVertex
10
363.753950
20
-25.154626
30
19.707120
70
32
0
VERTEX
100
AcDbEntity
8
1
100
AcDbVertex
100
AcDb3dPolylineVertex
10
363.755119
20
-25.159945
30
19.688321
70
32
0
VERTEX
100
AcDbEntity
8
1
100
AcDbVertex
100
AcDb3dPolylineVertex
10
363.756559
20
-25.162047
30
19.668916
70
32
0
VERTEX
100
AcDbEntity
8
1
100
AcDbVertex
100
AcDb3dPolylineVertex
10
363.758231
20
-25.160871
30
19.649451
70
32
0
VERTEX
100
AcDbEntity
8
1
100
AcDbVertex
100
AcDb3dPolylineVertex
10
363.760088
20
-25.156450
30
19.630474
70
32
0
VERTEX
100
AcDbEntity
8
1
100
AcDbVertex
100
AcDb3dPolylineVertex
10
363.762077
20
-25.148908
30
19.612519
70
32
0
VERTEX
100
AcDbEntity
8
1
100
AcDbVertex
100
AcDb3dPolylineVertex
10
363.764142
20
-25.138457
30
19.596092
70
32
0
VERTEX
100
AcDbEntity
8
1
100
AcDbVertex
100
AcDb3dPolylineVertex
10
363.766225
20
-25.125392
30
19.581656
70
32
0
SEQEND
100
AcDbEntity
8
1
0
POLYLINE
100
AcDbEntity
8
1
62
1
100
AcDb3dPolyline
66
1
10
0.000000
20
0.000000
30
0.000000
70
8
0
VERTEX
100
AcDbEntity
8
1
100
AcDbVertex
100
AcDb3dPolylineVertex
10
363.766225
20
-25.125392
30
19.581656
70
32
0
VERTEX
100
AcDbEntity
8
1
100
AcDbVertex
100
AcDb3dPolylineVertex
10
363.778123
20
-25.043428
30
19.505232
70
32
0
VERTEX
100
AcDbEntity
8
1
100
AcDbVertex
100
AcDb3dPolylineVertex
10
363.798342
20
-24.903738
30
19.375169
70
32
0
VERTEX
100
AcDbEntity
8
1
100
AcDbVertex
100
AcDb3dPolylineVertex
10
363.826713
20
-24.706870
30
19.192265
70
32
0
VERTEX
100
AcDbEntity
8
1
100
AcDbVertex
100
AcDb3dPolylineVertex
10
363.862994
20
-24.453616
30
18.957661
70
32
0
VERTEX
100
AcDbEntity
8
1
100
AcDbVertex
100
AcDb3dPolylineVertex
10
363.906880
20
-24.145012
30
18.672802
70
32
0
VERTEX
100
AcDbEntity
8
1
100
AcDbVertex
100
AcDb3dPolylineVertex
10
363.958001
20
-23.782317
30
18.339455
70
32
0
VERTEX
100
AcDbEntity
8
1
100
AcDbVertex
100
AcDb3dPolylineVertex
10
364.015906
20
-23.366397
30
17.960451
70
32
0
VERTEX
100
AcDbEntity
8
1
100
AcDbVertex
100
AcDb3dPolylineVertex
10
364.080087
20
-22.898349
30
17.538918
70
32
0
VERTEX
100
AcDbEntity
8
1
100
AcDbVertex
100
AcDb3dPolylineVertex
10
364.150053
20
-22.381361
30
17.075959
70
32
0
VERTEX
100
AcDbEntity
8
1
100
AcDbVertex
100
AcDb3dPolylineVertex
10
364.225215
20
-21.817240
30
16.574894
70
32
0
VERTEX
100
AcDbEntity
8
1
100
AcDbVertex
100
AcDb3dPolylineVertex
10
364.304881
20
-21.206650
30
16.041006
70
32
0
VERTEX
100
AcDbEntity
8
1
100
AcDbVertex
100
AcDb3dPolylineVertex
10
364.388483
20
-20.554094
30
15.475256
70
32
0
VERTEX
100
AcDbEntity
8
1
100
AcDbVertex
100
AcDb3dPolylineVertex
10
364.475316
20
-19.861599
30
14.882157
70
32
0
VERTEX
100
AcDbEntity
8
1
100
AcDbVertex
100
AcDb3dPolylineVertex
10
364.564635
20
-19.131148
30
14.266737
70
32
0
VERTEX
100
AcDbEntity
8
1
100
AcDbVertex
100
AcDb3dPolylineVertex
10
364.655853
20
-18.368094
30
13.630085
70
32
0
VERTEX
100
AcDbEntity
8
1
100
AcDbVertex
100
AcDb3dPolylineVertex
10
364.748118
20
-17.573065
30
12.979744
70
32
0
VERTEX
100
AcDbEntity
8
1
100
AcDbVertex
100
AcDb3dPolylineVertex
10
364.840932
20
-16.752995
30
12.315374
70
32
0
VERTEX
100
AcDbEntity
8
1
100
AcDbVertex
100
AcDb3dPolylineVertex
10
364.933392
20
-15.907942
30
11.645916
70
32
0
VERTEX
100
AcDbEntity
8
1
100
AcDbVertex
100
AcDb3dPolylineVertex
10
365.025102
20
-15.045861
30
10.970099
70
32
0
VERTEX
100
AcDbEntity
8
1
100
AcDbVertex
100
AcDb3dPolylineVertex
10
365.115207
20
-14.167342
30
10.296642
70
32
0
VERTEX
100
AcDbEntity
8
1
100
AcDbVertex
100
AcDb3dPolylineVertex
10
365.203380
20
-13.280225
30
9.624629
70
32
0
VERTEX
100
AcDbEntity
8
1
100
AcDbVertex
100
AcDb3dPolylineVertex
10
365.288859
20
-12.385810
30
8.962095
70
32
0
VERTEX
100
AcDbEntity
8
1
100
AcDbVertex
100
AcDb3dPolylineVertex
10
365.371416
20
-11.491858
30
8.308227
70
32
0
VERTEX
100
AcDbEntity
8
1
100
AcDbVertex
100
AcDb3dPolylineVertex
10
365.450409
20
-10.600283
30
7.670255
70
32
0
VERTEX
100
AcDbEntity
8
1
100
AcDbVertex
100
AcDb3dPolylineVertex
10
365.525682
20
-9.718242
30
7.048005
70
32
0
VERTEX
100
AcDbEntity
8
1
100
AcDbVertex
100
AcDb3dPolylineVertex
10
365.596780
20
-8.848683
30
6.447057
70
32
0
VERTEX
100
AcDbEntity
8
1
100
AcDbVertex
100
AcDb3dPolylineVertex
10
365.663385
20
-7.995630
30
5.871323
70
32
0
VERTEX
100
AcDbEntity
8
1
100
AcDbVertex
100
AcDb3dPolylineVertex
10
365.725420
20
-7.164942
30
5.321804
70
32
0
VERTEX
100
AcDbEntity
8
1
100
AcDbVertex
100
AcDb3dPolylineVertex
10
365.782327
20
-6.357043
30
4.807115
70
32
0
VERTEX
100
AcDbEntity
8
1
100
AcDbVertex
100
AcDb3dPolylineVertex
10
365.834412
20
-5.580387
30
4.323798
70
32
0
VERTEX
100
AcDbEntity
8
1
100
AcDbVertex
100
AcDb3dPolylineVertex
10
365.881234
20
-4.835469
30
3.879658
70
32
0
VERTEX
100
AcDbEntity
8
1
100
AcDbVertex
100
AcDb3dPolylineVertex
10
365.922990
20
-4.128380
30
3.473787
70
32
0
VERTEX
100
AcDbEntity
8
1
100
AcDbVertex
100
AcDb3dPolylineVertex
10
365.959868
20
-3.464327
30
3.106008
70
32
0
VERTEX
100
AcDbEntity
8
1
100
AcDbVertex
100
AcDb3dPolylineVertex
10
365.991886
20
-2.846445
30
2.778685
70
32
0
VERTEX
100
AcDbEntity
8
1
100
AcDbVertex
100
AcDb3dPolylineVertex
10
366.019330
20
-2.279716
30
2.490779
70
32
0
VERTEX
100
AcDbEntity
8
1
100
AcDbVertex
100
AcDb3dPolylineVertex
10
366.042585
20
-1.769370
30
2.240192
70
32
0
VERTEX
100
AcDbEntity
8
1
100
AcDbVertex
100
AcDb3dPolylineVertex
10
366.061735
20
-1.317664
30
2.028691
70
32
0
VERTEX
100
AcDbEntity
8
1
100
AcDbVertex
100
AcDb3dPolylineVertex
10
366.077032
20
-0.927920
30
1.855734
70
32
0
VERTEX
100
AcDbEntity
8
1
100
AcDbVertex
100
AcDb3dPolylineVertex
10
366.089008
20
-0.605343
30
1.717151
70
32
0
VERTEX
100
AcDbEntity
8
1
100
AcDbVertex
100
AcDb3dPolylineVertex
10
366.098022
20
-0.353447
30
1.610636
70
32
0
VERTEX
100
AcDbEntity
8
1
100
AcDbVertex
100
AcDb3dPolylineVertex
10
366.104274
20
-0.174208
30
1.535550
70
32
0
VERTEX
100
AcDbEntity
8
1
100
AcDbVertex
100
AcDb3dPolylineVertex
10
366.107884
20
-0.068888
30
1.491703
70
32
0
SEQEND
100
AcDbEntity
8
1
0
POLYLINE
100
AcDbEntity
8
1
62
4
100
AcDb3dPolyline
66
1
10
0.000000
20
0.000000
30
0.000000
70
8
0
VERTEX
100
AcDbEntity
8
1
100
AcDbVertex
100
AcDb3dPolylineVertex
10
378.810456
20
-0.056672
30
1.990167
70
32
0
VERTEX
100
AcDbEntity
8
1
100
AcDbVertex
100
AcDb3dPolylineVertex
10
378.810749
20
-0.048287
30
1.987099
70
32
0
VERTEX
100
AcDbEntity
8
1
100
AcDbVertex
100
AcDb3dPolylineVertex
10
378.810966
20
-0.040072
30
1.984834
70
32
0
VERTEX
100
AcDbEntity
8
1
100
AcDbVertex
100
AcDb3dPolylineVertex
10
378.811102
20
-0.032194
30
1.983418
70
32
0
VERTEX
100
AcDbEntity
8
1
100
AcDbVertex
100
AcDb3dPolylineVertex
10
378.811154
20
-0.024809
30
1.982880
70
32
0
VERTEX
100
AcDbEntity
8
1
100
AcDbVertex
100
AcDb3dPolylineVertex
10
378.811121
20
-0.018068
30
1.983229
70
32
0
VERTEX
100
AcDbEntity
8
1
100
AcDbVertex
100
AcDb3dPolylineVertex
10
378.811004
20
-0.012105
30
1.984459
70
32
0
VERTEX
100
AcDbEntity
8
1
100
AcDbVertex
100
AcDb3dPolylineVertex
10
378.810805
20
-0.007042
30
1.986546
70
32
0
VERTEX
100
AcDbEntity
8
1
100
AcDbVertex
100
AcDb3dPolylineVertex
10
378.810529
20
-0.002980
30
1.989447
70
32
0
VERTEX
100
AcDbEntity
8
1
100
AcDbVertex
100
AcDb3dPolylineVertex
10
378.810181
20
-0.000000
30
1.993104
70
32
0
VERTEX
100
AcDbEntity
8
1
100
AcDbVertex
100
AcDb3dPolylineVertex
10
378.809767
20
0.001837
30
1.997443
70
32
0
VERTEX
100
AcDbEntity
8
1
100
AcDbVertex
100
AcDb3dPolylineVertex
10
378.809297
20
0.002494
30
2.002376
70
32
0
VERTEX
100
AcDbEntity
8
1
100
AcDbVertex
100
AcDb3dPolylineVertex
10
378.808780
20
0.001959
30
2.007805
70
32
0
VERTEX
100
AcDbEntity
8
1
100
AcDbVertex
100
AcDb3dPolylineVertex
10
378.808227
20
0.000241
30
2.013621
70
32
0
VERTEX
100
AcDbEntity
8
1
100
AcDbVertex
100
AcDb3dPolylineVertex
10
378.807647
20
-0.002623
30
2.019705
70
32
0
VERTEX
100
AcDbEntity
8
1
100
AcDbVertex
100
AcDb3dPolylineVertex
10
378.807054
20
-0.006577
30
2.025936
70
32
0
VERTEX
100
AcDbEntity
8
1
100
AcDbVertex
100
AcDb3dPolylineVertex
10
378.806458
20
-0.011541
30
2.032188
70
32
0
VERTEX
100
AcDbEntity
8
1
100
AcDbVertex
100
AcDb3dPolylineVertex
10
378.805872
20
-0.017414
30
2.038336
70
32
0
VERTEX
100
AcDbEntity
8
1
100
AcDbVertex
100
AcDb3dPolylineVertex
10
378.805308
20
-0.024078
30
2.044255
70
32
0
SEQEND
100
AcDbEntity
8
1
0
POLYLINE
100
AcDbEntity
8
1
62
3
100
AcDb3dPolyline
66
1
10
0.000000
20
0.000000
30
0.000000
70
8
0
VERTEX
100
AcDbEntity
8
1
100
AcDbVertex
100
AcDb3dPolylineVertex
10
378.805308
20
-0.024078
30
2.044255
70
32
0
VERTEX
100
AcDbEntity
8
1
100
AcDbVertex
100
AcDb3dPolylineVertex
10
378.798403
20
-0.112168
30
2.116596
70
32
0
VERTEX
100
AcDbEntity
8
1
100
AcDbVertex
100
AcDb3dPolylineVertex
10
378.786608
20
-0.262329
30
2.239660
70
32
0
VERTEX
100
AcDbEntity
8
1
100
AcDbVertex
100
AcDb3dPolylineVertex
10
378.769941
20
-0.473889
30
2.412507
70
32
0
VERTEX
100
AcDbEntity
8
1
100
AcDbVertex
100
AcDb3dPolylineVertex
10
378.748453
20
-0.746125
30
2.633522
70
32
0
VERTEX
100
AcDbEntity
8
1
100
AcDbVertex
100
AcDb3dPolylineVertex
10
378.722340
20
-1.078936
30
2.899291
70
32
0
VERTEX
100
AcDbEntity
8
1
100
AcDbVertex
100
AcDb3dPolylineVertex
10
378.691966
20
-1.473072
30
3.204273
70
32
0
VERTEX
100
AcDbEntity
8
1
100
AcDbVertex
100
AcDb3dPolylineVertex
10
378.657386
20
-1.927020
30
3.545959
70
32
0
VERTEX
100
AcDbEntity
8
1
100
AcDbVertex
100
AcDb3dPolylineVertex
10
378.618480
20
-2.437795
30
3.923556
70
32
0
VERTEX
100
AcDbEntity
8
1
100
AcDbVertex
100
AcDb3dPolylineVertex
10
378.575452
20
-3.004284
30
4.332585
70
32
0
VERTEX
100
AcDbEntity
8
1
100
AcDbVertex
100
AcDb3dPolylineVertex
10
378.528433
20
-3.624604
30
4.769245
70
32
0
VERTEX
100
AcDbEntity
8
1
100
AcDbVertex
100
AcDb3dPolylineVertex
10
378.477332
20
-4.295038
30
5.232137
70
32
0
VERTEX
100
AcDbEntity
8
1
100
AcDbVertex
100
AcDb3dPolylineVertex
10
378.422201
20
-5.012488
30
5.718340
70
32
0
VERTEX
100
AcDbEntity
8
1
100
AcDbVertex
100
AcDb3dPolylineVertex
10
378.363283
20
-5.774905
30
6.222815
70
32
0
VERTEX
100
AcDbEntity
8
1
100
AcDbVertex
100
AcDb3dPolylineVertex
10
378.300137
20
-6.574785
30
6.748701
70
32
0
VERTEX
100
AcDbEntity
8
1
100
AcDbVertex
100
AcDb3dPolylineVertex
10
378.233203
20
-7.410696
30
7.289154
70
32
0
VERTEX
100
AcDbEntity
8
1
100
AcDbVertex
100
AcDb3dPolylineVertex
10
378.162160
20
-8.274919
30
7.846808
70
32
0
VERTEX
100
AcDbEntity
8
1
100
AcDbVertex
100
AcDb3dPolylineVertex
10
378.087218
20
-9.163240
30
8.418476
70
32
0
VERTEX
100
AcDbEntity
8
1
100
AcDbVertex
100
AcDb3dPolylineVertex
10
378.008568
20
-10.070820
30
9.001683
70
32
0
VERTEX
100
AcDbEntity
8
1
100
AcDbVertex
100
AcDb3dPolylineVertex
10
377.926300
20
-10.991345
30
9.595964
70
32
0
VERTEX
100
AcDbEntity
8
1
100
AcDbVertex
100
AcDb3dPolylineVertex
10
377.840971
20
-11.922015
30
10.195374
70
32
0
VERTEX
100
AcDbEntity
8
1
100
AcDbVertex
100
AcDb3dPolylineVertex
10
377.752717
20
-12.855834
30
10.800186
70
32
0
VERTEX
100
AcDbEntity
8
1
100
AcDbVertex
100
AcDb3dPolylineVertex
10
377.662210
20
-13.790190
30
11.404071
70
32
0
VERTEX
100
AcDbEntity
8
1
100
AcDbVertex
100
AcDb3dPolylineVertex
10
377.569692
20
-14.717982
30
12.007354
70
32
0
VERTEX
100
AcDbEntity
8
1
100
AcDbVertex
100
AcDb3dPolylineVertex
10
377.475922
20
-15.636717
30
12.603637
70
32
0
VERTEX
100
AcDbEntity
8
1
100
AcDbVertex
100
AcDb3dPolylineVertex
10
377.381230
20
-16.539242
30
13.193419
70
32
0
VERTEX
100
AcDbEntity
8
1
100
AcDbVertex
100
AcDb3dPolylineVertex
10
377.286463
20
-17.423425
30
13.770086
70
32
0
VERTEX
100
AcDbEntity
8
1
100
AcDbVertex
100
AcDb3dPolylineVertex
10
377.192032
20
-18.282261
30
14.334214
70
32
0
VERTEX
100
AcDbEntity
8
1
100
AcDbVertex
100
AcDb3dPolylineVertex
10
377.098797
20
-19.113561
30
14.879765
70
32
0
VERTEX
100
AcDbEntity
8
1
100
AcDbVertex
100
AcDb3dPolylineVertex
10
377.007274
20
-19.911097
30
15.406698
70
32
0
VERTEX
100
AcDbEntity
8
1
100
AcDbVertex
100
AcDb3dPolylineVertex
10
376.918297
20
-20.672526
30
15.909852
70
32
0
VERTEX
100
AcDbEntity
8
1
100
AcDbVertex
100
AcDb3dPolylineVertex
10
376.832487
20
-21.393023
30
16.387913
70
32
0
VERTEX
100
AcDbEntity
8
1
100
AcDbVertex
100
AcDb3dPolylineVertex
10
376.750519
20
-22.068706
30
16.838651
70
32
0
VERTEX
100
AcDbEntity
8
1
100
AcDbVertex
100
AcDb3dPolylineVertex
10
376.673164
20
-22.697477
30
17.257861
70
32
0
VERTEX
100
AcDbEntity
8
1
100
AcDbVertex
100
AcDb3dPolylineVertex
10
376.600997
20
-23.275094
30
17.644752
70
32
0
VERTEX
100
AcDbEntity
8
1
100
AcDbVertex
100
AcDb3dPolylineVertex
10
376.534637
20
-23.798635
30
17.997248
70
32
0
VERTEX
100
AcDbEntity
8
1
100
AcDbVertex
100
AcDb3dPolylineVertex
10
376.474726
20
-24.266426
30
18.312145
70
32
0
VERTEX
100
AcDbEntity
8
1
100
AcDbVertex
100
AcDb3dPolylineVertex
10
376.421771
20
-24.675790
30
18.588179
70
32
0
VERTEX
100
AcDbEntity
8
1
100
AcDbVertex
100
AcDb3dPolylineVertex
10
376.376233
20
-25.024472
30
18.824107
70
32
0
VERTEX
100
AcDbEntity
8
1
100
AcDbVertex
100
AcDb3dPolylineVertex
10
376.338531
20
-25.310868
30
19.018449
70
32
0
VERTEX
100
AcDbEntity
8
1
100
AcDbVertex
100
AcDb3dPolylineVertex
10
376.309016
20
-25.533661
30
19.169981
70
32
0
VERTEX
100
AcDbEntity
8
1
100
AcDbVertex
100
AcDb3dPolylineVertex
10
376.287963
20
-25.691831
30
19.277747
70
32
0
VERTEX
100
AcDbEntity
8
1
100
AcDbVertex
100
AcDb3dPolylineVertex
10
376.275566
20
-25.784675
30
19.341078
70
32
0
SEQEND
100
AcDbEntity
8
1
0
POLYLINE
100
AcDbEntity
8
1
62
2
100
AcDb3dPolyline
66
1
10
0.000000
20
0.000000
30
0.000000
70
8
0
VERTEX
100
AcDbEntity
8
1
100
AcDbVertex
100
AcDb3dPolylineVertex
10
376.275566
20
-25.784675
30
19.341078
70
32
0
VERTEX
100
AcDbEntity
8
1
100
AcDbVertex
100
AcDb3dPolylineVertex
10
376.273981
20
-25.797631
30
19.348386
70
32
0
VERTEX
100
AcDbEntity
8
1
100
AcDbVertex
100
AcDb3dPolylineVertex
10
376.272541
20
-25.811651
30
19.353401
70
32
0
VERTEX
100
AcDbEntity
8
1
100
AcDbVertex
100
AcDb3dPolylineVertex
10
376.271287
20
-25.826333
30
19.355977
70
32
0
VERTEX
100
AcDbEntity
8
1
100
AcDbVertex
100
AcDb3dPolylineVertex
10
376.270256
20
-25.841258
30
19.356041
70
32
0
VERTEX
100
AcDbEntity
8
1
100
AcDbVertex
100
AcDb3dPolylineVertex
10
376.269478
20
-25.855997
30
19.353592
70
32
0
VERTEX
100
AcDbEntity
8
1
100
AcDbVertex
100
AcDb3dPolylineVertex
10
376.268973
20
-25.870127
30
19.348699
70
32
0
VERTEX
100
AcDbEntity
8
1
100
AcDbVertex
100
AcDb3dPolylineVertex
10
376.268758
20
-25.883245
30
19.341503
70
32
0
VERTEX
100
AcDbEntity
8
1
100
AcDbVertex
100
AcDb3dPolylineVertex
10
376.268838
20
-25.894974
30
19.332210
70
32
0
VERTEX
100
AcDbEntity
8
1
100
AcDbVertex
100
AcDb3dPolylineVertex
10
376.269212
20
-25.904978
30
19.321086
70
32
0
VERTEX
100
AcDbEntity
8
1
100
AcDbVertex
100
AcDb3dPolylineVertex
10
376.269868
20
-25.912968
30
19.308450
70
32
0
VERTEX
100
AcDbEntity
8
1
100
AcDbVertex
100
AcDb3dPolylineVertex
10
376.270788
20
-25.918717
30
19.294664
70
32
0
VERTEX
100
AcDbEntity
8
1
100
AcDbVertex
100
AcDb3dPolylineVertex
10
376.271946
20
-25.922058
30
19.280124
70
32
0
VERTEX
100
AcDbEntity
8
1
100
AcDbVertex
100
AcDb3dPolylineVertex
10
376.273308
20
-25.922896
30
19.265246
70
32
0
VERTEX
100
AcDbEntity
8
1
100
AcDbVertex
100
AcDb3dPolylineVertex
10
376.274837
20
-25.921205
30
19.250456
70
32
0
VERTEX
100
AcDbEntity
8
1
100
AcDbVertex
100
AcDb3dPolylineVertex
10
376.276487
20
-25.917034
30
19.236179
70
32
0
VERTEX
100
AcDbEntity
8
1
100
AcDbVertex
100
AcDb3dPolylineVertex
10
376.278212
20
-25.910502
30
19.222824
70
32
0
VERTEX
100
AcDbEntity
8
1
100
AcDbVertex
100
AcDb3dPolylineVertex
10
376.279961
20
-25.901797
30
19.210774
70
32
0
VERTEX
100
AcDbEntity
8
1
100
AcDbVertex
100
AcDb3dPolylineVertex
10
376.281686
20
-25.891169
30
19.200375
70
32
0
SEQEND
100
AcDbEntity
8
1
0
POLYLINE
100
AcDbEntity
8
1
62
1
100
AcDb3dPolyline
66
1
10
0.000000
20
0.000000
30
0.000000
70
8
0
VERTEX
100
AcDbEntity
8
1
100
AcDbVertex
100
AcDb3dPolylineVertex
10
376.281686
20
-25.891169
30
19.200375
70
32
0
VERTEX
100
AcDbEntity
8
1
100
AcDbVertex
100
AcDb3dPolylineVertex
10
376.294469
20
-25.804387
30
19.128909
70
32
0
VERTEX
100
AcDbEntity
8
1
100
AcDbVertex
100
AcDb3dPolylineVertex
10
376.316190
20
-25.656520
30
19.007285
70
32
0
VERTEX
100
AcDbEntity
8
1
100
AcDbVertex
100
AcDb3dPolylineVertex
10
376.346663
20
-25.448182
30
18.836242
70
32
0
VERTEX
100
AcDbEntity
8
1
100
AcDbVertex
100
AcDb3dPolylineVertex
10
376.385626
20
-25.180270
30
18.616838
70
32
0
VERTEX
100
AcDbEntity
8
1
100
AcDbVertex
100
AcDb3dPolylineVertex
10
376.432743
20
-24.853945
30
18.350419
70
32
0
VERTEX
100
AcDbEntity
8
1
100
AcDbVertex
100
AcDb3dPolylineVertex
10
376.487614
20
-24.470630
30
18.038615
70
32
0
VERTEX
100
AcDbEntity
8
1
100
AcDbVertex
100
AcDb3dPolylineVertex
10
376.549749
20
-24.031651
30
17.683807
70
32
0
VERTEX
100
AcDbEntity
8
1
100
AcDbVertex
100
AcDb3dPolylineVertex
10
376.618592
20
-23.538452
30
17.288825
70
32
0
VERTEX
100
AcDbEntity
8
1
100
AcDbVertex
100
AcDb3dPolylineVertex
10
376.693617
20
-22.994014
30
16.855010
70
32
0
VERTEX
100
AcDbEntity
8
1
100
AcDbVertex
100
AcDb3dPolylineVertex
10
376.774191
20
-22.400595
30
16.385230
70
32
0
VERTEX
100
AcDbEntity
8
1
100
AcDbVertex
100
AcDb3dPolylineVertex
10
376.859566
20
-21.759643
30
15.884008
70
32
0
VERTEX
100
AcDbEntity
8
1
100
AcDbVertex
100
AcDb3dPolylineVertex
10
376.949132
20
-21.075243
30
15.352768
70
32
0
VERTEX
100
AcDbEntity
8
1
100
AcDbVertex
100
AcDb3dPolylineVertex
10
377.042152
20
-20.350173
30
14.795191
70
32
0
VERTEX
100
AcDbEntity
8
1
100
AcDbVertex
100
AcDb3dPolylineVertex
10
377.137808
20
-19.586722
30
14.216103
70
32
0
VERTEX
100
AcDbEntity
8
1
100
AcDbVertex
100
AcDb3dPolylineVertex
10
377.235497
20
-18.790089
30
13.616668
70
32
0
VERTEX
100
AcDbEntity
8
1
100
AcDbVertex
100
AcDb3dPolylineVertex
10
377.334315
20
-17.961988
30
13.003311
70
32
0
VERTEX
100
AcDbEntity
8
1
100
AcDbVertex
100
AcDb3dPolylineVertex
10
377.433727
20
-17.108535
30
12.376553
70
32
0
VERTEX
100
AcDbEntity
8
1
100
AcDbVertex
100
AcDb3dPolylineVertex
10
377.532805
20
-16.231365
30
11.743580
70
32
0
VERTEX
100
AcDbEntity
8
1
100
AcDbVertex
100
AcDb3dPolylineVertex
10
377.631109
20
-15.337278
30
11.104396
70
32
0
VERTEX
100
AcDbEntity
8
1
100
AcDbVertex
100
AcDb3dPolylineVertex
10
377.727767
20
-14.428295
30
10.466085
70
32
0
VERTEX
100
AcDbEntity
8
1
100
AcDbVertex
100
AcDb3dPolylineVertex
10
377.822416
20
-13.511308
30
9.828763
70
32
0
VERTEX
100
AcDbEntity
8
1
100
AcDbVertex
100
AcDb3dPolylineVertex
10
377.914275
20
-12.588751
30
9.199163
70
32
0
VERTEX
100
AcDbEntity
8
1
100
AcDbVertex
100
AcDb3dPolylineVertex
10
378.003094
20
-11.667649
30
8.577224
70
32
0
VERTEX
100
AcDbEntity
8
1
100
AcDbVertex
100
AcDb3dPolylineVertex
10
378.088204
20
-10.750695
30
7.969316
70
32
0
VERTEX
100
AcDbEntity
8
1
100
AcDbVertex
100
AcDb3dPolylineVertex
10
378.169460
20
-9.844772
30
7.375396
70
32
0
VERTEX
100
AcDbEntity
8
1
100
AcDbVertex
100
AcDb3dPolylineVertex
10
378.246369
20
-8.953188
30
6.800679
70
32
0
VERTEX
100
AcDbEntity
8
1
100
AcDbVertex
100
AcDb3dPolylineVertex
10
378.318652
20
-8.080608
30
6.248127
70
32
0
VERTEX
100
AcDbEntity
8
1
100
AcDbVertex
100
AcDb3dPolylineVertex
10
378.386156
20
-7.232149
30
5.719731
70
32
0
VERTEX
100
AcDbEntity
8
1
100
AcDbVertex
100
AcDb3dPolylineVertex
10
378.448302
20
-6.409188
30
5.223024
70
32
0
VERTEX
100
AcDbEntity
8
1
100
AcDbVertex
100
AcDb3dPolylineVertex
10
378.505362
20
-5.619103
30
4.755777
70
32
0
VERTEX
100
AcDbEntity
8
1
100
AcDbVertex
100
AcDb3dPolylineVertex
10
378.556821
20
-4.862857
30
4.325439
70
32
0
VERTEX
100
AcDbEntity
8
1
100
AcDbVertex
100
AcDb3dPolylineVertex
10
378.602916
20
-4.146471
30
3.930977
70
32
0
VERTEX
100
AcDbEntity
8
1
100
AcDbVertex
100
AcDb3dPolylineVertex
10
378.643758
20
-3.474473
30
3.573161
70
32
0
VERTEX
100
AcDbEntity
8
1
100
AcDbVertex
100
AcDb3dPolylineVertex
10
378.679372
20
-2.850274
30
3.253961
70
32
0
VERTEX
100
AcDbEntity
8
1
100
AcDbVertex
100
AcDb3dPolylineVertex
10
378.710038
20
-2.278581
30
2.972628
70
32
0
VERTEX
100
AcDbEntity
8
1
100
AcDbVertex
100
AcDb3dPolylineVertex
10
378.736138
20
-1.764286
30
2.727406
70
32
0
VERTEX
100
AcDbEntity
8
1
100
AcDbVertex
100
AcDb3dPolylineVertex
10
378.757744
20
-1.309788
30
2.519905
70
32
0
VERTEX
100
AcDbEntity
8
1
100
AcDbVertex
100
AcDb3dPolylineVertex
10
378.775107
20
-0.918305
30
2.349691
70
32
0
VERTEX
100
AcDbEntity
8
1
100
AcDbVertex
100
AcDb3dPolylineVertex
10
378.788774
20
-0.594628
30
2.212972
70
32
0
VERTEX
100
AcDbEntity
8
1
100
AcDbVertex
100
AcDb3dPolylineVertex
10
378.799107
20
-0.341989
30
2.107756
70
32
0
VERTEX
100
AcDbEntity
8
1
100
AcDbVertex
100
AcDb3dPolylineVertex
10
378.806295
20
-0.162263
30
2.033533
70
32
0
VERTEX
100
AcDbEntity
8
1
100
AcDbVertex
100
AcDb3dPolylineVertex
10
378.810456
20
-0.056672
30
1.990167
70
32
0
SEQEND
100
AcDbEntity
8
1
0
POLYLINE
100
AcDbEntity
8
1
62
7
100
AcDb3dPolyline
66
1
10
0.000000
20
0.000000
30
0.000000
70
8
0
VERTEX
100
AcDbEntity
8
1
100
AcDbVertex
100
AcDb3dPolylineVertex
10
328.000111
20
-0.105533
30
-0.002693
70
32
0
VERTEX
100
AcDbEntity
8
1
100
AcDbVertex
100
AcDb3dPolylineVertex
10
340.702706
20
-0.093282
30
0.495274
70
32
0
VERTEX
100
AcDbEntity
8
1
100
AcDbVertex
100
AcDb3dPolylineVertex
10
353.405299
20
-0.081077
30
0.993406
70
32
0
VERTEX
100
AcDbEntity
8
1
100
AcDbVertex
100
AcDb3dPolylineVertex
10
366.107884
20
-0.068888
30
1.491703
70
32
0
VERTEX
100
AcDbEntity
8
1
100
AcDbVertex
100
AcDb3dPolylineVertex
10
378.810456
20
-0.056672
30
1.990167
70
32
0
SEQEND
100
AcDbEntity
8
1
0
POLYLINE
100
AcDbEntity
8
1
62
7
100
AcDb3dPolyline
66
1
10
0.000000
20
0.000000
30
0.000000
70
8
0
VERTEX
100
AcDbEntity
8
1
100
AcDbVertex
100
AcDb3dPolylineVertex
10
327.995114
20
-0.024353
30
0.102581
70
32
0
VERTEX
100
AcDbEntity
8
1
100
AcDbVertex
100
AcDb3dPolylineVertex
10
340.697366
20
-0.026099
30
0.587717
70
32
0
VERTEX
100
AcDbEntity
8
1
100
AcDbVertex
100
AcDb3dPolylineVertex
10
353.399803
20
-0.026645
30
1.072996
70
32
0
VERTEX
100
AcDbEntity
8
1
100
AcDbVertex
100
AcDb3dPolylineVertex
10
366.102444
20
-0.025976
30
1.558489
70
32
0
VERTEX
100
AcDbEntity
8
1
100
AcDbVertex
100
AcDb3dPolylineVertex
10
378.805308
20
-0.024078
30
2.044255
70
32
0
SEQEND
100
AcDbEntity
8
1
0
POLYLINE
100
AcDbEntity
8
1
62
7
100
AcDb3dPolyline
66
1
10
0.000000
20
0.000000
30
0.000000
70
8
0
VERTEX
100
AcDbEntity
8
1
100
AcDbVertex
100
AcDb3dPolylineVertex
10
326.213561
20
-22.853930
30
20.724195
70
32
0
VERTEX
100
AcDbEntity
8
1
100
AcDbVertex
100
AcDb3dPolylineVertex
10
338.732098
20
-23.606660
30
20.343348
70
32
0
VERTEX
100
AcDbEntity
8
1
100
AcDbVertex
100
AcDb3dPolylineVertex
10
351.249672
20
-24.363845
30
19.962587
70
32
0
VERTEX
100
AcDbEntity
8
1
100
AcDbVertex
100
AcDb3dPolylineVertex
10
363.766225
20
-25.125392
30
19.581656
70
32
0
VERTEX
100
AcDbEntity
8
1
100
AcDbVertex
100
AcDb3dPolylineVertex
10
376.281686
20
-25.891169
30
19.200375
70
32
0
SEQEND
100
AcDbEntity
8
1
0
POLYLINE
100
AcDbEntity
8
1
62
7
100
AcDb3dPolyline
66
1
10
0.000000
20
0.000000
30
0.000000
70
8
0
VERTEX
100
AcDbEntity
8
1
100
AcDbVertex
100
AcDb3dPolylineVertex
10
326.221644
20
-22.548456
30
21.000202
70
32
0
VERTEX
100
AcDbEntity
8
1
100
AcDbVertex
100
AcDb3dPolylineVertex
10
338.734972
20
-23.358404
30
20.590381
70
32
0
VERTEX
100
AcDbEntity
8
1
100
AcDbVertex
100
AcDb3dPolylineVertex
10
351.248342
20
-24.167786
30
20.177185
70
32
0
VERTEX
100
AcDbEntity
8
1
100
AcDbVertex
100
AcDb3dPolylineVertex
10
363.761841
20
-24.976541
30
19.760713
70
32
0
VERTEX
100
AcDbEntity
8
1
100
AcDbVertex
100
AcDb3dPolylineVertex
10
376.275566
20
-25.784675
30
19.341078
70
32
0
SEQEND
100
AcDbEntity
8
1
0
POLYLINE
100
AcDbEntity
8
1
62
7
100
AcDb3dPolyline
66
1
10
0.000000
20
0.000000
30
0.000000
70
8
0
VERTEX
100
AcDbEntity
8
1
100
AcDbVertex
100
AcDb3dPolylineVertex
10
328.000000
20
0.000000
30
-51.000000
70
32
0
VERTEX
100
AcDbEntity
8
1
100
AcDbVertex
100
AcDb3dPolylineVertex
10
328.000000
20
0.000000
30
0.000000
70
32
0
VERTEX
100
AcDbEntity
8
1
100
AcDbVertex
100
AcDb3dPolylineVertex
10
327.983333
20
0.000000
30
0.350000
70
32
0
VERTEX
100
AcDbEntity
8
1
100
AcDbVertex
100
AcDb3dPolylineVertex
10
327.966667
20
0.000000
30
0.700000
70
32
0
VERTEX
100
AcDbEntity
8
1
100
AcDbVertex
100
AcDb3dPolylineVertex
10
327.950000
20
0.000000
30
1.050000
70
32
0
VERTEX
100
AcDbEntity
8
1
100
AcDbVertex
100
AcDb3dPolylineVertex
10
327.933333
20
0.000000
30
1.400000
70
32
0
VERTEX
100
AcDbEntity
8
1
100
AcDbVertex
100
AcDb3dPolylineVertex
10
327.916667
20
0.000000
30
1.750000
70
32
0
VERTEX
100
AcDbEntity
8
1
100
AcDbVertex
100
AcDb3dPolylineVertex
10
327.900000
20
0.000000
30
2.100000
70
32
0
VERTEX
100
AcDbEntity
8
1
100
AcDbVertex
100
AcDb3dPolylineVertex
10
327.883333
20
0.000000
30
2.450000
70
32
0
VERTEX
100
AcDbEntity
8
1
100
AcDbVertex
100
AcDb3dPolylineVertex
10
327.866667
20
0.000000
30
2.800000
70
32
0
VERTEX
100
AcDbEntity
8
1
100
AcDbVertex
100
AcDb3dPolylineVertex
10
327.850000
20
0.000000
30
3.150000
70
32
0
VERTEX
100
AcDbEntity
8
1
100
AcDbVertex
100
AcDb3dPolylineVertex
10
327.833333
20
0.000000
30
3.500000
70
32
0
VERTEX
100
AcDbEntity
8
1
100
AcDbVertex
100
AcDb3dPolylineVertex
10
327.816667
20
0.000000
30
3.850000
70
32
0
VERTEX
100
AcDbEntity
8
1
100
AcDbVertex
100
AcDb3dPolylineVertex
10
327.800000
20
0.000000
30
4.200000
70
32
0
VERTEX
100
AcDbEntity
8
1
100
AcDbVertex
100
AcDb3dPolylineVertex
10
327.783333
20
0.000000
30
4.550000
70
32
0
VERTEX
100
AcDbEntity
8
1
100
AcDbVertex
100
AcDb3dPolylineVertex
10
327.766667
20
0.000000
30
4.900000
70
32
0
VERTEX
100
AcDbEntity
8
1
100
AcDbVertex
100
AcDb3dPolylineVertex
10
327.750000
20
0.000000
30
5.250000
70
32
0
VERTEX
100
AcDbEntity
8
1
100
AcDbVertex
100
AcDb3dPolylineVertex
10
327.733333
20
0.000000
30
5.600000
70
32
0
VERTEX
100
AcDbEntity
8
1
100
AcDbVertex
100
AcDb3dPolylineVertex
10
327.716667
20
0.000000
30
5.950000
70
32
0
VERTEX
100
AcDbEntity
8
1
100
AcDbVertex
100
AcDb3dPolylineVertex
10
327.700000
20
0.000000
30
6.300000
70
32
0
VERTEX
100
AcDbEntity
8
1
100
AcDbVertex
100
AcDb3dPolylineVertex
10
327.683333
20
0.000000
30
6.650000
70
32
0
VERTEX
100
AcDbEntity
8
1
100
AcDbVertex
100
AcDb3dPolylineVertex
10
327.666667
20
0.000000
30
7.000000
70
32
0
VERTEX
100
AcDbEntity
8
1
100
AcDbVertex
100
AcDb3dPolylineVertex
10
327.650000
20
0.000000
30
7.350000
70
32
0
VERTEX
100
AcDbEntity
8
1
100
AcDbVertex
100
AcDb3dPolylineVertex
10
327.633333
20
0.000000
30
7.700000
70
32
0
VERTEX
100
AcDbEntity
8
1
100
AcDbVertex
100
AcDb3dPolylineVertex
10
327.616667
20
0.000000
30
8.050000
70
32
0
VERTEX
100
AcDbEntity
8
1
100
AcDbVertex
100
AcDb3dPolylineVertex
10
327.600000
20
0.000000
30
8.400000
70
32
0
VERTEX
100
AcDbEntity
8
1
100
AcDbVertex
100
AcDb3dPolylineVertex
10
327.583333
20
0.000000
30
8.750000
70
32
0
VERTEX
100
AcDbEntity
8
1
100
AcDbVertex
100
AcDb3dPolylineVertex
10
327.566667
20
0.000000
30
9.100000
70
32
0
VERTEX
100
AcDbEntity
8
1
100
AcDbVertex
100
AcDb3dPolylineVertex
10
327.550000
20
0.000000
30
9.450000
70
32
0
VERTEX
100
AcDbEntity
8
1
100
AcDbVertex
100
AcDb3dPolylineVertex
10
327.533333
20
0.000000
30
9.800000
70
32
0
VERTEX
100
AcDbEntity
8
1
100
AcDbVertex
100
AcDb3dPolylineVertex
10
327.516667
20
0.000000
30
10.150000
70
32
0
VERTEX
100
AcDbEntity
8
1
100
AcDbVertex
100
AcDb3dPolylineVertex
10
327.500000
20
0.000000
30
10.500000
70
32
0
VERTEX
100
AcDbEntity
8
1
100
AcDbVertex
100
AcDb3dPolylineVertex
10
327.483333
20
0.000000
30
10.850000
70
32
0
VERTEX
100
AcDbEntity
8
1
100
AcDbVertex
100
AcDb3dPolylineVertex
10
327.466667
20
0.000000
30
11.200000
70
32
0
VERTEX
100
AcDbEntity
8
1
100
AcDbVertex
100
AcDb3dPolylineVertex
10
327.450000
20
0.000000
30
11.550000
70
32
0
VERTEX
100
AcDbEntity
8
1
100
AcDbVertex
100
AcDb3dPolylineVertex
10
327.433333
20
0.000000
30
11.900000
70
32
0
VERTEX
100
AcDbEntity
8
1
100
AcDbVertex
100
AcDb3dPolylineVertex
10
327.416667
20
0.000000
30
12.250000
70
32
0
VERTEX
100
AcDbEntity
8
1
100
AcDbVertex
100
AcDb3dPolylineVertex
10
327.400000
20
0.000000
30
12.600000
70
32
0
VERTEX
100
AcDbEntity
8
1
100
AcDbVertex
100
AcDb3dPolylineVertex
10
327.383333
20
0.000000
30
12.950000
70
32
0
VERTEX
100
AcDbEntity
8
1
100
AcDbVertex
100
AcDb3dPolylineVertex
10
327.366667
20
0.000000
30
13.300000
70
32
0
VERTEX
100
AcDbEntity
8
1
100
AcDbVertex
100
AcDb3dPolylineVertex
10
327.350000
20
0.000000
30
13.650000
70
32
0
VERTEX
100
AcDbEntity
8
1
100
AcDbVertex
100
AcDb3dPolylineVertex
10
327.333333
20
0.000000
30
14.000000
70
32
0
VERTEX
100
AcDbEntity
8
1
100
AcDbVertex
100
AcDb3dPolylineVertex
10
327.316667
20
0.000000
30
14.350000
70
32
0
VERTEX
100
AcDbEntity
8
1
100
AcDbVertex
100
AcDb3dPolylineVertex
10
327.300000
20
0.000000
30
14.700000
70
32
0
VERTEX
100
AcDbEntity
8
1
100
AcDbVertex
100
AcDb3dPolylineVertex
10
327.283333
20
0.000000
30
15.050000
70
32
0
VERTEX
100
AcDbEntity
8
1
100
AcDbVertex
100
AcDb3dPolylineVertex
10
327.266667
20
0.000000
30
15.400000
70
32
0
VERTEX
100
AcDbEntity
8
1
100
AcDbVertex
100
AcDb3dPolylineVertex
10
327.250000
20
0.000000
30
15.750000
70
32
0
VERTEX
100
AcDbEntity
8
1
100
AcDbVertex
100
AcDb3dPolylineVertex
10
327.233333
20
0.000000
30
16.100000
70
32
0
VERTEX
100
AcDbEntity
8
1
100
AcDbVertex
100
AcDb3dPolylineVertex
10
327.216667
20
0.000000
30
16.450000
70
32
0
VERTEX
100
AcDbEntity
8
1
100
AcDbVertex
100
AcDb3dPolylineVertex
10
327.200000
20
0.000000
30
16.800000
70
32
0
VERTEX
100
AcDbEntity
8
1
100
AcDbVertex
100
AcDb3dPolylineVertex
10
327.183333
20
0.000000
30
17.150000
70
32
0
VERTEX
100
AcDbEntity
8
1
100
AcDbVertex
100
AcDb3dPolylineVertex
10
327.166667
20
0.000000
30
17.500000
70
32
0
VERTEX
100
AcDbEntity
8
1
100
AcDbVertex
100
AcDb3dPolylineVertex
10
327.150000
20
0.000000
30
17.850000
70
32
0
VERTEX
100
AcDbEntity
8
1
100
AcDbVertex
100
AcDb3dPolylineVertex
10
327.133333
20
0.000000
30
18.200000
70
32
0
VERTEX
100
AcDbEntity
8
1
100
AcDbVertex
100
AcDb3dPolylineVertex
10
327.116667
20
0.000000
30
18.550000
70
32
0
VERTEX
100
AcDbEntity
8
1
100
AcDbVertex
100
AcDb3dPolylineVertex
10
327.100000
20
0.000000
30
18.900000
70
32
0
VERTEX
100
AcDbEntity
8
1
100
AcDbVertex
100
AcDb3dPolylineVertex
10
327.083333
20
0.000000
30
19.250000
70
32
0
VERTEX
100
AcDbEntity
8
1
100
AcDbVertex
100
AcDb3dPolylineVertex
10
327.066667
20
0.000000
30
19.600000
70
32
0
VERTEX
100
AcDbEntity
8
1
100
AcDbVertex
100
AcDb3dPolylineVertex
10
327.050000
20
0.000000
30
19.950000
70
32
0
VERTEX
100
AcDbEntity
8
1
100
AcDbVertex
100
AcDb3dPolylineVertex
10
327.033333
20
0.000000
30
20.300000
70
32
0
VERTEX
100
AcDbEntity
8
1
100
AcDbVertex
100
AcDb3dPolylineVertex
10
327.016667
20
0.000000
30
20.650000
70
32
0
VERTEX
100
AcDbEntity
8
1
100
AcDbVertex
100
AcDb3dPolylineVertex
10
327.000000
20
0.000000
30
21.000000
70
32
0
VERTEX
100
AcDbEntity
8
1
100
AcDbVertex
100
AcDb3dPolylineVertex
10
327.000000
20
0.000000
30
71.000000
70
32
0
SEQEND
100
AcDbEntity
8
1
0
POLYLINE
100
AcDbEntity
8
1
62
7
100
AcDb3dPolyline
66
1
10
0.000000
20
0.000000
30
0.000000
70
8
0
VERTEX
100
AcDbEntity
8
1
100
AcDbVertex
100
AcDb3dPolylineVertex
10
379.000000
20
0.000000
30
-51.000000
70
32
0
VERTEX
100
AcDbEntity
8
1
100
AcDbVertex
100
AcDb3dPolylineVertex
10
379.000000
20
0.000000
30
0.000000
70
32
0
VERTEX
100
AcDbEntity
8
1
100
AcDbVertex
100
AcDb3dPolylineVertex
10
378.810181
20
0.000000
30
1.993104
70
32
0
VERTEX
100
AcDbEntity
8
1
100
AcDbVertex
100
AcDb3dPolylineVertex
10
378.782676
20
0.000000
30
2.281903
70
32
0
VERTEX
100
AcDbEntity
8
1
100
AcDbVertex
100
AcDb3dPolylineVertex
10
378.755171
20
0.000000
30
2.570703
70
32
0
VERTEX
100
AcDbEntity
8
1
100
AcDbVertex
100
AcDb3dPolylineVertex
10
378.727666
20
0.000000
30
2.859503
70
32
0
VERTEX
100
AcDbEntity
8
1
100
AcDbVertex
100
AcDb3dPolylineVertex
10
378.700162
20
0.000000
30
3.148302
70
32
0
VERTEX
100
AcDbEntity
8
1
100
AcDbVertex
100
AcDb3dPolylineVertex
10
378.672657
20
0.000000
30
3.437102
70
32
0
VERTEX
100
AcDbEntity
8
1
100
AcDbVertex
100
AcDb3dPolylineVertex
10
378.645152
20
0.000000
30
3.725902
70
32
0
VERTEX
100
AcDbEntity
8
1
100
AcDbVertex
100
AcDb3dPolylineVertex
10
378.617647
20
0.000000
30
4.014702
70
32
0
VERTEX
100
AcDbEntity
8
1
100
AcDbVertex
100
AcDb3dPolylineVertex
10
378.590143
20
0.000000
30
4.303501
70
32
0
VERTEX
100
AcDbEntity
8
1
100
AcDbVertex
100
AcDb3dPolylineVertex
10
378.562638
20
0.000000
30
4.592301
70
32
0
VERTEX
100
AcDbEntity
8
1
100
AcDbVertex
100
AcDb3dPolylineVertex
10
378.535133
20
0.000000
30
4.881101
70
32
0
VERTEX
100
AcDbEntity
8
1
100
AcDbVertex
100
AcDb3dPolylineVertex
10
378.507629
20
0.000000
30
5.169900
70
32
0
VERTEX
100
AcDbEntity
8
1
100
AcDbVertex
100
AcDb3dPolylineVertex
10
378.480124
20
0.000000
30
5.458700
70
32
0
VERTEX
100
AcDbEntity
8
1
100
AcDbVertex
100
AcDb3dPolylineVertex
10
378.452619
20
0.000000
30
5.747500
70
32
0
VERTEX
100
AcDbEntity
8
1
100
AcDbVertex
100
AcDb3dPolylineVertex
10
378.425114
20
0.000000
30
6.036300
70
32
0
VERTEX
100
AcDbEntity
8
1
100
AcDbVertex
100
AcDb3dPolylineVertex
10
378.397610
20
0.000000
30
6.325099
70
32
0
VERTEX
100
AcDbEntity
8
1
100
AcDbVertex
100
AcDb3dPolylineVertex
10
378.370105
20
0.000000
30
6.613899
70
32
0
VERTEX
100
AcDbEntity
8
1
100
AcDbVertex
100
AcDb3dPolylineVertex
10
378.342600
20
0.000000
30
6.902699
70
32
0
VERTEX
100
AcDbEntity
8
1
100
AcDbVertex
100
AcDb3dPolylineVertex
10
378.315095
20
0.000000
30
7.191498
70
32
0
VERTEX
100
AcDbEntity
8
1
100
AcDbVertex
100
AcDb3dPolylineVertex
10
378.287591
20
0.000000
30
7.480298
70
32
0
VERTEX
100
AcDbEntity
8
1
100
AcDbVertex
100
AcDb3dPolylineVertex
10
378.260086
20
0.000000
30
7.769098
70
32
0
VERTEX
100
AcDbEntity
8
1
100
AcDbVertex
100
AcDb3dPolylineVertex
10
378.232581
20
0.000000
30
8.057897
70
32
0
VERTEX
100
AcDbEntity
8
1
100
AcDbVertex
100
AcDb3dPolylineVertex
10
378.205076
20
0.000000
30
8.346697
70
32
0
VERTEX
100
AcDbEntity
8
1
100
AcDbVertex
100
AcDb3dPolylineVertex
10
378.177572
20
0.000000
30
8.635497
70
32
0
VERTEX
100
AcDbEntity
8
1
100
AcDbVertex
100
AcDb3dPolylineVertex
10
378.150067
20
0.000000
30
8.924297
70
32
0
VERTEX
100
AcDbEntity
8
1
100
AcDbVertex
100
AcDb3dPolylineVertex
10
378.122562
20
0.000000
30
9.213096
70
32
0
VERTEX
100
AcDbEntity
8
1
100
AcDbVertex
100
AcDb3dPolylineVertex
10
378.095058
20
0.000000
30
9.501896
70
32
0
VERTEX
100
AcDbEntity
8
1
100
AcDbVertex
100
AcDb3dPolylineVertex
10
378.067553
20
0.000000
30
9.790696
70
32
0
VERTEX
100
AcDbEntity
8
1
100
AcDbVertex
100
AcDb3dPolylineVertex
10
378.040048
20
0.000000
30
10.079495
70
32
0
VERTEX
100
AcDbEntity
8
1
100
AcDbVertex
100
AcDb3dPolylineVertex
10
378.012543
20
0.000000
30
10.368295
70
32
0
VERTEX
100
AcDbEntity
8
1
100
AcDbVertex
100
AcDb3dPolylineVertex
10
377.985039
20
0.000000
30
10.657095
70
32
0
VERTEX
100
AcDbEntity
8
1
100
AcDbVertex
100
AcDb3dPolylineVertex
10
377.957534
20
0.000000
30
10.945895
70
32
0
VERTEX
100
AcDbEntity
8
1
100
AcDbVertex
100
AcDb3dPolylineVertex
10
377.930029
20
0.000000
30
11.234694
70
32
0
VERTEX
100
AcDbEntity
8
1
100
AcDbVertex
100
AcDb3dPolylineVertex
10
377.902524
20
0.000000
30
11.523494
70
32
0
VERTEX
100
AcDbEntity
8
1
100
AcDbVertex
100
AcDb3dPolylineVertex
10
377.875020
20
0.000000
30
11.812294
70
32
0
VERTEX
100
AcDbEntity
8
1
100
AcDbVertex
100
AcDb3dPolylineVertex
10
377.847515
20
0.000000
30
12.101093
70
32
0
VERTEX
100
AcDbEntity
8
1
100
AcDbVertex
100
AcDb3dPolylineVertex
10
377.820010
20
0.000000
30
12.389893
70
32
0
VERTEX
100
AcDbEntity
8
1
100
AcDbVertex
100
AcDb3dPolylineVertex
10
377.792505
20
0.000000
30
12.678693
70
32
0
VERTEX
100
AcDbEntity
8
1
100
AcDbVertex
100
AcDb3dPolylineVertex
10
377.765001
20
0.000000
30
12.967492
70
32
0
VERTEX
100
AcDbEntity
8
1
100
AcDbVertex
100
AcDb3dPolylineVertex
10
377.737496
20
0.000000
30
13.256292
70
32
0
VERTEX
100
AcDbEntity
8
1
100
AcDbVertex
100
AcDb3dPolylineVertex
10
377.709991
20
0.000000
30
13.545092
70
32
0
VERTEX
100
AcDbEntity
8
1
100
AcDbVertex
100
AcDb3dPolylineVertex
10
377.682487
20
0.000000
30
13.833892
70
32
0
VERTEX
100
AcDbEntity
8
1
100
AcDbVertex
100
AcDb3dPolylineVertex
10
377.654982
20
0.000000
30
14.122691
70
32
0
VERTEX
100
AcDbEntity
8
1
100
AcDbVertex
100
AcDb3dPolylineVertex
10
377.627477
20
0.000000
30
14.411491
70
32
0
VERTEX
100
AcDbEntity
8
1
100
AcDbVertex
100
AcDb3dPolylineVertex
10
377.599972
20
0.000000
30
14.700291
70
32
0
VERTEX
100
AcDbEntity
8
1
100
AcDbVertex
100
AcDb3dPolylineVertex
10
377.572468
20
0.000000
30
14.989090
70
32
0
VERTEX
100
AcDbEntity
8
1
100
AcDbVertex
100
AcDb3dPolylineVertex
10
377.544963
20
0.000000
30
15.277890
70
32
0
VERTEX
100
AcDbEntity
8
1
100
AcDbVertex
100
AcDb3dPolylineVertex
10
377.517458
20
0.000000
30
15.566690
70
32
0
VERTEX
100
AcDbEntity
8
1
100
AcDbVertex
100
AcDb3dPolylineVertex
10
377.489953
20
0.000000
30
15.855489
70
32
0
VERTEX
100
AcDbEntity
8
1
100
AcDbVertex
100
AcDb3dPolylineVertex
10
377.462449
20
0.000000
30
16.144289
70
32
0
VERTEX
100
AcDbEntity
8
1
100
AcDbVertex
100
AcDb3dPolylineVertex
10
377.434944
20
0.000000
30
16.433089
70
32
0
VERTEX
100
AcDbEntity
8
1
100
AcDbVertex
100
AcDb3dPolylineVertex
10
377.407439
20
0.000000
30
16.721889
70
32
0
VERTEX
100
AcDbEntity
8
1
100
AcDbVertex
100
AcDb3dPolylineVertex
10
377.379934
20
0.000000
30
17.010688
70
32
0
VERTEX
100
AcDbEntity
8
1
100
AcDbVertex
100
AcDb3dPolylineVertex
10
377.352430
20
0.000000
30
17.299488
70
32
0
VERTEX
100
AcDbEntity
8
1
100
AcDbVertex
100
AcDb3dPolylineVertex
10
377.324925
20
0.000000
30
17.588288
70
32
0
VERTEX
100
AcDbEntity
8
1
100
AcDbVertex
100
AcDb3dPolylineVertex
10
377.297420
20
0.000000
30
17.877087
70
32
0
VERTEX
100
AcDbEntity
8
1
100
AcDbVertex
100
AcDb3dPolylineVertex
10
377.269916
20
0.000000
30
18.165887
70
32
0
VERTEX
100
AcDbEntity
8
1
100
AcDbVertex
100
AcDb3dPolylineVertex
10
377.242411
20
0.000000
30
18.454687
70
32
0
VERTEX
100
AcDbEntity
8
1
100
AcDbVertex
100
AcDb3dPolylineVertex
10
377.214906
20
0.000000
30
18.743487
70
32
0
VERTEX
100
AcDbEntity
8
1
100
AcDbVertex
100
AcDb3dPolylineVertex
10
377.187401
20
0.000000
30
19.032286
70
32
0
VERTEX
100
AcDbEntity
8
1
100
AcDbVertex
100
AcDb3dPolylineVertex
10
377.159897
20
0.000000
30
19.321086
70
32
0
VERTEX
100
AcDbEntity
8
1
100
AcDbVertex
100
AcDb3dPolylineVertex
10
377.000000
20
0.000000
30
21.000000
70
32
0
VERTEX
100
AcDbEntity
8
1
100
AcDbVertex
100
AcDb3dPolylineVertex
10
377.000000
20
0.000000
30
71.000000
70
32
0
SEQEND
100
AcDbEntity
8
1
0
ENDSEC
0
EOF

