0
SECTION
2
HEADER
9
$ACADVER
1
AC1009
9
$EXTMIN
10
0.000000
20
0.000000
30
-50.000000
9
$EXTMAX
10
377.000000
20
377.000000
30
66.000000
0
ENDSEC
0
SECTION
2
ENTITIES
0
POLYLINE
100
AcDbEntity
8
1
62
4
100
AcDb3dPolyline
66
1
10
0.000000
20
0.000000
30
0.000000
70
8
0
VERTEX
100
AcDbEntity
8
1
100
AcDbVertex
100
AcDb3dPolylineVertex
10
326.999999
20
-0.024891
30
1.576615
70
32
0
VERTEX
100
AcDbEntity
8
1
100
AcDbVertex
100
AcDb3dPolylineVertex
10
326.999999
20
-0.021623
30
1.574292
70
32
0
VERTEX
100
AcDbEntity
8
1
100
AcDbVertex
100
AcDb3dPolylineVertex
10
326.999999
20
-0.018321
30
1.572335
70
32
0
VERTEX
100
AcDbEntity
8
1
100
AcDbVertex
100
AcDb3dPolylineVertex
10
327.000000
20
-0.015056
30
1.570787
70
32
0
VERTEX
100
AcDbEntity
8
1
100
AcDbVertex
100
AcDb3dPolylineVertex
10
327.000000
20
-0.011901
30
1.569682
70
32
0
VERTEX
100
AcDbEntity
8
1
100
AcDbVertex
100
AcDb3dPolylineVertex
10
327.000000
20
-0.008924
30
1.569042
70
32
0
VERTEX
100
AcDbEntity
8
1
100
AcDbVertex
100
AcDb3dPolylineVertex
10
327.000000
20
-0.006189
30
1.568883
70
32
0
VERTEX
100
AcDbEntity
8
1
100
AcDbVertex
100
AcDb3dPolylineVertex
10
327.000000
20
-0.003756
30
1.569207
70
32
0
VERTEX
100
AcDbEntity
8
1
100
AcDbVertex
100
AcDb3dPolylineVertex
10
327.000000
20
-0.001678
30
1.570008
70
32
0
VERTEX
100
AcDbEntity
8
1
100
AcDbVertex
100
AcDb3dPolylineVertex
10
327.000000
20
0.000000
30
1.571268
70
32
0
VERTEX
100
AcDbEntity
8
1
100
AcDbVertex
100
AcDb3dPolylineVertex
10
327.000000
20
0.001242
30
1.572960
70
32
0
VERTEX
100
AcDbEntity
8
1
100
AcDbVertex
100
AcDb3dPolylineVertex
10
327.000000
20
0.002020
30
1.575046
70
32
0
VERTEX
100
AcDbEntity
8
1
100
AcDbVertex
100
AcDb3dPolylineVertex
10
327.000000
20
0.002319
30
1.577482
70
32
0
VERTEX
100
AcDbEntity
8
1
100
AcDbVertex
100
AcDb3dPolylineVertex
10
327.000000
20
0.002131
30
1.580215
70
32
0
VERTEX
100
AcDbEntity
8
1
100
AcDbVertex
100
AcDb3dPolylineVertex
10
327.000000
20
0.001461
30
1.583185
70
32
0
VERTEX
100
AcDbEntity
8
1
100
AcDbVertex
100
AcDb3dPolylineVertex
10
327.000000
20
0.000323
30
1.586327
70
32
0
VERTEX
100
AcDbEntity
8
1
100
AcDbVertex
100
AcDb3dPolylineVertex
10
327.000000
20
-0.001258
30
1.589574
70
32
0
VERTEX
100
AcDbEntity
8
1
100
AcDbVertex
100
AcDb3dPolylineVertex
10
327.000000
20
-0.003247
30
1.592855
70
32
0
VERTEX
100
AcDbEntity
8
1
100
AcDbVertex
100
AcDb3dPolylineVertex
10
327.000000
20
-0.005601
30
1.596099
70
32
0
SEQEND
100
AcDbEntity
8
1
0
POLYLINE
100
AcDbEntity
8
1
62
3
100
AcDb3dPolyline
66
1
10
0.000000
20
0.000000
30
0.000000
70
8
0
VERTEX
100
AcDbEntity
8
1
100
AcDbVertex
100
AcDb3dPolylineVertex
10
327.000000
20
-0.005601
30
1.596099
70
32
0
VERTEX
100
AcDbEntity
8
1
100
AcDbVertex
100
AcDb3dPolylineVertex
10
326.999998
20
-0.039336
30
1.638966
70
32
0
VERTEX
100
AcDbEntity
8
1
100
AcDbVertex
100
AcDb3dPolylineVertex
10
326.999986
20
-0.096768
30
1.711985
70
32
0
VERTEX
100
AcDbEntity
8
1
100
AcDbVertex
100
AcDb3dPolylineVertex
10
326.999952
20
-0.177547
30
1.814767
70
32
0
VERTEX
100
AcDbEntity
8
1
100
AcDbVertex
100
AcDb3dPolylineVertex
10
326.999879
20
-0.281263
30
1.946693
70
32
0
VERTEX
100
AcDbEntity
8
1
100
AcDbVertex
100
AcDb3dPolylineVertex
10
326.999746
20
-0.407796
30
2.106576
70
32
0
VERTEX
100
AcDbEntity
8
1
100
AcDbVertex
100
AcDb3dPolylineVertex
10
326.999525
20
-0.557374
30
2.292630
70
32
0
VERTEX
100
AcDbEntity
8
1
100
AcDbVertex
100
AcDb3dPolylineVertex
10
326.999186
20
-0.729439
30
2.503613
70
32
0
VERTEX
100
AcDbEntity
8
1
100
AcDbVertex
100
AcDb3dPolylineVertex
10
326.998700
20
-0.922204
30
2.739238
70
32
0
VERTEX
100
AcDbEntity
8
1
100
AcDbVertex
100
AcDb3dPolylineVertex
10
326.998029
20
-1.135257
30
2.997661
70
32
0
VERTEX
100
AcDbEntity
8
1
100
AcDbVertex
100
AcDb3dPolylineVertex
10
326.997140
20
-1.367739
30
3.277284
70
32
0
VERTEX
100
AcDbEntity
8
1
100
AcDbVertex
100
AcDb3dPolylineVertex
10
326.996000
20
-1.617342
30
3.577677
70
32
0
VERTEX
100
AcDbEntity
8
1
100
AcDbVertex
100
AcDb3dPolylineVertex
10
326.994572
20
-1.884112
30
3.896049
70
32
0
VERTEX
100
AcDbEntity
8
1
100
AcDbVertex
100
AcDb3dPolylineVertex
10
326.992827
20
-2.165895
30
4.231507
70
32
0
VERTEX
100
AcDbEntity
8
1
100
AcDbVertex
100
AcDb3dPolylineVertex
10
326.990746
20
-2.460094
30
4.583372
70
32
0
VERTEX
100
AcDbEntity
8
1
100
AcDbVertex
100
AcDb3dPolylineVertex
10
326.988295
20
-2.766764
30
4.948492
70
32
0
VERTEX
100
AcDbEntity
8
1
100
AcDbVertex
100
AcDb3dPolylineVertex
10
326.985479
20
-3.081632
30
5.327385
70
32
0
VERTEX
100
AcDbEntity
8
1
100
AcDbVertex
100
AcDb3dPolylineVertex
10
326.982275
20
-3.404642
30
5.716803
70
32
0
VERTEX
100
AcDbEntity
8
1
100
AcDbVertex
100
AcDb3dPolylineVertex
10
326.978703
20
-3.732021
30
6.116562
70
32
0
VERTEX
100
AcDbEntity
8
1
100
AcDbVertex
100
AcDb3dPolylineVertex
10
326.974768
20
-4.062192
30
6.524529
70
32
0
VERTEX
100
AcDbEntity
8
1
100
AcDbVertex
100
AcDb3dPolylineVertex
10
326.970486
20
-4.393353
30
6.938708
70
32
0
VERTEX
100
AcDbEntity
8
1
100
AcDbVertex
100
AcDb3dPolylineVertex
10
326.965892
20
-4.722837
30
7.357734
70
32
0
VERTEX
100
AcDbEntity
8
1
100
AcDbVertex
100
AcDb3dPolylineVertex
10
326.961001
20
-5.050143
30
7.778538
70
32
0
VERTEX
100
AcDbEntity
8
1
100
AcDbVertex
100
AcDb3dPolylineVertex
10
326.955871
20
-5.371989
30
8.200167
70
32
0
VERTEX
100
AcDbEntity
8
1
100
AcDbVertex
100
AcDb3dPolylineVertex
10
326.950517
20
-5.688561
30
8.619090
70
32
0
VERTEX
100
AcDbEntity
8
1
100
AcDbVertex
100
AcDb3dPolylineVertex
10
326.945019
20
-5.996224
30
9.034599
70
32
0
VERTEX
100
AcDbEntity
8
1
100
AcDbVertex
100
AcDb3dPolylineVertex
10
326.939386
20
-6.295857
30
9.442803
70
32
0
VERTEX
100
AcDbEntity
8
1
100
AcDbVertex
100
AcDb3dPolylineVertex
10
326.933715
20
-6.583782
30
9.843071
70
32
0
VERTEX
100
AcDbEntity
8
1
100
AcDbVertex
100
AcDb3dPolylineVertex
10
326.928024
20
-6.860552
30
10.231930
70
32
0
VERTEX
100
AcDbEntity
8
1
100
AcDbVertex
100
AcDb3dPolylineVertex
10
326.922397
20
-7.123632
30
10.608089
70
32
0
VERTEX
100
AcDbEntity
8
1
100
AcDbVertex
100
AcDb3dPolylineVertex
10
326.916877
20
-7.372615
30
10.968945
70
32
0
VERTEX
100
AcDbEntity
8
1
100
AcDbVertex
100
AcDb3dPolylineVertex
10
326.911515
20
-7.606660
30
11.312319
70
32
0
VERTEX
100
AcDbEntity
8
1
100
AcDbVertex
100
AcDb3dPolylineVertex
10
326.906386
20
-7.823984
30
11.636745
70
32
0
VERTEX
100
AcDbEntity
8
1
100
AcDbVertex
100
AcDb3dPolylineVertex
10
326.901510
20
-8.025134
30
11.939472
70
32
0
VERTEX
100
AcDbEntity
8
1
100
AcDbVertex
100
AcDb3dPolylineVertex
10
326.896955
20
-8.208565
30
12.219193
70
32
0
VERTEX
100
AcDbEntity
8
1
100
AcDbVertex
100
AcDb3dPolylineVertex
10
326.892775
20
-8.373406
30
12.474353
70
32
0
VERTEX
100
AcDbEntity
8
1
100
AcDbVertex
100
AcDb3dPolylineVertex
10
326.888985
20
-8.520047
30
12.702851
70
32
0
VERTEX
100
AcDbEntity
8
1
100
AcDbVertex
100
AcDb3dPolylineVertex
10
326.885630
20
-8.647839
30
12.903395
70
32
0
VERTEX
100
AcDbEntity
8
1
100
AcDbVertex
100
AcDb3dPolylineVertex
10
326.882749
20
-8.756057
30
13.074934
70
32
0
VERTEX
100
AcDbEntity
8
1
100
AcDbVertex
100
AcDb3dPolylineVertex
10
326.880368
20
-8.844498
30
13.216331
70
32
0
VERTEX
100
AcDbEntity
8
1
100
AcDbVertex
100
AcDb3dPolylineVertex
10
326.878507
20
-8.913020
30
13.326637
70
32
0
VERTEX
100
AcDbEntity
8
1
100
AcDbVertex
100
AcDb3dPolylineVertex
10
326.877181
20
-8.961516
30
13.405115
70
32
0
VERTEX
100
AcDbEntity
8
1
100
AcDbVertex
100
AcDb3dPolylineVertex
10
326.876401
20
-8.989923
30
13.451242
70
32
0
SEQEND
100
AcDbEntity
8
1
0
POLYLINE
100
AcDbEntity
8
1
62
2
100
AcDb3dPolyline
66
1
10
0.000000
20
0.000000
30
0.000000
70
8
0
VERTEX
100
AcDbEntity
8
1
100
AcDbVertex
100
AcDb3dPolylineVertex
10
326.876401
20
-8.989923
30
13.451242
70
32
0
VERTEX
100
AcDbEntity
8
1
100
AcDbVertex
100
AcDb3dPolylineVertex
10
326.876270
20
-8.994670
30
13.457674
70
32
0
VERTEX
100
AcDbEntity
8
1
100
AcDbVertex
100
AcDb3dPolylineVertex
10
326.876111
20
-9.000431
30
13.463216
70
32
0
VERTEX
100
AcDbEntity
8
1
100
AcDbVertex
100
AcDb3dPolylineVertex
10
326.875929
20
-9.007041
30
13.467712
70
32
0
VERTEX
100
AcDbEntity
8
1
100
AcDbVertex
100
AcDb3dPolylineVertex
10
326.875729
20
-9.014314
30
13.471034
70
32
0
VERTEX
100
AcDbEntity
8
1
100
AcDbVertex
100
AcDb3dPolylineVertex
10
326.875516
20
-9.022043
30
13.473087
70
32
0
VERTEX
100
AcDbEntity
8
1
100
AcDbVertex
100
AcDb3dPolylineVertex
10
326.875296
20
-9.030008
30
13.473813
70
32
0
VERTEX
100
AcDbEntity
8
1
100
AcDbVertex
100
AcDb3dPolylineVertex
10
326.875075
20
-9.037983
30
13.473191
70
32
0
VERTEX
100
AcDbEntity
8
1
100
AcDbVertex
100
AcDb3dPolylineVertex
10
326.874861
20
-9.045741
30
13.471239
70
32
0
VERTEX
100
AcDbEntity
8
1
100
AcDbVertex
100
AcDb3dPolylineVertex
10
326.874658
20
-9.053062
30
13.468011
70
32
0
VERTEX
100
AcDbEntity
8
1
100
AcDbVertex
100
AcDb3dPolylineVertex
10
326.874473
20
-9.059737
30
13.463599
70
32
0
VERTEX
100
AcDbEntity
8
1
100
AcDbVertex
100
AcDb3dPolylineVertex
10
326.874311
20
-9.065576
30
13.458127
70
32
0
VERTEX
100
AcDbEntity
8
1
100
AcDbVertex
100
AcDb3dPolylineVertex
10
326.874177
20
-9.070412
30
13.451751
70
32
0
VERTEX
100
AcDbEntity
8
1
100
AcDbVertex
100
AcDb3dPolylineVertex
10
326.874074
20
-9.074107
30
13.444652
70
32
0
VERTEX
100
AcDbEntity
8
1
100
AcDbVertex
100
AcDb3dPolylineVertex
10
326.874007
20
-9.076556
30
13.437031
70
32
0
VERTEX
100
AcDbEntity
8
1
100
AcDbVertex
100
AcDb3dPolylineVertex
10
326.873975
20
-9.077688
30
13.429105
70
32
0
VERTEX
100
AcDbEntity
8
1
100
AcDbVertex
100
AcDb3dPolylineVertex
10
326.873981
20
-9.077471
30
13.421100
70
32
0
VERTEX
100
AcDbEntity
8
1
100
AcDbVertex
100
AcDb3dPolylineVertex
10
326.874024
20
-9.075910
30
13.413244
70
32
0
VERTEX
100
AcDbEntity
8
1
100
AcDbVertex
100
AcDb3dPolylineVertex
10
326.874104
20
-9.073052
30
13.405761
70
32
0
SEQEND
100
AcDbEntity
8
1
0
POLYLINE
100
AcDbEntity
8
1
62
1
100
AcDb3dPolyline
66
1
10
0.000000
20
0.000000
30
0.000000
70
8
0
VERTEX
100
AcDbEntity
8
1
100
AcDbVertex
100
AcDb3dPolylineVertex
10
326.874104
20
-9.073052
30
13.405761
70
32
0
VERTEX
100
AcDbEntity
8
1
100
AcDbVertex
100
AcDb3dPolylineVertex
10
326.874758
20
-9.049443
30
13.356875
70
32
0
VERTEX
100
AcDbEntity
8
1
100
AcDbVertex
100
AcDb3dPolylineVertex
10
326.875873
20
-9.009096
30
13.273677
70
32
0
VERTEX
100
AcDbEntity
8
1
100
AcDbVertex
100
AcDb3dPolylineVertex
10
326.877441
20
-8.952002
30
13.156680
70
32
0
VERTEX
100
AcDbEntity
8
1
100
AcDbVertex
100
AcDb3dPolylineVertex
10
326.879455
20
-8.878159
30
13.006613
70
32
0
VERTEX
100
AcDbEntity
8
1
100
AcDbVertex
100
AcDb3dPolylineVertex
10
326.881903
20
-8.787582
30
12.824409
70
32
0
VERTEX
100
AcDbEntity
8
1
100
AcDbVertex
100
AcDb3dPolylineVertex
10
326.884769
20
-8.680293
30
12.611202
70
32
0
VERTEX
100
AcDbEntity
8
1
100
AcDbVertex
100
AcDb3dPolylineVertex
10
326.888050
20
-8.555876
30
12.368594
70
32
0
VERTEX
100
AcDbEntity
8
1
100
AcDbVertex
100
AcDb3dPolylineVertex
10
326.891730
20
-8.414100
30
12.098294
70
32
0
VERTEX
100
AcDbEntity
8
1
100
AcDbVertex
100
AcDb3dPolylineVertex
10
326.895763
20
-8.255902
30
11.801530
70
32
0
VERTEX
100
AcDbEntity
8
1
100
AcDbVertex
100
AcDb3dPolylineVertex
10
326.900131
20
-8.081109
30
11.480372
70
32
0
VERTEX
100
AcDbEntity
8
1
100
AcDbVertex
100
AcDb3dPolylineVertex
10
326.904822
20
-7.889045
30
11.137410
70
32
0
VERTEX
100
AcDbEntity
8
1
100
AcDbVertex
100
AcDb3dPolylineVertex
10
326.909769
20
-7.681317
30
10.774021
70
32
0
VERTEX
100
AcDbEntity
8
1
100
AcDbVertex
100
AcDb3dPolylineVertex
10
326.914954
20
-7.457415
30
10.393066
70
32
0
VERTEX
100
AcDbEntity
8
1
100
AcDbVertex
100
AcDb3dPolylineVertex
10
326.920328
20
-7.217994
30
9.996858
70
32
0
VERTEX
100
AcDbEntity
8
1
100
AcDbVertex
100
AcDb3dPolylineVertex
10
326.925829
20
-6.964385
30
9.587408
70
32
0
VERTEX
100
AcDbEntity
8
1
100
AcDbVertex
100
AcDb3dPolylineVertex
10
326.931435
20
-6.696034
30
9.168129
70
32
0
VERTEX
100
AcDbEntity
8
1
100
AcDbVertex
100
AcDb3dPolylineVertex
10
326.937056
20
-6.415729
30
8.740302
70
32
0
VERTEX
100
AcDbEntity
8
1
100
AcDbVertex
100
AcDb3dPolylineVertex
10
326.942683
20
-6.122280
30
8.308059
70
32
0
VERTEX
100
AcDbEntity
8
1
100
AcDbVertex
100
AcDb3dPolylineVertex
10
326.948216
20
-5.819297
30
7.872255
70
32
0
VERTEX
100
AcDbEntity
8
1
100
AcDbVertex
100
AcDb3dPolylineVertex
10
326.953640
20
-5.506115
30
7.436868
70
32
0
VERTEX
100
AcDbEntity
8
1
100
AcDbVertex
100
AcDb3dPolylineVertex
10
326.958872
20
-5.186114
30
7.002965
70
32
0
VERTEX
100
AcDbEntity
8
1
100
AcDbVertex
100
AcDb3dPolylineVertex
10
326.963891
20
-4.859410
30
6.574080
70
32
0
VERTEX
100
AcDbEntity
8
1
100
AcDbVertex
100
AcDb3dPolylineVertex
10
326.968634
20
-4.529081
30
6.151481
70
32
0
VERTEX
100
AcDbEntity
8
1
100
AcDbVertex
100
AcDb3dPolylineVertex
10
326.973075
20
-4.196195
30
5.737977
70
32
0
VERTEX
100
AcDbEntity
8
1
100
AcDbVertex
100
AcDb3dPolylineVertex
10
326.977184
20
-3.862813
30
5.335565
70
32
0
VERTEX
100
AcDbEntity
8
1
100
AcDbVertex
100
AcDb3dPolylineVertex
10
326.980932
20
-3.531313
30
4.945898
70
32
0
VERTEX
100
AcDbEntity
8
1
100
AcDbVertex
100
AcDb3dPolylineVertex
10
326.984323
20
-3.201936
30
4.572370
70
32
0
VERTEX
100
AcDbEntity
8
1
100
AcDbVertex
100
AcDb3dPolylineVertex
10
326.987329
20
-2.878665
30
4.215084
70
32
0
VERTEX
100
AcDbEntity
8
1
100
AcDbVertex
100
AcDb3dPolylineVertex
10
326.989969
20
-2.561252
30
3.877683
70
32
0
VERTEX
100
AcDbEntity
8
1
100
AcDbVertex
100
AcDb3dPolylineVertex
10
326.992233
20
-2.253724
30
3.559906
70
32
0
VERTEX
100
AcDbEntity
8
1
100
AcDbVertex
100
AcDb3dPolylineVertex
10
326.994142
20
-1.957373
30
3.263731
70
32
0
VERTEX
100
AcDbEntity
8
1
100
AcDbVertex
100
AcDb3dPolylineVertex
10
326.995716
20
-1.673804
30
2.990693
70
32
0
VERTEX
100
AcDbEntity
8
1
100
AcDbVertex
100
AcDb3dPolylineVertex
10
326.996974
20
-1.406665
30
2.740197
70
32
0
VERTEX
100
AcDbEntity
8
1
100
AcDbVertex
100
AcDb3dPolylineVertex
10
326.997953
20
-1.157057
30
2.513788
70
32
0
VERTEX
100
AcDbEntity
8
1
100
AcDbVertex
100
AcDb3dPolylineVertex
10
326.998685
20
-0.927302
30
2.311624
70
32
0
VERTEX
100
AcDbEntity
8
1
100
AcDbVertex
100
AcDb3dPolylineVertex
10
326.999208
20
-0.719916
30
2.133403
70
32
0
VERTEX
100
AcDbEntity
8
1
100
AcDbVertex
100
AcDb3dPolylineVertex
10
326.999561
20
-0.535753
30
1.980181
70
32
0
VERTEX
100
AcDbEntity
8
1
100
AcDbVertex
100
AcDb3dPolylineVertex
10
326.999783
20
-0.376591
30
1.851861
70
32
0
VERTEX
100
AcDbEntity
8
1
100
AcDbVertex
100
AcDb3dPolylineVertex
10
326.999908
20
-0.244672
30
1.747604
70
32
0
VERTEX
100
AcDbEntity
8
1
100
AcDbVertex
100
AcDb3dPolylineVertex
10
326.999969
20
-0.141541
30
1.666987
70
32
0
VERTEX
100
AcDbEntity
8
1
100
AcDbVertex
100
AcDb3dPolylineVertex
10
326.999993
20
-0.068087
30
1.609980
70
32
0
VERTEX
100
AcDbEntity
8
1
100
AcDbVertex
100
AcDb3dPolylineVertex
10
326.999999
20
-0.024891
30
1.576615
70
32
0
SEQEND
100
AcDbEntity
8
1
0
POLYLINE
100
AcDbEntity
8
1
62
4
100
AcDb3dPolyline
66
1
10
0.000000
20
0.000000
30
0.000000
70
8
0
VERTEX
100
AcDbEntity
8
1
100
AcDbVertex
100
AcDb3dPolylineVertex
10
339.499998
20
-0.033435
30
1.185391
70
32
0
VERTEX
100
AcDbEntity
8
1
100
AcDbVertex
100
AcDb3dPolylineVertex
10
339.499999
20
-0.029026
30
1.182318
70
32
0
VERTEX
100
AcDbEntity
8
1
100
AcDbVertex
100
AcDb3dPolylineVertex
10
339.499999
20
-0.024595
30
1.179742
70
32
0
VERTEX
100
AcDbEntity
8
1
100
AcDbVertex
100
AcDb3dPolylineVertex
10
339.499999
20
-0.020231
30
1.177713
70
32
0
VERTEX
100
AcDbEntity
8
1
100
AcDbVertex
100
AcDb3dPolylineVertex
10
339.500000
20
-0.016020
30
1.176272
70
32
0
VERTEX
100
AcDbEntity
8
1
100
AcDbVertex
100
AcDb3dPolylineVertex
10
339.500000
20
-0.012047
30
1.175447
70
32
0
VERTEX
100
AcDbEntity
8
1
100
AcDbVertex
100
AcDb3dPolylineVertex
10
339.500000
20
-0.008390
30
1.175256
70
32
0
VERTEX
100
AcDbEntity
8
1
100
AcDbVertex
100
AcDb3dPolylineVertex
10
339.500000
20
-0.005121
30
1.175700
70
32
0
VERTEX
100
AcDbEntity
8
1
100
AcDbVertex
100
AcDb3dPolylineVertex
10
339.500000
20
-0.002306
30
1.176772
70
32
0
VERTEX
100
AcDbEntity
8
1
100
AcDbVertex
100
AcDb3dPolylineVertex
10
339.500000
20
0.000000
30
1.178451
70
32
0
VERTEX
100
AcDbEntity
8
1
100
AcDbVertex
100
AcDb3dPolylineVertex
10
339.500000
20
0.001751
30
1.180702
70
32
0
VERTEX
100
AcDbEntity
8
1
100
AcDbVertex
100
AcDb3dPolylineVertex
10
339.500000
20
0.002912
30
1.183482
70
32
0
VERTEX
100
AcDbEntity
8
1
100
AcDbVertex
100
AcDb3dPolylineVertex
10
339.500000
20
0.003460
30
1.186734
70
32
0
VERTEX
100
AcDbEntity
8
1
100
AcDbVertex
100
AcDb3dPolylineVertex
10
339.500000
20
0.003386
30
1.190395
70
32
0
VERTEX
100
AcDbEntity
8
1
100
AcDbVertex
100
AcDb3dPolylineVertex
10
339.500000
20
0.002689
30
1.194392
70
32
0
VERTEX
100
AcDbEntity
8
1
100
AcDbVertex
100
AcDb3dPolylineVertex
10
339.500000
20
0.001386
30
1.198646
70
32
0
VERTEX
100
AcDbEntity
8
1
100
AcDbVertex
100
AcDb3dPolylineVertex
10
339.500000
20
-0.000500
30
1.203071
70
32
0
VERTEX
100
AcDbEntity
8
1
100
AcDbVertex
100
AcDb3dPolylineVertex
10
339.500000
20
-0.002930
30
1.207581
70
32
0
VERTEX
100
AcDbEntity
8
1
100
AcDbVertex
100
AcDb3dPolylineVertex
10
339.500000
20
-0.005855
30
1.212086
70
32
0
SEQEND
100
AcDbEntity
8
1
0
POLYLINE
100
AcDbEntity
8
1
62
3
100
AcDb3dPolyline
66
1
10
0.000000
20
0.000000
30
0.000000
70
8
0
VERTEX
100
AcDbEntity
8
1
100
AcDbVertex
100
AcDb3dPolylineVertex
10
339.500000
20
-0.005855
30
1.212086
70
32
0
VERTEX
100
AcDbEntity
8
1
100
AcDbVertex
100
AcDb3dPolylineVertex
10
339.499998
20
-0.039623
30
1.259973
70
32
0
VERTEX
100
AcDbEntity
8
1
100
AcDbVertex
100
AcDb3dPolylineVertex
10
339.499986
20
-0.097114
30
1.341501
70
32
0
VERTEX
100
AcDbEntity
8
1
100
AcDbVertex
100
AcDb3dPolylineVertex
10
339.499953
20
-0.178005
30
1.456204
70
32
0
VERTEX
100
AcDbEntity
8
1
100
AcDbVertex
100
AcDb3dPolylineVertex
10
339.499883
20
-0.281959
30
1.603309
70
32
0
VERTEX
100
AcDbEntity
8
1
100
AcDbVertex
100
AcDb3dPolylineVertex
10
339.499754
20
-0.409101
30
1.781299
70
32
0
VERTEX
100
AcDbEntity
8
1
100
AcDbVertex
100
AcDb3dPolylineVertex
10
339.499538
20
-0.560082
30
1.987904
70
32
0
VERTEX
100
AcDbEntity
8
1
100
AcDbVertex
100
AcDb3dPolylineVertex
10
339.499206
20
-0.734403
30
2.221700
70
32
0
VERTEX
100
AcDbEntity
8
1
100
AcDbVertex
100
AcDb3dPolylineVertex
10
339.498726
20
-0.930129
30
2.482353
70
32
0
VERTEX
100
AcDbEntity
8
1
100
AcDbVertex
100
AcDb3dPolylineVertex
10
339.498062
20
-1.147120
30
2.767626
70
32
0
VERTEX
100
AcDbEntity
8
1
100
AcDbVertex
100
AcDb3dPolylineVertex
10
339.497176
20
-1.384722
30
3.075580
70
32
0
VERTEX
100
AcDbEntity
8
1
100
AcDbVertex
100
AcDb3dPolylineVertex
10
339.496037
20
-1.640407
30
3.405768
70
32
0
VERTEX
100
AcDbEntity
8
1
100
AcDbVertex
100
AcDb3dPolylineVertex
10
339.494602
20
-1.914496
30
3.755028
70
32
0
VERTEX
100
AcDbEntity
8
1
100
AcDbVertex
100
AcDb3dPolylineVertex
10
339.492839
20
-2.205056
30
4.122067
70
32
0
VERTEX
100
AcDbEntity
8
1
100
AcDbVertex
100
AcDb3dPolylineVertex
10
339.490730
20
-2.508802
30
4.506575
70
32
0
VERTEX
100
AcDbEntity
8
1
100
AcDbVertex
100
AcDb3dPolylineVertex
10
339.488233
20
-2.826567
30
4.904608
70
32
0
VERTEX
100
AcDbEntity
8
1
100
AcDbVertex
100
AcDb3dPolylineVertex
10
339.485357
20
-3.153200
30
5.317135
70
32
0
VERTEX
100
AcDbEntity
8
1
100
AcDbVertex
100
AcDb3dPolylineVertex
10
339.482071
20
-3.489046
30
5.740437
70
32
0
VERTEX
100
AcDbEntity
8
1
100
AcDbVertex
100
AcDb3dPolylineVertex
10
339.478396
20
-3.829925
30
6.174387
70
32
0
VERTEX
100
AcDbEntity
8
1
100
AcDbVertex
100
AcDb3dPolylineVertex
10
339.474341
20
-4.173919
30
6.616914
70
32
0
VERTEX
100
AcDbEntity
8
1
100
AcDbVertex
100
AcDb3dPolylineVertex
10
339.469916
20
-4.519540
30
7.065566
70
32
0
VERTEX
100
AcDbEntity
8
1
100
AcDbVertex
100
AcDb3dPolylineVertex
10
339.465162
20
-4.863495
30
7.519208
70
32
0
VERTEX
100
AcDbEntity
8
1
100
AcDbVertex
100
AcDb3dPolylineVertex
10
339.460085
20
-5.205853
30
7.974172
70
32
0
VERTEX
100
AcDbEntity
8
1
100
AcDbVertex
100
AcDb3dPolylineVertex
10
339.454754
20
-5.542554
30
8.429811
70
32
0
VERTEX
100
AcDbEntity
8
1
100
AcDbVertex
100
AcDb3dPolylineVertex
10
339.449172
20
-5.874461
30
8.881955
70
32
0
VERTEX
100
AcDbEntity
8
1
100
AcDbVertex
100
AcDb3dPolylineVertex
10
339.443437
20
-6.197032
30
9.330262
70
32
0
VERTEX
100
AcDbEntity
8
1
100
AcDbVertex
100
AcDb3dPolylineVertex
10
339.437541
20
-6.511952
30
9.770153
70
32
0
VERTEX
100
AcDbEntity
8
1
100
AcDbVertex
100
AcDb3dPolylineVertex
10
339.431601
20
-6.814578
30
10.201377
70
32
0
VERTEX
100
AcDbEntity
8
1
100
AcDbVertex
100
AcDb3dPolylineVertex
10
339.425623
20
-7.106086
30
10.619906
70
32
0
VERTEX
100
AcDbEntity
8
1
100
AcDbVertex
100
AcDb3dPolylineVertex
10
339.419707
20
-7.383273
30
11.024650
70
32
0
VERTEX
100
AcDbEntity
8
1
100
AcDbVertex
100
AcDb3dPolylineVertex
10
339.413890
20
-7.646004
30
11.412665
70
32
0
VERTEX
100
AcDbEntity
8
1
100
AcDbVertex
100
AcDb3dPolylineVertex
10
339.408230
20
-7.893255
30
11.781710
70
32
0
VERTEX
100
AcDbEntity
8
1
100
AcDbVertex
100
AcDb3dPolylineVertex
10
339.402811
20
-8.122908
30
12.130322
70
32
0
VERTEX
100
AcDbEntity
8
1
100
AcDbVertex
100
AcDb3dPolylineVertex
10
339.397648
20
-8.335867
30
12.455406
70
32
0
VERTEX
100
AcDbEntity
8
1
100
AcDbVertex
100
AcDb3dPolylineVertex
10
339.392819
20
-8.530193
30
12.755715
70
32
0
VERTEX
100
AcDbEntity
8
1
100
AcDbVertex
100
AcDb3dPolylineVertex
10
339.388385
20
-8.704840
30
13.029637
70
32
0
VERTEX
100
AcDbEntity
8
1
100
AcDbVertex
100
AcDb3dPolylineVertex
10
339.384359
20
-8.860410
30
13.274838
70
32
0
VERTEX
100
AcDbEntity
8
1
100
AcDbVertex
100
AcDb3dPolylineVertex
10
339.380788
20
-8.996146
30
13.489966
70
32
0
VERTEX
100
AcDbEntity
8
1
100
AcDbVertex
100
AcDb3dPolylineVertex
10
339.377721
20
-9.111116
30
13.673968
70
32
0
VERTEX
100
AcDbEntity
8
1
100
AcDbVertex
100
AcDb3dPolylineVertex
10
339.375185
20
-9.205088
30
13.825632
70
32
0
VERTEX
100
AcDbEntity
8
1
100
AcDbVertex
100
AcDb3dPolylineVertex
10
339.373202
20
-9.277905
30
13.943944
70
32
0
VERTEX
100
AcDbEntity
8
1
100
AcDbVertex
100
AcDb3dPolylineVertex
10
339.371789
20
-9.329446
30
14.028116
70
32
0
VERTEX
100
AcDbEntity
8
1
100
AcDbVertex
100
AcDb3dPolylineVertex
10
339.370958
20
-9.359626
30
14.077568
70
32
0
SEQEND
100
AcDbEntity
8
1
0
POLYLINE
100
AcDbEntity
8
1
62
2
100
AcDb3dPolyline
66
1
10
0.000000
20
0.000000
30
0.000000
70
8
0
VERTEX
100
AcDbEntity
8
1
100
AcDbVertex
100
AcDb3dPolylineVertex
10
339.370958
20
-9.359626
30
14.077568
70
32
0
VERTEX
100
AcDbEntity
8
1
100
AcDbVertex
100
AcDb3dPolylineVertex
10
339.370784
20
-9.365964
30
14.086239
70
32
0
VERTEX
100
AcDbEntity
8
1
100
AcDbVertex
100
AcDb3dPolylineVertex
10
339.370571
20
-9.373658
30
14.093733
70
32
0
VERTEX
100
AcDbEntity
8
1
100
AcDbVertex
100
AcDb3dPolylineVertex
10
339.370327
20
-9.382494
30
14.099839
70
32
0
VERTEX
100
AcDbEntity
8
1
100
AcDbVertex
100
AcDb3dPolylineVertex
10
339.370058
20
-9.392226
30
14.104389
70
32
0
VERTEX
100
AcDbEntity
8
1
100
AcDbVertex
100
AcDb3dPolylineVertex
10
339.369771
20
-9.402582
30
14.107254
70
32
0
VERTEX
100
AcDbEntity
8
1
100
AcDbVertex
100
AcDb3dPolylineVertex
10
339.369475
20
-9.413273
30
14.108355
70
32
0
VERTEX
100
AcDbEntity
8
1
100
AcDbVertex
100
AcDb3dPolylineVertex
10
339.369177
20
-9.424000
30
14.107660
70
32
0
VERTEX
100
AcDbEntity
8
1
100
AcDbVertex
100
AcDb3dPolylineVertex
10
339.368886
20
-9.434463
30
14.105188
70
32
0
VERTEX
100
AcDbEntity
8
1
100
AcDbVertex
100
AcDb3dPolylineVertex
10
339.368611
20
-9.444369
30
14.101008
70
32
0
VERTEX
100
AcDbEntity
8
1
100
AcDbVertex
100
AcDb3dPolylineVertex
10
339.368358
20
-9.453441
30
14.095235
70
32
0
VERTEX
100
AcDbEntity
8
1
100
AcDbVertex
100
AcDb3dPolylineVertex
10
339.368136
20
-9.461423
30
14.088030
70
32
0
VERTEX
100
AcDbEntity
8
1
100
AcDbVertex
100
AcDb3dPolylineVertex
10
339.367950
20
-9.468092
30
14.079594
70
32
0
VERTEX
100
AcDbEntity
8
1
100
AcDbVertex
100
AcDb3dPolylineVertex
10
339.367805
20
-9.473260
30
14.070162
70
32
0
VERTEX
100
AcDbEntity
8
1
100
AcDbVertex
100
AcDb3dPolylineVertex
10
339.367707
20
-9.476782
30
14.059998
70
32
0
VERTEX
100
AcDbEntity
8
1
100
AcDbVertex
100
AcDb3dPolylineVertex
10
339.367657
20
-9.478559
30
14.049386
70
32
0
VERTEX
100
AcDbEntity
8
1
100
AcDbVertex
100
AcDb3dPolylineVertex
10
339.367658
20
-9.478540
30
14.038623
70
32
0
VERTEX
100
AcDbEntity
8
1
100
AcDbVertex
100
AcDb3dPolylineVertex
10
339.367709
20
-9.476726
30
14.028011
70
32
0
VERTEX
100
AcDbEntity
8
1
100
AcDbVertex
100
AcDb3dPolylineVertex
10
339.367808
20
-9.473168
30
14.017849
70
32
0
SEQEND
100
AcDbEntity
8
1
0
POLYLINE
100
AcDbEntity
8
1
62
1
100
AcDb3dPolyline
66
1
10
0.000000
20
0.000000
30
0.000000
70
8
0
VERTEX
100
AcDbEntity
8
1
100
AcDbVertex
100
AcDb3dPolylineVertex
10
339.367808
20
-9.473168
30
14.017849
70
32
0
VERTEX
100
AcDbEntity
8
1
100
AcDbVertex
100
AcDb3dPolylineVertex
10
339.368470
20
-9.449421
30
13.964838
70
32
0
VERTEX
100
AcDbEntity
8
1
100
AcDbVertex
100
AcDb3dPolylineVertex
10
339.369598
20
-9.408815
30
13.874574
70
32
0
VERTEX
100
AcDbEntity
8
1
100
AcDbVertex
100
AcDb3dPolylineVertex
10
339.371187
20
-9.351336
30
13.747624
70
32
0
VERTEX
100
AcDbEntity
8
1
100
AcDbVertex
100
AcDb3dPolylineVertex
10
339.373228
20
-9.276960
30
13.584764
70
32
0
VERTEX
100
AcDbEntity
8
1
100
AcDbVertex
100
AcDb3dPolylineVertex
10
339.375711
20
-9.185685
30
13.386982
70
32
0
VERTEX
100
AcDbEntity
8
1
100
AcDbVertex
100
AcDb3dPolylineVertex
10
339.378622
20
-9.077496
30
13.155492
70
32
0
VERTEX
100
AcDbEntity
8
1
100
AcDbVertex
100
AcDb3dPolylineVertex
10
339.381962
20
-8.951766
30
12.892068
70
32
0
VERTEX
100
AcDbEntity
8
1
100
AcDbVertex
100
AcDb3dPolylineVertex
10
339.385719
20
-8.808154
30
12.598559
70
32
0
VERTEX
100
AcDbEntity
8
1
100
AcDbVertex
100
AcDb3dPolylineVertex
10
339.389843
20
-8.647807
30
12.276188
70
32
0
VERTEX
100
AcDbEntity
8
1
100
AcDbVertex
100
AcDb3dPolylineVertex
10
339.394317
20
-8.470387
30
11.927220
70
32
0
VERTEX
100
AcDbEntity
8
1
100
AcDbVertex
100
AcDb3dPolylineVertex
10
339.399141
20
-8.274829
30
11.554569
70
32
0
VERTEX
100
AcDbEntity
8
1
100
AcDbVertex
100
AcDb3dPolylineVertex
10
339.404237
20
-8.063119
30
11.159562
70
32
0
VERTEX
100
AcDbEntity
8
1
100
AcDbVertex
100
AcDb3dPolylineVertex
10
339.409593
20
-7.834435
30
10.745371
70
32
0
VERTEX
100
AcDbEntity
8
1
100
AcDbVertex
100
AcDb3dPolylineVertex
10
339.415163
20
-7.589287
30
10.314571
70
32
0
VERTEX
100
AcDbEntity
8
1
100
AcDbVertex
100
AcDb3dPolylineVertex
10
339.420876
20
-7.329320
30
9.869175
70
32
0
VERTEX
100
AcDbEntity
8
1
100
AcDbVertex
100
AcDb3dPolylineVertex
10
339.426723
20
-7.053371
30
9.413146
70
32
0
VERTEX
100
AcDbEntity
8
1
100
AcDbVertex
100
AcDb3dPolylineVertex
10
339.432594
20
-6.764919
30
8.947573
70
32
0
VERTEX
100
AcDbEntity
8
1
100
AcDbVertex
100
AcDb3dPolylineVertex
10
339.438498
20
-6.461889
30
8.477342
70
32
0
VERTEX
100
AcDbEntity
8
1
100
AcDbVertex
100
AcDb3dPolylineVertex
10
339.444314
20
-6.148794
30
8.002995
70
32
0
VERTEX
100
AcDbEntity
8
1
100
AcDbVertex
100
AcDb3dPolylineVertex
10
339.450039
20
-5.824169
30
7.529257
70
32
0
VERTEX
100
AcDbEntity
8
1
100
AcDbVertex
100
AcDb3dPolylineVertex
10
339.455573
20
-5.492194
30
7.056941
70
32
0
VERTEX
100
AcDbEntity
8
1
100
AcDbVertex
100
AcDb3dPolylineVertex
10
339.460901
20
-5.152339
30
6.590262
70
32
0
VERTEX
100
AcDbEntity
8
1
100
AcDbVertex
100
AcDb3dPolylineVertex
10
339.465947
20
-4.808401
30
6.130271
70
32
0
VERTEX
100
AcDbEntity
8
1
100
AcDbVertex
100
AcDb3dPolylineVertex
10
339.470690
20
-4.460980
30
5.680379
70
32
0
VERTEX
100
AcDbEntity
8
1
100
AcDbVertex
100
AcDb3dPolylineVertex
10
339.475089
20
-4.112619
30
5.242487
70
32
0
VERTEX
100
AcDbEntity
8
1
100
AcDbVertex
100
AcDb3dPolylineVertex
10
339.479117
20
-3.765532
30
4.818669
70
32
0
VERTEX
100
AcDbEntity
8
1
100
AcDbVertex
100
AcDb3dPolylineVertex
10
339.482776
20
-3.419741
30
4.412716
70
32
0
VERTEX
100
AcDbEntity
8
1
100
AcDbVertex
100
AcDb3dPolylineVertex
10
339.486030
20
-3.079818
30
4.024591
70
32
0
VERTEX
100
AcDbEntity
8
1
100
AcDbVertex
100
AcDb3dPolylineVertex
10
339.488904
20
-2.744832
30
3.658702
70
32
0
VERTEX
100
AcDbEntity
8
1
100
AcDbVertex
100
AcDb3dPolylineVertex
10
339.491376
20
-2.419786
30
3.314291
70
32
0
VERTEX
100
AcDbEntity
8
1
100
AcDbVertex
100
AcDb3dPolylineVertex
10
339.493471
20
-2.105476
30
2.993990
70
32
0
VERTEX
100
AcDbEntity
8
1
100
AcDbVertex
100
AcDb3dPolylineVertex
10
339.495207
20
-1.803923
30
2.699194
70
32
0
VERTEX
100
AcDbEntity
8
1
100
AcDbVertex
100
AcDb3dPolylineVertex
10
339.496601
20
-1.519236
30
2.429179
70
32
0
VERTEX
100
AcDbEntity
8
1
100
AcDbVertex
100
AcDb3dPolylineVertex
10
339.497690
20
-1.252474
30
2.185697
70
32
0
VERTEX
100
AcDbEntity
8
1
100
AcDbVertex
100
AcDb3dPolylineVertex
10
339.498509
20
-1.006335
30
1.968765
70
32
0
VERTEX
100
AcDbEntity
8
1
100
AcDbVertex
100
AcDb3dPolylineVertex
10
339.499095
20
-0.783765
30
1.777871
70
32
0
VERTEX
100
AcDbEntity
8
1
100
AcDbVertex
100
AcDb3dPolylineVertex
10
339.499495
20
-0.585614
30
1.614184
70
32
0
VERTEX
100
AcDbEntity
8
1
100
AcDbVertex
100
AcDb3dPolylineVertex
10
339.499748
20
-0.413849
30
1.477562
70
32
0
VERTEX
100
AcDbEntity
8
1
100
AcDbVertex
100
AcDb3dPolylineVertex
10
339.499892
20
-0.271242
30
1.366800
70
32
0
VERTEX
100
AcDbEntity
8
1
100
AcDbVertex
100
AcDb3dPolylineVertex
10
339.499962
20
-0.159679
30
1.281242
70
32
0
VERTEX
100
AcDbEntity
8
1
100
AcDbVertex
100
AcDb3dPolylineVertex
10
339.499991
20
-0.080195
30
1.220774
70
32
0
VERTEX
100
AcDbEntity
8
1
100
AcDbVertex
100
AcDb3dPolylineVertex
10
339.499998
20
-0.033435
30
1.185391
70
32
0
SEQEND
100
AcDbEntity
8
1
0
POLYLINE
100
AcDbEntity
8
1
62
4
100
AcDb3dPolyline
66
1
10
0.000000
20
0.000000
30
0.000000
70
8
0
VERTEX
100
AcDbEntity
8
1
100
AcDbVertex
100
AcDb3dPolylineVertex
10
351.999997
20
-0.042889
30
0.794104
70
32
0
VERTEX
100
AcDbEntity
8
1
100
AcDbVertex
100
AcDb3dPolylineVertex
10
351.999998
20
-0.037210
30
0.790245
70
32
0
VERTEX
100
AcDbEntity
8
1
100
AcDbVertex
100
AcDb3dPolylineVertex
10
351.999999
20
-0.031533
30
0.787026
70
32
0
VERTEX
100
AcDbEntity
8
1
100
AcDbVertex
100
AcDb3dPolylineVertex
10
351.999999
20
-0.025959
30
0.784506
70
32
0
VERTEX
100
AcDbEntity
8
1
100
AcDbVertex
100
AcDb3dPolylineVertex
10
351.999999
20
-0.020591
30
0.782730
70
32
0
VERTEX
100
AcDbEntity
8
1
100
AcDbVertex
100
AcDb3dPolylineVertex
10
352.000000
20
-0.015525
30
0.781730
70
32
0
VERTEX
100
AcDbEntity
8
1
100
AcDbVertex
100
AcDb3dPolylineVertex
10
352.000000
20
-0.010852
30
0.781523
70
32
0
VERTEX
100
AcDbEntity
8
1
100
AcDbVertex
100
AcDb3dPolylineVertex
10
352.000000
20
-0.006659
30
0.782115
70
32
0
VERTEX
100
AcDbEntity
8
1
100
AcDbVertex
100
AcDb3dPolylineVertex
10
352.000000
20
-0.003019
30
0.783493
70
32
0
VERTEX
100
AcDbEntity
8
1
100
AcDbVertex
100
AcDb3dPolylineVertex
10
352.000000
20
0.000000
30
0.785634
70
32
0
VERTEX
100
AcDbEntity
8
1
100
AcDbVertex
100
AcDb3dPolylineVertex
10
352.000000
20
0.002345
30
0.788498
70
32
0
VERTEX
100
AcDbEntity
8
1
100
AcDbVertex
100
AcDb3dPolylineVertex
10
352.000000
20
0.003972
30
0.792033
70
32
0
VERTEX
100
AcDbEntity
8
1
100
AcDbVertex
100
AcDb3dPolylineVertex
10
352.000000
20
0.004854
30
0.796175
70
32
0
VERTEX
100
AcDbEntity
8
1
100
AcDbVertex
100
AcDb3dPolylineVertex
10
352.000000
20
0.004974
30
0.800849
70
32
0
VERTEX
100
AcDbEntity
8
1
100
AcDbVertex
100
AcDb3dPolylineVertex
10
352.000000
20
0.004330
30
0.805971
70
32
0
VERTEX
100
AcDbEntity
8
1
100
AcDbVertex
100
AcDb3dPolylineVertex
10
352.000000
20
0.002934
30
0.811449
70
32
0
VERTEX
100
AcDbEntity
8
1
100
AcDbVertex
100
AcDb3dPolylineVertex
10
352.000000
20
0.000811
30
0.817182
70
32
0
VERTEX
100
AcDbEntity
8
1
100
AcDbVertex
100
AcDb3dPolylineVertex
10
352.000000
20
-0.001999
30
0.823068
70
32
0
VERTEX
100
AcDbEntity
8
1
100
AcDbVertex
100
AcDb3dPolylineVertex
10
352.000000
20
-0.005446
30
0.829000
70
32
0
SEQEND
100
AcDbEntity
8
1
0
POLYLINE
100
AcDbEntity
8
1
62
3
100
AcDb3dPolyline
66
1
10
0.000000
20
0.000000
30
0.000000
70
8
0
VERTEX
100
AcDbEntity
8
1
100
AcDbVertex
100
AcDb3dPolylineVertex
10
352.000000
20
-0.005446
30
0.829000
70
32
0
VERTEX
100
AcDbEntity
8
1
100
AcDbVertex
100
AcDb3dPolylineVertex
10
351.999998
20
-0.038977
30
0.881998
70
32
0
VERTEX
100
AcDbEntity
8
1
100
AcDbVertex
100
AcDb3dPolylineVertex
10
351.999987
20
-0.096104
30
0.972235
70
32
0
VERTEX
100
AcDbEntity
8
1
100
AcDbVertex
100
AcDb3dPolylineVertex
10
351.999956
20
-0.176520
30
1.099135
70
32
0
VERTEX
100
AcDbEntity
8
1
100
AcDbVertex
100
AcDb3dPolylineVertex
10
351.999889
20
-0.279982
30
1.261751
70
32
0
VERTEX
100
AcDbEntity
8
1
100
AcDbVertex
100
AcDb3dPolylineVertex
10
351.999765
20
-0.406913
30
1.458210
70
32
0
VERTEX
100
AcDbEntity
8
1
100
AcDbVertex
100
AcDb3dPolylineVertex
10
351.999557
20
-0.558446
30
1.685723
70
32
0
VERTEX
100
AcDbEntity
8
1
100
AcDbVertex
100
AcDb3dPolylineVertex
10
351.999234
20
-0.734138
30
1.942697
70
32
0
VERTEX
100
AcDbEntity
8
1
100
AcDbVertex
100
AcDb3dPolylineVertex
10
351.998766
20
-0.931926
30
2.228722
70
32
0
VERTEX
100
AcDbEntity
8
1
100
AcDbVertex
100
AcDb3dPolylineVertex
10
351.998115
20
-1.151949
30
2.541187
70
32
0
VERTEX
100
AcDbEntity
8
1
100
AcDbVertex
100
AcDb3dPolylineVertex
10
351.997240
20
-1.393858
30
2.877736
70
32
0
VERTEX
100
AcDbEntity
8
1
100
AcDbVertex
100
AcDb3dPolylineVertex
10
351.996110
20
-1.654877
30
3.237928
70
32
0
VERTEX
100
AcDbEntity
8
1
100
AcDbVertex
100
AcDb3dPolylineVertex
10
351.994678
20
-1.935541
30
3.618293
70
32
0
VERTEX
100
AcDbEntity
8
1
100
AcDbVertex
100
AcDb3dPolylineVertex
10
351.992908
20
-2.234369
30
4.016971
70
32
0
VERTEX
100
AcDbEntity
8
1
100
AcDbVertex
100
AcDb3dPolylineVertex
10
351.990784
20
-2.547150
30
4.434188
70
32
0
VERTEX
100
AcDbEntity
8
1
100
AcDbVertex
100
AcDb3dPolylineVertex
10
351.988254
20
-2.875626
30
4.865145
70
32
0
VERTEX
100
AcDbEntity
8
1
100
AcDbVertex
100
AcDb3dPolylineVertex
10
351.985328
20
-3.213813
30
5.311197
70
32
0
VERTEX
100
AcDbEntity
8
1
100
AcDbVertex
100
AcDb3dPolylineVertex
10
351.981974
20
-3.562304
30
5.768293
70
32
0
VERTEX
100
AcDbEntity
8
1
100
AcDbVertex
100
AcDb3dPolylineVertex
10
351.978210
20
-3.916612
30
6.236282
70
32
0
VERTEX
100
AcDbEntity
8
1
100
AcDbVertex
100
AcDb3dPolylineVertex
10
351.974046
20
-4.274426
30
6.713181
70
32
0
VERTEX
100
AcDbEntity
8
1
100
AcDbVertex
100
AcDb3dPolylineVertex
10
351.969488
20
-4.634603
30
7.196082
70
32
0
VERTEX
100
AcDbEntity
8
1
100
AcDbVertex
100
AcDb3dPolylineVertex
10
351.964584
20
-4.993145
30
7.684116
70
32
0
VERTEX
100
AcDbEntity
8
1
100
AcDbVertex
100
AcDb3dPolylineVertex
10
351.959329
20
-5.350793
30
8.172974
70
32
0
VERTEX
100
AcDbEntity
8
1
100
AcDbVertex
100
AcDb3dPolylineVertex
10
351.953805
20
-5.702566
30
8.662386
70
32
0
VERTEX
100
AcDbEntity
8
1
100
AcDbVertex
100
AcDb3dPolylineVertex
10
351.948001
20
-6.050176
30
9.147456
70
32
0
VERTEX
100
AcDbEntity
8
1
100
AcDbVertex
100
AcDb3dPolylineVertex
10
351.942030
20
-6.388066
30
9.628251
70
32
0
VERTEX
100
AcDbEntity
8
1
100
AcDbVertex
100
AcDb3dPolylineVertex
10
351.935873
20
-6.718745
30
10.099524
70
32
0
VERTEX
100
AcDbEntity
8
1
100
AcDbVertex
100
AcDb3dPolylineVertex
10
351.929663
20
-7.036514
30
10.561431
70
32
0
VERTEX
100
AcDbEntity
8
1
100
AcDbVertex
100
AcDb3dPolylineVertex
10
351.923394
20
-7.343329
30
11.009316
70
32
0
VERTEX
100
AcDbEntity
8
1
100
AcDbVertex
100
AcDb3dPolylineVertex
10
351.917184
20
-7.635139
30
11.442375
70
32
0
VERTEX
100
AcDbEntity
8
1
100
AcDbVertex
100
AcDb3dPolylineVertex
10
351.911064
20
-7.912212
30
11.857257
70
32
0
VERTEX
100
AcDbEntity
8
1
100
AcDbVertex
100
AcDb3dPolylineVertex
10
351.905099
20
-8.173221
30
12.251722
70
32
0
VERTEX
100
AcDbEntity
8
1
100
AcDbVertex
100
AcDb3dPolylineVertex
10
351.899382
20
-8.415752
30
12.624277
70
32
0
VERTEX
100
AcDbEntity
8
1
100
AcDbVertex
100
AcDb3dPolylineVertex
10
351.893921
20
-8.641101
30
12.971479
70
32
0
VERTEX
100
AcDbEntity
8
1
100
AcDbVertex
100
AcDb3dPolylineVertex
10
351.888808
20
-8.846837
30
13.292173
70
32
0
VERTEX
100
AcDbEntity
8
1
100
AcDbVertex
100
AcDb3dPolylineVertex
10
351.884110
20
-9.031781
30
13.584666
70
32
0
VERTEX
100
AcDbEntity
8
1
100
AcDbVertex
100
AcDb3dPolylineVertex
10
351.879838
20
-9.196726
30
13.846410
70
32
0
VERTEX
100
AcDbEntity
8
1
100
AcDbVertex
100
AcDb3dPolylineVertex
10
351.876042
20
-9.340838
30
14.075967
70
32
0
VERTEX
100
AcDbEntity
8
1
100
AcDbVertex
100
AcDb3dPolylineVertex
10
351.872780
20
-9.462915
30
14.272311
70
32
0
VERTEX
100
AcDbEntity
8
1
100
AcDbVertex
100
AcDb3dPolylineVertex
10
351.870082
20
-9.562713
30
14.434143
70
32
0
VERTEX
100
AcDbEntity
8
1
100
AcDbVertex
100
AcDb3dPolylineVertex
10
351.867971
20
-9.640061
30
14.560381
70
32
0
VERTEX
100
AcDbEntity
8
1
100
AcDbVertex
100
AcDb3dPolylineVertex
10
351.866467
20
-9.694814
30
14.650191
70
32
0
VERTEX
100
AcDbEntity
8
1
100
AcDbVertex
100
AcDb3dPolylineVertex
10
351.865582
20
-9.726880
30
14.702960
70
32
0
SEQEND
100
AcDbEntity
8
1
0
POLYLINE
100
AcDbEntity
8
1
62
2
100
AcDb3dPolyline
66
1
10
0.000000
20
0.000000
30
0.000000
70
8
0
VERTEX
100
AcDbEntity
8
1
100
AcDbVertex
100
AcDb3dPolylineVertex
10
351.865582
20
-9.726880
30
14.702960
70
32
0
VERTEX
100
AcDbEntity
8
1
100
AcDbVertex
100
AcDb3dPolylineVertex
10
351.865358
20
-9.734991
30
14.714120
70
32
0
VERTEX
100
AcDbEntity
8
1
100
AcDbVertex
100
AcDb3dPolylineVertex
10
351.865085
20
-9.744836
30
14.723785
70
32
0
VERTEX
100
AcDbEntity
8
1
100
AcDbVertex
100
AcDb3dPolylineVertex
10
351.864772
20
-9.756145
30
14.731690
70
32
0
VERTEX
100
AcDbEntity
8
1
100
AcDbVertex
100
AcDb3dPolylineVertex
10
351.864426
20
-9.768608
30
14.737618
70
32
0
VERTEX
100
AcDbEntity
8
1
100
AcDbVertex
100
AcDb3dPolylineVertex
10
351.864057
20
-9.781882
30
14.741407
70
32
0
VERTEX
100
AcDbEntity
8
1
100
AcDbVertex
100
AcDb3dPolylineVertex
10
351.863676
20
-9.795603
30
14.742953
70
32
0
VERTEX
100
AcDbEntity
8
1
100
AcDbVertex
100
AcDb3dPolylineVertex
10
351.863291
20
-9.809394
30
14.742211
70
32
0
VERTEX
100
AcDbEntity
8
1
100
AcDbVertex
100
AcDb3dPolylineVertex
10
351.862915
20
-9.822876
30
14.739201
70
32
0
VERTEX
100
AcDbEntity
8
1
100
AcDbVertex
100
AcDb3dPolylineVertex
10
351.862558
20
-9.835676
30
14.734005
70
32
0
VERTEX
100
AcDbEntity
8
1
100
AcDbVertex
100
AcDb3dPolylineVertex
10
351.862229
20
-9.847442
30
14.726765
70
32
0
VERTEX
100
AcDbEntity
8
1
100
AcDbVertex
100
AcDb3dPolylineVertex
10
351.861937
20
-9.857848
30
14.717678
70
32
0
VERTEX
100
AcDbEntity
8
1
100
AcDbVertex
100
AcDb3dPolylineVertex
10
351.861692
20
-9.866608
30
14.706994
70
32
0
VERTEX
100
AcDbEntity
8
1
100
AcDbVertex
100
AcDb3dPolylineVertex
10
351.861499
20
-9.873479
30
14.695004
70
32
0
VERTEX
100
AcDbEntity
8
1
100
AcDbVertex
100
AcDb3dPolylineVertex
10
351.861364
20
-9.878271
30
14.682039
70
32
0
VERTEX
100
AcDbEntity
8
1
100
AcDbVertex
100
AcDb3dPolylineVertex
10
351.861292
20
-9.880850
30
14.668457
70
32
0
VERTEX
100
AcDbEntity
8
1
100
AcDbVertex
100
AcDb3dPolylineVertex
10
351.861284
20
-9.881145
30
14.654630
70
32
0
VERTEX
100
AcDbEntity
8
1
100
AcDbVertex
100
AcDb3dPolylineVertex
10
351.861340
20
-9.879147
30
14.640940
70
32
0
VERTEX
100
AcDbEntity
8
1
100
AcDbVertex
100
AcDb3dPolylineVertex
10
351.861459
20
-9.874912
30
14.627767
70
32
0
SEQEND
100
AcDbEntity
8
1
0
POLYLINE
100
AcDbEntity
8
1
62
1
100
AcDb3dPolyline
66
1
10
0.000000
20
0.000000
30
0.000000
70
8
0
VERTEX
100
AcDbEntity
8
1
100
AcDbVertex
100
AcDb3dPolylineVertex
10
351.861459
20
-9.874912
30
14.627767
70
32
0
VERTEX
100
AcDbEntity
8
1
100
AcDbVertex
100
AcDb3dPolylineVertex
10
351.862126
20
-9.851094
30
14.570588
70
32
0
VERTEX
100
AcDbEntity
8
1
100
AcDbVertex
100
AcDb3dPolylineVertex
10
351.863264
20
-9.810362
30
14.473230
70
32
0
VERTEX
100
AcDbEntity
8
1
100
AcDbVertex
100
AcDb3dPolylineVertex
10
351.864868
20
-9.752685
30
14.336285
70
32
0
VERTEX
100
AcDbEntity
8
1
100
AcDbVertex
100
AcDb3dPolylineVertex
10
351.866929
20
-9.678013
30
14.160581
70
32
0
VERTEX
100
AcDbEntity
8
1
100
AcDbVertex
100
AcDb3dPolylineVertex
10
351.869439
20
-9.586324
30
13.947161
70
32
0
VERTEX
100
AcDbEntity
8
1
100
AcDbVertex
100
AcDb3dPolylineVertex
10
351.872385
20
-9.477585
30
13.697304
70
32
0
VERTEX
100
AcDbEntity
8
1
100
AcDbVertex
100
AcDb3dPolylineVertex
10
351.875775
20
-9.350897
30
13.412986
70
32
0
VERTEX
100
AcDbEntity
8
1
100
AcDbVertex
100
AcDb3dPolylineVertex
10
351.879599
20
-9.205842
30
13.096175
70
32
0
VERTEX
100
AcDbEntity
8
1
100
AcDbVertex
100
AcDb3dPolylineVertex
10
351.883802
20
-9.043762
30
12.748102
70
32
0
VERTEX
100
AcDbEntity
8
1
100
AcDbVertex
100
AcDb3dPolylineVertex
10
351.888372
20
-8.864188
30
12.371199
70
32
0
VERTEX
100
AcDbEntity
8
1
100
AcDbVertex
100
AcDb3dPolylineVertex
10
351.893319
20
-8.665582
30
11.968747
70
32
0
VERTEX
100
AcDbEntity
8
1
100
AcDbVertex
100
AcDb3dPolylineVertex
10
351.898553
20
-8.450338
30
11.542010
70
32
0
VERTEX
100
AcDbEntity
8
1
100
AcDbVertex
100
AcDb3dPolylineVertex
10
351.904071
20
-8.217369
30
11.094441
70
32
0
VERTEX
100
AcDbEntity
8
1
100
AcDbVertex
100
AcDb3dPolylineVertex
10
351.909830
20
-7.966917
30
10.628939
70
32
0
VERTEX
100
AcDbEntity
8
1
100
AcDbVertex
100
AcDb3dPolylineVertex
10
351.915748
20
-7.701077
30
10.147446
70
32
0
VERTEX
100
AcDbEntity
8
1
100
AcDbVertex
100
AcDb3dPolylineVertex
10
351.921830
20
-7.417901
30
9.654567
70
32
0
VERTEX
100
AcDbEntity
8
1
100
AcDbVertex
100
AcDb3dPolylineVertex
10
351.927949
20
-7.121716
30
9.151121
70
32
0
VERTEX
100
AcDbEntity
8
1
100
AcDbVertex
100
AcDb3dPolylineVertex
10
351.934129
20
-6.809475
30
8.642771
70
32
0
VERTEX
100
AcDbEntity
8
1
100
AcDbVertex
100
AcDb3dPolylineVertex
10
351.940228
20
-6.486613
30
8.129767
70
32
0
VERTEX
100
AcDbEntity
8
1
100
AcDbVertex
100
AcDb3dPolylineVertex
10
351.946258
20
-6.150757
30
7.617621
70
32
0
VERTEX
100
AcDbEntity
8
1
100
AcDbVertex
100
AcDb3dPolylineVertex
10
351.952096
20
-5.807058
30
7.106800
70
32
0
VERTEX
100
AcDbEntity
8
1
100
AcDbVertex
100
AcDb3dPolylineVertex
10
351.957741
20
-5.454204
30
6.602277
70
32
0
VERTEX
100
AcDbEntity
8
1
100
AcDbVertex
100
AcDb3dPolylineVertex
10
351.963098
20
-5.096807
30
6.104835
70
32
0
VERTEX
100
AcDbEntity
8
1
100
AcDbVertex
100
AcDb3dPolylineVertex
10
351.968153
20
-4.734922
30
5.618522
70
32
0
VERTEX
100
AcDbEntity
8
1
100
AcDbVertex
100
AcDb3dPolylineVertex
10
351.972853
20
-4.371604
30
5.145147
70
32
0
VERTEX
100
AcDbEntity
8
1
100
AcDbVertex
100
AcDb3dPolylineVertex
10
351.977171
20
-4.008851
30
4.687224
70
32
0
VERTEX
100
AcDbEntity
8
1
100
AcDbVertex
100
AcDb3dPolylineVertex
10
351.981111
20
-3.646561
30
4.248860
70
32
0
VERTEX
100
AcDbEntity
8
1
100
AcDbVertex
100
AcDb3dPolylineVertex
10
351.984627
20
-3.289743
30
3.830018
70
32
0
VERTEX
100
AcDbEntity
8
1
100
AcDbVertex
100
AcDb3dPolylineVertex
10
351.987748
20
-2.936825
30
3.435803
70
32
0
VERTEX
100
AcDbEntity
8
1
100
AcDbVertex
100
AcDb3dPolylineVertex
10
351.990443
20
-2.593911
30
3.064902
70
32
0
VERTEX
100
AcDbEntity
8
1
100
AcDbVertex
100
AcDb3dPolylineVertex
10
351.992738
20
-2.261065
30
2.720763
70
32
0
VERTEX
100
AcDbEntity
8
1
100
AcDbVertex
100
AcDb3dPolylineVertex
10
351.994649
20
-1.940947
30
2.404477
70
32
0
VERTEX
100
AcDbEntity
8
1
100
AcDbVertex
100
AcDb3dPolylineVertex
10
351.996189
20
-1.638066
30
2.115255
70
32
0
VERTEX
100
AcDbEntity
8
1
100
AcDbVertex
100
AcDb3dPolylineVertex
10
351.997398
20
-1.353407
30
1.855080
70
32
0
VERTEX
100
AcDbEntity
8
1
100
AcDbVertex
100
AcDb3dPolylineVertex
10
351.998312
20
-1.090141
30
1.623754
70
32
0
VERTEX
100
AcDbEntity
8
1
100
AcDbVertex
100
AcDb3dPolylineVertex
10
351.998970
20
-0.851647
30
1.420573
70
32
0
VERTEX
100
AcDbEntity
8
1
100
AcDbVertex
100
AcDb3dPolylineVertex
10
351.999420
20
-0.638790
30
1.246793
70
32
0
VERTEX
100
AcDbEntity
8
1
100
AcDbVertex
100
AcDb3dPolylineVertex
10
351.999708
20
-0.453716
30
1.102241
70
32
0
VERTEX
100
AcDbEntity
8
1
100
AcDbVertex
100
AcDb3dPolylineVertex
10
351.999872
20
-0.299790
30
0.985313
70
32
0
VERTEX
100
AcDbEntity
8
1
100
AcDbVertex
100
AcDb3dPolylineVertex
10
351.999954
20
-0.179286
30
0.895091
70
32
0
VERTEX
100
AcDbEntity
8
1
100
AcDbVertex
100
AcDb3dPolylineVertex
10
351.999988
20
-0.093404
30
0.831365
70
32
0
VERTEX
100
AcDbEntity
8
1
100
AcDbVertex
100
AcDb3dPolylineVertex
10
351.999997
20
-0.042889
30
0.794104
70
32
0
SEQEND
100
AcDbEntity
8
1
0
POLYLINE
100
AcDbEntity
8
1
62
4
100
AcDb3dPolyline
66
1
10
0.000000
20
0.000000
30
0.000000
70
8
0
VERTEX
100
AcDbEntity
8
1
100
AcDbVertex
100
AcDb3dPolylineVertex
10
364.499996
20
-0.053223
30
0.402678
70
32
0
VERTEX
100
AcDbEntity
8
1
100
AcDbVertex
100
AcDb3dPolylineVertex
10
364.499997
20
-0.046153
30
0.398013
70
32
0
VERTEX
100
AcDbEntity
8
1
100
AcDbVertex
100
AcDb3dPolylineVertex
10
364.499998
20
-0.039116
30
0.394144
70
32
0
VERTEX
100
AcDbEntity
8
1
100
AcDbVertex
100
AcDb3dPolylineVertex
10
364.499999
20
-0.032229
30
0.391134
70
32
0
VERTEX
100
AcDbEntity
8
1
100
AcDbVertex
100
AcDb3dPolylineVertex
10
364.499999
20
-0.025604
30
0.389033
70
32
0
VERTEX
100
AcDbEntity
8
1
100
AcDbVertex
100
AcDb3dPolylineVertex
10
364.499999
20
-0.019352
30
0.387875
70
32
0
VERTEX
100
AcDbEntity
8
1
100
AcDbVertex
100
AcDb3dPolylineVertex
10
364.500000
20
-0.013575
30
0.387679
70
32
0
VERTEX
100
AcDbEntity
8
1
100
AcDbVertex
100
AcDb3dPolylineVertex
10
364.500000
20
-0.008369
30
0.388449
70
32
0
VERTEX
100
AcDbEntity
8
1
100
AcDbVertex
100
AcDb3dPolylineVertex
10
364.500000
20
-0.003819
30
0.390171
70
32
0
VERTEX
100
AcDbEntity
8
1
100
AcDbVertex
100
AcDb3dPolylineVertex
10
364.500000
20
-0.000000
30
0.392817
70
32
0
VERTEX
100
AcDbEntity
8
1
100
AcDbVertex
100
AcDb3dPolylineVertex
10
364.500000
20
0.003025
30
0.396343
70
32
0
VERTEX
100
AcDbEntity
8
1
100
AcDbVertex
100
AcDb3dPolylineVertex
10
364.500000
20
0.005205
30
0.400692
70
32
0
VERTEX
100
AcDbEntity
8
1
100
AcDbVertex
100
AcDb3dPolylineVertex
10
364.500000
20
0.006507
30
0.405791
70
32
0
VERTEX
100
AcDbEntity
8
1
100
AcDbVertex
100
AcDb3dPolylineVertex
10
364.500000
20
0.006908
30
0.411556
70
32
0
VERTEX
100
AcDbEntity
8
1
100
AcDbVertex
100
AcDb3dPolylineVertex
10
364.500000
20
0.006402
30
0.417892
70
32
0
VERTEX
100
AcDbEntity
8
1
100
AcDbVertex
100
AcDb3dPolylineVertex
10
364.500000
20
0.004999
30
0.424696
70
32
0
VERTEX
100
AcDbEntity
8
1
100
AcDbVertex
100
AcDb3dPolylineVertex
10
364.500000
20
0.002720
30
0.431854
70
32
0
VERTEX
100
AcDbEntity
8
1
100
AcDbVertex
100
AcDb3dPolylineVertex
10
364.500000
20
-0.000395
30
0.439249
70
32
0
VERTEX
100
AcDbEntity
8
1
100
AcDbVertex
100
AcDb3dPolylineVertex
10
364.500000
20
-0.004295
30
0.446759
70
32
0
SEQEND
100
AcDbEntity
8
1
0
POLYLINE
100
AcDbEntity
8
1
62
3
100
AcDb3dPolyline
66
1
10
0.000000
20
0.000000
30
0.000000
70
8
0
VERTEX
100
AcDbEntity
8
1
100
AcDbVertex
100
AcDb3dPolylineVertex
10
364.500000
20
-0.004295
30
0.446759
70
32
0
VERTEX
100
AcDbEntity
8
1
100
AcDbVertex
100
AcDb3dPolylineVertex
10
364.499998
20
-0.037354
30
0.505000
70
32
0
VERTEX
100
AcDbEntity
8
1
100
AcDbVertex
100
AcDb3dPolylineVertex
10
364.499988
20
-0.093700
30
0.604139
70
32
0
VERTEX
100
AcDbEntity
8
1
100
AcDbVertex
100
AcDb3dPolylineVertex
10
364.499959
20
-0.173062
30
0.743500
70
32
0
VERTEX
100
AcDbEntity
8
1
100
AcDbVertex
100
AcDb3dPolylineVertex
10
364.499896
20
-0.275315
30
0.921948
70
32
0
VERTEX
100
AcDbEntity
8
1
100
AcDbVertex
100
AcDb3dPolylineVertex
10
364.499779
20
-0.401228
30
1.137225
70
32
0
VERTEX
100
AcDbEntity
8
1
100
AcDbVertex
100
AcDb3dPolylineVertex
10
364.499581
20
-0.552489
30
1.385985
70
32
0
VERTEX
100
AcDbEntity
8
1
100
AcDbVertex
100
AcDb3dPolylineVertex
10
364.499272
20
-0.728659
30
1.666505
70
32
0
VERTEX
100
AcDbEntity
8
1
100
AcDbVertex
100
AcDb3dPolylineVertex
10
364.498820
20
-0.927609
30
1.978255
70
32
0
VERTEX
100
AcDbEntity
8
1
100
AcDbVertex
100
AcDb3dPolylineVertex
10
364.498186
20
-1.149827
30
2.318197
70
32
0
VERTEX
100
AcDbEntity
8
1
100
AcDbVertex
100
AcDb3dPolylineVertex
10
364.497330
20
-1.395164
30
2.683670
70
32
0
VERTEX
100
AcDbEntity
8
1
100
AcDbVertex
100
AcDb3dPolylineVertex
10
364.496216
20
-1.660816
30
3.074045
70
32
0
VERTEX
100
AcDbEntity
8
1
100
AcDbVertex
100
AcDb3dPolylineVertex
10
364.494798
20
-1.947382
30
3.485683
70
32
0
VERTEX
100
AcDbEntity
8
1
100
AcDbVertex
100
AcDb3dPolylineVertex
10
364.493031
20
-2.253883
30
3.916142
70
32
0
VERTEX
100
AcDbEntity
8
1
100
AcDbVertex
100
AcDb3dPolylineVertex
10
364.490903
20
-2.575242
30
4.366101
70
32
0
VERTEX
100
AcDbEntity
8
1
100
AcDbVertex
100
AcDb3dPolylineVertex
10
364.488351
20
-2.914123
30
4.829944
70
32
0
VERTEX
100
AcDbEntity
8
1
100
AcDbVertex
100
AcDb3dPolylineVertex
10
364.485390
20
-3.263562
30
5.309497
70
32
0
VERTEX
100
AcDbEntity
8
1
100
AcDbVertex
100
AcDb3dPolylineVertex
10
364.481979
20
-3.624506
30
5.800308
70
32
0
VERTEX
100
AcDbEntity
8
1
100
AcDbVertex
100
AcDb3dPolylineVertex
10
364.478136
20
-3.992273
30
6.302122
70
32
0
VERTEX
100
AcDbEntity
8
1
100
AcDbVertex
100
AcDb3dPolylineVertex
10
364.473877
20
-4.363817
30
6.813281
70
32
0
VERTEX
100
AcDbEntity
8
1
100
AcDbVertex
100
AcDb3dPolylineVertex
10
364.469197
20
-4.738648
30
7.330220
70
32
0
VERTEX
100
AcDbEntity
8
1
100
AcDbVertex
100
AcDb3dPolylineVertex
10
364.464153
20
-5.111896
30
7.852430
70
32
0
VERTEX
100
AcDbEntity
8
1
100
AcDbVertex
100
AcDb3dPolylineVertex
10
364.458728
20
-5.485056
30
8.374935
70
32
0
VERTEX
100
AcDbEntity
8
1
100
AcDbVertex
100
AcDb3dPolylineVertex
10
364.453017
20
-5.852238
30
8.897808
70
32
0
VERTEX
100
AcDbEntity
8
1
100
AcDbVertex
100
AcDb3dPolylineVertex
10
364.446996
20
-6.215904
30
9.415528
70
32
0
VERTEX
100
AcDbEntity
8
1
100
AcDbVertex
100
AcDb3dPolylineVertex
10
364.440795
20
-6.569418
30
9.928576
70
32
0
VERTEX
100
AcDbEntity
8
1
100
AcDbVertex
100
AcDb3dPolylineVertex
10
364.434376
20
-6.916319
30
10.430938
70
32
0
VERTEX
100
AcDbEntity
8
1
100
AcDbVertex
100
AcDb3dPolylineVertex
10
364.427896
20
-7.249754
30
10.923210
70
32
0
VERTEX
100
AcDbEntity
8
1
100
AcDbVertex
100
AcDb3dPolylineVertex
10
364.421335
20
-7.572361
30
11.400188
70
32
0
VERTEX
100
AcDbEntity
8
1
100
AcDbVertex
100
AcDb3dPolylineVertex
10
364.414826
20
-7.879361
30
11.861265
70
32
0
VERTEX
100
AcDbEntity
8
1
100
AcDbVertex
100
AcDb3dPolylineVertex
10
364.408397
20
-8.171284
30
12.302773
70
32
0
VERTEX
100
AcDbEntity
8
1
100
AcDbVertex
100
AcDb3dPolylineVertex
10
364.402118
20
-8.446666
30
12.722371
70
32
0
VERTEX
100
AcDbEntity
8
1
100
AcDbVertex
100
AcDb3dPolylineVertex
10
364.396096
20
-8.702611
30
13.118635
70
32
0
VERTEX
100
AcDbEntity
8
1
100
AcDbVertex
100
AcDb3dPolylineVertex
10
364.390328
20
-8.940851
30
13.487753
70
32
0
VERTEX
100
AcDbEntity
8
1
100
AcDbVertex
100
AcDb3dPolylineVertex
10
364.384921
20
-9.158561
30
13.828603
70
32
0
VERTEX
100
AcDbEntity
8
1
100
AcDbVertex
100
AcDb3dPolylineVertex
10
364.379950
20
-9.354269
30
14.139489
70
32
0
VERTEX
100
AcDbEntity
8
1
100
AcDbVertex
100
AcDb3dPolylineVertex
10
364.375421
20
-9.529022
30
14.417618
70
32
0
VERTEX
100
AcDbEntity
8
1
100
AcDbVertex
100
AcDb3dPolylineVertex
10
364.371391
20
-9.681896
30
14.661472
70
32
0
VERTEX
100
AcDbEntity
8
1
100
AcDbVertex
100
AcDb3dPolylineVertex
10
364.367926
20
-9.811452
30
14.870025
70
32
0
VERTEX
100
AcDbEntity
8
1
100
AcDbVertex
100
AcDb3dPolylineVertex
10
364.365058
20
-9.917375
30
15.041922
70
32
0
VERTEX
100
AcDbEntity
8
1
100
AcDbVertex
100
AcDb3dPolylineVertex
10
364.362814
20
-9.999478
30
15.176013
70
32
0
VERTEX
100
AcDbEntity
8
1
100
AcDbVertex
100
AcDb3dPolylineVertex
10
364.361214
20
-10.057603
30
15.271407
70
32
0
VERTEX
100
AcDbEntity
8
1
100
AcDbVertex
100
AcDb3dPolylineVertex
10
364.360273
20
-10.091643
30
15.327452
70
32
0
SEQEND
100
AcDbEntity
8
1
0
POLYLINE
100
AcDbEntity
8
1
62
2
100
AcDb3dPolyline
66
1
10
0.000000
20
0.000000
30
0.000000
70
8
0
VERTEX
100
AcDbEntity
8
1
100
AcDbVertex
100
AcDb3dPolylineVertex
10
364.360273
20
-10.091643
30
15.327452
70
32
0
VERTEX
100
AcDbEntity
8
1
100
AcDbVertex
100
AcDb3dPolylineVertex
10
364.359994
20
-10.101722
30
15.341345
70
32
0
VERTEX
100
AcDbEntity
8
1
100
AcDbVertex
100
AcDb3dPolylineVertex
10
364.359655
20
-10.113945
30
15.353397
70
32
0
VERTEX
100
AcDbEntity
8
1
100
AcDbVertex
100
AcDb3dPolylineVertex
10
364.359265
20
-10.127980
30
15.363283
70
32
0
VERTEX
100
AcDbEntity
8
1
100
AcDbVertex
100
AcDb3dPolylineVertex
10
364.358835
20
-10.143449
30
15.370737
70
32
0
VERTEX
100
AcDbEntity
8
1
100
AcDbVertex
100
AcDb3dPolylineVertex
10
364.358375
20
-10.159936
30
15.375556
70
32
0
VERTEX
100
AcDbEntity
8
1
100
AcDbVertex
100
AcDb3dPolylineVertex
10
364.357899
20
-10.176994
30
15.377611
70
32
0
VERTEX
100
AcDbEntity
8
1
100
AcDbVertex
100
AcDb3dPolylineVertex
10
364.357419
20
-10.194163
30
15.376845
70
32
0
VERTEX
100
AcDbEntity
8
1
100
AcDbVertex
100
AcDb3dPolylineVertex
10
364.356949
20
-10.210978
30
15.373278
70
32
0
VERTEX
100
AcDbEntity
8
1
100
AcDbVertex
100
AcDb3dPolylineVertex
10
364.356500
20
-10.226982
30
15.367003
70
32
0
VERTEX
100
AcDbEntity
8
1
100
AcDbVertex
100
AcDb3dPolylineVertex
10
364.356085
20
-10.241742
30
15.358189
70
32
0
VERTEX
100
AcDbEntity
8
1
100
AcDbVertex
100
AcDb3dPolylineVertex
10
364.355716
20
-10.254856
30
15.347072
70
32
0
VERTEX
100
AcDbEntity
8
1
100
AcDbVertex
100
AcDb3dPolylineVertex
10
364.355403
20
-10.265968
30
15.333951
70
32
0
VERTEX
100
AcDbEntity
8
1
100
AcDbVertex
100
AcDb3dPolylineVertex
10
364.355155
20
-10.274775
30
15.319181
70
32
0
VERTEX
100
AcDbEntity
8
1
100
AcDbVertex
100
AcDb3dPolylineVertex
10
364.354978
20
-10.281037
30
15.303161
70
32
0
VERTEX
100
AcDbEntity
8
1
100
AcDbVertex
100
AcDb3dPolylineVertex
10
364.354878
20
-10.284583
30
15.286325
70
32
0
VERTEX
100
AcDbEntity
8
1
100
AcDbVertex
100
AcDb3dPolylineVertex
10
364.354858
20
-10.285315
30
15.269128
70
32
0
VERTEX
100
AcDbEntity
8
1
100
AcDbVertex
100
AcDb3dPolylineVertex
10
364.354917
20
-10.283213
30
15.252038
70
32
0
VERTEX
100
AcDbEntity
8
1
100
AcDbVertex
100
AcDb3dPolylineVertex
10
364.355055
20
-10.278335
30
15.235520
70
32
0
SEQEND
100
AcDbEntity
8
1
0
POLYLINE
100
AcDbEntity
8
1
62
1
100
AcDb3dPolyline
66
1
10
0.000000
20
0.000000
30
0.000000
70
8
0
VERTEX
100
AcDbEntity
8
1
100
AcDbVertex
100
AcDb3dPolylineVertex
10
364.355055
20
-10.278335
30
15.235520
70
32
0
VERTEX
100
AcDbEntity
8
1
100
AcDbVertex
100
AcDb3dPolylineVertex
10
364.355725
20
-10.254529
30
15.174167
70
32
0
VERTEX
100
AcDbEntity
8
1
100
AcDbVertex
100
AcDb3dPolylineVertex
10
364.356869
20
-10.213803
30
15.069685
70
32
0
VERTEX
100
AcDbEntity
8
1
100
AcDbVertex
100
AcDb3dPolylineVertex
10
364.358482
20
-10.156114
30
14.922705
70
32
0
VERTEX
100
AcDbEntity
8
1
100
AcDbVertex
100
AcDb3dPolylineVertex
10
364.360557
20
-10.081396
30
14.734096
70
32
0
VERTEX
100
AcDbEntity
8
1
100
AcDbVertex
100
AcDb3dPolylineVertex
10
364.363085
20
-9.989606
30
14.504960
70
32
0
VERTEX
100
AcDbEntity
8
1
100
AcDbVertex
100
AcDb3dPolylineVertex
10
364.366056
20
-9.880638
30
14.236666
70
32
0
VERTEX
100
AcDbEntity
8
1
100
AcDbVertex
100
AcDb3dPolylineVertex
10
364.369486
20
-9.753353
30
13.931370
70
32
0
VERTEX
100
AcDbEntity
8
1
100
AcDbVertex
100
AcDb3dPolylineVertex
10
364.373367
20
-9.607243
30
13.591161
70
32
0
VERTEX
100
AcDbEntity
8
1
100
AcDbVertex
100
AcDb3dPolylineVertex
10
364.377637
20
-9.443909
30
13.217251
70
32
0
VERTEX
100
AcDbEntity
8
1
100
AcDbVertex
100
AcDb3dPolylineVertex
10
364.382291
20
-9.262599
30
12.812319
70
32
0
VERTEX
100
AcDbEntity
8
1
100
AcDbVertex
100
AcDb3dPolylineVertex
10
364.387350
20
-9.061395
30
12.379946
70
32
0
VERTEX
100
AcDbEntity
8
1
100
AcDbVertex
100
AcDb3dPolylineVertex
10
364.392712
20
-8.843149
30
11.921317
70
32
0
VERTEX
100
AcDbEntity
8
1
100
AcDbVertex
100
AcDb3dPolylineVertex
10
364.398383
20
-8.606320
30
11.440261
70
32
0
VERTEX
100
AcDbEntity
8
1
100
AcDbVertex
100
AcDb3dPolylineVertex
10
364.404322
20
-8.351056
30
10.939901
70
32
0
VERTEX
100
AcDbEntity
8
1
100
AcDbVertex
100
AcDb3dPolylineVertex
10
364.410438
20
-8.079762
30
10.422199
70
32
0
VERTEX
100
AcDbEntity
8
1
100
AcDbVertex
100
AcDb3dPolylineVertex
10
364.416751
20
-7.789823
30
9.892305
70
32
0
VERTEX
100
AcDbEntity
8
1
100
AcDbVertex
100
AcDb3dPolylineVertex
10
364.423113
20
-7.486321
30
9.350853
70
32
0
VERTEX
100
AcDbEntity
8
1
100
AcDbVertex
100
AcDb3dPolylineVertex
10
364.429569
20
-7.165142
30
8.804313
70
32
0
VERTEX
100
AcDbEntity
8
1
100
AcDbVertex
100
AcDb3dPolylineVertex
10
364.435951
20
-6.832844
30
8.252540
70
32
0
VERTEX
100
AcDbEntity
8
1
100
AcDbVertex
100
AcDb3dPolylineVertex
10
364.442287
20
-6.486091
30
7.701839
70
32
0
VERTEX
100
AcDbEntity
8
1
100
AcDbVertex
100
AcDb3dPolylineVertex
10
364.448435
20
-6.130905
30
7.152430
70
32
0
VERTEX
100
AcDbEntity
8
1
100
AcDbVertex
100
AcDb3dPolylineVertex
10
364.454404
20
-5.765200
30
6.610006
70
32
0
VERTEX
100
AcDbEntity
8
1
100
AcDbVertex
100
AcDb3dPolylineVertex
10
364.460079
20
-5.394488
30
6.075057
70
32
0
VERTEX
100
AcDbEntity
8
1
100
AcDbVertex
100
AcDb3dPolylineVertex
10
364.465456
20
-5.018112
30
5.552360
70
32
0
VERTEX
100
AcDbEntity
8
1
100
AcDbVertex
100
AcDb3dPolylineVertex
10
364.470466
20
-4.639947
30
5.043428
70
32
0
VERTEX
100
AcDbEntity
8
1
100
AcDbVertex
100
AcDb3dPolylineVertex
10
364.475089
20
-4.261431
30
4.551453
70
32
0
VERTEX
100
AcDbEntity
8
1
100
AcDbVertex
100
AcDb3dPolylineVertex
10
364.479323
20
-3.882448
30
4.080778
70
32
0
VERTEX
100
AcDbEntity
8
1
100
AcDbVertex
100
AcDb3dPolylineVertex
10
364.483114
20
-3.508549
30
3.631290
70
32
0
VERTEX
100
AcDbEntity
8
1
100
AcDbVertex
100
AcDb3dPolylineVertex
10
364.486498
20
-3.137372
30
3.208883
70
32
0
VERTEX
100
AcDbEntity
8
1
100
AcDbVertex
100
AcDb3dPolylineVertex
10
364.489428
20
-2.776134
30
2.811724
70
32
0
VERTEX
100
AcDbEntity
8
1
100
AcDbVertex
100
AcDb3dPolylineVertex
10
364.491938
20
-2.424220
30
2.443994
70
32
0
VERTEX
100
AcDbEntity
8
1
100
AcDbVertex
100
AcDb3dPolylineVertex
10
364.494037
20
-2.084981
30
2.106464
70
32
0
VERTEX
100
AcDbEntity
8
1
100
AcDbVertex
100
AcDb3dPolylineVertex
10
364.495736
20
-1.763169
30
1.798422
70
32
0
VERTEX
100
AcDbEntity
8
1
100
AcDbVertex
100
AcDb3dPolylineVertex
10
364.497076
20
-1.459918
30
1.521885
70
32
0
VERTEX
100
AcDbEntity
8
1
100
AcDbVertex
100
AcDb3dPolylineVertex
10
364.498094
20
-1.178759
30
1.276557
70
32
0
VERTEX
100
AcDbEntity
8
1
100
AcDbVertex
100
AcDb3dPolylineVertex
10
364.498830
20
-0.923573
30
1.061490
70
32
0
VERTEX
100
AcDbEntity
8
1
100
AcDbVertex
100
AcDb3dPolylineVertex
10
364.499337
20
-0.695298
30
0.877979
70
32
0
VERTEX
100
AcDbEntity
8
1
100
AcDbVertex
100
AcDb3dPolylineVertex
10
364.499662
20
-0.496209
30
0.725865
70
32
0
VERTEX
100
AcDbEntity
8
1
100
AcDbVertex
100
AcDb3dPolylineVertex
10
364.499850
20
-0.330332
30
0.603106
70
32
0
VERTEX
100
AcDbEntity
8
1
100
AcDbVertex
100
AcDb3dPolylineVertex
10
364.499945
20
-0.200375
30
0.508495
70
32
0
VERTEX
100
AcDbEntity
8
1
100
AcDbVertex
100
AcDb3dPolylineVertex
10
364.499984
20
-0.107727
30
0.441710
70
32
0
VERTEX
100
AcDbEntity
8
1
100
AcDbVertex
100
AcDb3dPolylineVertex
10
364.499996
20
-0.053223
30
0.402678
70
32
0
SEQEND
100
AcDbEntity
8
1
0
POLYLINE
100
AcDbEntity
8
1
62
4
100
AcDb3dPolyline
66
1
10
0.000000
20
0.000000
30
0.000000
70
8
0
VERTEX
100
AcDbEntity
8
1
100
AcDbVertex
100
AcDb3dPolylineVertex
10
376.999994
20
-0.064417
30
0.011044
70
32
0
VERTEX
100
AcDbEntity
8
1
100
AcDbVertex
100
AcDb3dPolylineVertex
10
376.999996
20
-0.055839
30
0.005570
70
32
0
VERTEX
100
AcDbEntity
8
1
100
AcDbVertex
100
AcDb3dPolylineVertex
10
376.999997
20
-0.047334
30
0.001055
70
32
0
VERTEX
100
AcDbEntity
8
1
100
AcDbVertex
100
AcDb3dPolylineVertex
10
376.999998
20
-0.039031
30
-0.002431
70
32
0
VERTEX
100
AcDbEntity
8
1
100
AcDbVertex
100
AcDb3dPolylineVertex
10
376.999999
20
-0.031055
30
-0.004838
70
32
0
VERTEX
100
AcDbEntity
8
1
100
AcDbVertex
100
AcDb3dPolylineVertex
10
376.999999
20
-0.023526
30
-0.006128
70
32
0
VERTEX
100
AcDbEntity
8
1
100
AcDbVertex
100
AcDb3dPolylineVertex
10
377.000000
20
-0.016556
30
-0.006283
70
32
0
VERTEX
100
AcDbEntity
8
1
100
AcDbVertex
100
AcDb3dPolylineVertex
10
377.000000
20
-0.010251
30
-0.005301
70
32
0
VERTEX
100
AcDbEntity
8
1
100
AcDbVertex
100
AcDb3dPolylineVertex
10
377.000000
20
-0.004704
30
-0.003196
70
32
0
VERTEX
100
AcDbEntity
8
1
100
AcDbVertex
100
AcDb3dPolylineVertex
10
377.000000
20
-0.000000
30
0.000000
70
32
0
VERTEX
100
AcDbEntity
8
1
100
AcDbVertex
100
AcDb3dPolylineVertex
10
377.000000
20
0.003792
30
0.004239
70
32
0
VERTEX
100
AcDbEntity
8
1
100
AcDbVertex
100
AcDb3dPolylineVertex
10
377.000000
20
0.006615
30
0.009456
70
32
0
VERTEX
100
AcDbEntity
8
1
100
AcDbVertex
100
AcDb3dPolylineVertex
10
377.000000
20
0.008426
30
0.015574
70
32
0
VERTEX
100
AcDbEntity
8
1
100
AcDbVertex
100
AcDb3dPolylineVertex
10
377.000000
20
0.009200
30
0.022501
70
32
0
VERTEX
100
AcDbEntity
8
1
100
AcDbVertex
100
AcDb3dPolylineVertex
10
377.000000
20
0.008925
30
0.030132
70
32
0
VERTEX
100
AcDbEntity
8
1
100
AcDbVertex
100
AcDb3dPolylineVertex
10
377.000000
20
0.007606
30
0.038354
70
32
0
VERTEX
100
AcDbEntity
8
1
100
AcDbVertex
100
AcDb3dPolylineVertex
10
377.000000
20
0.005262
30
0.047043
70
32
0
VERTEX
100
AcDbEntity
8
1
100
AcDbVertex
100
AcDb3dPolylineVertex
10
377.000000
20
0.001930
30
0.056068
70
32
0
VERTEX
100
AcDbEntity
8
1
100
AcDbVertex
100
AcDb3dPolylineVertex
10
377.000000
20
-0.002341
30
0.065294
70
32
0
SEQEND
100
AcDbEntity
8
1
0
POLYLINE
100
AcDbEntity
8
1
62
3
100
AcDb3dPolyline
66
1
10
0.000000
20
0.000000
30
0.000000
70
8
0
VERTEX
100
AcDbEntity
8
1
100
AcDbVertex
100
AcDb3dPolylineVertex
10
377.000000
20
-0.002341
30
0.065294
70
32
0
VERTEX
100
AcDbEntity
8
1
100
AcDbVertex
100
AcDb3dPolylineVertex
10
376.999998
20
-0.034685
30
0.128898
70
32
0
VERTEX
100
AcDbEntity
8
1
100
AcDbVertex
100
AcDb3dPolylineVertex
10
376.999989
20
-0.089834
30
0.237129
70
32
0
VERTEX
100
AcDbEntity
8
1
100
AcDbVertex
100
AcDb3dPolylineVertex
10
376.999963
20
-0.167567
30
0.389212
70
32
0
VERTEX
100
AcDbEntity
8
1
100
AcDbVertex
100
AcDb3dPolylineVertex
10
376.999905
20
-0.267899
30
0.583808
70
32
0
VERTEX
100
AcDbEntity
8
1
100
AcDbVertex
100
AcDb3dPolylineVertex
10
376.999796
20
-0.391995
30
0.818246
70
32
0
VERTEX
100
AcDbEntity
8
1
100
AcDbVertex
100
AcDb3dPolylineVertex
10
376.999610
20
-0.542157
30
1.088592
70
32
0
VERTEX
100
AcDbEntity
8
1
100
AcDbVertex
100
AcDb3dPolylineVertex
10
376.999316
20
-0.717942
30
1.393006
70
32
0
VERTEX
100
AcDbEntity
8
1
100
AcDbVertex
100
AcDb3dPolylineVertex
10
376.998884
20
-0.917184
30
1.730810
70
32
0
VERTEX
100
AcDbEntity
8
1
100
AcDbVertex
100
AcDb3dPolylineVertex
10
376.998274
20
-1.140719
30
2.098557
70
32
0
VERTEX
100
AcDbEntity
8
1
100
AcDbVertex
100
AcDb3dPolylineVertex
10
376.997442
20
-1.388691
30
2.493210
70
32
0
VERTEX
100
AcDbEntity
8
1
100
AcDbVertex
100
AcDb3dPolylineVertex
10
376.996353
20
-1.658261
30
2.913971
70
32
0
VERTEX
100
AcDbEntity
8
1
100
AcDbVertex
100
AcDb3dPolylineVertex
10
376.994957
20
-1.950017
30
3.357086
70
32
0
VERTEX
100
AcDbEntity
8
1
100
AcDbVertex
100
AcDb3dPolylineVertex
10
376.993204
20
-2.263697
30
3.819394
70
32
0
VERTEX
100
AcDbEntity
8
1
100
AcDbVertex
100
AcDb3dPolylineVertex
10
376.991082
20
-2.593154
30
4.302160
70
32
0
VERTEX
100
AcDbEntity
8
1
100
AcDbVertex
100
AcDb3dPolylineVertex
10
376.988520
20
-2.942071
30
4.798905
70
32
0
VERTEX
100
AcDbEntity
8
1
100
AcDbVertex
100
AcDb3dPolylineVertex
10
376.985534
20
-3.302570
30
5.311861
70
32
0
VERTEX
100
AcDbEntity
8
1
100
AcDbVertex
100
AcDb3dPolylineVertex
10
376.982080
20
-3.675790
30
5.836307
70
32
0
VERTEX
100
AcDbEntity
8
1
100
AcDbVertex
100
AcDb3dPolylineVertex
10
376.978171
20
-4.056950
30
6.371813
70
32
0
VERTEX
100
AcDbEntity
8
1
100
AcDbVertex
100
AcDb3dPolylineVertex
10
376.973827
20
-4.442235
30
6.917052
70
32
0
VERTEX
100
AcDbEntity
8
1
100
AcDbVertex
100
AcDb3dPolylineVertex
10
376.969035
20
-4.831814
30
7.467826
70
32
0
VERTEX
100
AcDbEntity
8
1
100
AcDbVertex
100
AcDb3dPolylineVertex
10
376.963861
20
-5.219889
30
8.024004
70
32
0
VERTEX
100
AcDbEntity
8
1
100
AcDbVertex
100
AcDb3dPolylineVertex
10
376.958275
20
-5.608791
30
8.579910
70
32
0
VERTEX
100
AcDbEntity
8
1
100
AcDbVertex
100
AcDb3dPolylineVertex
10
376.952385
20
-5.991594
30
9.136024
70
32
0
VERTEX
100
AcDbEntity
8
1
100
AcDbVertex
100
AcDb3dPolylineVertex
10
376.946152
20
-6.371668
30
9.686120
70
32
0
VERTEX
100
AcDbEntity
8
1
100
AcDbVertex
100
AcDb3dPolylineVertex
10
376.939725
20
-6.741204
30
10.231131
70
32
0
VERTEX
100
AcDbEntity
8
1
100
AcDbVertex
100
AcDb3dPolylineVertex
10
376.933047
20
-7.104779
30
10.764297
70
32
0
VERTEX
100
AcDbEntity
8
1
100
AcDbVertex
100
AcDb3dPolylineVertex
10
376.926297
20
-7.454303
30
11.286678
70
32
0
VERTEX
100
AcDbEntity
8
1
100
AcDbVertex
100
AcDb3dPolylineVertex
10
376.919441
20
-7.793245
30
11.792453
70
32
0
VERTEX
100
AcDbEntity
8
1
100
AcDbVertex
100
AcDb3dPolylineVertex
10
376.912631
20
-8.115932
30
12.281290
70
32
0
VERTEX
100
AcDbEntity
8
1
100
AcDbVertex
100
AcDb3dPolylineVertex
10
376.905888
20
-8.423266
30
12.749151
70
32
0
VERTEX
100
AcDbEntity
8
1
100
AcDbVertex
100
AcDb3dPolylineVertex
10
376.899289
20
-8.713553
30
13.193640
70
32
0
VERTEX
100
AcDbEntity
8
1
100
AcDbVertex
100
AcDb3dPolylineVertex
10
376.892953
20
-8.983438
30
13.613382
70
32
0
VERTEX
100
AcDbEntity
8
1
100
AcDbVertex
100
AcDb3dPolylineVertex
10
376.886870
20
-9.235119
30
14.004185
70
32
0
VERTEX
100
AcDbEntity
8
1
100
AcDbVertex
100
AcDb3dPolylineVertex
10
376.881159
20
-9.465299
30
14.364995
70
32
0
VERTEX
100
AcDbEntity
8
1
100
AcDbVertex
100
AcDb3dPolylineVertex
10
376.875905
20
-9.672244
30
14.694090
70
32
0
VERTEX
100
AcDbEntity
8
1
100
AcDbVertex
100
AcDb3dPolylineVertex
10
376.871112
20
-9.857223
30
14.988449
70
32
0
VERTEX
100
AcDbEntity
8
1
100
AcDbVertex
100
AcDb3dPolylineVertex
10
376.866839
20
-10.019275
30
15.246447
70
32
0
VERTEX
100
AcDbEntity
8
1
100
AcDbVertex
100
AcDb3dPolylineVertex
10
376.863161
20
-10.156650
30
15.467091
70
32
0
VERTEX
100
AcDbEntity
8
1
100
AcDbVertex
100
AcDb3dPolylineVertex
10
376.860117
20
-10.268982
30
15.648955
70
32
0
VERTEX
100
AcDbEntity
8
1
100
AcDbVertex
100
AcDb3dPolylineVertex
10
376.857734
20
-10.356066
30
15.790821
70
32
0
VERTEX
100
AcDbEntity
8
1
100
AcDbVertex
100
AcDb3dPolylineVertex
10
376.856035
20
-10.417724
30
15.891746
70
32
0
VERTEX
100
AcDbEntity
8
1
100
AcDbVertex
100
AcDb3dPolylineVertex
10
376.855034
20
-10.453852
30
15.951070
70
32
0
SEQEND
100
AcDbEntity
8
1
0
POLYLINE
100
AcDbEntity
8
1
62
2
100
AcDb3dPolyline
66
1
10
0.000000
20
0.000000
30
0.000000
70
8
0
VERTEX
100
AcDbEntity
8
1
100
AcDbVertex
100
AcDb3dPolylineVertex
10
376.855034
20
-10.453852
30
15.951070
70
32
0
VERTEX
100
AcDbEntity
8
1
100
AcDbVertex
100
AcDb3dPolylineVertex
10
376.854694
20
-10.466105
30
15.967939
70
32
0
VERTEX
100
AcDbEntity
8
1
100
AcDbVertex
100
AcDb3dPolylineVertex
10
376.854282
20
-10.480940
30
15.982591
70
32
0
VERTEX
100
AcDbEntity
8
1
100
AcDbVertex
100
AcDb3dPolylineVertex
10
376.853808
20
-10.497963
30
15.994637
70
32
0
VERTEX
100
AcDbEntity
8
1
100
AcDbVertex
100
AcDb3dPolylineVertex
10
376.853285
20
-10.516724
30
16.003758
70
32
0
VERTEX
100
AcDbEntity
8
1
100
AcDbVertex
100
AcDb3dPolylineVertex
10
376.852726
20
-10.536724
30
16.009712
70
32
0
VERTEX
100
AcDbEntity
8
1
100
AcDbVertex
100
AcDb3dPolylineVertex
10
376.852147
20
-10.557432
30
16.012339
70
32
0
VERTEX
100
AcDbEntity
8
1
100
AcDbVertex
100
AcDb3dPolylineVertex
10
376.851562
20
-10.578298
30
16.011569
70
32
0
VERTEX
100
AcDbEntity
8
1
100
AcDbVertex
100
AcDb3dPolylineVertex
10
376.850987
20
-10.598765
30
16.007420
70
32
0
VERTEX
100
AcDbEntity
8
1
100
AcDbVertex
100
AcDb3dPolylineVertex
10
376.850437
20
-10.618288
30
16.000000
70
32
0
VERTEX
100
AcDbEntity
8
1
100
AcDbVertex
100
AcDb3dPolylineVertex
10
376.849928
20
-10.636346
30
15.989504
70
32
0
VERTEX
100
AcDbEntity
8
1
100
AcDbVertex
100
AcDb3dPolylineVertex
10
376.849473
20
-10.652456
30
15.976208
70
32
0
VERTEX
100
AcDbEntity
8
1
100
AcDbVertex
100
AcDb3dPolylineVertex
10
376.849084
20
-10.666186
30
15.960464
70
32
0
VERTEX
100
AcDbEntity
8
1
100
AcDbVertex
100
AcDb3dPolylineVertex
10
376.848774
20
-10.677168
30
15.942690
70
32
0
VERTEX
100
AcDbEntity
8
1
100
AcDbVertex
100
AcDb3dPolylineVertex
10
376.848548
20
-10.685107
30
15.923358
70
32
0
VERTEX
100
AcDbEntity
8
1
100
AcDbVertex
100
AcDb3dPolylineVertex
10
376.848416
20
-10.689790
30
15.902983
70
32
0
VERTEX
100
AcDbEntity
8
1
100
AcDbVertex
100
AcDb3dPolylineVertex
10
376.848379
20
-10.691090
30
15.882108
70
32
0
VERTEX
100
AcDbEntity
8
1
100
AcDbVertex
100
AcDb3dPolylineVertex
10
376.848439
20
-10.688973
30
15.861292
70
32
0
VERTEX
100
AcDbEntity
8
1
100
AcDbVertex
100
AcDb3dPolylineVertex
10
376.848594
20
-10.683494
30
15.841092
70
32
0
SEQEND
100
AcDbEntity
8
1
0
POLYLINE
100
AcDbEntity
8
1
62
1
100
AcDb3dPolyline
66
1
10
0.000000
20
0.000000
30
0.000000
70
8
0
VERTEX
100
AcDbEntity
8
1
100
AcDbVertex
100
AcDb3dPolylineVertex
10
376.848594
20
-10.683494
30
15.841092
70
32
0
VERTEX
100
AcDbEntity
8
1
100
AcDbVertex
100
AcDb3dPolylineVertex
10
376.849266
20
-10.659767
30
15.775509
70
32
0
VERTEX
100
AcDbEntity
8
1
100
AcDbVertex
100
AcDb3dPolylineVertex
10
376.850412
20
-10.619185
30
15.663870
70
32
0
VERTEX
100
AcDbEntity
8
1
100
AcDbVertex
100
AcDb3dPolylineVertex
10
376.852028
20
-10.561678
30
15.506808
70
32
0
VERTEX
100
AcDbEntity
8
1
100
AcDbVertex
100
AcDb3dPolylineVertex
10
376.854109
20
-10.487159
30
15.305238
70
32
0
VERTEX
100
AcDbEntity
8
1
100
AcDbVertex
100
AcDb3dPolylineVertex
10
376.856647
20
-10.395561
30
15.060315
70
32
0
VERTEX
100
AcDbEntity
8
1
100
AcDbVertex
100
AcDb3dPolylineVertex
10
376.859633
20
-10.286725
30
14.773493
70
32
0
VERTEX
100
AcDbEntity
8
1
100
AcDbVertex
100
AcDb3dPolylineVertex
10
376.863093
20
-10.159201
30
14.447133
70
32
0
VERTEX
100
AcDbEntity
8
1
100
AcDbVertex
100
AcDb3dPolylineVertex
10
376.867020
20
-10.012444
30
14.083421
70
32
0
VERTEX
100
AcDbEntity
8
1
100
AcDbVertex
100
AcDb3dPolylineVertex
10
376.871346
20
-9.848285
30
13.683567
70
32
0
VERTEX
100
AcDbEntity
8
1
100
AcDbVertex
100
AcDb3dPolylineVertex
10
376.876072
20
-9.665718
30
13.250472
70
32
0
VERTEX
100
AcDbEntity
8
1
100
AcDbVertex
100
AcDb3dPolylineVertex
10
376.881233
20
-9.462371
30
12.788053
70
32
0
VERTEX
100
AcDbEntity
8
1
100
AcDbVertex
100
AcDb3dPolylineVertex
10
376.886711
20
-9.241586
30
12.297407
70
32
0
VERTEX
100
AcDbEntity
8
1
100
AcDbVertex
100
AcDb3dPolylineVertex
10
376.892524
20
-9.001394
30
11.782716
70
32
0
VERTEX
100
AcDbEntity
8
1
100
AcDbVertex
100
AcDb3dPolylineVertex
10
376.898636
20
-8.741752
30
11.247371
70
32
0
VERTEX
100
AcDbEntity
8
1
100
AcDbVertex
100
AcDb3dPolylineVertex
10
376.904942
20
-8.465494
30
10.693302
70
32
0
VERTEX
100
AcDbEntity
8
1
100
AcDbVertex
100
AcDb3dPolylineVertex
10
376.911481
20
-8.169168
30
10.126283
70
32
0
VERTEX
100
AcDbEntity
8
1
100
AcDbVertex
100
AcDb3dPolylineVertex
10
376.918081
20
-7.858764
30
9.546688
70
32
0
VERTEX
100
AcDbEntity
8
1
100
AcDbVertex
100
AcDb3dPolylineVertex
10
376.924812
20
-7.529017
30
8.961820
70
32
0
VERTEX
100
AcDbEntity
8
1
100
AcDbVertex
100
AcDb3dPolylineVertex
10
376.931477
20
-7.187622
30
8.371159
70
32
0
VERTEX
100
AcDbEntity
8
1
100
AcDbVertex
100
AcDb3dPolylineVertex
10
376.938123
20
-6.830183
30
7.781840
70
32
0
VERTEX
100
AcDbEntity
8
1
100
AcDbVertex
100
AcDb3dPolylineVertex
10
376.944585
20
-6.463752
30
7.193752
70
32
0
VERTEX
100
AcDbEntity
8
1
100
AcDbVertex
100
AcDb3dPolylineVertex
10
376.950884
20
-6.085343
30
6.613372
70
32
0
VERTEX
100
AcDbEntity
8
1
100
AcDbVertex
100
AcDb3dPolylineVertex
10
376.956885
20
-5.701454
30
6.040863
70
32
0
VERTEX
100
AcDbEntity
8
1
100
AcDbVertex
100
AcDb3dPolylineVertex
10
376.962594
20
-5.310655
30
5.481748
70
32
0
VERTEX
100
AcDbEntity
8
1
100
AcDbVertex
100
AcDb3dPolylineVertex
10
376.967925
20
-4.917646
30
4.937265
70
32
0
VERTEX
100
AcDbEntity
8
1
100
AcDbVertex
100
AcDb3dPolylineVertex
10
376.972864
20
-4.523273
30
4.411287
70
32
0
VERTEX
100
AcDbEntity
8
1
100
AcDbVertex
100
AcDb3dPolylineVertex
10
376.977405
20
-4.127500
30
3.908325
70
32
0
VERTEX
100
AcDbEntity
8
1
100
AcDbVertex
100
AcDb3dPolylineVertex
10
376.981485
20
-3.736256
30
3.428324
70
32
0
VERTEX
100
AcDbEntity
8
1
100
AcDbVertex
100
AcDb3dPolylineVertex
10
376.985147
20
-3.346452
30
2.977894
70
32
0
VERTEX
100
AcDbEntity
8
1
100
AcDbVertex
100
AcDb3dPolylineVertex
10
376.988328
20
-2.966515
30
2.554640
70
32
0
VERTEX
100
AcDbEntity
8
1
100
AcDbVertex
100
AcDb3dPolylineVertex
10
376.991069
20
-2.594946
30
2.163606
70
32
0
VERTEX
100
AcDbEntity
8
1
100
AcDbVertex
100
AcDb3dPolylineVertex
10
376.993369
20
-2.235997
30
1.805110
70
32
0
VERTEX
100
AcDbEntity
8
1
100
AcDbVertex
100
AcDb3dPolylineVertex
10
376.995239
20
-1.894588
30
1.478569
70
32
0
VERTEX
100
AcDbEntity
8
1
100
AcDbVertex
100
AcDb3dPolylineVertex
10
376.996723
20
-1.571988
30
1.186055
70
32
0
VERTEX
100
AcDbEntity
8
1
100
AcDbVertex
100
AcDb3dPolylineVertex
10
376.997854
20
-1.272182
30
0.927101
70
32
0
VERTEX
100
AcDbEntity
8
1
100
AcDbVertex
100
AcDb3dPolylineVertex
10
376.998675
20
-0.999553
30
0.700533
70
32
0
VERTEX
100
AcDbEntity
8
1
100
AcDbVertex
100
AcDb3dPolylineVertex
10
376.999244
20
-0.755134
30
0.507664
70
32
0
VERTEX
100
AcDbEntity
8
1
100
AcDbVertex
100
AcDb3dPolylineVertex
10
376.999611
20
-0.541318
30
0.348357
70
32
0
VERTEX
100
AcDbEntity
8
1
100
AcDbVertex
100
AcDb3dPolylineVertex
10
376.999825
20
-0.362851
30
0.220103
70
32
0
VERTEX
100
AcDbEntity
8
1
100
AcDbVertex
100
AcDb3dPolylineVertex
10
376.999934
20
-0.222925
30
0.121378
70
32
0
VERTEX
100
AcDbEntity
8
1
100
AcDbVertex
100
AcDb3dPolylineVertex
10
376.999980
20
-0.123138
30
0.051734
70
32
0
VERTEX
100
AcDbEntity
8
1
100
AcDbVertex
100
AcDb3dPolylineVertex
10
376.999994
20
-0.064417
30
0.011044
70
32
0
SEQEND
100
AcDbEntity
8
1
0
POLYLINE
100
AcDbEntity
8
1
62
7
100
AcDb3dPolyline
66
1
10
0.000000
20
0.000000
30
0.000000
70
8
0
VERTEX
100
AcDbEntity
8
1
100
AcDbVertex
100
AcDb3dPolylineVertex
10
326.999999
20
-0.024891
30
1.576615
70
32
0
VERTEX
100
AcDbEntity
8
1
100
AcDbVertex
100
AcDb3dPolylineVertex
10
339.499998
20
-0.033435
30
1.185391
70
32
0
VERTEX
100
AcDbEntity
8
1
100
AcDbVertex
100
AcDb3dPolylineVertex
10
351.999997
20
-0.042889
30
0.794104
70
32
0
VERTEX
100
AcDbEntity
8
1
100
AcDbVertex
100
AcDb3dPolylineVertex
10
364.499996
20
-0.053223
30
0.402678
70
32
0
VERTEX
100
AcDbEntity
8
1
100
AcDbVertex
100
AcDb3dPolylineVertex
10
376.999994
20
-0.064417
30
0.011044
70
32
0
SEQEND
100
AcDbEntity
8
1
0
POLYLINE
100
AcDbEntity
8
1
62
7
100
AcDb3dPolyline
66
1
10
0.000000
20
0.000000
30
0.000000
70
8
0
VERTEX
100
AcDbEntity
8
1
100
AcDbVertex
100
AcDb3dPolylineVertex
10
327.000000
20
-0.005601
30
1.596099
70
32
0
VERTEX
100
AcDbEntity
8
1
100
AcDbVertex
100
AcDb3dPolylineVertex
10
339.500000
20
-0.005855
30
1.212086
70
32
0
VERTEX
100
AcDbEntity
8
1
100
AcDbVertex
100
AcDb3dPolylineVertex
10
352.000000
20
-0.005446
30
0.829000
70
32
0
VERTEX
100
AcDbEntity
8
1
100
AcDbVertex
100
AcDb3dPolylineVertex
10
364.500000
20
-0.004295
30
0.446759
70
32
0
VERTEX
100
AcDbEntity
8
1
100
AcDbVertex
100
AcDb3dPolylineVertex
10
377.000000
20
-0.002341
30
0.065294
70
32
0
SEQEND
100
AcDbEntity
8
1
0
POLYLINE
100
AcDbEntity
8
1
62
7
100
AcDb3dPolyline
66
1
10
0.000000
20
0.000000
30
0.000000
70
8
0
VERTEX
100
AcDbEntity
8
1
100
AcDbVertex
100
AcDb3dPolylineVertex
10
326.874104
20
-9.073052
30
13.405761
70
32
0
VERTEX
100
AcDbEntity
8
1
100
AcDbVertex
100
AcDb3dPolylineVertex
10
339.367808
20
-9.473168
30
14.017849
70
32
0
VERTEX
100
AcDbEntity
8
1
100
AcDbVertex
100
AcDb3dPolylineVertex
10
351.861459
20
-9.874912
30
14.627767
70
32
0
VERTEX
100
AcDbEntity
8
1
100
AcDbVertex
100
AcDb3dPolylineVertex
10
364.355055
20
-10.278335
30
15.235520
70
32
0
VERTEX
100
AcDbEntity
8
1
100
AcDbVertex
100
AcDb3dPolylineVertex
10
376.848594
20
-10.683494
30
15.841092
70
32
0
SEQEND
100
AcDbEntity
8
1
0
POLYLINE
100
AcDbEntity
8
1
62
7
100
AcDb3dPolyline
66
1
10
0.000000
20
0.000000
30
0.000000
70
8
0
VERTEX
100
AcDbEntity
8
1
100
AcDbVertex
100
AcDb3dPolylineVertex
10
326.876401
20
-8.989923
30
13.451242
70
32
0
VERTEX
100
AcDbEntity
8
1
100
AcDbVertex
100
AcDb3dPolylineVertex
10
339.370958
20
-9.359626
30
14.077568
70
32
0
VERTEX
100
AcDbEntity
8
1
100
AcDbVertex
100
AcDb3dPolylineVertex
10
351.865582
20
-9.726880
30
14.702960
70
32
0
VERTEX
100
AcDbEntity
8
1
100
AcDbVertex
100
AcDb3dPolylineVertex
10
364.360273
20
-10.091643
30
15.327452
70
32
0
VERTEX
100
AcDbEntity
8
1
100
AcDbVertex
100
AcDb3dPolylineVertex
10
376.855034
20
-10.453852
30
15.951070
70
32
0
SEQEND
100
AcDbEntity
8
1
0
POLYLINE
100
AcDbEntity
8
1
62
7
100
AcDb3dPolyline
66
1
10
0.000000
20
0.000000
30
0.000000
70
8
0
VERTEX
100
AcDbEntity
8
1
100
AcDbVertex
100
AcDb3dPolylineVertex
10
327.000000
20
0.000000
30
-50.000000
70
32
0
VERTEX
100
AcDbEntity
8
1
100
AcDbVertex
100
AcDb3dPolylineVertex
10
327.000000
20
0.000000
30
0.000000
70
32
0
VERTEX
100
AcDbEntity
8
1
100
AcDbVertex
100
AcDb3dPolylineVertex
10
327.000000
20
0.000000
30
1.571268
70
32
0
VERTEX
100
AcDbEntity
8
1
100
AcDbVertex
100
AcDb3dPolylineVertex
10
327.000000
20
0.000000
30
1.769547
70
32
0
VERTEX
100
AcDbEntity
8
1
100
AcDbVertex
100
AcDb3dPolylineVertex
10
327.000000
20
0.000000
30
1.967826
70
32
0
VERTEX
100
AcDbEntity
8
1
100
AcDbVertex
100
AcDb3dPolylineVertex
10
327.000000
20
0.000000
30
2.166105
70
32
0
VERTEX
100
AcDbEntity
8
1
100
AcDbVertex
100
AcDb3dPolylineVertex
10
327.000000
20
0.000000
30
2.364384
70
32
0
VERTEX
100
AcDbEntity
8
1
100
AcDbVertex
100
AcDb3dPolylineVertex
10
327.000000
20
0.000000
30
2.562663
70
32
0
VERTEX
100
AcDbEntity
8
1
100
AcDbVertex
100
AcDb3dPolylineVertex
10
327.000000
20
0.000000
30
2.760942
70
32
0
VERTEX
100
AcDbEntity
8
1
100
AcDbVertex
100
AcDb3dPolylineVertex
10
327.000000
20
0.000000
30
2.959221
70
32
0
VERTEX
100
AcDbEntity
8
1
100
AcDbVertex
100
AcDb3dPolylineVertex
10
327.000000
20
0.000000
30
3.157500
70
32
0
VERTEX
100
AcDbEntity
8
1
100
AcDbVertex
100
AcDb3dPolylineVertex
10
327.000000
20
0.000000
30
3.355779
70
32
0
VERTEX
100
AcDbEntity
8
1
100
AcDbVertex
100
AcDb3dPolylineVertex
10
327.000000
20
0.000000
30
3.554058
70
32
0
VERTEX
100
AcDbEntity
8
1
100
AcDbVertex
100
AcDb3dPolylineVertex
10
327.000000
20
0.000000
30
3.752337
70
32
0
VERTEX
100
AcDbEntity
8
1
100
AcDbVertex
100
AcDb3dPolylineVertex
10
327.000000
20
0.000000
30
3.950617
70
32
0
VERTEX
100
AcDbEntity
8
1
100
AcDbVertex
100
AcDb3dPolylineVertex
10
327.000000
20
0.000000
30
4.148896
70
32
0
VERTEX
100
AcDbEntity
8
1
100
AcDbVertex
100
AcDb3dPolylineVertex
10
327.000000
20
0.000000
30
4.347175
70
32
0
VERTEX
100
AcDbEntity
8
1
100
AcDbVertex
100
AcDb3dPolylineVertex
10
327.000000
20
0.000000
30
4.545454
70
32
0
VERTEX
100
AcDbEntity
8
1
100
AcDbVertex
100
AcDb3dPolylineVertex
10
327.000000
20
0.000000
30
4.743733
70
32
0
VERTEX
100
AcDbEntity
8
1
100
AcDbVertex
100
AcDb3dPolylineVertex
10
327.000000
20
0.000000
30
4.942012
70
32
0
VERTEX
100
AcDbEntity
8
1
100
AcDbVertex
100
AcDb3dPolylineVertex
10
327.000000
20
0.000000
30
5.140291
70
32
0
VERTEX
100
AcDbEntity
8
1
100
AcDbVertex
100
AcDb3dPolylineVertex
10
327.000000
20
0.000000
30
5.338570
70
32
0
VERTEX
100
AcDbEntity
8
1
100
AcDbVertex
100
AcDb3dPolylineVertex
10
327.000000
20
0.000000
30
5.536849
70
32
0
VERTEX
100
AcDbEntity
8
1
100
AcDbVertex
100
AcDb3dPolylineVertex
10
327.000000
20
0.000000
30
5.735128
70
32
0
VERTEX
100
AcDbEntity
8
1
100
AcDbVertex
100
AcDb3dPolylineVertex
10
327.000000
20
0.000000
30
5.933407
70
32
0
VERTEX
100
AcDbEntity
8
1
100
AcDbVertex
100
AcDb3dPolylineVertex
10
327.000000
20
0.000000
30
6.131686
70
32
0
VERTEX
100
AcDbEntity
8
1
100
AcDbVertex
100
AcDb3dPolylineVertex
10
327.000000
20
0.000000
30
6.329965
70
32
0
VERTEX
100
AcDbEntity
8
1
100
AcDbVertex
100
AcDb3dPolylineVertex
10
327.000000
20
0.000000
30
6.528244
70
32
0
VERTEX
100
AcDbEntity
8
1
100
AcDbVertex
100
AcDb3dPolylineVertex
10
327.000000
20
0.000000
30
6.726523
70
32
0
VERTEX
100
AcDbEntity
8
1
100
AcDbVertex
100
AcDb3dPolylineVertex
10
327.000000
20
0.000000
30
6.924802
70
32
0
VERTEX
100
AcDbEntity
8
1
100
AcDbVertex
100
AcDb3dPolylineVertex
10
327.000000
20
0.000000
30
7.123081
70
32
0
VERTEX
100
AcDbEntity
8
1
100
AcDbVertex
100
AcDb3dPolylineVertex
10
327.000000
20
0.000000
30
7.321360
70
32
0
VERTEX
100
AcDbEntity
8
1
100
AcDbVertex
100
AcDb3dPolylineVertex
10
327.000000
20
0.000000
30
7.519639
70
32
0
VERTEX
100
AcDbEntity
8
1
100
AcDbVertex
100
AcDb3dPolylineVertex
10
327.000000
20
0.000000
30
7.717918
70
32
0
VERTEX
100
AcDbEntity
8
1
100
AcDbVertex
100
AcDb3dPolylineVertex
10
327.000000
20
0.000000
30
7.916197
70
32
0
VERTEX
100
AcDbEntity
8
1
100
AcDbVertex
100
AcDb3dPolylineVertex
10
327.000000
20
0.000000
30
8.114477
70
32
0
VERTEX
100
AcDbEntity
8
1
100
AcDbVertex
100
AcDb3dPolylineVertex
10
327.000000
20
0.000000
30
8.312756
70
32
0
VERTEX
100
AcDbEntity
8
1
100
AcDbVertex
100
AcDb3dPolylineVertex
10
327.000000
20
0.000000
30
8.511035
70
32
0
VERTEX
100
AcDbEntity
8
1
100
AcDbVertex
100
AcDb3dPolylineVertex
10
327.000000
20
0.000000
30
8.709314
70
32
0
VERTEX
100
AcDbEntity
8
1
100
AcDbVertex
100
AcDb3dPolylineVertex
10
327.000000
20
0.000000
30
8.907593
70
32
0
VERTEX
100
AcDbEntity
8
1
100
AcDbVertex
100
AcDb3dPolylineVertex
10
327.000000
20
0.000000
30
9.105872
70
32
0
VERTEX
100
AcDbEntity
8
1
100
AcDbVertex
100
AcDb3dPolylineVertex
10
327.000000
20
0.000000
30
9.304151
70
32
0
VERTEX
100
AcDbEntity
8
1
100
AcDbVertex
100
AcDb3dPolylineVertex
10
327.000000
20
0.000000
30
9.502430
70
32
0
VERTEX
100
AcDbEntity
8
1
100
AcDbVertex
100
AcDb3dPolylineVertex
10
327.000000
20
0.000000
30
9.700709
70
32
0
VERTEX
100
AcDbEntity
8
1
100
AcDbVertex
100
AcDb3dPolylineVertex
10
327.000000
20
0.000000
30
9.898988
70
32
0
VERTEX
100
AcDbEntity
8
1
100
AcDbVertex
100
AcDb3dPolylineVertex
10
327.000000
20
0.000000
30
10.097267
70
32
0
VERTEX
100
AcDbEntity
8
1
100
AcDbVertex
100
AcDb3dPolylineVertex
10
327.000000
20
0.000000
30
10.295546
70
32
0
VERTEX
100
AcDbEntity
8
1
100
AcDbVertex
100
AcDb3dPolylineVertex
10
327.000000
20
0.000000
30
10.493825
70
32
0
VERTEX
100
AcDbEntity
8
1
100
AcDbVertex
100
AcDb3dPolylineVertex
10
327.000000
20
0.000000
30
10.692104
70
32
0
VERTEX
100
AcDbEntity
8
1
100
AcDbVertex
100
AcDb3dPolylineVertex
10
327.000000
20
0.000000
30
10.890383
70
32
0
VERTEX
100
AcDbEntity
8
1
100
AcDbVertex
100
AcDb3dPolylineVertex
10
327.000000
20
0.000000
30
11.088662
70
32
0
VERTEX
100
AcDbEntity
8
1
100
AcDbVertex
100
AcDb3dPolylineVertex
10
327.000000
20
0.000000
30
11.286941
70
32
0
VERTEX
100
AcDbEntity
8
1
100
AcDbVertex
100
AcDb3dPolylineVertex
10
327.000000
20
0.000000
30
11.485220
70
32
0
VERTEX
100
AcDbEntity
8
1
100
AcDbVertex
100
AcDb3dPolylineVertex
10
327.000000
20
0.000000
30
11.683499
70
32
0
VERTEX
100
AcDbEntity
8
1
100
AcDbVertex
100
AcDb3dPolylineVertex
10
327.000000
20
0.000000
30
11.881778
70
32
0
VERTEX
100
AcDbEntity
8
1
100
AcDbVertex
100
AcDb3dPolylineVertex
10
327.000000
20
0.000000
30
12.080057
70
32
0
VERTEX
100
AcDbEntity
8
1
100
AcDbVertex
100
AcDb3dPolylineVertex
10
327.000000
20
0.000000
30
12.278337
70
32
0
VERTEX
100
AcDbEntity
8
1
100
AcDbVertex
100
AcDb3dPolylineVertex
10
327.000000
20
0.000000
30
12.476616
70
32
0
VERTEX
100
AcDbEntity
8
1
100
AcDbVertex
100
AcDb3dPolylineVertex
10
327.000000
20
0.000000
30
12.674895
70
32
0
VERTEX
100
AcDbEntity
8
1
100
AcDbVertex
100
AcDb3dPolylineVertex
10
327.000000
20
0.000000
30
12.873174
70
32
0
VERTEX
100
AcDbEntity
8
1
100
AcDbVertex
100
AcDb3dPolylineVertex
10
327.000000
20
0.000000
30
13.071453
70
32
0
VERTEX
100
AcDbEntity
8
1
100
AcDbVertex
100
AcDb3dPolylineVertex
10
327.000000
20
0.000000
30
13.269732
70
32
0
VERTEX
100
AcDbEntity
8
1
100
AcDbVertex
100
AcDb3dPolylineVertex
10
327.000000
20
0.000000
30
13.468011
70
32
0
VERTEX
100
AcDbEntity
8
1
100
AcDbVertex
100
AcDb3dPolylineVertex
10
327.000000
20
0.000000
30
14.400000
70
32
0
VERTEX
100
AcDbEntity
8
1
100
AcDbVertex
100
AcDb3dPolylineVertex
10
327.000000
20
0.000000
30
16.000000
70
32
0
VERTEX
100
AcDbEntity
8
1
100
AcDbVertex
100
AcDb3dPolylineVertex
10
327.000000
20
0.000000
30
66.000000
70
32
0
SEQEND
100
AcDbEntity
8
1
0
POLYLINE
100
AcDbEntity
8
1
62
7
100
AcDb3dPolyline
66
1
10
0.000000
20
0.000000
30
0.000000
70
8
0
VERTEX
100
AcDbEntity
8
1
100
AcDbVertex
100
AcDb3dPolylineVertex
10
377.000000
20
0.000000
30
-50.000000
70
32
0
VERTEX
100
AcDbEntity
8
1
100
AcDbVertex
100
AcDb3dPolylineVertex
10
377.000000
20
0.000000
30
0.000000
70
32
0
VERTEX
100
AcDbEntity
8
1
100
AcDbVertex
100
AcDb3dPolylineVertex
10
377.000000
20
0.000000
30
0.266667
70
32
0
VERTEX
100
AcDbEntity
8
1
100
AcDbVertex
100
AcDb3dPolylineVertex
10
377.000000
20
0.000000
30
0.533333
70
32
0
VERTEX
100
AcDbEntity
8
1
100
AcDbVertex
100
AcDb3dPolylineVertex
10
377.000000
20
0.000000
30
0.800000
70
32
0
VERTEX
100
AcDbEntity
8
1
100
AcDbVertex
100
AcDb3dPolylineVertex
10
377.000000
20
0.000000
30
1.066667
70
32
0
VERTEX
100
AcDbEntity
8
1
100
AcDbVertex
100
AcDb3dPolylineVertex
10
377.000000
20
0.000000
30
1.333333
70
32
0
VERTEX
100
AcDbEntity
8
1
100
AcDbVertex
100
AcDb3dPolylineVertex
10
377.000000
20
0.000000
30
1.600000
70
32
0
VERTEX
100
AcDbEntity
8
1
100
AcDbVertex
100
AcDb3dPolylineVertex
10
377.000000
20
0.000000
30
1.866667
70
32
0
VERTEX
100
AcDbEntity
8
1
100
AcDbVertex
100
AcDb3dPolylineVertex
10
377.000000
20
0.000000
30
2.133333
70
32
0
VERTEX
100
AcDbEntity
8
1
100
AcDbVertex
100
AcDb3dPolylineVertex
10
377.000000
20
0.000000
30
2.400000
70
32
0
VERTEX
100
AcDbEntity
8
1
100
AcDbVertex
100
AcDb3dPolylineVertex
10
377.000000
20
0.000000
30
2.666667
70
32
0
VERTEX
100
AcDbEntity
8
1
100
AcDbVertex
100
AcDb3dPolylineVertex
10
377.000000
20
0.000000
30
2.933333
70
32
0
VERTEX
100
AcDbEntity
8
1
100
AcDbVertex
100
AcDb3dPolylineVertex
10
377.000000
20
0.000000
30
3.200000
70
32
0
VERTEX
100
AcDbEntity
8
1
100
AcDbVertex
100
AcDb3dPolylineVertex
10
377.000000
20
0.000000
30
3.466667
70
32
0
VERTEX
100
AcDbEntity
8
1
100
AcDbVertex
100
AcDb3dPolylineVertex
10
377.000000
20
0.000000
30
3.733333
70
32
0
VERTEX
100
AcDbEntity
8
1
100
AcDbVertex
100
AcDb3dPolylineVertex
10
377.000000
20
0.000000
30
4.000000
70
32
0
VERTEX
100
AcDbEntity
8
1
100
AcDbVertex
100
AcDb3dPolylineVertex
10
377.000000
20
0.000000
30
4.266667
70
32
0
VERTEX
100
AcDbEntity
8
1
100
AcDbVertex
100
AcDb3dPolylineVertex
10
377.000000
20
0.000000
30
4.533333
70
32
0
VERTEX
100
AcDbEntity
8
1
100
AcDbVertex
100
AcDb3dPolylineVertex
10
377.000000
20
0.000000
30
4.800000
70
32
0
VERTEX
100
AcDbEntity
8
1
100
AcDbVertex
100
AcDb3dPolylineVertex
10
377.000000
20
0.000000
30
5.066667
70
32
0
VERTEX
100
AcDbEntity
8
1
100
AcDbVertex
100
AcDb3dPolylineVertex
10
377.000000
20
0.000000
30
5.333333
70
32
0
VERTEX
100
AcDbEntity
8
1
100
AcDbVertex
100
AcDb3dPolylineVertex
10
377.000000
20
0.000000
30
5.600000
70
32
0
VERTEX
100
AcDbEntity
8
1
100
AcDbVertex
100
AcDb3dPolylineVertex
10
377.000000
20
0.000000
30
5.866667
70
32
0
VERTEX
100
AcDbEntity
8
1
100
AcDbVertex
100
AcDb3dPolylineVertex
10
377.000000
20
0.000000
30
6.133333
70
32
0
VERTEX
100
AcDbEntity
8
1
100
AcDbVertex
100
AcDb3dPolylineVertex
10
377.000000
20
0.000000
30
6.400000
70
32
0
VERTEX
100
AcDbEntity
8
1
100
AcDbVertex
100
AcDb3dPolylineVertex
10
377.000000
20
0.000000
30
6.666667
70
32
0
VERTEX
100
AcDbEntity
8
1
100
AcDbVertex
100
AcDb3dPolylineVertex
10
377.000000
20
0.000000
30
6.933333
70
32
0
VERTEX
100
AcDbEntity
8
1
100
AcDbVertex
100
AcDb3dPolylineVertex
10
377.000000
20
0.000000
30
7.200000
70
32
0
VERTEX
100
AcDbEntity
8
1
100
AcDbVertex
100
AcDb3dPolylineVertex
10
377.000000
20
0.000000
30
7.466667
70
32
0
VERTEX
100
AcDbEntity
8
1
100
AcDbVertex
100
AcDb3dPolylineVertex
10
377.000000
20
0.000000
30
7.733333
70
32
0
VERTEX
100
AcDbEntity
8
1
100
AcDbVertex
100
AcDb3dPolylineVertex
10
377.000000
20
0.000000
30
8.000000
70
32
0
VERTEX
100
AcDbEntity
8
1
100
AcDbVertex
100
AcDb3dPolylineVertex
10
377.000000
20
0.000000
30
8.266667
70
32
0
VERTEX
100
AcDbEntity
8
1
100
AcDbVertex
100
AcDb3dPolylineVertex
10
377.000000
20
0.000000
30
8.533333
70
32
0
VERTEX
100
AcDbEntity
8
1
100
AcDbVertex
100
AcDb3dPolylineVertex
10
377.000000
20
0.000000
30
8.800000
70
32
0
VERTEX
100
AcDbEntity
8
1
100
AcDbVertex
100
AcDb3dPolylineVertex
10
377.000000
20
0.000000
30
9.066667
70
32
0
VERTEX
100
AcDbEntity
8
1
100
AcDbVertex
100
AcDb3dPolylineVertex
10
377.000000
20
0.000000
30
9.333333
70
32
0
VERTEX
100
AcDbEntity
8
1
100
AcDbVertex
100
AcDb3dPolylineVertex
10
377.000000
20
0.000000
30
9.600000
70
32
0
VERTEX
100
AcDbEntity
8
1
100
AcDbVertex
100
AcDb3dPolylineVertex
10
377.000000
20
0.000000
30
9.866667
70
32
0
VERTEX
100
AcDbEntity
8
1
100
AcDbVertex
100
AcDb3dPolylineVertex
10
377.000000
20
0.000000
30
10.133333
70
32
0
VERTEX
100
AcDbEntity
8
1
100
AcDbVertex
100
AcDb3dPolylineVertex
10
377.000000
20
0.000000
30
10.400000
70
32
0
VERTEX
100
AcDbEntity
8
1
100
AcDbVertex
100
AcDb3dPolylineVertex
10
377.000000
20
0.000000
30
10.666667
70
32
0
VERTEX
100
AcDbEntity
8
1
100
AcDbVertex
100
AcDb3dPolylineVertex
10
377.000000
20
0.000000
30
10.933333
70
32
0
VERTEX
100
AcDbEntity
8
1
100
AcDbVertex
100
AcDb3dPolylineVertex
10
377.000000
20
0.000000
30
11.200000
70
32
0
VERTEX
100
AcDbEntity
8
1
100
AcDbVertex
100
AcDb3dPolylineVertex
10
377.000000
20
0.000000
30
11.466667
70
32
0
VERTEX
100
AcDbEntity
8
1
100
AcDbVertex
100
AcDb3dPolylineVertex
10
377.000000
20
0.000000
30
11.733333
70
32
0
VERTEX
100
AcDbEntity
8
1
100
AcDbVertex
100
AcDb3dPolylineVertex
10
377.000000
20
0.000000
30
12.000000
70
32
0
VERTEX
100
AcDbEntity
8
1
100
AcDbVertex
100
AcDb3dPolylineVertex
10
377.000000
20
0.000000
30
12.266667
70
32
0
VERTEX
100
AcDbEntity
8
1
100
AcDbVertex
100
AcDb3dPolylineVertex
10
377.000000
20
0.000000
30
12.533333
70
32
0
VERTEX
100
AcDbEntity
8
1
100
AcDbVertex
100
AcDb3dPolylineVertex
10
377.000000
20
0.000000
30
12.800000
70
32
0
VERTEX
100
AcDbEntity
8
1
100
AcDbVertex
100
AcDb3dPolylineVertex
10
377.000000
20
0.000000
30
13.066667
70
32
0
VERTEX
100
AcDbEntity
8
1
100
AcDbVertex
100
AcDb3dPolylineVertex
10
377.000000
20
0.000000
30
13.333333
70
32
0
VERTEX
100
AcDbEntity
8
1
100
AcDbVertex
100
AcDb3dPolylineVertex
10
377.000000
20
0.000000
30
13.600000
70
32
0
VERTEX
100
AcDbEntity
8
1
100
AcDbVertex
100
AcDb3dPolylineVertex
10
377.000000
20
0.000000
30
13.866667
70
32
0
VERTEX
100
AcDbEntity
8
1
100
AcDbVertex
100
AcDb3dPolylineVertex
10
377.000000
20
0.000000
30
14.133333
70
32
0
VERTEX
100
AcDbEntity
8
1
100
AcDbVertex
100
AcDb3dPolylineVertex
10
377.000000
20
0.000000
30
14.400000
70
32
0
VERTEX
100
AcDbEntity
8
1
100
AcDbVertex
100
AcDb3dPolylineVertex
10
377.000000
20
0.000000
30
14.666667
70
32
0
VERTEX
100
AcDbEntity
8
1
100
AcDbVertex
100
AcDb3dPolylineVertex
10
377.000000
20
0.000000
30
14.933333
70
32
0
VERTEX
100
AcDbEntity
8
1
100
AcDbVertex
100
AcDb3dPolylineVertex
10
377.000000
20
0.000000
30
15.200000
70
32
0
VERTEX
100
AcDbEntity
8
1
100
AcDbVertex
100
AcDb3dPolylineVertex
10
377.000000
20
0.000000
30
15.466667
70
32
0
VERTEX
100
AcDbEntity
8
1
100
AcDbVertex
100
AcDb3dPolylineVertex
10
377.000000
20
0.000000
30
15.733333
70
32
0
VERTEX
100
AcDbEntity
8
1
100
AcDbVertex
100
AcDb3dPolylineVertex
10
377.000000
20
0.000000
30
16.000000
70
32
0
VERTEX
100
AcDbEntity
8
1
100
AcDbVertex
100
AcDb3dPolylineVertex
10
377.000000
20
0.000000
30
66.000000
70
32
0
SEQEND
100
AcDbEntity
8
1
0
ENDSEC
0
EOF

